%TF.GenerationSoftware,KiCad,Pcbnew,(5.1.9)-1*%
%TF.CreationDate,2021-04-30T09:58:52+02:00*%
%TF.ProjectId,Smiley2,536d696c-6579-4322-9e6b-696361645f70,rev?*%
%TF.SameCoordinates,Original*%
%TF.FileFunction,Copper,L2,Bot*%
%TF.FilePolarity,Positive*%
%FSLAX46Y46*%
G04 Gerber Fmt 4.6, Leading zero omitted, Abs format (unit mm)*
G04 Created by KiCad (PCBNEW (5.1.9)-1) date 2021-04-30 09:58:52*
%MOMM*%
%LPD*%
G01*
G04 APERTURE LIST*
%TA.AperFunction,SMDPad,CuDef*%
%ADD10C,11.000000*%
%TD*%
%TA.AperFunction,ComponentPad*%
%ADD11R,1.200000X1.200000*%
%TD*%
%TA.AperFunction,ComponentPad*%
%ADD12C,1.200000*%
%TD*%
%TA.AperFunction,ComponentPad*%
%ADD13R,1.800000X1.800000*%
%TD*%
%TA.AperFunction,ComponentPad*%
%ADD14C,1.800000*%
%TD*%
%TA.AperFunction,ComponentPad*%
%ADD15O,1.600000X1.600000*%
%TD*%
%TA.AperFunction,ComponentPad*%
%ADD16C,1.600000*%
%TD*%
%TA.AperFunction,ComponentPad*%
%ADD17C,2.000000*%
%TD*%
%TA.AperFunction,ComponentPad*%
%ADD18C,3.000000*%
%TD*%
%TA.AperFunction,ComponentPad*%
%ADD19R,3.000000X3.000000*%
%TD*%
%TA.AperFunction,ComponentPad*%
%ADD20R,1.600000X1.600000*%
%TD*%
%TA.AperFunction,ComponentPad*%
%ADD21R,2.000000X2.000000*%
%TD*%
%TA.AperFunction,ComponentPad*%
%ADD22C,1.524000*%
%TD*%
%TA.AperFunction,ViaPad*%
%ADD23C,0.600000*%
%TD*%
%TA.AperFunction,Conductor*%
%ADD24C,0.250000*%
%TD*%
G04 APERTURE END LIST*
D10*
%TO.P,LP,1*%
%TO.N,N/C*%
X170000Y39940000D03*
%TD*%
D11*
%TO.P,C1,1*%
%TO.N,Net-(C1-Pad1)*%
X34372000Y1808500D03*
D12*
%TO.P,C1,2*%
%TO.N,Net-(C1-Pad2)*%
X32372000Y1808500D03*
%TD*%
D11*
%TO.P,C2,1*%
%TO.N,Net-(C2-Pad1)*%
X-9570000Y94000D03*
D12*
%TO.P,C2,2*%
%TO.N,Net-(C1-Pad2)*%
X-7570000Y94000D03*
%TD*%
%TO.P,C3,2*%
%TO.N,Net-(C1-Pad2)*%
X-27480000Y26300000D03*
D11*
%TO.P,C3,1*%
%TO.N,Net-(C3-Pad1)*%
X-25480000Y26300000D03*
%TD*%
D13*
%TO.P,D1,1*%
%TO.N,Net-(D1-Pad1)*%
X-850000Y-32820000D03*
D14*
%TO.P,D1,2*%
%TO.N,Net-(D1-Pad2)*%
X1690000Y-32820000D03*
%TD*%
%TO.P,D2,2*%
%TO.N,Net-(D2-Pad2)*%
X9180000Y-31870000D03*
D13*
%TO.P,D2,1*%
%TO.N,Net-(D2-Pad1)*%
X6640000Y-31870000D03*
%TD*%
D14*
%TO.P,D3,2*%
%TO.N,Net-(D3-Pad2)*%
X15770000Y-29610000D03*
D13*
%TO.P,D3,1*%
%TO.N,Net-(D2-Pad1)*%
X13230000Y-29610000D03*
%TD*%
D14*
%TO.P,D4,2*%
%TO.N,Net-(D4-Pad2)*%
X21500000Y-25960000D03*
D13*
%TO.P,D4,1*%
%TO.N,Net-(D2-Pad1)*%
X18960000Y-25960000D03*
%TD*%
%TO.P,D5,1*%
%TO.N,Net-(D2-Pad1)*%
X23740000Y-21080000D03*
D14*
%TO.P,D5,2*%
%TO.N,Net-(D5-Pad2)*%
X26280000Y-21080000D03*
%TD*%
D13*
%TO.P,D6,1*%
%TO.N,Net-(D2-Pad1)*%
X27768000Y-15273000D03*
D14*
%TO.P,D6,2*%
%TO.N,Net-(D6-Pad2)*%
X30308000Y-15273000D03*
%TD*%
%TO.P,D7,2*%
%TO.N,Net-(D7-Pad2)*%
X33590000Y-9304000D03*
D13*
%TO.P,D7,1*%
%TO.N,Net-(D2-Pad1)*%
X31050000Y-9304000D03*
%TD*%
D14*
%TO.P,D8,2*%
%TO.N,Net-(D8-Pad2)*%
X19513000Y14445000D03*
D13*
%TO.P,D8,1*%
%TO.N,Net-(D8-Pad1)*%
X16973000Y14445000D03*
%TD*%
%TO.P,D22,1*%
%TO.N,Net-(D2-Pad1)*%
X-8430000Y-31870000D03*
D14*
%TO.P,D22,2*%
%TO.N,Net-(D2-Pad2)*%
X-5890000Y-31870000D03*
%TD*%
D13*
%TO.P,D33,1*%
%TO.N,Net-(D2-Pad1)*%
X-15070000Y-29570000D03*
D14*
%TO.P,D33,2*%
%TO.N,Net-(D3-Pad2)*%
X-12530000Y-29570000D03*
%TD*%
D13*
%TO.P,D44,1*%
%TO.N,Net-(D2-Pad1)*%
X-20760000Y-25910000D03*
D14*
%TO.P,D44,2*%
%TO.N,Net-(D4-Pad2)*%
X-18220000Y-25910000D03*
%TD*%
%TO.P,D55,2*%
%TO.N,Net-(D5-Pad2)*%
X-22910000Y-21080000D03*
D13*
%TO.P,D55,1*%
%TO.N,Net-(D2-Pad1)*%
X-25450000Y-21080000D03*
%TD*%
D14*
%TO.P,D66,2*%
%TO.N,Net-(D6-Pad2)*%
X-26970000Y-15170000D03*
D13*
%TO.P,D66,1*%
%TO.N,Net-(D2-Pad1)*%
X-29510000Y-15170000D03*
%TD*%
%TO.P,D77,1*%
%TO.N,Net-(D2-Pad1)*%
X-32900000Y-9350000D03*
D14*
%TO.P,D77,2*%
%TO.N,Net-(D7-Pad2)*%
X-30360000Y-9350000D03*
%TD*%
D13*
%TO.P,D88,1*%
%TO.N,Net-(D8-Pad1)*%
X-12560000Y14180000D03*
D14*
%TO.P,D88,2*%
%TO.N,Net-(D8-Pad2)*%
X-10020000Y14180000D03*
%TD*%
D15*
%TO.P,R1,2*%
%TO.N,Net-(P1-Pad1)*%
X28784000Y27780000D03*
D16*
%TO.P,R1,1*%
%TO.N,Net-(C3-Pad1)*%
X28784000Y20160000D03*
%TD*%
D15*
%TO.P,R2,2*%
%TO.N,Net-(C1-Pad2)*%
X-4200000Y5840000D03*
D16*
%TO.P,R2,1*%
%TO.N,Net-(D8-Pad1)*%
X-4200000Y13460000D03*
%TD*%
%TO.P,R3,1*%
%TO.N,Net-(D2-Pad1)*%
X3511000Y5872500D03*
D15*
%TO.P,R3,2*%
%TO.N,Net-(C1-Pad2)*%
X3511000Y13492500D03*
%TD*%
D16*
%TO.P,R4,1*%
%TO.N,Net-(R4-Pad1)*%
X-299000Y5872500D03*
D15*
%TO.P,R4,2*%
%TO.N,Net-(C1-Pad2)*%
X-299000Y13492500D03*
%TD*%
D17*
%TO.P,S1,1*%
%TO.N,Net-(S1-Pad1)*%
X34880000Y-21980000D03*
%TO.P,S1,2*%
%TO.N,Net-(C3-Pad1)*%
X34880000Y-19440000D03*
%TO.P,S1,3*%
%TO.N,Net-(S1-Pad3)*%
X34880000Y-16900000D03*
%TD*%
D18*
%TO.P,U1,2*%
%TO.N,Net-(C1-Pad2)*%
X10920000Y-11590000D03*
D19*
%TO.P,U1,1*%
%TO.N,Net-(S1-Pad3)*%
X-9570000Y-11590000D03*
%TD*%
D20*
%TO.P,U2,1*%
%TO.N,Net-(C1-Pad2)*%
X28657000Y7841000D03*
D15*
%TO.P,U2,5*%
%TO.N,Net-(C2-Pad1)*%
X36277000Y15461000D03*
%TO.P,U2,2*%
%TO.N,Net-(C1-Pad1)*%
X28657000Y10381000D03*
%TO.P,U2,6*%
X36277000Y12921000D03*
%TO.P,U2,3*%
%TO.N,Net-(U2-Pad3)*%
X28657000Y12921000D03*
%TO.P,U2,7*%
%TO.N,Net-(P1-Pad1)*%
X36277000Y10381000D03*
%TO.P,U2,4*%
%TO.N,Net-(C3-Pad1)*%
X28657000Y15461000D03*
%TO.P,U2,8*%
X36277000Y7841000D03*
%TD*%
D20*
%TO.P,U3,1*%
%TO.N,Net-(D6-Pad2)*%
X-29128000Y19398000D03*
D15*
%TO.P,U3,9*%
%TO.N,Net-(U3-Pad9)*%
X-36748000Y1618000D03*
%TO.P,U3,2*%
%TO.N,Net-(D2-Pad2)*%
X-29128000Y16858000D03*
%TO.P,U3,10*%
%TO.N,Net-(D5-Pad2)*%
X-36748000Y4158000D03*
%TO.P,U3,3*%
%TO.N,Net-(D1-Pad2)*%
X-29128000Y14318000D03*
%TO.P,U3,11*%
%TO.N,Net-(U3-Pad11)*%
X-36748000Y6698000D03*
%TO.P,U3,4*%
%TO.N,Net-(D3-Pad2)*%
X-29128000Y11778000D03*
%TO.P,U3,12*%
%TO.N,Net-(U3-Pad12)*%
X-36748000Y9238000D03*
%TO.P,U3,5*%
%TO.N,Net-(D7-Pad2)*%
X-29128000Y9238000D03*
%TO.P,U3,13*%
%TO.N,Net-(C1-Pad2)*%
X-36748000Y11778000D03*
%TO.P,U3,6*%
%TO.N,Net-(U3-Pad6)*%
X-29128000Y6698000D03*
%TO.P,U3,14*%
%TO.N,Net-(U2-Pad3)*%
X-36748000Y14318000D03*
%TO.P,U3,7*%
%TO.N,Net-(D4-Pad2)*%
X-29128000Y4158000D03*
%TO.P,U3,15*%
%TO.N,Net-(C1-Pad2)*%
X-36748000Y16858000D03*
%TO.P,U3,8*%
X-29128000Y1618000D03*
%TO.P,U3,16*%
%TO.N,Net-(C3-Pad1)*%
X-36748000Y19398000D03*
%TD*%
D21*
%TO.P,U4,1*%
%TO.N,Net-(U3-Pad6)*%
X19640000Y3650000D03*
%TD*%
%TO.P,U5,1*%
%TO.N,Net-(U2-Pad3)*%
X27260000Y3650000D03*
%TD*%
%TO.P,U6,1*%
%TO.N,Net-(D8-Pad2)*%
X23450000Y3650000D03*
%TD*%
%TO.P,U7,1*%
%TO.N,Net-(D1-Pad1)*%
X-6600000Y-26400000D03*
%TD*%
%TO.P,U8,1*%
%TO.N,Net-(D2-Pad1)*%
X-10040000Y-26350000D03*
%TD*%
%TO.P,U9,1*%
%TO.N,Net-(R4-Pad1)*%
X-3170000Y-26290000D03*
%TD*%
D22*
%TO.P,P1,1*%
%TO.N,Net-(P1-Pad1)*%
X41710000Y2660000D03*
%TO.P,P1,2*%
%TO.N,Net-(C1-Pad1)*%
X39170000Y2660000D03*
%TO.P,P1,3*%
%TO.N,Net-(P1-Pad1)*%
X40440000Y120000D03*
%TD*%
D23*
%TO.N,Net-(D1-Pad2)*%
X-14770000Y-3260000D03*
%TO.N,Net-(D3-Pad2)*%
X-23200000Y-2810000D03*
%TO.N,Net-(D6-Pad2)*%
X-30100000Y-21330000D03*
%TO.N,Net-(R4-Pad1)*%
X-340000Y-5420000D03*
%TO.N,Net-(S1-Pad3)*%
X3650000Y-17420000D03*
%TD*%
D24*
%TO.N,Net-(C1-Pad1)*%
X33737000Y10381000D02*
X36277000Y12921000D01*
X28657000Y10381000D02*
X33737000Y10381000D01*
X33737000Y2443500D02*
X34372000Y1808500D01*
X33737000Y10381000D02*
X33737000Y2443500D01*
X38318500Y1808500D02*
X39170000Y2660000D01*
X34372000Y1808500D02*
X38318500Y1808500D01*
%TO.N,Net-(C1-Pad2)*%
X32372000Y4126000D02*
X28657000Y7841000D01*
X32372000Y1808500D02*
X32372000Y4126000D01*
X-299000Y13492500D02*
X3511000Y13492500D01*
X-299000Y13492500D02*
X-2860000Y10931500D01*
X-2860000Y7180000D02*
X-4200000Y5840000D01*
X-2860000Y10931500D02*
X-2860000Y7180000D01*
X-27480000Y26126000D02*
X-27480000Y26300000D01*
X-36748000Y16858000D02*
X-27480000Y26126000D01*
X-36748000Y16858000D02*
X-38016000Y15590000D01*
X-38016000Y15590000D02*
X-38070000Y15590000D01*
X-38070000Y15590000D02*
X-39450000Y14210000D01*
X-39450000Y14210000D02*
X-39450000Y12470000D01*
X-38758000Y11778000D02*
X-36748000Y11778000D01*
X-39450000Y12470000D02*
X-38758000Y11778000D01*
X-4200000Y3464000D02*
X-7570000Y94000D01*
X-4200000Y5840000D02*
X-4200000Y3464000D01*
X-4134000Y3464000D02*
X10920000Y-11590000D01*
X-4200000Y3464000D02*
X-4134000Y3464000D01*
X10920000Y-11590000D02*
X13590000Y-11590000D01*
X13590000Y-11590000D02*
X24340000Y-840000D01*
X29723500Y-840000D02*
X32372000Y1808500D01*
X24340000Y-840000D02*
X29723500Y-840000D01*
X-7570000Y94000D02*
X-9104000Y-1440000D01*
X-9104000Y-1440000D02*
X-26430000Y-1440000D01*
X-29128000Y1258000D02*
X-29128000Y1618000D01*
X-26430000Y-1440000D02*
X-29128000Y1258000D01*
%TO.N,Net-(C3-Pad1)*%
X28657000Y20033000D02*
X28784000Y20160000D01*
X28657000Y15461000D02*
X28657000Y20033000D01*
X28784000Y20160000D02*
X24220000Y20160000D01*
X18080000Y26300000D02*
X-25480000Y26300000D01*
X24220000Y20160000D02*
X18080000Y26300000D01*
X-25480000Y26300000D02*
X-25480000Y27390000D01*
X-25480000Y27390000D02*
X-33660000Y27390000D01*
X-36748000Y24302000D02*
X-36748000Y19398000D01*
X-33660000Y27390000D02*
X-36748000Y24302000D01*
%TO.N,Net-(D1-Pad1)*%
X-3530000Y-35500000D02*
X-850000Y-32820000D01*
X-3860000Y-35830000D02*
X-3530000Y-35500000D01*
X-850000Y-32150000D02*
X-6600000Y-26400000D01*
X-850000Y-32820000D02*
X-850000Y-32150000D01*
%TO.N,Net-(D1-Pad2)*%
X1690000Y-32820000D02*
X1690000Y-28220000D01*
X-14770000Y-11760000D02*
X-14770000Y-3260000D01*
X1690000Y-28220000D02*
X-14770000Y-11760000D01*
%TO.N,Net-(D2-Pad1)*%
X-11600000Y-35040000D02*
X-8430000Y-31870000D01*
X-15070000Y-31570000D02*
X-11600000Y-35040000D01*
X-15070000Y-29570000D02*
X-15070000Y-31570000D01*
X-17100000Y-29570000D02*
X-20760000Y-25910000D01*
X-15070000Y-29570000D02*
X-17100000Y-29570000D01*
X-20760000Y-25910000D02*
X-23680000Y-25910000D01*
X-25450000Y-24140000D02*
X-25450000Y-21080000D01*
X-23680000Y-25910000D02*
X-25450000Y-24140000D01*
X-25450000Y-21080000D02*
X-27170000Y-21080000D01*
X-29510000Y-18740000D02*
X-29510000Y-15170000D01*
X-27170000Y-21080000D02*
X-29510000Y-18740000D01*
X-29510000Y-15170000D02*
X-31730000Y-15170000D01*
X-32900000Y-14000000D02*
X-32900000Y-9350000D01*
X-31730000Y-15170000D02*
X-32900000Y-14000000D01*
X31050000Y-9304000D02*
X31050000Y-9360000D01*
X27768000Y-12642000D02*
X27768000Y-15273000D01*
X31050000Y-9360000D02*
X27768000Y-12642000D01*
X27768000Y-15273000D02*
X25997000Y-15273000D01*
X23740000Y-17530000D02*
X23740000Y-21080000D01*
X25997000Y-15273000D02*
X23740000Y-17530000D01*
X23740000Y-21080000D02*
X20760000Y-21080000D01*
X18960000Y-22880000D02*
X18960000Y-25960000D01*
X20760000Y-21080000D02*
X18960000Y-22880000D01*
X18960000Y-25960000D02*
X15960000Y-25960000D01*
X13230000Y-28690000D02*
X13230000Y-29610000D01*
X15960000Y-25960000D02*
X13230000Y-28690000D01*
X13230000Y-29610000D02*
X9530000Y-29610000D01*
X9530000Y-29610000D02*
X9490000Y-29570000D01*
X8940000Y-29570000D02*
X6640000Y-31870000D01*
X9490000Y-29570000D02*
X8940000Y-29570000D01*
X-8430000Y-27960000D02*
X-10040000Y-26350000D01*
X-8430000Y-31870000D02*
X-8430000Y-27960000D01*
%TO.N,Net-(D3-Pad2)*%
X-12530000Y-29570000D02*
X-12530000Y-20260000D01*
X-12530000Y-20260000D02*
X-23050000Y-9740000D01*
X-23050000Y-2960000D02*
X-23200000Y-2810000D01*
X-23050000Y-9740000D02*
X-23050000Y-2960000D01*
%TO.N,Net-(D4-Pad2)*%
X-29128000Y4158000D02*
X-30472000Y4158000D01*
X-30472000Y4158000D02*
X-30472000Y-2688000D01*
X-30472000Y-2688000D02*
X-24470000Y-8690000D01*
X-24470000Y-8690000D02*
X-24470000Y-13380000D01*
X-18220000Y-19630000D02*
X-18220000Y-25910000D01*
X-24470000Y-13380000D02*
X-18220000Y-19630000D01*
%TO.N,Net-(D6-Pad2)*%
X-29128000Y19398000D02*
X-29582000Y19398000D01*
X-29582000Y18831590D02*
X-32270000Y16143590D01*
X-29582000Y19398000D02*
X-29582000Y18831590D01*
X-32270000Y16143590D02*
X-32270000Y7080000D01*
X-34125001Y-17304999D02*
X-30100000Y-21330000D01*
X-34125001Y5224999D02*
X-34125001Y-17304999D01*
X-32270000Y7080000D02*
X-34125001Y5224999D01*
%TO.N,Net-(D7-Pad2)*%
X-29128000Y9238000D02*
X-32290000Y6076000D01*
X-32290000Y6076000D02*
X-32290000Y-5210000D01*
X-30360000Y-7140000D02*
X-30360000Y-9350000D01*
X-32290000Y-5210000D02*
X-30360000Y-7140000D01*
%TO.N,Net-(D8-Pad2)*%
X19513000Y14445000D02*
X22465000Y14445000D01*
X23450000Y13460000D02*
X23450000Y3650000D01*
X22465000Y14445000D02*
X23450000Y13460000D01*
X19513000Y14445000D02*
X17108000Y16850000D01*
X-6280000Y16850000D02*
X-8550000Y16850000D01*
X17108000Y16850000D02*
X-6280000Y16850000D01*
X-6280000Y16850000D02*
X-7030000Y16850000D01*
X-10020000Y15380000D02*
X-10020000Y14180000D01*
X-8550000Y16850000D02*
X-10020000Y15380000D01*
%TO.N,Net-(D8-Pad1)*%
X16973000Y14445000D02*
X11305000Y14445000D01*
X11305000Y14445000D02*
X10440000Y15310000D01*
X-2350000Y15310000D02*
X-4200000Y13460000D01*
X10440000Y15310000D02*
X-2350000Y15310000D01*
X-4200000Y13460000D02*
X-5820000Y11840000D01*
X-10220000Y11840000D02*
X-12560000Y14180000D01*
X-5820000Y11840000D02*
X-9280000Y11840000D01*
X-9280000Y11840000D02*
X-10220000Y11840000D01*
X-9280000Y11840000D02*
X-9670000Y11840000D01*
%TO.N,Net-(R4-Pad1)*%
X-3170000Y-26290000D02*
X-3170000Y-25260000D01*
X-3170000Y-25260000D02*
X-17340000Y-11090000D01*
X-17340000Y-4904998D02*
X-17260000Y-4824998D01*
X-17340000Y-11090000D02*
X-17340000Y-4904998D01*
X-17260000Y-4824998D02*
X-17260000Y-3920000D01*
X-17260000Y-3920000D02*
X-15700000Y-2360000D01*
X-3400000Y-2360000D02*
X-340000Y-5420000D01*
X-15700000Y-2360000D02*
X-3400000Y-2360000D01*
%TO.N,Net-(S1-Pad3)*%
X-2180000Y-11590000D02*
X3650000Y-17420000D01*
X-2180000Y-11590000D02*
X-9570000Y-11590000D01*
X3650000Y-17420000D02*
X3650000Y-17420000D01*
%TO.N,Net-(U2-Pad3)*%
X27260000Y3650000D02*
X27260000Y4980000D01*
X27260000Y4980000D02*
X26220000Y6020000D01*
X26220000Y10484000D02*
X28657000Y12921000D01*
X26220000Y6020000D02*
X26220000Y10484000D01*
X28657000Y12921000D02*
X22338000Y19240000D01*
X22338000Y19240000D02*
X-13470000Y19240000D01*
X-13470000Y19240000D02*
X-16750000Y22520000D01*
X-16750000Y22520000D02*
X-29540000Y22520000D01*
X-29540000Y22520000D02*
X-33370000Y18690000D01*
X-33370000Y18690000D02*
X-33370000Y15680000D01*
X-34732000Y14318000D02*
X-36748000Y14318000D01*
X-33370000Y15680000D02*
X-34732000Y14318000D01*
%TO.N,Net-(P1-Pad1)*%
X40440000Y1390000D02*
X41710000Y2660000D01*
X40440000Y120000D02*
X40440000Y1390000D01*
X41710000Y2660000D02*
X41710000Y7500000D01*
X41710000Y7500000D02*
X38829000Y10381000D01*
X38311000Y10381000D02*
X36277000Y10381000D01*
X38829000Y10381000D02*
X38311000Y10381000D01*
X38829000Y17735000D02*
X38677000Y17887000D01*
X38829000Y10381000D02*
X38829000Y17735000D01*
X38677000Y17887000D02*
X38800000Y17764000D01*
X28784000Y27780000D02*
X38677000Y17887000D01*
%TD*%
M02*
