%TF.GenerationSoftware,KiCad,Pcbnew,(5.1.9)-1*%
%TF.CreationDate,2021-04-30T09:58:51+02:00*%
%TF.ProjectId,Smiley2,536d696c-6579-4322-9e6b-696361645f70,rev?*%
%TF.SameCoordinates,Original*%
%TF.FileFunction,Copper,L1,Top*%
%TF.FilePolarity,Positive*%
%FSLAX46Y46*%
G04 Gerber Fmt 4.6, Leading zero omitted, Abs format (unit mm)*
G04 Created by KiCad (PCBNEW (5.1.9)-1) date 2021-04-30 09:58:51*
%MOMM*%
%LPD*%
G01*
G04 APERTURE LIST*
%TA.AperFunction,ComponentPad*%
%ADD10R,1.200000X1.200000*%
%TD*%
%TA.AperFunction,ComponentPad*%
%ADD11C,1.200000*%
%TD*%
%TA.AperFunction,ComponentPad*%
%ADD12R,1.800000X1.800000*%
%TD*%
%TA.AperFunction,ComponentPad*%
%ADD13C,1.800000*%
%TD*%
%TA.AperFunction,ComponentPad*%
%ADD14O,1.600000X1.600000*%
%TD*%
%TA.AperFunction,ComponentPad*%
%ADD15C,1.600000*%
%TD*%
%TA.AperFunction,ComponentPad*%
%ADD16C,2.000000*%
%TD*%
%TA.AperFunction,ComponentPad*%
%ADD17C,3.000000*%
%TD*%
%TA.AperFunction,ComponentPad*%
%ADD18R,3.000000X3.000000*%
%TD*%
%TA.AperFunction,ComponentPad*%
%ADD19R,1.600000X1.600000*%
%TD*%
%TA.AperFunction,ComponentPad*%
%ADD20R,2.000000X2.000000*%
%TD*%
%TA.AperFunction,ComponentPad*%
%ADD21C,1.524000*%
%TD*%
%TA.AperFunction,ViaPad*%
%ADD22C,0.600000*%
%TD*%
%TA.AperFunction,Conductor*%
%ADD23C,0.250000*%
%TD*%
G04 APERTURE END LIST*
D10*
%TO.P,C1,1*%
%TO.N,Net-(C1-Pad1)*%
X34372000Y1808500D03*
D11*
%TO.P,C1,2*%
%TO.N,Net-(C1-Pad2)*%
X32372000Y1808500D03*
%TD*%
D10*
%TO.P,C2,1*%
%TO.N,Net-(C2-Pad1)*%
X-9570000Y94000D03*
D11*
%TO.P,C2,2*%
%TO.N,Net-(C1-Pad2)*%
X-7570000Y94000D03*
%TD*%
%TO.P,C3,2*%
%TO.N,Net-(C1-Pad2)*%
X-27480000Y26300000D03*
D10*
%TO.P,C3,1*%
%TO.N,Net-(C3-Pad1)*%
X-25480000Y26300000D03*
%TD*%
D12*
%TO.P,D1,1*%
%TO.N,Net-(D1-Pad1)*%
X-850000Y-32820000D03*
D13*
%TO.P,D1,2*%
%TO.N,Net-(D1-Pad2)*%
X1690000Y-32820000D03*
%TD*%
%TO.P,D2,2*%
%TO.N,Net-(D2-Pad2)*%
X9180000Y-31870000D03*
D12*
%TO.P,D2,1*%
%TO.N,Net-(D2-Pad1)*%
X6640000Y-31870000D03*
%TD*%
D13*
%TO.P,D3,2*%
%TO.N,Net-(D3-Pad2)*%
X15770000Y-29610000D03*
D12*
%TO.P,D3,1*%
%TO.N,Net-(D2-Pad1)*%
X13230000Y-29610000D03*
%TD*%
D13*
%TO.P,D4,2*%
%TO.N,Net-(D4-Pad2)*%
X21500000Y-25960000D03*
D12*
%TO.P,D4,1*%
%TO.N,Net-(D2-Pad1)*%
X18960000Y-25960000D03*
%TD*%
%TO.P,D5,1*%
%TO.N,Net-(D2-Pad1)*%
X23740000Y-21080000D03*
D13*
%TO.P,D5,2*%
%TO.N,Net-(D5-Pad2)*%
X26280000Y-21080000D03*
%TD*%
D12*
%TO.P,D6,1*%
%TO.N,Net-(D2-Pad1)*%
X27768000Y-15273000D03*
D13*
%TO.P,D6,2*%
%TO.N,Net-(D6-Pad2)*%
X30308000Y-15273000D03*
%TD*%
%TO.P,D7,2*%
%TO.N,Net-(D7-Pad2)*%
X33590000Y-9304000D03*
D12*
%TO.P,D7,1*%
%TO.N,Net-(D2-Pad1)*%
X31050000Y-9304000D03*
%TD*%
D13*
%TO.P,D8,2*%
%TO.N,Net-(D8-Pad2)*%
X19513000Y14445000D03*
D12*
%TO.P,D8,1*%
%TO.N,Net-(D8-Pad1)*%
X16973000Y14445000D03*
%TD*%
%TO.P,D22,1*%
%TO.N,Net-(D2-Pad1)*%
X-8430000Y-31870000D03*
D13*
%TO.P,D22,2*%
%TO.N,Net-(D2-Pad2)*%
X-5890000Y-31870000D03*
%TD*%
D12*
%TO.P,D33,1*%
%TO.N,Net-(D2-Pad1)*%
X-15070000Y-29570000D03*
D13*
%TO.P,D33,2*%
%TO.N,Net-(D3-Pad2)*%
X-12530000Y-29570000D03*
%TD*%
D12*
%TO.P,D44,1*%
%TO.N,Net-(D2-Pad1)*%
X-20760000Y-25910000D03*
D13*
%TO.P,D44,2*%
%TO.N,Net-(D4-Pad2)*%
X-18220000Y-25910000D03*
%TD*%
%TO.P,D55,2*%
%TO.N,Net-(D5-Pad2)*%
X-22910000Y-21080000D03*
D12*
%TO.P,D55,1*%
%TO.N,Net-(D2-Pad1)*%
X-25450000Y-21080000D03*
%TD*%
D13*
%TO.P,D66,2*%
%TO.N,Net-(D6-Pad2)*%
X-26970000Y-15170000D03*
D12*
%TO.P,D66,1*%
%TO.N,Net-(D2-Pad1)*%
X-29510000Y-15170000D03*
%TD*%
%TO.P,D77,1*%
%TO.N,Net-(D2-Pad1)*%
X-32900000Y-9350000D03*
D13*
%TO.P,D77,2*%
%TO.N,Net-(D7-Pad2)*%
X-30360000Y-9350000D03*
%TD*%
D12*
%TO.P,D88,1*%
%TO.N,Net-(D8-Pad1)*%
X-12560000Y14180000D03*
D13*
%TO.P,D88,2*%
%TO.N,Net-(D8-Pad2)*%
X-10020000Y14180000D03*
%TD*%
D14*
%TO.P,R1,2*%
%TO.N,Net-(P1-Pad1)*%
X28784000Y27780000D03*
D15*
%TO.P,R1,1*%
%TO.N,Net-(C3-Pad1)*%
X28784000Y20160000D03*
%TD*%
D14*
%TO.P,R2,2*%
%TO.N,Net-(C1-Pad2)*%
X-4200000Y5840000D03*
D15*
%TO.P,R2,1*%
%TO.N,Net-(D8-Pad1)*%
X-4200000Y13460000D03*
%TD*%
%TO.P,R3,1*%
%TO.N,Net-(D2-Pad1)*%
X3511000Y5872500D03*
D14*
%TO.P,R3,2*%
%TO.N,Net-(C1-Pad2)*%
X3511000Y13492500D03*
%TD*%
D15*
%TO.P,R4,1*%
%TO.N,Net-(R4-Pad1)*%
X-299000Y5872500D03*
D14*
%TO.P,R4,2*%
%TO.N,Net-(C1-Pad2)*%
X-299000Y13492500D03*
%TD*%
D16*
%TO.P,S1,1*%
%TO.N,Net-(S1-Pad1)*%
X34880000Y-21980000D03*
%TO.P,S1,2*%
%TO.N,Net-(C3-Pad1)*%
X34880000Y-19440000D03*
%TO.P,S1,3*%
%TO.N,Net-(S1-Pad3)*%
X34880000Y-16900000D03*
%TD*%
D17*
%TO.P,U1,2*%
%TO.N,Net-(C1-Pad2)*%
X10920000Y-11590000D03*
D18*
%TO.P,U1,1*%
%TO.N,Net-(S1-Pad3)*%
X-9570000Y-11590000D03*
%TD*%
D19*
%TO.P,U2,1*%
%TO.N,Net-(C1-Pad2)*%
X28657000Y7841000D03*
D14*
%TO.P,U2,5*%
%TO.N,Net-(C2-Pad1)*%
X36277000Y15461000D03*
%TO.P,U2,2*%
%TO.N,Net-(C1-Pad1)*%
X28657000Y10381000D03*
%TO.P,U2,6*%
X36277000Y12921000D03*
%TO.P,U2,3*%
%TO.N,Net-(U2-Pad3)*%
X28657000Y12921000D03*
%TO.P,U2,7*%
%TO.N,Net-(P1-Pad1)*%
X36277000Y10381000D03*
%TO.P,U2,4*%
%TO.N,Net-(C3-Pad1)*%
X28657000Y15461000D03*
%TO.P,U2,8*%
X36277000Y7841000D03*
%TD*%
D19*
%TO.P,U3,1*%
%TO.N,Net-(D6-Pad2)*%
X-29128000Y19398000D03*
D14*
%TO.P,U3,9*%
%TO.N,Net-(U3-Pad9)*%
X-36748000Y1618000D03*
%TO.P,U3,2*%
%TO.N,Net-(D2-Pad2)*%
X-29128000Y16858000D03*
%TO.P,U3,10*%
%TO.N,Net-(D5-Pad2)*%
X-36748000Y4158000D03*
%TO.P,U3,3*%
%TO.N,Net-(D1-Pad2)*%
X-29128000Y14318000D03*
%TO.P,U3,11*%
%TO.N,Net-(U3-Pad11)*%
X-36748000Y6698000D03*
%TO.P,U3,4*%
%TO.N,Net-(D3-Pad2)*%
X-29128000Y11778000D03*
%TO.P,U3,12*%
%TO.N,Net-(U3-Pad12)*%
X-36748000Y9238000D03*
%TO.P,U3,5*%
%TO.N,Net-(D7-Pad2)*%
X-29128000Y9238000D03*
%TO.P,U3,13*%
%TO.N,Net-(C1-Pad2)*%
X-36748000Y11778000D03*
%TO.P,U3,6*%
%TO.N,Net-(U3-Pad6)*%
X-29128000Y6698000D03*
%TO.P,U3,14*%
%TO.N,Net-(U2-Pad3)*%
X-36748000Y14318000D03*
%TO.P,U3,7*%
%TO.N,Net-(D4-Pad2)*%
X-29128000Y4158000D03*
%TO.P,U3,15*%
%TO.N,Net-(C1-Pad2)*%
X-36748000Y16858000D03*
%TO.P,U3,8*%
X-29128000Y1618000D03*
%TO.P,U3,16*%
%TO.N,Net-(C3-Pad1)*%
X-36748000Y19398000D03*
%TD*%
D20*
%TO.P,U4,1*%
%TO.N,Net-(U3-Pad6)*%
X19640000Y3650000D03*
%TD*%
%TO.P,U5,1*%
%TO.N,Net-(U2-Pad3)*%
X27260000Y3650000D03*
%TD*%
%TO.P,U6,1*%
%TO.N,Net-(D8-Pad2)*%
X23450000Y3650000D03*
%TD*%
%TO.P,U7,1*%
%TO.N,Net-(D1-Pad1)*%
X-6600000Y-26400000D03*
%TD*%
%TO.P,U8,1*%
%TO.N,Net-(D2-Pad1)*%
X-10040000Y-26350000D03*
%TD*%
%TO.P,U9,1*%
%TO.N,Net-(R4-Pad1)*%
X-3170000Y-26290000D03*
%TD*%
D21*
%TO.P,P1,1*%
%TO.N,Net-(P1-Pad1)*%
X41710000Y2660000D03*
%TO.P,P1,2*%
%TO.N,Net-(C1-Pad1)*%
X39170000Y2660000D03*
%TO.P,P1,3*%
%TO.N,Net-(P1-Pad1)*%
X40440000Y120000D03*
%TD*%
D22*
%TO.N,Net-(D1-Pad2)*%
X-14770000Y-3260000D03*
%TO.N,Net-(D3-Pad2)*%
X-23200000Y-2810000D03*
%TO.N,Net-(D6-Pad2)*%
X-30100000Y-21330000D03*
%TO.N,Net-(R4-Pad1)*%
X-340000Y-5420000D03*
%TO.N,Net-(S1-Pad3)*%
X3650000Y-17420000D03*
%TD*%
D23*
%TO.N,Net-(C1-Pad2)*%
X-35622999Y8112999D02*
X-29128000Y1618000D01*
X-35622999Y10652999D02*
X-35622999Y8112999D01*
X-36748000Y11778000D02*
X-35622999Y10652999D01*
%TO.N,Net-(C2-Pad1)*%
X-9570000Y6420000D02*
X-9570000Y94000D01*
X-7030000Y8960000D02*
X-9570000Y6420000D01*
X3480000Y8960000D02*
X-7030000Y8960000D01*
X12200000Y17680000D02*
X3480000Y8960000D01*
X34058000Y17680000D02*
X12200000Y17680000D01*
X36277000Y15461000D02*
X34058000Y17680000D01*
%TO.N,Net-(C3-Pad1)*%
X36277000Y7841000D02*
X33359000Y7841000D01*
X33359000Y7841000D02*
X32060000Y9140000D01*
X32060000Y9140000D02*
X32060000Y14270000D01*
X30869000Y15461000D02*
X28657000Y15461000D01*
X32060000Y14270000D02*
X30869000Y15461000D01*
X36277000Y7841000D02*
X42629000Y7841000D01*
X42629000Y7841000D02*
X43920000Y6550000D01*
X43920000Y6550000D02*
X43920000Y-8510000D01*
X43920000Y-8510000D02*
X38500000Y-13930000D01*
X38500000Y-18550000D02*
X35770000Y-18550000D01*
X35770000Y-18550000D02*
X34880000Y-19440000D01*
X38500000Y-13930000D02*
X38500000Y-18550000D01*
%TO.N,Net-(D1-Pad2)*%
X-14770000Y-3260000D02*
X-14770000Y10610000D01*
X-18478000Y14318000D02*
X-29128000Y14318000D01*
X-14770000Y10610000D02*
X-18478000Y14318000D01*
%TO.N,Net-(D2-Pad2)*%
X-4664999Y-30644999D02*
X-5890000Y-31870000D01*
X7954999Y-30644999D02*
X-4664999Y-30644999D01*
X9180000Y-31870000D02*
X7954999Y-30644999D01*
X-8700000Y-29800000D02*
X-7960000Y-29800000D01*
X-29128000Y16858000D02*
X-25712000Y16858000D01*
X-25960000Y20630000D02*
X-28350000Y23020000D01*
X-25712000Y16858000D02*
X-25960000Y17106000D01*
X-25960000Y17106000D02*
X-25960000Y20630000D01*
X-7960000Y-29800000D02*
X-5890000Y-31870000D01*
X-11650000Y-32750000D02*
X-8700000Y-29800000D01*
X-36420000Y23020000D02*
X-36960000Y23020000D01*
X-28350000Y23020000D02*
X-36420000Y23020000D01*
X-36420000Y23020000D02*
X-36690000Y23020000D01*
X-36960000Y23020000D02*
X-38990000Y20990000D01*
X-38990000Y20990000D02*
X-38990000Y17130000D01*
X-38990000Y17130000D02*
X-41550000Y14570000D01*
X-41550000Y14570000D02*
X-41550000Y-14770000D01*
X-41550000Y-14770000D02*
X-41580000Y-14800000D01*
X-41580000Y-14800000D02*
X-41580000Y-16030000D01*
X-24860000Y-32750000D02*
X-24830000Y-32750000D01*
X-41580000Y-16030000D02*
X-24860000Y-32750000D01*
X-24830000Y-32750000D02*
X-11650000Y-32750000D01*
%TO.N,Net-(D2-Pad1)*%
X-8430000Y-31870000D02*
X-8430000Y-34080000D01*
X-8430000Y-34080000D02*
X-6630000Y-35880000D01*
X-6630000Y-35880000D02*
X4460000Y-35880000D01*
X6640000Y-33700000D02*
X6640000Y-31870000D01*
X4460000Y-35880000D02*
X6640000Y-33700000D01*
X27622502Y5872500D02*
X28135002Y5360000D01*
X3511000Y5872500D02*
X27622502Y5872500D01*
X28135002Y5360000D02*
X42290000Y5360000D01*
X42797001Y4852999D02*
X42797001Y-7432999D01*
X42290000Y5360000D02*
X42797001Y4852999D01*
X32275001Y-10529001D02*
X31050000Y-9304000D01*
X39700999Y-10529001D02*
X32275001Y-10529001D01*
X42797001Y-7432999D02*
X39700999Y-10529001D01*
%TO.N,Net-(D3-Pad2)*%
X-11344999Y-28384999D02*
X-12530000Y-29570000D01*
X14544999Y-28384999D02*
X-11344999Y-28384999D01*
X15770000Y-29610000D02*
X14544999Y-28384999D01*
X-23200000Y-2810000D02*
X-24020000Y-1990000D01*
X-24020000Y-1990000D02*
X-24020000Y10160000D01*
X-25638000Y11778000D02*
X-29128000Y11778000D01*
X-24020000Y10160000D02*
X-25638000Y11778000D01*
%TO.N,Net-(D4-Pad2)*%
X-17044999Y-24734999D02*
X-18220000Y-25910000D01*
X20274999Y-24734999D02*
X-17044999Y-24734999D01*
X21500000Y-25960000D02*
X20274999Y-24734999D01*
%TO.N,Net-(D5-Pad2)*%
X-36748000Y4158000D02*
X-39750000Y1156000D01*
X-39750000Y1156000D02*
X-39750000Y-15560000D01*
X-39750000Y-15560000D02*
X-29730000Y-25580000D01*
X-29730000Y-25580000D02*
X-25280000Y-25580000D01*
X-22910000Y-23210000D02*
X-22910000Y-21080000D01*
X-25280000Y-25580000D02*
X-22910000Y-23210000D01*
X-21684999Y-19854999D02*
X-22910000Y-21080000D01*
X25054999Y-19854999D02*
X-21684999Y-19854999D01*
X26280000Y-21080000D02*
X25054999Y-19854999D01*
%TO.N,Net-(D6-Pad2)*%
X-25641999Y-16498001D02*
X-26970000Y-15170000D01*
X30308000Y-15273000D02*
X29082999Y-16498001D01*
X-25458001Y-16688001D02*
X-25458001Y-16498001D01*
X-30100000Y-21330000D02*
X-25458001Y-16688001D01*
X-25458001Y-16498001D02*
X-25641999Y-16498001D01*
X29082999Y-16498001D02*
X-25458001Y-16498001D01*
%TO.N,Net-(D7-Pad2)*%
X32364999Y-8078999D02*
X33590000Y-9304000D01*
X-29088999Y-8078999D02*
X32364999Y-8078999D01*
X-30360000Y-9350000D02*
X-29088999Y-8078999D01*
%TO.N,Net-(R4-Pad1)*%
X-299000Y-5379000D02*
X-340000Y-5420000D01*
X-299000Y5872500D02*
X-299000Y-5379000D01*
%TO.N,Net-(S1-Pad3)*%
X34360000Y-17420000D02*
X34880000Y-16900000D01*
X3650000Y-17420000D02*
X34360000Y-17420000D01*
%TO.N,Net-(U3-Pad6)*%
X19640000Y3650000D02*
X14530000Y3650000D01*
X4834999Y-6045001D02*
X-23654999Y-6045001D01*
X14530000Y3650000D02*
X4834999Y-6045001D01*
X-23654999Y-6045001D02*
X-26290000Y-3410000D01*
X-26290000Y-3410000D02*
X-26290000Y5320000D01*
X-27668000Y6698000D02*
X-29128000Y6698000D01*
X-26290000Y5320000D02*
X-27668000Y6698000D01*
%TD*%
M02*
