M48
; DRILL file {KiCad (5.1.9)-1} date 04/30/21 09:58:49
; FORMAT={-:-/ absolute / metric / decimal}
; #@! TF.CreationDate,2021-04-30T09:58:49+02:00
; #@! TF.GenerationSoftware,Kicad,Pcbnew,(5.1.9)-1
; #@! TF.FileFunction,Plated,1,2,PTH
FMAT,2
METRIC
T1C0.400
T2C0.600
T3C0.762
T4C0.800
T5C0.900
T6C1.000
T7C1.500
%
G90
G05
T1
X-30.1Y-21.33
X-23.2Y-2.81
X-14.77Y-3.26
X-0.34Y-5.42
X3.65Y-17.42
T2
X-27.48Y26.3
X-25.48Y26.3
X-9.57Y0.094
X-7.57Y0.094
X32.372Y1.808
X34.372Y1.808
T3
X39.17Y2.66
X40.44Y0.12
X41.71Y2.66
T4
X-36.748Y19.398
X-36.748Y16.858
X-36.748Y14.318
X-36.748Y11.778
X-36.748Y9.238
X-36.748Y6.698
X-36.748Y4.158
X-36.748Y1.618
X-29.128Y19.398
X-29.128Y16.858
X-29.128Y14.318
X-29.128Y11.778
X-29.128Y9.238
X-29.128Y6.698
X-29.128Y4.158
X-29.128Y1.618
X-4.2Y13.46
X-4.2Y5.84
X-0.299Y13.492
X-0.299Y5.872
X3.511Y13.492
X3.511Y5.872
X28.657Y15.461
X28.657Y12.921
X28.657Y10.381
X28.657Y7.841
X28.784Y27.78
X28.784Y20.16
X36.277Y15.461
X36.277Y12.921
X36.277Y10.381
X36.277Y7.841
T5
X-32.9Y-9.35
X-30.36Y-9.35
X-29.51Y-15.17
X-26.97Y-15.17
X-25.45Y-21.08
X-22.91Y-21.08
X-20.76Y-25.91
X-18.22Y-25.91
X-15.07Y-29.57
X-12.56Y14.18
X-12.53Y-29.57
X-10.02Y14.18
X-8.43Y-31.87
X-5.89Y-31.87
X-0.85Y-32.82
X1.69Y-32.82
X6.64Y-31.87
X9.18Y-31.87
X13.23Y-29.61
X15.77Y-29.61
X16.973Y14.445
X18.96Y-25.96
X19.513Y14.445
X21.5Y-25.96
X23.74Y-21.08
X26.28Y-21.08
X27.768Y-15.273
X30.308Y-15.273
X31.05Y-9.304
X33.59Y-9.304
T6
X-10.04Y-26.35
X-6.6Y-26.4
X-3.17Y-26.29
X19.64Y3.65
X23.45Y3.65
X27.26Y3.65
X34.88Y-16.9
X34.88Y-19.44
X34.88Y-21.98
T7
X-9.57Y-11.59
X10.92Y-11.59
T0
M30
