M48
; DRILL file {KiCad 8.0.1} date 2024-05-08T14:34:25+0200
; FORMAT={-:-/ absolute / inch / decimal}
; #@! TF.CreationDate,2024-05-08T14:34:25+02:00
; #@! TF.GenerationSoftware,Kicad,Pcbnew,8.0.1
; #@! TF.FileFunction,Plated,1,2,PTH
FMAT,2
INCH
; #@! TA.AperFunction,Plated,PTH,ViaDrill
T1C0.0157
; #@! TA.AperFunction,Plated,PTH,ComponentDrill
T2C0.0236
; #@! TA.AperFunction,Plated,PTH,ComponentDrill
T3C0.0315
; #@! TA.AperFunction,Plated,PTH,ComponentDrill
T4C0.0354
; #@! TA.AperFunction,Plated,PTH,ComponentDrill
T5C0.0394
%
G90
G05
T1
X5.024Y-4.3563
X5.3421Y-3.4469
X5.4933Y-4.3768
X5.5717Y-4.0929
X5.6217Y-3.2272
X5.7528Y-4.528
X6.063Y-2.5394
X6.8465Y-3.2303
X7.0472Y-2.7559
X7.5177Y-3.6787
T2
X7.126Y-3.4646
X7.2047Y-3.4646
T3
X4.7622Y-2.7528
X4.7622Y-2.8528
X4.7622Y-2.9528
X4.7622Y-3.0528
X4.7622Y-3.1528
X4.7622Y-3.2528
X4.7622Y-3.3528
X4.7622Y-3.4528
X5.0622Y-2.7528
X5.0622Y-2.8528
X5.0622Y-2.9528
X5.0622Y-3.0528
X5.0622Y-3.1528
X5.0622Y-3.2528
X5.0622Y-3.3528
X5.0622Y-3.4528
X6.0436Y-2.9866
X6.0436Y-3.2866
X6.3472Y-2.9853
X6.3472Y-3.2853
X7.3031Y-2.6181
X7.3155Y-2.822
X7.3155Y-2.922
X7.3155Y-3.022
X7.3155Y-3.122
X7.6031Y-2.6181
X7.6155Y-2.822
X7.6155Y-2.922
X7.6155Y-3.022
X7.6155Y-3.122
T4
X4.9137Y-3.8846
X5.0137Y-3.8846
X5.0472Y-4.1137
X5.1472Y-4.1137
X5.207Y-4.3464
X5.307Y-4.3464
X5.3917Y-4.5366
X5.4917Y-4.5366
X5.6157Y-4.6807
X5.7145Y-2.9582
X5.7157Y-4.6807
X5.8145Y-2.9582
X5.8771Y-4.7712
X5.9771Y-4.7712
X6.1755Y-4.8086
X6.2755Y-4.8086
X6.4704Y-4.7712
X6.5704Y-4.7712
X6.7299Y-4.6822
X6.8299Y-4.6822
X6.8772Y-2.9478
X6.9555Y-4.5385
X6.9772Y-2.9478
X7.0555Y-4.5385
X7.1436Y-4.3464
X7.2436Y-4.3464
X7.3022Y-4.1178
X7.4022Y-4.1178
X7.4314Y-3.8828
X7.5314Y-3.8828
T5
X7.5755Y-3.3805
X7.5822Y-4.1819
X7.5822Y-4.2819
X7.5822Y-4.3819
X7.6755Y-3.5805
X7.7755Y-3.3805
M30
