%TF.GenerationSoftware,KiCad,Pcbnew,7.0.8*%
%TF.CreationDate,2024-04-06T10:04:34+02:00*%
%TF.ProjectId,Smiley,536d696c-6579-42e6-9b69-6361645f7063,rev?*%
%TF.SameCoordinates,Original*%
%TF.FileFunction,Soldermask,Bot*%
%TF.FilePolarity,Negative*%
%FSLAX46Y46*%
G04 Gerber Fmt 4.6, Leading zero omitted, Abs format (unit mm)*
G04 Created by KiCad (PCBNEW 7.0.8) date 2024-04-06 10:04:34*
%MOMM*%
%LPD*%
G01*
G04 APERTURE LIST*
G04 Aperture macros list*
%AMRoundRect*
0 Rectangle with rounded corners*
0 $1 Rounding radius*
0 $2 $3 $4 $5 $6 $7 $8 $9 X,Y pos of 4 corners*
0 Add a 4 corners polygon primitive as box body*
4,1,4,$2,$3,$4,$5,$6,$7,$8,$9,$2,$3,0*
0 Add four circle primitives for the rounded corners*
1,1,$1+$1,$2,$3*
1,1,$1+$1,$4,$5*
1,1,$1+$1,$6,$7*
1,1,$1+$1,$8,$9*
0 Add four rect primitives between the rounded corners*
20,1,$1+$1,$2,$3,$4,$5,0*
20,1,$1+$1,$4,$5,$6,$7,0*
20,1,$1+$1,$6,$7,$8,$9,0*
20,1,$1+$1,$8,$9,$2,$3,0*%
G04 Aperture macros list end*
%ADD10C,0.150000*%
%ADD11C,15.400000*%
%ADD12RoundRect,0.200000X-0.900000X-0.900000X0.900000X-0.900000X0.900000X0.900000X-0.900000X0.900000X0*%
%ADD13C,2.200000*%
%ADD14RoundRect,0.200000X-1.000000X2.500000X-1.000000X-2.500000X1.000000X-2.500000X1.000000X2.500000X0*%
%ADD15C,18.180000*%
%ADD16RoundRect,0.200000X0.800000X0.800000X-0.800000X0.800000X-0.800000X-0.800000X0.800000X-0.800000X0*%
%ADD17O,2.000000X2.000000*%
%ADD18RoundRect,0.200000X-0.750000X-0.750000X0.750000X-0.750000X0.750000X0.750000X-0.750000X0.750000X0*%
%ADD19C,1.900000*%
%ADD20C,2.400000*%
%ADD21C,2.000000*%
%ADD22RoundRect,0.200000X-0.800000X-0.800000X0.800000X-0.800000X0.800000X0.800000X-0.800000X0.800000X0*%
G04 APERTURE END LIST*
D10*
X84073220Y-105969819D02*
X84073220Y-104969819D01*
X83501792Y-105969819D02*
X83930363Y-105398390D01*
X83501792Y-104969819D02*
X84073220Y-105541247D01*
X83073220Y-105969819D02*
X83073220Y-104969819D01*
X83073220Y-105446009D02*
X82501792Y-105446009D01*
X82501792Y-105969819D02*
X82501792Y-104969819D01*
X81692268Y-105446009D02*
X82025601Y-105446009D01*
X82025601Y-105969819D02*
X82025601Y-104969819D01*
X82025601Y-104969819D02*
X81549411Y-104969819D01*
X80216077Y-104969819D02*
X80120839Y-104969819D01*
X80120839Y-104969819D02*
X80025601Y-105017438D01*
X80025601Y-105017438D02*
X79977982Y-105065057D01*
X79977982Y-105065057D02*
X79930363Y-105160295D01*
X79930363Y-105160295D02*
X79882744Y-105350771D01*
X79882744Y-105350771D02*
X79882744Y-105588866D01*
X79882744Y-105588866D02*
X79930363Y-105779342D01*
X79930363Y-105779342D02*
X79977982Y-105874580D01*
X79977982Y-105874580D02*
X80025601Y-105922200D01*
X80025601Y-105922200D02*
X80120839Y-105969819D01*
X80120839Y-105969819D02*
X80216077Y-105969819D01*
X80216077Y-105969819D02*
X80311315Y-105922200D01*
X80311315Y-105922200D02*
X80358934Y-105874580D01*
X80358934Y-105874580D02*
X80406553Y-105779342D01*
X80406553Y-105779342D02*
X80454172Y-105588866D01*
X80454172Y-105588866D02*
X80454172Y-105350771D01*
X80454172Y-105350771D02*
X80406553Y-105160295D01*
X80406553Y-105160295D02*
X80358934Y-105065057D01*
X80358934Y-105065057D02*
X80311315Y-105017438D01*
X80311315Y-105017438D02*
X80216077Y-104969819D01*
X79025601Y-105303152D02*
X79025601Y-105969819D01*
X79263696Y-104922200D02*
X79501791Y-105636485D01*
X79501791Y-105636485D02*
X78882744Y-105636485D01*
X78501791Y-105874580D02*
X78454172Y-105922200D01*
X78454172Y-105922200D02*
X78501791Y-105969819D01*
X78501791Y-105969819D02*
X78549410Y-105922200D01*
X78549410Y-105922200D02*
X78501791Y-105874580D01*
X78501791Y-105874580D02*
X78501791Y-105969819D01*
X78073220Y-105065057D02*
X78025601Y-105017438D01*
X78025601Y-105017438D02*
X77930363Y-104969819D01*
X77930363Y-104969819D02*
X77692268Y-104969819D01*
X77692268Y-104969819D02*
X77597030Y-105017438D01*
X77597030Y-105017438D02*
X77549411Y-105065057D01*
X77549411Y-105065057D02*
X77501792Y-105160295D01*
X77501792Y-105160295D02*
X77501792Y-105255533D01*
X77501792Y-105255533D02*
X77549411Y-105398390D01*
X77549411Y-105398390D02*
X78120839Y-105969819D01*
X78120839Y-105969819D02*
X77501792Y-105969819D01*
X76882744Y-104969819D02*
X76787506Y-104969819D01*
X76787506Y-104969819D02*
X76692268Y-105017438D01*
X76692268Y-105017438D02*
X76644649Y-105065057D01*
X76644649Y-105065057D02*
X76597030Y-105160295D01*
X76597030Y-105160295D02*
X76549411Y-105350771D01*
X76549411Y-105350771D02*
X76549411Y-105588866D01*
X76549411Y-105588866D02*
X76597030Y-105779342D01*
X76597030Y-105779342D02*
X76644649Y-105874580D01*
X76644649Y-105874580D02*
X76692268Y-105922200D01*
X76692268Y-105922200D02*
X76787506Y-105969819D01*
X76787506Y-105969819D02*
X76882744Y-105969819D01*
X76882744Y-105969819D02*
X76977982Y-105922200D01*
X76977982Y-105922200D02*
X77025601Y-105874580D01*
X77025601Y-105874580D02*
X77073220Y-105779342D01*
X77073220Y-105779342D02*
X77120839Y-105588866D01*
X77120839Y-105588866D02*
X77120839Y-105350771D01*
X77120839Y-105350771D02*
X77073220Y-105160295D01*
X77073220Y-105160295D02*
X77025601Y-105065057D01*
X77025601Y-105065057D02*
X76977982Y-105017438D01*
X76977982Y-105017438D02*
X76882744Y-104969819D01*
X76168458Y-105065057D02*
X76120839Y-105017438D01*
X76120839Y-105017438D02*
X76025601Y-104969819D01*
X76025601Y-104969819D02*
X75787506Y-104969819D01*
X75787506Y-104969819D02*
X75692268Y-105017438D01*
X75692268Y-105017438D02*
X75644649Y-105065057D01*
X75644649Y-105065057D02*
X75597030Y-105160295D01*
X75597030Y-105160295D02*
X75597030Y-105255533D01*
X75597030Y-105255533D02*
X75644649Y-105398390D01*
X75644649Y-105398390D02*
X76216077Y-105969819D01*
X76216077Y-105969819D02*
X75597030Y-105969819D01*
X74739887Y-105303152D02*
X74739887Y-105969819D01*
X74977982Y-104922200D02*
X75216077Y-105636485D01*
X75216077Y-105636485D02*
X74597030Y-105636485D01*
D11*
%TO.C,LP_rund*%
X79760000Y-30150000D03*
%TD*%
D12*
%TO.C,REF\u002A\u002A*%
X111380000Y-75670000D03*
D13*
X113920000Y-75670000D03*
%TD*%
D14*
%TO.C,U2*%
X51046000Y-35986000D03*
X54602000Y-35986000D03*
X51046000Y-61880000D03*
X54602000Y-61880000D03*
D15*
X52570000Y-48940000D03*
%TD*%
D16*
%TO.C,U1*%
X84100000Y-58900000D03*
D17*
X84100000Y-61440000D03*
X84100000Y-63980000D03*
X84100000Y-66520000D03*
X76480000Y-66520000D03*
X76480000Y-63980000D03*
X76480000Y-61440000D03*
X76480000Y-58900000D03*
%TD*%
D18*
%TO.C,T2*%
X65320000Y-72260000D03*
D19*
X67860000Y-69720000D03*
X70400000Y-72260000D03*
%TD*%
%TO.C,T1*%
X98320000Y-72260000D03*
X95780000Y-69720000D03*
D18*
X93240000Y-72260000D03*
%TD*%
D20*
%TO.C,S1*%
X38990000Y-65810000D03*
X38990000Y-68350000D03*
X38990000Y-70890000D03*
%TD*%
D17*
%TO.C,R6*%
X75620000Y-87910000D03*
D21*
X85780000Y-87910000D03*
%TD*%
%TO.C,R5*%
X85780000Y-83860000D03*
D17*
X75620000Y-83860000D03*
%TD*%
D21*
%TO.C,R4*%
X85780000Y-79810000D03*
D17*
X75620000Y-79810000D03*
%TD*%
D21*
%TO.C,R3*%
X85780000Y-75760000D03*
D17*
X75620000Y-75760000D03*
%TD*%
D20*
%TO.C,P2*%
X110840000Y-56500000D03*
X110840000Y-61580000D03*
X116936000Y-59040000D03*
X113380000Y-59040000D03*
%TD*%
%TO.C,P1*%
X110864000Y-45380000D03*
X110864000Y-50460000D03*
X116960000Y-47920000D03*
X113404000Y-47920000D03*
%TD*%
D12*
%TO.C,D15*%
X108050000Y-81620000D03*
D13*
X110590000Y-81620000D03*
%TD*%
D12*
%TO.C,D14*%
X104020000Y-87430000D03*
D13*
X106560000Y-87430000D03*
%TD*%
D12*
%TO.C,D13*%
X99255000Y-92260000D03*
D13*
X101795000Y-92260000D03*
%TD*%
D12*
%TO.C,D12*%
X93600000Y-95910000D03*
D13*
X96140000Y-95910000D03*
%TD*%
D12*
%TO.C,D11*%
X86960000Y-98240000D03*
D13*
X89500000Y-98240000D03*
%TD*%
D12*
%TO.C,D10*%
X79440000Y-99140000D03*
D13*
X81980000Y-99140000D03*
%TD*%
D12*
%TO.C,D9*%
X71830000Y-98190000D03*
D13*
X74370000Y-98190000D03*
%TD*%
D12*
%TO.C,D8*%
X65210000Y-95850000D03*
D13*
X67750000Y-95850000D03*
%TD*%
%TO.C,D7*%
X62090000Y-92230000D03*
D12*
X59550000Y-92230000D03*
%TD*%
%TO.C,D6*%
X54765000Y-87380000D03*
D13*
X57305000Y-87380000D03*
%TD*%
D12*
%TO.C,D5*%
X50760000Y-81560000D03*
D13*
X53300000Y-81560000D03*
%TD*%
D12*
%TO.C,D4*%
X47480000Y-75630000D03*
D13*
X50020000Y-75630000D03*
%TD*%
D16*
%TO.C,D3*%
X84200000Y-71420000D03*
D17*
X76580000Y-71420000D03*
%TD*%
D13*
%TO.C,D2*%
X100090000Y-50930000D03*
D12*
X97550000Y-50930000D03*
%TD*%
D13*
%TO.C,D1*%
X70445000Y-50890000D03*
D12*
X67905000Y-50890000D03*
%TD*%
D22*
%TO.C,C1*%
X78900000Y-50900000D03*
D21*
X81400000Y-50900000D03*
%TD*%
M02*
