%TF.GenerationSoftware,KiCad,Pcbnew,7.0.8*%
%TF.CreationDate,2024-04-06T10:04:34+02:00*%
%TF.ProjectId,Smiley,536d696c-6579-42e6-9b69-6361645f7063,rev?*%
%TF.SameCoordinates,Original*%
%TF.FileFunction,Soldermask,Top*%
%TF.FilePolarity,Negative*%
%FSLAX46Y46*%
G04 Gerber Fmt 4.6, Leading zero omitted, Abs format (unit mm)*
G04 Created by KiCad (PCBNEW 7.0.8) date 2024-04-06 10:04:34*
%MOMM*%
%LPD*%
G01*
G04 APERTURE LIST*
G04 Aperture macros list*
%AMRoundRect*
0 Rectangle with rounded corners*
0 $1 Rounding radius*
0 $2 $3 $4 $5 $6 $7 $8 $9 X,Y pos of 4 corners*
0 Add a 4 corners polygon primitive as box body*
4,1,4,$2,$3,$4,$5,$6,$7,$8,$9,$2,$3,0*
0 Add four circle primitives for the rounded corners*
1,1,$1+$1,$2,$3*
1,1,$1+$1,$4,$5*
1,1,$1+$1,$6,$7*
1,1,$1+$1,$8,$9*
0 Add four rect primitives between the rounded corners*
20,1,$1+$1,$2,$3,$4,$5,0*
20,1,$1+$1,$4,$5,$6,$7,0*
20,1,$1+$1,$6,$7,$8,$9,0*
20,1,$1+$1,$8,$9,$2,$3,0*%
G04 Aperture macros list end*
%ADD10RoundRect,0.200000X-0.900000X-0.900000X0.900000X-0.900000X0.900000X0.900000X-0.900000X0.900000X0*%
%ADD11C,2.200000*%
%ADD12RoundRect,0.200000X0.800000X0.800000X-0.800000X0.800000X-0.800000X-0.800000X0.800000X-0.800000X0*%
%ADD13O,2.000000X2.000000*%
%ADD14RoundRect,0.200000X-0.750000X-0.750000X0.750000X-0.750000X0.750000X0.750000X-0.750000X0.750000X0*%
%ADD15C,1.900000*%
%ADD16C,2.400000*%
%ADD17C,2.000000*%
%ADD18RoundRect,0.200000X-0.800000X-0.800000X0.800000X-0.800000X0.800000X0.800000X-0.800000X0.800000X0*%
G04 APERTURE END LIST*
D10*
%TO.C,REF\u002A\u002A*%
X111380000Y-75670000D03*
D11*
X113920000Y-75670000D03*
%TD*%
D12*
%TO.C,U1*%
X84100000Y-58900000D03*
D13*
X84100000Y-61440000D03*
X84100000Y-63980000D03*
X84100000Y-66520000D03*
X76480000Y-66520000D03*
X76480000Y-63980000D03*
X76480000Y-61440000D03*
X76480000Y-58900000D03*
%TD*%
D14*
%TO.C,T2*%
X65320000Y-72260000D03*
D15*
X67860000Y-69720000D03*
X70400000Y-72260000D03*
%TD*%
%TO.C,T1*%
X98320000Y-72260000D03*
X95780000Y-69720000D03*
D14*
X93240000Y-72260000D03*
%TD*%
D16*
%TO.C,S1*%
X38990000Y-65810000D03*
X38990000Y-68350000D03*
X38990000Y-70890000D03*
%TD*%
D13*
%TO.C,R6*%
X75620000Y-87910000D03*
D17*
X85780000Y-87910000D03*
%TD*%
%TO.C,R5*%
X85780000Y-83860000D03*
D13*
X75620000Y-83860000D03*
%TD*%
D17*
%TO.C,R4*%
X85780000Y-79810000D03*
D13*
X75620000Y-79810000D03*
%TD*%
D17*
%TO.C,R3*%
X85780000Y-75760000D03*
D13*
X75620000Y-75760000D03*
%TD*%
D16*
%TO.C,P2*%
X110840000Y-56500000D03*
X110840000Y-61580000D03*
X116936000Y-59040000D03*
X113380000Y-59040000D03*
%TD*%
%TO.C,P1*%
X110864000Y-45380000D03*
X110864000Y-50460000D03*
X116960000Y-47920000D03*
X113404000Y-47920000D03*
%TD*%
D10*
%TO.C,D15*%
X108050000Y-81620000D03*
D11*
X110590000Y-81620000D03*
%TD*%
D10*
%TO.C,D14*%
X104020000Y-87430000D03*
D11*
X106560000Y-87430000D03*
%TD*%
D10*
%TO.C,D13*%
X99255000Y-92260000D03*
D11*
X101795000Y-92260000D03*
%TD*%
D10*
%TO.C,D12*%
X93600000Y-95910000D03*
D11*
X96140000Y-95910000D03*
%TD*%
D10*
%TO.C,D11*%
X86960000Y-98240000D03*
D11*
X89500000Y-98240000D03*
%TD*%
D10*
%TO.C,D10*%
X79440000Y-99140000D03*
D11*
X81980000Y-99140000D03*
%TD*%
D10*
%TO.C,D9*%
X71830000Y-98190000D03*
D11*
X74370000Y-98190000D03*
%TD*%
D10*
%TO.C,D8*%
X65210000Y-95850000D03*
D11*
X67750000Y-95850000D03*
%TD*%
%TO.C,D7*%
X62090000Y-92230000D03*
D10*
X59550000Y-92230000D03*
%TD*%
%TO.C,D6*%
X54765000Y-87380000D03*
D11*
X57305000Y-87380000D03*
%TD*%
D10*
%TO.C,D5*%
X50760000Y-81560000D03*
D11*
X53300000Y-81560000D03*
%TD*%
D10*
%TO.C,D4*%
X47480000Y-75630000D03*
D11*
X50020000Y-75630000D03*
%TD*%
D12*
%TO.C,D3*%
X84200000Y-71420000D03*
D13*
X76580000Y-71420000D03*
%TD*%
D11*
%TO.C,D2*%
X100090000Y-50930000D03*
D10*
X97550000Y-50930000D03*
%TD*%
D11*
%TO.C,D1*%
X70445000Y-50890000D03*
D10*
X67905000Y-50890000D03*
%TD*%
D18*
%TO.C,C1*%
X78900000Y-50900000D03*
D17*
X81400000Y-50900000D03*
%TD*%
M02*
