%TF.GenerationSoftware,KiCad,Pcbnew,7.0.8*%
%TF.CreationDate,2024-04-06T10:04:34+02:00*%
%TF.ProjectId,Smiley,536d696c-6579-42e6-9b69-6361645f7063,rev?*%
%TF.SameCoordinates,Original*%
%TF.FileFunction,Copper,L1,Top*%
%TF.FilePolarity,Positive*%
%FSLAX46Y46*%
G04 Gerber Fmt 4.6, Leading zero omitted, Abs format (unit mm)*
G04 Created by KiCad (PCBNEW 7.0.8) date 2024-04-06 10:04:34*
%MOMM*%
%LPD*%
G01*
G04 APERTURE LIST*
%TA.AperFunction,ComponentPad*%
%ADD10R,1.800000X1.800000*%
%TD*%
%TA.AperFunction,ComponentPad*%
%ADD11C,1.800000*%
%TD*%
%TA.AperFunction,ComponentPad*%
%ADD12R,1.600000X1.600000*%
%TD*%
%TA.AperFunction,ComponentPad*%
%ADD13O,1.600000X1.600000*%
%TD*%
%TA.AperFunction,ComponentPad*%
%ADD14R,1.500000X1.500000*%
%TD*%
%TA.AperFunction,ComponentPad*%
%ADD15C,1.500000*%
%TD*%
%TA.AperFunction,ComponentPad*%
%ADD16C,2.000000*%
%TD*%
%TA.AperFunction,ComponentPad*%
%ADD17C,1.600000*%
%TD*%
%TA.AperFunction,Conductor*%
%ADD18C,0.250000*%
%TD*%
G04 APERTURE END LIST*
D10*
%TO.P,REF\u002A\u002A,1*%
%TO.N,Net-(D1-K)*%
X111380000Y-75670000D03*
D11*
%TO.P,REF\u002A\u002A,2*%
%TO.N,Net-(D1-A)*%
X113920000Y-75670000D03*
%TD*%
D12*
%TO.P,U1,1,GND*%
%TO.N,Net-(D1-K)*%
X84100000Y-58900000D03*
D13*
%TO.P,U1,2,TR*%
%TO.N,Net-(D3-K)*%
X84100000Y-61440000D03*
%TO.P,U1,3,Q*%
%TO.N,unconnected-(U1-Q-Pad3)*%
X84100000Y-63980000D03*
%TO.P,U1,4,R*%
%TO.N,Net-(S1-E)*%
X84100000Y-66520000D03*
%TO.P,U1,5,CV*%
%TO.N,unconnected-(U1-CV-Pad5)*%
X76480000Y-66520000D03*
%TO.P,U1,6,THR*%
%TO.N,Net-(D3-K)*%
X76480000Y-63980000D03*
%TO.P,U1,7,DIS*%
%TO.N,Net-(D3-A)*%
X76480000Y-61440000D03*
%TO.P,U1,8,VCC*%
%TO.N,Net-(S1-E)*%
X76480000Y-58900000D03*
%TD*%
D14*
%TO.P,T2,1,E*%
%TO.N,Net-(D1-A)*%
X65320000Y-72260000D03*
D15*
%TO.P,T2,2,B*%
%TO.N,Net-(T1-C)*%
X67860000Y-69720000D03*
%TO.P,T2,3,C*%
%TO.N,Net-(T2-C)*%
X70400000Y-72260000D03*
%TD*%
%TO.P,T1,3,C*%
%TO.N,Net-(T1-C)*%
X98320000Y-72260000D03*
%TO.P,T1,2,B*%
%TO.N,Net-(T1-B)*%
X95780000Y-69720000D03*
D14*
%TO.P,T1,1,E*%
%TO.N,Net-(D1-K)*%
X93240000Y-72260000D03*
%TD*%
D16*
%TO.P,S1,1,A*%
%TO.N,Net-(S1-A-Pad1)*%
X38990000Y-65810000D03*
%TO.P,S1,2,E*%
%TO.N,Net-(S1-E)*%
X38990000Y-68350000D03*
%TO.P,S1,3,A*%
%TO.N,unconnected-(S1-A-Pad3)*%
X38990000Y-70890000D03*
%TD*%
D13*
%TO.P,R6,2*%
%TO.N,Net-(T2-C)*%
X75620000Y-87910000D03*
D17*
%TO.P,R6,1*%
%TO.N,Net-(S1-E)*%
X85780000Y-87910000D03*
%TD*%
%TO.P,R5,1*%
%TO.N,Net-(S1-E)*%
X85780000Y-83860000D03*
D13*
%TO.P,R5,2*%
%TO.N,Net-(T1-C)*%
X75620000Y-83860000D03*
%TD*%
D17*
%TO.P,R4,1*%
%TO.N,Net-(T1-B)*%
X85780000Y-79810000D03*
D13*
%TO.P,R4,2*%
%TO.N,Net-(D1-K)*%
X75620000Y-79810000D03*
%TD*%
D17*
%TO.P,R3,1*%
%TO.N,Net-(D3-K)*%
X85780000Y-75760000D03*
D13*
%TO.P,R3,2*%
%TO.N,Net-(T1-B)*%
X75620000Y-75760000D03*
%TD*%
D16*
%TO.P,P2,1,1*%
%TO.N,Net-(D3-A)*%
X110840000Y-56500000D03*
%TO.P,P2,2,2*%
%TO.N,unconnected-(P2-Pad2)*%
X110840000Y-61580000D03*
%TO.P,P2,3,3*%
%TO.N,Net-(D3-K)*%
X116936000Y-59040000D03*
X113380000Y-59040000D03*
%TD*%
%TO.P,P1,1,1*%
%TO.N,Net-(S1-E)*%
X110864000Y-45380000D03*
%TO.P,P1,2,2*%
%TO.N,unconnected-(P1-Pad2)*%
X110864000Y-50460000D03*
%TO.P,P1,3,3*%
%TO.N,Net-(D3-A)*%
X116960000Y-47920000D03*
X113404000Y-47920000D03*
%TD*%
D10*
%TO.P,D15,1,K*%
%TO.N,Net-(D1-K)*%
X108050000Y-81620000D03*
D11*
%TO.P,D15,2,A*%
%TO.N,Net-(D1-A)*%
X110590000Y-81620000D03*
%TD*%
D10*
%TO.P,D14,1,K*%
%TO.N,Net-(D1-K)*%
X104020000Y-87430000D03*
D11*
%TO.P,D14,2,A*%
%TO.N,Net-(D1-A)*%
X106560000Y-87430000D03*
%TD*%
D10*
%TO.P,D13,1,K*%
%TO.N,Net-(D1-K)*%
X99255000Y-92260000D03*
D11*
%TO.P,D13,2,A*%
%TO.N,Net-(D1-A)*%
X101795000Y-92260000D03*
%TD*%
D10*
%TO.P,D12,1,K*%
%TO.N,Net-(D1-K)*%
X93600000Y-95910000D03*
D11*
%TO.P,D12,2,A*%
%TO.N,Net-(D1-A)*%
X96140000Y-95910000D03*
%TD*%
D10*
%TO.P,D11,1,K*%
%TO.N,Net-(D1-K)*%
X86960000Y-98240000D03*
D11*
%TO.P,D11,2,A*%
%TO.N,Net-(D1-A)*%
X89500000Y-98240000D03*
%TD*%
D10*
%TO.P,D10,1,K*%
%TO.N,Net-(D1-K)*%
X79440000Y-99140000D03*
D11*
%TO.P,D10,2,A*%
%TO.N,Net-(D1-A)*%
X81980000Y-99140000D03*
%TD*%
D10*
%TO.P,D9,1,K*%
%TO.N,Net-(D1-K)*%
X71830000Y-98190000D03*
D11*
%TO.P,D9,2,A*%
%TO.N,Net-(D1-A)*%
X74370000Y-98190000D03*
%TD*%
D10*
%TO.P,D8,1,K*%
%TO.N,Net-(D1-K)*%
X65210000Y-95850000D03*
D11*
%TO.P,D8,2,A*%
%TO.N,Net-(D1-A)*%
X67750000Y-95850000D03*
%TD*%
%TO.P,D7,2,A*%
%TO.N,Net-(D1-A)*%
X62090000Y-92230000D03*
D10*
%TO.P,D7,1,K*%
%TO.N,Net-(D1-K)*%
X59550000Y-92230000D03*
%TD*%
%TO.P,D6,1,K*%
%TO.N,Net-(D1-K)*%
X54765000Y-87380000D03*
D11*
%TO.P,D6,2,A*%
%TO.N,Net-(D1-A)*%
X57305000Y-87380000D03*
%TD*%
D10*
%TO.P,D5,1,K*%
%TO.N,Net-(D1-K)*%
X50760000Y-81560000D03*
D11*
%TO.P,D5,2,A*%
%TO.N,Net-(D1-A)*%
X53300000Y-81560000D03*
%TD*%
D10*
%TO.P,D4,1,K*%
%TO.N,Net-(D1-K)*%
X47480000Y-75630000D03*
D11*
%TO.P,D4,2,A*%
%TO.N,Net-(D1-A)*%
X50020000Y-75630000D03*
%TD*%
D12*
%TO.P,D3,1,K*%
%TO.N,Net-(D3-K)*%
X84200000Y-71420000D03*
D13*
%TO.P,D3,2,A*%
%TO.N,Net-(D3-A)*%
X76580000Y-71420000D03*
%TD*%
D11*
%TO.P,D2,2,A*%
%TO.N,Net-(D1-A)*%
X100090000Y-50930000D03*
D10*
%TO.P,D2,1,K*%
%TO.N,Net-(D1-K)*%
X97550000Y-50930000D03*
%TD*%
D11*
%TO.P,D1,2,A*%
%TO.N,Net-(D1-A)*%
X70445000Y-50890000D03*
D10*
%TO.P,D1,1,K*%
%TO.N,Net-(D1-K)*%
X67905000Y-50890000D03*
%TD*%
D12*
%TO.P,C1,1*%
%TO.N,Net-(D3-K)*%
X78900000Y-50900000D03*
D17*
%TO.P,C1,2*%
%TO.N,Net-(D1-K)*%
X81400000Y-50900000D03*
%TD*%
D18*
%TO.N,Net-(D3-A)*%
X111140000Y-42100000D02*
X116960000Y-47920000D01*
X73500000Y-44000000D02*
X75400000Y-42100000D01*
X76480000Y-61440000D02*
X73500000Y-58460000D01*
X73500000Y-58460000D02*
X73500000Y-44000000D01*
X75400000Y-42100000D02*
X111140000Y-42100000D01*
%TO.N,Net-(S1-E)*%
X74400000Y-48800000D02*
X74400000Y-56820000D01*
X77820000Y-45380000D02*
X74400000Y-48800000D01*
X74400000Y-56820000D02*
X76480000Y-58900000D01*
X110864000Y-45380000D02*
X77820000Y-45380000D01*
%TO.N,Net-(D3-K)*%
X105140000Y-59040000D02*
X113380000Y-59040000D01*
X101900000Y-55800000D02*
X105140000Y-59040000D01*
X83000000Y-55800000D02*
X101900000Y-55800000D01*
X82300000Y-56500000D02*
X83000000Y-55800000D01*
X82300000Y-59500000D02*
X82300000Y-56500000D01*
X82975000Y-60175000D02*
X82300000Y-59500000D01*
X82975000Y-60315000D02*
X82975000Y-60175000D01*
X84100000Y-61440000D02*
X82975000Y-60315000D01*
%TO.N,Net-(D1-K)*%
X93240000Y-68160000D02*
X93240000Y-72260000D01*
X84100000Y-58900000D02*
X93300000Y-68100000D01*
X93300000Y-68100000D02*
X93240000Y-68160000D01*
X93240000Y-73640000D02*
X102480000Y-82880000D01*
X102480000Y-82880000D02*
X104020000Y-82880000D01*
X93240000Y-72260000D02*
X93240000Y-73640000D01*
%TO.N,Net-(S1-E)*%
X87320000Y-66520000D02*
X84100000Y-66520000D01*
X89000000Y-68200000D02*
X87320000Y-66520000D01*
X89000000Y-83500000D02*
X89000000Y-68200000D01*
X88640000Y-83860000D02*
X89000000Y-83500000D01*
X85780000Y-83860000D02*
X88640000Y-83860000D01*
%TO.N,Net-(D3-K)*%
X84200000Y-74180000D02*
X85780000Y-75760000D01*
X84200000Y-71420000D02*
X84200000Y-74180000D01*
%TO.N,Net-(S1-E)*%
X85780000Y-87910000D02*
X85780000Y-83860000D01*
%TO.N,Net-(T1-B)*%
X84910000Y-79810000D02*
X80860000Y-75760000D01*
X85780000Y-79810000D02*
X84910000Y-79810000D01*
X80860000Y-75760000D02*
X75620000Y-75760000D01*
%TO.N,Net-(D1-K)*%
X78310000Y-79810000D02*
X75620000Y-79810000D01*
X79440000Y-80940000D02*
X78310000Y-79810000D01*
X79440000Y-99140000D02*
X79440000Y-80940000D01*
%TO.N,Net-(T1-C)*%
X71660000Y-83860000D02*
X75620000Y-83860000D01*
X67860000Y-80060000D02*
X71660000Y-83860000D01*
X67860000Y-69720000D02*
X67860000Y-80060000D01*
%TO.N,Net-(D1-K)*%
X109430000Y-75670000D02*
X111380000Y-75670000D01*
X108050000Y-77050000D02*
X109430000Y-75670000D01*
X108050000Y-81620000D02*
X108050000Y-77050000D01*
X104020000Y-82880000D02*
X105280000Y-81620000D01*
X104020000Y-87430000D02*
X104020000Y-82880000D01*
X105280000Y-81620000D02*
X108050000Y-81620000D01*
X99255000Y-89145000D02*
X100970000Y-87430000D01*
X99255000Y-92260000D02*
X99255000Y-89145000D01*
X100970000Y-87430000D02*
X104020000Y-87430000D01*
X97250000Y-92260000D02*
X99255000Y-92260000D01*
X93600000Y-95910000D02*
X97250000Y-92260000D01*
X89020000Y-100300000D02*
X86960000Y-98240000D01*
X93600000Y-98400000D02*
X91700000Y-100300000D01*
X93600000Y-95910000D02*
X93600000Y-98400000D01*
X91700000Y-100300000D02*
X89020000Y-100300000D01*
X84100000Y-101100000D02*
X81400000Y-101100000D01*
X81400000Y-101100000D02*
X79440000Y-99140000D01*
X86960000Y-98240000D02*
X84100000Y-101100000D01*
X78080000Y-100500000D02*
X79440000Y-99140000D01*
X74140000Y-100500000D02*
X78080000Y-100500000D01*
X71830000Y-98190000D02*
X74140000Y-100500000D01*
X66650000Y-98190000D02*
X71830000Y-98190000D01*
X65210000Y-96750000D02*
X66650000Y-98190000D01*
X65210000Y-95850000D02*
X65210000Y-96750000D01*
X63170000Y-95850000D02*
X65210000Y-95850000D01*
X59550000Y-92230000D02*
X63170000Y-95850000D01*
X54765000Y-87445000D02*
X59550000Y-92230000D01*
X54765000Y-87380000D02*
X54765000Y-87445000D01*
X50760000Y-83375000D02*
X54765000Y-87380000D01*
X50760000Y-81560000D02*
X50760000Y-83375000D01*
X47480000Y-78280000D02*
X50760000Y-81560000D01*
X47480000Y-75630000D02*
X47480000Y-78280000D01*
%TO.N,Net-(D1-A)*%
X62090000Y-92230000D02*
X62090000Y-72990000D01*
X61980000Y-72880000D02*
X57380000Y-77480000D01*
X62600000Y-72260000D02*
X61980000Y-72880000D01*
X62090000Y-72990000D02*
X61980000Y-72880000D01*
X57305000Y-77555000D02*
X57380000Y-77480000D01*
X57380000Y-77480000D02*
X53300000Y-81560000D01*
X57305000Y-87380000D02*
X57305000Y-77555000D01*
X53300000Y-78910000D02*
X53300000Y-81560000D01*
X50020000Y-75630000D02*
X53300000Y-78910000D01*
X65320000Y-72260000D02*
X62600000Y-72260000D01*
X65320000Y-56015000D02*
X65320000Y-72260000D01*
X70445000Y-50890000D02*
X65320000Y-56015000D01*
%TO.N,Net-(S1-E)*%
X80400000Y-62820000D02*
X80400000Y-65000000D01*
X80400000Y-65000000D02*
X81920000Y-66520000D01*
X76480000Y-58900000D02*
X80400000Y-62820000D01*
X81920000Y-66520000D02*
X84100000Y-66520000D01*
%TD*%
M02*
