M48
; DRILL file {KiCad 7.0.8} date Sat Apr  6 10:04:38 2024
; FORMAT={3:3/ absolute / metric / suppress leading zeros}
; #@! TF.CreationDate,2024-04-06T10:04:38+02:00
; #@! TF.GenerationSoftware,Kicad,Pcbnew,7.0.8
; #@! TF.FileFunction,MixedPlating,1,2
FMAT,2
METRIC,TZ
; #@! TA.AperFunction,Plated,PTH,ComponentDrill
T1C0.800
; #@! TA.AperFunction,Plated,PTH,ComponentDrill
T2C0.900
; #@! TA.AperFunction,Plated,PTH,ComponentDrill
T3C1.000
; #@! TA.AperFunction,Plated,PTH,ComponentDrill
T4C1.100
%
G90
G05
T1
X65320Y-72260
X67860Y-69720
X70400Y-72260
X75620Y-75760
X75620Y-79810
X75620Y-83860
X75620Y-87910
X76480Y-58900
X76480Y-61440
X76480Y-63980
X76480Y-66520
X76580Y-71420
X78900Y-50900
X81400Y-50900
X84100Y-58900
X84100Y-61440
X84100Y-63980
X84100Y-66520
X84200Y-71420
X85780Y-75760
X85780Y-79810
X85780Y-83860
X85780Y-87910
X93240Y-72260
X95780Y-69720
X98320Y-72260
T2
X47480Y-75630
X50020Y-75630
X50760Y-81560
X53300Y-81560
X54765Y-87380
X57305Y-87380
X59550Y-92230
X62090Y-92230
X65210Y-95850
X67750Y-95850
X67905Y-50890
X70445Y-50890
X71830Y-98190
X74370Y-98190
X79440Y-99140
X81980Y-99140
X86960Y-98240
X89500Y-98240
X93600Y-95910
X96140Y-95910
X97550Y-50930
X99255Y-92260
X100090Y-50930
X101795Y-92260
X104020Y-87430
X106560Y-87430
X108050Y-81620
X110590Y-81620
X111380Y-75670
X113920Y-75670
T3
X38990Y-65810
X38990Y-68350
X38990Y-70890
X110840Y-56500
X110840Y-61580
X110864Y-45380
X110864Y-50460
X116936Y-59040
X116960Y-47920
T4
X113380Y-59040
X113404Y-47920
T0
M30
