%TF.GenerationSoftware,KiCad,Pcbnew,7.0.8*%
%TF.CreationDate,2024-04-06T10:04:34+02:00*%
%TF.ProjectId,Smiley,536d696c-6579-42e6-9b69-6361645f7063,rev?*%
%TF.SameCoordinates,Original*%
%TF.FileFunction,Legend,Bot*%
%TF.FilePolarity,Positive*%
%FSLAX46Y46*%
G04 Gerber Fmt 4.6, Leading zero omitted, Abs format (unit mm)*
G04 Created by KiCad (PCBNEW 7.0.8) date 2024-04-06 10:04:34*
%MOMM*%
%LPD*%
G01*
G04 APERTURE LIST*
%ADD10C,0.150000*%
%ADD11C,0.050000*%
%ADD12C,0.120000*%
%ADD13C,0.010000*%
G04 APERTURE END LIST*
D10*
X43391792Y-55974580D02*
X43439411Y-56022200D01*
X43439411Y-56022200D02*
X43582268Y-56069819D01*
X43582268Y-56069819D02*
X43677506Y-56069819D01*
X43677506Y-56069819D02*
X43820363Y-56022200D01*
X43820363Y-56022200D02*
X43915601Y-55926961D01*
X43915601Y-55926961D02*
X43963220Y-55831723D01*
X43963220Y-55831723D02*
X44010839Y-55641247D01*
X44010839Y-55641247D02*
X44010839Y-55498390D01*
X44010839Y-55498390D02*
X43963220Y-55307914D01*
X43963220Y-55307914D02*
X43915601Y-55212676D01*
X43915601Y-55212676D02*
X43820363Y-55117438D01*
X43820363Y-55117438D02*
X43677506Y-55069819D01*
X43677506Y-55069819D02*
X43582268Y-55069819D01*
X43582268Y-55069819D02*
X43439411Y-55117438D01*
X43439411Y-55117438D02*
X43391792Y-55165057D01*
X42391792Y-56069819D02*
X42725125Y-55593628D01*
X42963220Y-56069819D02*
X42963220Y-55069819D01*
X42963220Y-55069819D02*
X42582268Y-55069819D01*
X42582268Y-55069819D02*
X42487030Y-55117438D01*
X42487030Y-55117438D02*
X42439411Y-55165057D01*
X42439411Y-55165057D02*
X42391792Y-55260295D01*
X42391792Y-55260295D02*
X42391792Y-55403152D01*
X42391792Y-55403152D02*
X42439411Y-55498390D01*
X42439411Y-55498390D02*
X42487030Y-55546009D01*
X42487030Y-55546009D02*
X42582268Y-55593628D01*
X42582268Y-55593628D02*
X42963220Y-55593628D01*
X42010839Y-55165057D02*
X41963220Y-55117438D01*
X41963220Y-55117438D02*
X41867982Y-55069819D01*
X41867982Y-55069819D02*
X41629887Y-55069819D01*
X41629887Y-55069819D02*
X41534649Y-55117438D01*
X41534649Y-55117438D02*
X41487030Y-55165057D01*
X41487030Y-55165057D02*
X41439411Y-55260295D01*
X41439411Y-55260295D02*
X41439411Y-55355533D01*
X41439411Y-55355533D02*
X41487030Y-55498390D01*
X41487030Y-55498390D02*
X42058458Y-56069819D01*
X42058458Y-56069819D02*
X41439411Y-56069819D01*
X40820363Y-55069819D02*
X40725125Y-55069819D01*
X40725125Y-55069819D02*
X40629887Y-55117438D01*
X40629887Y-55117438D02*
X40582268Y-55165057D01*
X40582268Y-55165057D02*
X40534649Y-55260295D01*
X40534649Y-55260295D02*
X40487030Y-55450771D01*
X40487030Y-55450771D02*
X40487030Y-55688866D01*
X40487030Y-55688866D02*
X40534649Y-55879342D01*
X40534649Y-55879342D02*
X40582268Y-55974580D01*
X40582268Y-55974580D02*
X40629887Y-56022200D01*
X40629887Y-56022200D02*
X40725125Y-56069819D01*
X40725125Y-56069819D02*
X40820363Y-56069819D01*
X40820363Y-56069819D02*
X40915601Y-56022200D01*
X40915601Y-56022200D02*
X40963220Y-55974580D01*
X40963220Y-55974580D02*
X41010839Y-55879342D01*
X41010839Y-55879342D02*
X41058458Y-55688866D01*
X41058458Y-55688866D02*
X41058458Y-55450771D01*
X41058458Y-55450771D02*
X41010839Y-55260295D01*
X41010839Y-55260295D02*
X40963220Y-55165057D01*
X40963220Y-55165057D02*
X40915601Y-55117438D01*
X40915601Y-55117438D02*
X40820363Y-55069819D01*
X40153696Y-55069819D02*
X39534649Y-55069819D01*
X39534649Y-55069819D02*
X39867982Y-55450771D01*
X39867982Y-55450771D02*
X39725125Y-55450771D01*
X39725125Y-55450771D02*
X39629887Y-55498390D01*
X39629887Y-55498390D02*
X39582268Y-55546009D01*
X39582268Y-55546009D02*
X39534649Y-55641247D01*
X39534649Y-55641247D02*
X39534649Y-55879342D01*
X39534649Y-55879342D02*
X39582268Y-55974580D01*
X39582268Y-55974580D02*
X39629887Y-56022200D01*
X39629887Y-56022200D02*
X39725125Y-56069819D01*
X39725125Y-56069819D02*
X40010839Y-56069819D01*
X40010839Y-56069819D02*
X40106077Y-56022200D01*
X40106077Y-56022200D02*
X40153696Y-55974580D01*
X39153696Y-55165057D02*
X39106077Y-55117438D01*
X39106077Y-55117438D02*
X39010839Y-55069819D01*
X39010839Y-55069819D02*
X38772744Y-55069819D01*
X38772744Y-55069819D02*
X38677506Y-55117438D01*
X38677506Y-55117438D02*
X38629887Y-55165057D01*
X38629887Y-55165057D02*
X38582268Y-55260295D01*
X38582268Y-55260295D02*
X38582268Y-55355533D01*
X38582268Y-55355533D02*
X38629887Y-55498390D01*
X38629887Y-55498390D02*
X39201315Y-56069819D01*
X39201315Y-56069819D02*
X38582268Y-56069819D01*
X113400000Y-59000000D02*
X110800000Y-56400000D01*
X113300000Y-48000000D02*
X110900000Y-45200000D01*
X38900000Y-68400000D02*
X38900000Y-65900000D01*
X63263220Y-72146009D02*
X62929887Y-72146009D01*
X62787030Y-72669819D02*
X63263220Y-72669819D01*
X63263220Y-72669819D02*
X63263220Y-71669819D01*
X63263220Y-71669819D02*
X62787030Y-71669819D01*
X95563220Y-51469819D02*
X95563220Y-50469819D01*
X94991792Y-51469819D02*
X95420363Y-50898390D01*
X94991792Y-50469819D02*
X95563220Y-51041247D01*
X65963220Y-51469819D02*
X65963220Y-50469819D01*
X65391792Y-51469819D02*
X65820363Y-50898390D01*
X65391792Y-50469819D02*
X65963220Y-51041247D01*
X83731506Y-107423819D02*
X83731506Y-108138104D01*
X83731506Y-108138104D02*
X83779125Y-108280961D01*
X83779125Y-108280961D02*
X83874363Y-108376200D01*
X83874363Y-108376200D02*
X84017220Y-108423819D01*
X84017220Y-108423819D02*
X84112458Y-108423819D01*
X82779125Y-108423819D02*
X83255315Y-108423819D01*
X83255315Y-108423819D02*
X83255315Y-107423819D01*
X81874363Y-108328580D02*
X81921982Y-108376200D01*
X81921982Y-108376200D02*
X82064839Y-108423819D01*
X82064839Y-108423819D02*
X82160077Y-108423819D01*
X82160077Y-108423819D02*
X82302934Y-108376200D01*
X82302934Y-108376200D02*
X82398172Y-108280961D01*
X82398172Y-108280961D02*
X82445791Y-108185723D01*
X82445791Y-108185723D02*
X82493410Y-107995247D01*
X82493410Y-107995247D02*
X82493410Y-107852390D01*
X82493410Y-107852390D02*
X82445791Y-107661914D01*
X82445791Y-107661914D02*
X82398172Y-107566676D01*
X82398172Y-107566676D02*
X82302934Y-107471438D01*
X82302934Y-107471438D02*
X82160077Y-107423819D01*
X82160077Y-107423819D02*
X82064839Y-107423819D01*
X82064839Y-107423819D02*
X81921982Y-107471438D01*
X81921982Y-107471438D02*
X81874363Y-107519057D01*
X81160077Y-107423819D02*
X81160077Y-108138104D01*
X81160077Y-108138104D02*
X81207696Y-108280961D01*
X81207696Y-108280961D02*
X81302934Y-108376200D01*
X81302934Y-108376200D02*
X81445791Y-108423819D01*
X81445791Y-108423819D02*
X81541029Y-108423819D01*
X80207696Y-108423819D02*
X80683886Y-108423819D01*
X80683886Y-108423819D02*
X80683886Y-107423819D01*
X79302934Y-108328580D02*
X79350553Y-108376200D01*
X79350553Y-108376200D02*
X79493410Y-108423819D01*
X79493410Y-108423819D02*
X79588648Y-108423819D01*
X79588648Y-108423819D02*
X79731505Y-108376200D01*
X79731505Y-108376200D02*
X79826743Y-108280961D01*
X79826743Y-108280961D02*
X79874362Y-108185723D01*
X79874362Y-108185723D02*
X79921981Y-107995247D01*
X79921981Y-107995247D02*
X79921981Y-107852390D01*
X79921981Y-107852390D02*
X79874362Y-107661914D01*
X79874362Y-107661914D02*
X79826743Y-107566676D01*
X79826743Y-107566676D02*
X79731505Y-107471438D01*
X79731505Y-107471438D02*
X79588648Y-107423819D01*
X79588648Y-107423819D02*
X79493410Y-107423819D01*
X79493410Y-107423819D02*
X79350553Y-107471438D01*
X79350553Y-107471438D02*
X79302934Y-107519057D01*
X78588648Y-107423819D02*
X78588648Y-108138104D01*
X78588648Y-108138104D02*
X78636267Y-108280961D01*
X78636267Y-108280961D02*
X78731505Y-108376200D01*
X78731505Y-108376200D02*
X78874362Y-108423819D01*
X78874362Y-108423819D02*
X78969600Y-108423819D01*
X77636267Y-108423819D02*
X78112457Y-108423819D01*
X78112457Y-108423819D02*
X78112457Y-107423819D01*
X76731505Y-108328580D02*
X76779124Y-108376200D01*
X76779124Y-108376200D02*
X76921981Y-108423819D01*
X76921981Y-108423819D02*
X77017219Y-108423819D01*
X77017219Y-108423819D02*
X77160076Y-108376200D01*
X77160076Y-108376200D02*
X77255314Y-108280961D01*
X77255314Y-108280961D02*
X77302933Y-108185723D01*
X77302933Y-108185723D02*
X77350552Y-107995247D01*
X77350552Y-107995247D02*
X77350552Y-107852390D01*
X77350552Y-107852390D02*
X77302933Y-107661914D01*
X77302933Y-107661914D02*
X77255314Y-107566676D01*
X77255314Y-107566676D02*
X77160076Y-107471438D01*
X77160076Y-107471438D02*
X77017219Y-107423819D01*
X77017219Y-107423819D02*
X76921981Y-107423819D01*
X76921981Y-107423819D02*
X76779124Y-107471438D01*
X76779124Y-107471438D02*
X76731505Y-107519057D01*
X76017219Y-107423819D02*
X76017219Y-108138104D01*
X76017219Y-108138104D02*
X76064838Y-108280961D01*
X76064838Y-108280961D02*
X76160076Y-108376200D01*
X76160076Y-108376200D02*
X76302933Y-108423819D01*
X76302933Y-108423819D02*
X76398171Y-108423819D01*
X75064838Y-108423819D02*
X75541028Y-108423819D01*
X75541028Y-108423819D02*
X75541028Y-107423819D01*
X74160076Y-108328580D02*
X74207695Y-108376200D01*
X74207695Y-108376200D02*
X74350552Y-108423819D01*
X74350552Y-108423819D02*
X74445790Y-108423819D01*
X74445790Y-108423819D02*
X74588647Y-108376200D01*
X74588647Y-108376200D02*
X74683885Y-108280961D01*
X74683885Y-108280961D02*
X74731504Y-108185723D01*
X74731504Y-108185723D02*
X74779123Y-107995247D01*
X74779123Y-107995247D02*
X74779123Y-107852390D01*
X74779123Y-107852390D02*
X74731504Y-107661914D01*
X74731504Y-107661914D02*
X74683885Y-107566676D01*
X74683885Y-107566676D02*
X74588647Y-107471438D01*
X74588647Y-107471438D02*
X74445790Y-107423819D01*
X74445790Y-107423819D02*
X74350552Y-107423819D01*
X74350552Y-107423819D02*
X74207695Y-107471438D01*
X74207695Y-107471438D02*
X74160076Y-107519057D01*
X79458095Y-26604819D02*
X79934285Y-26604819D01*
X79934285Y-26604819D02*
X79934285Y-25604819D01*
X79124761Y-26604819D02*
X79124761Y-25604819D01*
X79124761Y-25604819D02*
X78743809Y-25604819D01*
X78743809Y-25604819D02*
X78648571Y-25652438D01*
X78648571Y-25652438D02*
X78600952Y-25700057D01*
X78600952Y-25700057D02*
X78553333Y-25795295D01*
X78553333Y-25795295D02*
X78553333Y-25938152D01*
X78553333Y-25938152D02*
X78600952Y-26033390D01*
X78600952Y-26033390D02*
X78648571Y-26081009D01*
X78648571Y-26081009D02*
X78743809Y-26128628D01*
X78743809Y-26128628D02*
X79124761Y-26128628D01*
X78362857Y-26700057D02*
X77600952Y-26700057D01*
X77362856Y-26604819D02*
X77362856Y-25938152D01*
X77362856Y-26128628D02*
X77315237Y-26033390D01*
X77315237Y-26033390D02*
X77267618Y-25985771D01*
X77267618Y-25985771D02*
X77172380Y-25938152D01*
X77172380Y-25938152D02*
X77077142Y-25938152D01*
X76315237Y-25938152D02*
X76315237Y-26604819D01*
X76743808Y-25938152D02*
X76743808Y-26461961D01*
X76743808Y-26461961D02*
X76696189Y-26557200D01*
X76696189Y-26557200D02*
X76600951Y-26604819D01*
X76600951Y-26604819D02*
X76458094Y-26604819D01*
X76458094Y-26604819D02*
X76362856Y-26557200D01*
X76362856Y-26557200D02*
X76315237Y-26509580D01*
X75839046Y-25938152D02*
X75839046Y-26604819D01*
X75839046Y-26033390D02*
X75791427Y-25985771D01*
X75791427Y-25985771D02*
X75696189Y-25938152D01*
X75696189Y-25938152D02*
X75553332Y-25938152D01*
X75553332Y-25938152D02*
X75458094Y-25985771D01*
X75458094Y-25985771D02*
X75410475Y-26081009D01*
X75410475Y-26081009D02*
X75410475Y-26604819D01*
X74505713Y-26604819D02*
X74505713Y-25604819D01*
X74505713Y-26557200D02*
X74600951Y-26604819D01*
X74600951Y-26604819D02*
X74791427Y-26604819D01*
X74791427Y-26604819D02*
X74886665Y-26557200D01*
X74886665Y-26557200D02*
X74934284Y-26509580D01*
X74934284Y-26509580D02*
X74981903Y-26414342D01*
X74981903Y-26414342D02*
X74981903Y-26128628D01*
X74981903Y-26128628D02*
X74934284Y-26033390D01*
X74934284Y-26033390D02*
X74886665Y-25985771D01*
X74886665Y-25985771D02*
X74791427Y-25938152D01*
X74791427Y-25938152D02*
X74600951Y-25938152D01*
X74600951Y-25938152D02*
X74505713Y-25985771D01*
D11*
X58670019Y-48484285D02*
X59479542Y-48484285D01*
X59479542Y-48484285D02*
X59574780Y-48527142D01*
X59574780Y-48527142D02*
X59622400Y-48570000D01*
X59622400Y-48570000D02*
X59670019Y-48655714D01*
X59670019Y-48655714D02*
X59670019Y-48827142D01*
X59670019Y-48827142D02*
X59622400Y-48912857D01*
X59622400Y-48912857D02*
X59574780Y-48955714D01*
X59574780Y-48955714D02*
X59479542Y-48998571D01*
X59479542Y-48998571D02*
X58670019Y-48998571D01*
X58765257Y-49384285D02*
X58717638Y-49427142D01*
X58717638Y-49427142D02*
X58670019Y-49512857D01*
X58670019Y-49512857D02*
X58670019Y-49727142D01*
X58670019Y-49727142D02*
X58717638Y-49812857D01*
X58717638Y-49812857D02*
X58765257Y-49855714D01*
X58765257Y-49855714D02*
X58860495Y-49898571D01*
X58860495Y-49898571D02*
X58955733Y-49898571D01*
X58955733Y-49898571D02*
X59098590Y-49855714D01*
X59098590Y-49855714D02*
X59670019Y-49341428D01*
X59670019Y-49341428D02*
X59670019Y-49898571D01*
X55026209Y-40391429D02*
X55073828Y-40520001D01*
X55073828Y-40520001D02*
X55121447Y-40562858D01*
X55121447Y-40562858D02*
X55216685Y-40605715D01*
X55216685Y-40605715D02*
X55359542Y-40605715D01*
X55359542Y-40605715D02*
X55454780Y-40562858D01*
X55454780Y-40562858D02*
X55502400Y-40520001D01*
X55502400Y-40520001D02*
X55550019Y-40434286D01*
X55550019Y-40434286D02*
X55550019Y-40091429D01*
X55550019Y-40091429D02*
X54550019Y-40091429D01*
X54550019Y-40091429D02*
X54550019Y-40391429D01*
X54550019Y-40391429D02*
X54597638Y-40477144D01*
X54597638Y-40477144D02*
X54645257Y-40520001D01*
X54645257Y-40520001D02*
X54740495Y-40562858D01*
X54740495Y-40562858D02*
X54835733Y-40562858D01*
X54835733Y-40562858D02*
X54930971Y-40520001D01*
X54930971Y-40520001D02*
X54978590Y-40477144D01*
X54978590Y-40477144D02*
X55026209Y-40391429D01*
X55026209Y-40391429D02*
X55026209Y-40091429D01*
X55264304Y-40948572D02*
X55264304Y-41377144D01*
X55550019Y-40862858D02*
X54550019Y-41162858D01*
X54550019Y-41162858D02*
X55550019Y-41462858D01*
X54550019Y-41634287D02*
X54550019Y-42148573D01*
X55550019Y-41891430D02*
X54550019Y-41891430D01*
X55645257Y-42234287D02*
X55645257Y-42920001D01*
X55550019Y-43134286D02*
X54550019Y-43134286D01*
X55026209Y-43134286D02*
X55026209Y-43648572D01*
X55550019Y-43648572D02*
X54550019Y-43648572D01*
X55550019Y-44505715D02*
X55550019Y-44077143D01*
X55550019Y-44077143D02*
X54550019Y-44077143D01*
X55550019Y-44805714D02*
X54550019Y-44805714D01*
X54550019Y-44805714D02*
X54550019Y-45020000D01*
X54550019Y-45020000D02*
X54597638Y-45148571D01*
X54597638Y-45148571D02*
X54692876Y-45234286D01*
X54692876Y-45234286D02*
X54788114Y-45277143D01*
X54788114Y-45277143D02*
X54978590Y-45320000D01*
X54978590Y-45320000D02*
X55121447Y-45320000D01*
X55121447Y-45320000D02*
X55311923Y-45277143D01*
X55311923Y-45277143D02*
X55407161Y-45234286D01*
X55407161Y-45234286D02*
X55502400Y-45148571D01*
X55502400Y-45148571D02*
X55550019Y-45020000D01*
X55550019Y-45020000D02*
X55550019Y-44805714D01*
X55645257Y-45491429D02*
X55645257Y-46177143D01*
X55502400Y-46348571D02*
X55550019Y-46477143D01*
X55550019Y-46477143D02*
X55550019Y-46691428D01*
X55550019Y-46691428D02*
X55502400Y-46777143D01*
X55502400Y-46777143D02*
X55454780Y-46820000D01*
X55454780Y-46820000D02*
X55359542Y-46862857D01*
X55359542Y-46862857D02*
X55264304Y-46862857D01*
X55264304Y-46862857D02*
X55169066Y-46820000D01*
X55169066Y-46820000D02*
X55121447Y-46777143D01*
X55121447Y-46777143D02*
X55073828Y-46691428D01*
X55073828Y-46691428D02*
X55026209Y-46520000D01*
X55026209Y-46520000D02*
X54978590Y-46434285D01*
X54978590Y-46434285D02*
X54930971Y-46391428D01*
X54930971Y-46391428D02*
X54835733Y-46348571D01*
X54835733Y-46348571D02*
X54740495Y-46348571D01*
X54740495Y-46348571D02*
X54645257Y-46391428D01*
X54645257Y-46391428D02*
X54597638Y-46434285D01*
X54597638Y-46434285D02*
X54550019Y-46520000D01*
X54550019Y-46520000D02*
X54550019Y-46734285D01*
X54550019Y-46734285D02*
X54597638Y-46862857D01*
X55550019Y-47248571D02*
X54550019Y-47248571D01*
X54550019Y-47248571D02*
X55264304Y-47548571D01*
X55264304Y-47548571D02*
X54550019Y-47848571D01*
X54550019Y-47848571D02*
X55550019Y-47848571D01*
X55550019Y-48277142D02*
X54550019Y-48277142D01*
X54550019Y-48277142D02*
X54550019Y-48491428D01*
X54550019Y-48491428D02*
X54597638Y-48619999D01*
X54597638Y-48619999D02*
X54692876Y-48705714D01*
X54692876Y-48705714D02*
X54788114Y-48748571D01*
X54788114Y-48748571D02*
X54978590Y-48791428D01*
X54978590Y-48791428D02*
X55121447Y-48791428D01*
X55121447Y-48791428D02*
X55311923Y-48748571D01*
X55311923Y-48748571D02*
X55407161Y-48705714D01*
X55407161Y-48705714D02*
X55502400Y-48619999D01*
X55502400Y-48619999D02*
X55550019Y-48491428D01*
X55550019Y-48491428D02*
X55550019Y-48277142D01*
D10*
X-17783809Y-61879819D02*
X-17783809Y-62689342D01*
X-17783809Y-62689342D02*
X-17831428Y-62784580D01*
X-17831428Y-62784580D02*
X-17879047Y-62832200D01*
X-17879047Y-62832200D02*
X-17974285Y-62879819D01*
X-17974285Y-62879819D02*
X-18164761Y-62879819D01*
X-18164761Y-62879819D02*
X-18259999Y-62832200D01*
X-18259999Y-62832200D02*
X-18307618Y-62784580D01*
X-18307618Y-62784580D02*
X-18355237Y-62689342D01*
X-18355237Y-62689342D02*
X-18355237Y-61879819D01*
X-19355237Y-62879819D02*
X-18783809Y-62879819D01*
X-19069523Y-62879819D02*
X-19069523Y-61879819D01*
X-19069523Y-61879819D02*
X-18974285Y-62022676D01*
X-18974285Y-62022676D02*
X-18879047Y-62117914D01*
X-18879047Y-62117914D02*
X-18783809Y-62165533D01*
X82956666Y-69304819D02*
X82956666Y-68304819D01*
X82956666Y-68304819D02*
X82385238Y-69304819D01*
X82385238Y-69304819D02*
X82385238Y-68304819D01*
X81909047Y-68781009D02*
X81575714Y-68781009D01*
X81432857Y-69304819D02*
X81909047Y-69304819D01*
X81909047Y-69304819D02*
X81909047Y-68304819D01*
X81909047Y-68304819D02*
X81432857Y-68304819D01*
X80528095Y-68304819D02*
X81004285Y-68304819D01*
X81004285Y-68304819D02*
X81051904Y-68781009D01*
X81051904Y-68781009D02*
X81004285Y-68733390D01*
X81004285Y-68733390D02*
X80909047Y-68685771D01*
X80909047Y-68685771D02*
X80670952Y-68685771D01*
X80670952Y-68685771D02*
X80575714Y-68733390D01*
X80575714Y-68733390D02*
X80528095Y-68781009D01*
X80528095Y-68781009D02*
X80480476Y-68876247D01*
X80480476Y-68876247D02*
X80480476Y-69114342D01*
X80480476Y-69114342D02*
X80528095Y-69209580D01*
X80528095Y-69209580D02*
X80575714Y-69257200D01*
X80575714Y-69257200D02*
X80670952Y-69304819D01*
X80670952Y-69304819D02*
X80909047Y-69304819D01*
X80909047Y-69304819D02*
X81004285Y-69257200D01*
X81004285Y-69257200D02*
X81051904Y-69209580D01*
X79575714Y-68304819D02*
X80051904Y-68304819D01*
X80051904Y-68304819D02*
X80099523Y-68781009D01*
X80099523Y-68781009D02*
X80051904Y-68733390D01*
X80051904Y-68733390D02*
X79956666Y-68685771D01*
X79956666Y-68685771D02*
X79718571Y-68685771D01*
X79718571Y-68685771D02*
X79623333Y-68733390D01*
X79623333Y-68733390D02*
X79575714Y-68781009D01*
X79575714Y-68781009D02*
X79528095Y-68876247D01*
X79528095Y-68876247D02*
X79528095Y-69114342D01*
X79528095Y-69114342D02*
X79575714Y-69209580D01*
X79575714Y-69209580D02*
X79623333Y-69257200D01*
X79623333Y-69257200D02*
X79718571Y-69304819D01*
X79718571Y-69304819D02*
X79956666Y-69304819D01*
X79956666Y-69304819D02*
X80051904Y-69257200D01*
X80051904Y-69257200D02*
X80099523Y-69209580D01*
X78623333Y-68304819D02*
X79099523Y-68304819D01*
X79099523Y-68304819D02*
X79147142Y-68781009D01*
X79147142Y-68781009D02*
X79099523Y-68733390D01*
X79099523Y-68733390D02*
X79004285Y-68685771D01*
X79004285Y-68685771D02*
X78766190Y-68685771D01*
X78766190Y-68685771D02*
X78670952Y-68733390D01*
X78670952Y-68733390D02*
X78623333Y-68781009D01*
X78623333Y-68781009D02*
X78575714Y-68876247D01*
X78575714Y-68876247D02*
X78575714Y-69114342D01*
X78575714Y-69114342D02*
X78623333Y-69209580D01*
X78623333Y-69209580D02*
X78670952Y-69257200D01*
X78670952Y-69257200D02*
X78766190Y-69304819D01*
X78766190Y-69304819D02*
X79004285Y-69304819D01*
X79004285Y-69304819D02*
X79099523Y-69257200D01*
X79099523Y-69257200D02*
X79147142Y-69209580D01*
X78147142Y-69304819D02*
X78147142Y-68304819D01*
X78147142Y-68304819D02*
X77766190Y-68304819D01*
X77766190Y-68304819D02*
X77670952Y-68352438D01*
X77670952Y-68352438D02*
X77623333Y-68400057D01*
X77623333Y-68400057D02*
X77575714Y-68495295D01*
X77575714Y-68495295D02*
X77575714Y-68638152D01*
X77575714Y-68638152D02*
X77623333Y-68733390D01*
X77623333Y-68733390D02*
X77670952Y-68781009D01*
X77670952Y-68781009D02*
X77766190Y-68828628D01*
X77766190Y-68828628D02*
X78147142Y-68828628D01*
X68579904Y-66764819D02*
X68008476Y-66764819D01*
X68294190Y-67764819D02*
X68294190Y-66764819D01*
X67722761Y-66860057D02*
X67675142Y-66812438D01*
X67675142Y-66812438D02*
X67579904Y-66764819D01*
X67579904Y-66764819D02*
X67341809Y-66764819D01*
X67341809Y-66764819D02*
X67246571Y-66812438D01*
X67246571Y-66812438D02*
X67198952Y-66860057D01*
X67198952Y-66860057D02*
X67151333Y-66955295D01*
X67151333Y-66955295D02*
X67151333Y-67050533D01*
X67151333Y-67050533D02*
X67198952Y-67193390D01*
X67198952Y-67193390D02*
X67770380Y-67764819D01*
X67770380Y-67764819D02*
X67151333Y-67764819D01*
X96519904Y-66764819D02*
X95948476Y-66764819D01*
X96234190Y-67764819D02*
X96234190Y-66764819D01*
X95091333Y-67764819D02*
X95662761Y-67764819D01*
X95377047Y-67764819D02*
X95377047Y-66764819D01*
X95377047Y-66764819D02*
X95472285Y-66907676D01*
X95472285Y-66907676D02*
X95567523Y-67002914D01*
X95567523Y-67002914D02*
X95662761Y-67050533D01*
X43361904Y-71507200D02*
X43219047Y-71554819D01*
X43219047Y-71554819D02*
X42980952Y-71554819D01*
X42980952Y-71554819D02*
X42885714Y-71507200D01*
X42885714Y-71507200D02*
X42838095Y-71459580D01*
X42838095Y-71459580D02*
X42790476Y-71364342D01*
X42790476Y-71364342D02*
X42790476Y-71269104D01*
X42790476Y-71269104D02*
X42838095Y-71173866D01*
X42838095Y-71173866D02*
X42885714Y-71126247D01*
X42885714Y-71126247D02*
X42980952Y-71078628D01*
X42980952Y-71078628D02*
X43171428Y-71031009D01*
X43171428Y-71031009D02*
X43266666Y-70983390D01*
X43266666Y-70983390D02*
X43314285Y-70935771D01*
X43314285Y-70935771D02*
X43361904Y-70840533D01*
X43361904Y-70840533D02*
X43361904Y-70745295D01*
X43361904Y-70745295D02*
X43314285Y-70650057D01*
X43314285Y-70650057D02*
X43266666Y-70602438D01*
X43266666Y-70602438D02*
X43171428Y-70554819D01*
X43171428Y-70554819D02*
X42933333Y-70554819D01*
X42933333Y-70554819D02*
X42790476Y-70602438D01*
X41838095Y-71554819D02*
X42409523Y-71554819D01*
X42123809Y-71554819D02*
X42123809Y-70554819D01*
X42123809Y-70554819D02*
X42219047Y-70697676D01*
X42219047Y-70697676D02*
X42314285Y-70792914D01*
X42314285Y-70792914D02*
X42409523Y-70840533D01*
X91042857Y-88354819D02*
X91614285Y-88354819D01*
X91328571Y-88354819D02*
X91328571Y-87354819D01*
X91328571Y-87354819D02*
X91423809Y-87497676D01*
X91423809Y-87497676D02*
X91519047Y-87592914D01*
X91519047Y-87592914D02*
X91614285Y-87640533D01*
X90423809Y-87354819D02*
X90328571Y-87354819D01*
X90328571Y-87354819D02*
X90233333Y-87402438D01*
X90233333Y-87402438D02*
X90185714Y-87450057D01*
X90185714Y-87450057D02*
X90138095Y-87545295D01*
X90138095Y-87545295D02*
X90090476Y-87735771D01*
X90090476Y-87735771D02*
X90090476Y-87973866D01*
X90090476Y-87973866D02*
X90138095Y-88164342D01*
X90138095Y-88164342D02*
X90185714Y-88259580D01*
X90185714Y-88259580D02*
X90233333Y-88307200D01*
X90233333Y-88307200D02*
X90328571Y-88354819D01*
X90328571Y-88354819D02*
X90423809Y-88354819D01*
X90423809Y-88354819D02*
X90519047Y-88307200D01*
X90519047Y-88307200D02*
X90566666Y-88259580D01*
X90566666Y-88259580D02*
X90614285Y-88164342D01*
X90614285Y-88164342D02*
X90661904Y-87973866D01*
X90661904Y-87973866D02*
X90661904Y-87735771D01*
X90661904Y-87735771D02*
X90614285Y-87545295D01*
X90614285Y-87545295D02*
X90566666Y-87450057D01*
X90566666Y-87450057D02*
X90519047Y-87402438D01*
X90519047Y-87402438D02*
X90423809Y-87354819D01*
X89090476Y-88354819D02*
X89423809Y-87878628D01*
X89661904Y-88354819D02*
X89661904Y-87354819D01*
X89661904Y-87354819D02*
X89280952Y-87354819D01*
X89280952Y-87354819D02*
X89185714Y-87402438D01*
X89185714Y-87402438D02*
X89138095Y-87450057D01*
X89138095Y-87450057D02*
X89090476Y-87545295D01*
X89090476Y-87545295D02*
X89090476Y-87688152D01*
X89090476Y-87688152D02*
X89138095Y-87783390D01*
X89138095Y-87783390D02*
X89185714Y-87831009D01*
X89185714Y-87831009D02*
X89280952Y-87878628D01*
X89280952Y-87878628D02*
X89661904Y-87878628D01*
X91138095Y-83988152D02*
X91138095Y-84654819D01*
X91376190Y-83607200D02*
X91614285Y-84321485D01*
X91614285Y-84321485D02*
X90995238Y-84321485D01*
X90614285Y-84654819D02*
X90614285Y-83654819D01*
X90519047Y-84273866D02*
X90233333Y-84654819D01*
X90233333Y-83988152D02*
X90614285Y-84369104D01*
X89899999Y-83654819D02*
X89233333Y-83654819D01*
X89233333Y-83654819D02*
X89661904Y-84654819D01*
X91661903Y-79354819D02*
X91042856Y-79354819D01*
X91042856Y-79354819D02*
X91376189Y-79735771D01*
X91376189Y-79735771D02*
X91233332Y-79735771D01*
X91233332Y-79735771D02*
X91138094Y-79783390D01*
X91138094Y-79783390D02*
X91090475Y-79831009D01*
X91090475Y-79831009D02*
X91042856Y-79926247D01*
X91042856Y-79926247D02*
X91042856Y-80164342D01*
X91042856Y-80164342D02*
X91090475Y-80259580D01*
X91090475Y-80259580D02*
X91138094Y-80307200D01*
X91138094Y-80307200D02*
X91233332Y-80354819D01*
X91233332Y-80354819D02*
X91519046Y-80354819D01*
X91519046Y-80354819D02*
X91614284Y-80307200D01*
X91614284Y-80307200D02*
X91661903Y-80259580D01*
X90566665Y-80354819D02*
X90376189Y-80354819D01*
X90376189Y-80354819D02*
X90280951Y-80307200D01*
X90280951Y-80307200D02*
X90233332Y-80259580D01*
X90233332Y-80259580D02*
X90138094Y-80116723D01*
X90138094Y-80116723D02*
X90090475Y-79926247D01*
X90090475Y-79926247D02*
X90090475Y-79545295D01*
X90090475Y-79545295D02*
X90138094Y-79450057D01*
X90138094Y-79450057D02*
X90185713Y-79402438D01*
X90185713Y-79402438D02*
X90280951Y-79354819D01*
X90280951Y-79354819D02*
X90471427Y-79354819D01*
X90471427Y-79354819D02*
X90566665Y-79402438D01*
X90566665Y-79402438D02*
X90614284Y-79450057D01*
X90614284Y-79450057D02*
X90661903Y-79545295D01*
X90661903Y-79545295D02*
X90661903Y-79783390D01*
X90661903Y-79783390D02*
X90614284Y-79878628D01*
X90614284Y-79878628D02*
X90566665Y-79926247D01*
X90566665Y-79926247D02*
X90471427Y-79973866D01*
X90471427Y-79973866D02*
X90280951Y-79973866D01*
X90280951Y-79973866D02*
X90185713Y-79926247D01*
X90185713Y-79926247D02*
X90138094Y-79878628D01*
X90138094Y-79878628D02*
X90090475Y-79783390D01*
X89471427Y-79354819D02*
X89376189Y-79354819D01*
X89376189Y-79354819D02*
X89280951Y-79402438D01*
X89280951Y-79402438D02*
X89233332Y-79450057D01*
X89233332Y-79450057D02*
X89185713Y-79545295D01*
X89185713Y-79545295D02*
X89138094Y-79735771D01*
X89138094Y-79735771D02*
X89138094Y-79973866D01*
X89138094Y-79973866D02*
X89185713Y-80164342D01*
X89185713Y-80164342D02*
X89233332Y-80259580D01*
X89233332Y-80259580D02*
X89280951Y-80307200D01*
X89280951Y-80307200D02*
X89376189Y-80354819D01*
X89376189Y-80354819D02*
X89471427Y-80354819D01*
X89471427Y-80354819D02*
X89566665Y-80307200D01*
X89566665Y-80307200D02*
X89614284Y-80259580D01*
X89614284Y-80259580D02*
X89661903Y-80164342D01*
X89661903Y-80164342D02*
X89709522Y-79973866D01*
X89709522Y-79973866D02*
X89709522Y-79735771D01*
X89709522Y-79735771D02*
X89661903Y-79545295D01*
X89661903Y-79545295D02*
X89614284Y-79450057D01*
X89614284Y-79450057D02*
X89566665Y-79402438D01*
X89566665Y-79402438D02*
X89471427Y-79354819D01*
X88709522Y-80354819D02*
X88709522Y-79354819D01*
X88614284Y-79973866D02*
X88328570Y-80354819D01*
X88328570Y-79688152D02*
X88709522Y-80069104D01*
X91090475Y-75354819D02*
X91566665Y-75354819D01*
X91566665Y-75354819D02*
X91614284Y-75831009D01*
X91614284Y-75831009D02*
X91566665Y-75783390D01*
X91566665Y-75783390D02*
X91471427Y-75735771D01*
X91471427Y-75735771D02*
X91233332Y-75735771D01*
X91233332Y-75735771D02*
X91138094Y-75783390D01*
X91138094Y-75783390D02*
X91090475Y-75831009D01*
X91090475Y-75831009D02*
X91042856Y-75926247D01*
X91042856Y-75926247D02*
X91042856Y-76164342D01*
X91042856Y-76164342D02*
X91090475Y-76259580D01*
X91090475Y-76259580D02*
X91138094Y-76307200D01*
X91138094Y-76307200D02*
X91233332Y-76354819D01*
X91233332Y-76354819D02*
X91471427Y-76354819D01*
X91471427Y-76354819D02*
X91566665Y-76307200D01*
X91566665Y-76307200D02*
X91614284Y-76259580D01*
X90185713Y-75354819D02*
X90376189Y-75354819D01*
X90376189Y-75354819D02*
X90471427Y-75402438D01*
X90471427Y-75402438D02*
X90519046Y-75450057D01*
X90519046Y-75450057D02*
X90614284Y-75592914D01*
X90614284Y-75592914D02*
X90661903Y-75783390D01*
X90661903Y-75783390D02*
X90661903Y-76164342D01*
X90661903Y-76164342D02*
X90614284Y-76259580D01*
X90614284Y-76259580D02*
X90566665Y-76307200D01*
X90566665Y-76307200D02*
X90471427Y-76354819D01*
X90471427Y-76354819D02*
X90280951Y-76354819D01*
X90280951Y-76354819D02*
X90185713Y-76307200D01*
X90185713Y-76307200D02*
X90138094Y-76259580D01*
X90138094Y-76259580D02*
X90090475Y-76164342D01*
X90090475Y-76164342D02*
X90090475Y-75926247D01*
X90090475Y-75926247D02*
X90138094Y-75831009D01*
X90138094Y-75831009D02*
X90185713Y-75783390D01*
X90185713Y-75783390D02*
X90280951Y-75735771D01*
X90280951Y-75735771D02*
X90471427Y-75735771D01*
X90471427Y-75735771D02*
X90566665Y-75783390D01*
X90566665Y-75783390D02*
X90614284Y-75831009D01*
X90614284Y-75831009D02*
X90661903Y-75926247D01*
X89471427Y-75354819D02*
X89376189Y-75354819D01*
X89376189Y-75354819D02*
X89280951Y-75402438D01*
X89280951Y-75402438D02*
X89233332Y-75450057D01*
X89233332Y-75450057D02*
X89185713Y-75545295D01*
X89185713Y-75545295D02*
X89138094Y-75735771D01*
X89138094Y-75735771D02*
X89138094Y-75973866D01*
X89138094Y-75973866D02*
X89185713Y-76164342D01*
X89185713Y-76164342D02*
X89233332Y-76259580D01*
X89233332Y-76259580D02*
X89280951Y-76307200D01*
X89280951Y-76307200D02*
X89376189Y-76354819D01*
X89376189Y-76354819D02*
X89471427Y-76354819D01*
X89471427Y-76354819D02*
X89566665Y-76307200D01*
X89566665Y-76307200D02*
X89614284Y-76259580D01*
X89614284Y-76259580D02*
X89661903Y-76164342D01*
X89661903Y-76164342D02*
X89709522Y-75973866D01*
X89709522Y-75973866D02*
X89709522Y-75735771D01*
X89709522Y-75735771D02*
X89661903Y-75545295D01*
X89661903Y-75545295D02*
X89614284Y-75450057D01*
X89614284Y-75450057D02*
X89566665Y-75402438D01*
X89566665Y-75402438D02*
X89471427Y-75354819D01*
X88709522Y-76354819D02*
X88709522Y-75354819D01*
X88614284Y-75973866D02*
X88328570Y-76354819D01*
X88328570Y-75688152D02*
X88709522Y-76069104D01*
X108395238Y-59494819D02*
X108966666Y-59494819D01*
X108680952Y-59494819D02*
X108680952Y-58494819D01*
X108680952Y-58494819D02*
X108776190Y-58637676D01*
X108776190Y-58637676D02*
X108871428Y-58732914D01*
X108871428Y-58732914D02*
X108966666Y-58780533D01*
X107776190Y-58494819D02*
X107680952Y-58494819D01*
X107680952Y-58494819D02*
X107585714Y-58542438D01*
X107585714Y-58542438D02*
X107538095Y-58590057D01*
X107538095Y-58590057D02*
X107490476Y-58685295D01*
X107490476Y-58685295D02*
X107442857Y-58875771D01*
X107442857Y-58875771D02*
X107442857Y-59113866D01*
X107442857Y-59113866D02*
X107490476Y-59304342D01*
X107490476Y-59304342D02*
X107538095Y-59399580D01*
X107538095Y-59399580D02*
X107585714Y-59447200D01*
X107585714Y-59447200D02*
X107680952Y-59494819D01*
X107680952Y-59494819D02*
X107776190Y-59494819D01*
X107776190Y-59494819D02*
X107871428Y-59447200D01*
X107871428Y-59447200D02*
X107919047Y-59399580D01*
X107919047Y-59399580D02*
X107966666Y-59304342D01*
X107966666Y-59304342D02*
X108014285Y-59113866D01*
X108014285Y-59113866D02*
X108014285Y-58875771D01*
X108014285Y-58875771D02*
X107966666Y-58685295D01*
X107966666Y-58685295D02*
X107919047Y-58590057D01*
X107919047Y-58590057D02*
X107871428Y-58542438D01*
X107871428Y-58542438D02*
X107776190Y-58494819D01*
X107014285Y-59494819D02*
X107014285Y-58494819D01*
X106919047Y-59113866D02*
X106633333Y-59494819D01*
X106633333Y-58828152D02*
X107014285Y-59209104D01*
X108419238Y-48374819D02*
X108990666Y-48374819D01*
X108704952Y-48374819D02*
X108704952Y-47374819D01*
X108704952Y-47374819D02*
X108800190Y-47517676D01*
X108800190Y-47517676D02*
X108895428Y-47612914D01*
X108895428Y-47612914D02*
X108990666Y-47660533D01*
X107800190Y-47374819D02*
X107704952Y-47374819D01*
X107704952Y-47374819D02*
X107609714Y-47422438D01*
X107609714Y-47422438D02*
X107562095Y-47470057D01*
X107562095Y-47470057D02*
X107514476Y-47565295D01*
X107514476Y-47565295D02*
X107466857Y-47755771D01*
X107466857Y-47755771D02*
X107466857Y-47993866D01*
X107466857Y-47993866D02*
X107514476Y-48184342D01*
X107514476Y-48184342D02*
X107562095Y-48279580D01*
X107562095Y-48279580D02*
X107609714Y-48327200D01*
X107609714Y-48327200D02*
X107704952Y-48374819D01*
X107704952Y-48374819D02*
X107800190Y-48374819D01*
X107800190Y-48374819D02*
X107895428Y-48327200D01*
X107895428Y-48327200D02*
X107943047Y-48279580D01*
X107943047Y-48279580D02*
X107990666Y-48184342D01*
X107990666Y-48184342D02*
X108038285Y-47993866D01*
X108038285Y-47993866D02*
X108038285Y-47755771D01*
X108038285Y-47755771D02*
X107990666Y-47565295D01*
X107990666Y-47565295D02*
X107943047Y-47470057D01*
X107943047Y-47470057D02*
X107895428Y-47422438D01*
X107895428Y-47422438D02*
X107800190Y-47374819D01*
X107038285Y-48374819D02*
X107038285Y-47374819D01*
X106943047Y-47993866D02*
X106657333Y-48374819D01*
X106657333Y-47708152D02*
X107038285Y-48089104D01*
X91042857Y-71954819D02*
X91614285Y-71954819D01*
X91328571Y-71954819D02*
X91328571Y-70954819D01*
X91328571Y-70954819D02*
X91423809Y-71097676D01*
X91423809Y-71097676D02*
X91519047Y-71192914D01*
X91519047Y-71192914D02*
X91614285Y-71240533D01*
X90614285Y-71954819D02*
X90614285Y-70954819D01*
X90614285Y-70954819D02*
X90042857Y-71954819D01*
X90042857Y-71954819D02*
X90042857Y-70954819D01*
X89138095Y-71288152D02*
X89138095Y-71954819D01*
X89376190Y-70907200D02*
X89614285Y-71621485D01*
X89614285Y-71621485D02*
X88995238Y-71621485D01*
X88090476Y-71954819D02*
X88661904Y-71954819D01*
X88376190Y-71954819D02*
X88376190Y-70954819D01*
X88376190Y-70954819D02*
X88471428Y-71097676D01*
X88471428Y-71097676D02*
X88566666Y-71192914D01*
X88566666Y-71192914D02*
X88661904Y-71240533D01*
X87233333Y-71288152D02*
X87233333Y-71954819D01*
X87471428Y-70907200D02*
X87709523Y-71621485D01*
X87709523Y-71621485D02*
X87090476Y-71621485D01*
X86566666Y-71383390D02*
X86661904Y-71335771D01*
X86661904Y-71335771D02*
X86709523Y-71288152D01*
X86709523Y-71288152D02*
X86757142Y-71192914D01*
X86757142Y-71192914D02*
X86757142Y-71145295D01*
X86757142Y-71145295D02*
X86709523Y-71050057D01*
X86709523Y-71050057D02*
X86661904Y-71002438D01*
X86661904Y-71002438D02*
X86566666Y-70954819D01*
X86566666Y-70954819D02*
X86376190Y-70954819D01*
X86376190Y-70954819D02*
X86280952Y-71002438D01*
X86280952Y-71002438D02*
X86233333Y-71050057D01*
X86233333Y-71050057D02*
X86185714Y-71145295D01*
X86185714Y-71145295D02*
X86185714Y-71192914D01*
X86185714Y-71192914D02*
X86233333Y-71288152D01*
X86233333Y-71288152D02*
X86280952Y-71335771D01*
X86280952Y-71335771D02*
X86376190Y-71383390D01*
X86376190Y-71383390D02*
X86566666Y-71383390D01*
X86566666Y-71383390D02*
X86661904Y-71431009D01*
X86661904Y-71431009D02*
X86709523Y-71478628D01*
X86709523Y-71478628D02*
X86757142Y-71573866D01*
X86757142Y-71573866D02*
X86757142Y-71764342D01*
X86757142Y-71764342D02*
X86709523Y-71859580D01*
X86709523Y-71859580D02*
X86661904Y-71907200D01*
X86661904Y-71907200D02*
X86566666Y-71954819D01*
X86566666Y-71954819D02*
X86376190Y-71954819D01*
X86376190Y-71954819D02*
X86280952Y-71907200D01*
X86280952Y-71907200D02*
X86233333Y-71859580D01*
X86233333Y-71859580D02*
X86185714Y-71764342D01*
X86185714Y-71764342D02*
X86185714Y-71573866D01*
X86185714Y-71573866D02*
X86233333Y-71478628D01*
X86233333Y-71478628D02*
X86280952Y-71431009D01*
X86280952Y-71431009D02*
X86376190Y-71383390D01*
X84461904Y-70074819D02*
X84461904Y-69074819D01*
X83890476Y-70074819D02*
X84319047Y-69503390D01*
X83890476Y-69074819D02*
X84461904Y-69646247D01*
X82269047Y-46050057D02*
X82221428Y-46002438D01*
X82221428Y-46002438D02*
X82126190Y-45954819D01*
X82126190Y-45954819D02*
X81888095Y-45954819D01*
X81888095Y-45954819D02*
X81792857Y-46002438D01*
X81792857Y-46002438D02*
X81745238Y-46050057D01*
X81745238Y-46050057D02*
X81697619Y-46145295D01*
X81697619Y-46145295D02*
X81697619Y-46240533D01*
X81697619Y-46240533D02*
X81745238Y-46383390D01*
X81745238Y-46383390D02*
X82316666Y-46954819D01*
X82316666Y-46954819D02*
X81697619Y-46954819D01*
X81316666Y-46050057D02*
X81269047Y-46002438D01*
X81269047Y-46002438D02*
X81173809Y-45954819D01*
X81173809Y-45954819D02*
X80935714Y-45954819D01*
X80935714Y-45954819D02*
X80840476Y-46002438D01*
X80840476Y-46002438D02*
X80792857Y-46050057D01*
X80792857Y-46050057D02*
X80745238Y-46145295D01*
X80745238Y-46145295D02*
X80745238Y-46240533D01*
X80745238Y-46240533D02*
X80792857Y-46383390D01*
X80792857Y-46383390D02*
X81364285Y-46954819D01*
X81364285Y-46954819D02*
X80745238Y-46954819D01*
X80126190Y-45954819D02*
X80030952Y-45954819D01*
X80030952Y-45954819D02*
X79935714Y-46002438D01*
X79935714Y-46002438D02*
X79888095Y-46050057D01*
X79888095Y-46050057D02*
X79840476Y-46145295D01*
X79840476Y-46145295D02*
X79792857Y-46335771D01*
X79792857Y-46335771D02*
X79792857Y-46573866D01*
X79792857Y-46573866D02*
X79840476Y-46764342D01*
X79840476Y-46764342D02*
X79888095Y-46859580D01*
X79888095Y-46859580D02*
X79935714Y-46907200D01*
X79935714Y-46907200D02*
X80030952Y-46954819D01*
X80030952Y-46954819D02*
X80126190Y-46954819D01*
X80126190Y-46954819D02*
X80221428Y-46907200D01*
X80221428Y-46907200D02*
X80269047Y-46859580D01*
X80269047Y-46859580D02*
X80316666Y-46764342D01*
X80316666Y-46764342D02*
X80364285Y-46573866D01*
X80364285Y-46573866D02*
X80364285Y-46335771D01*
X80364285Y-46335771D02*
X80316666Y-46145295D01*
X80316666Y-46145295D02*
X80269047Y-46050057D01*
X80269047Y-46050057D02*
X80221428Y-46002438D01*
X80221428Y-46002438D02*
X80126190Y-45954819D01*
X78935714Y-46288152D02*
X78935714Y-46954819D01*
X79364285Y-46288152D02*
X79364285Y-46811961D01*
X79364285Y-46811961D02*
X79316666Y-46907200D01*
X79316666Y-46907200D02*
X79221428Y-46954819D01*
X79221428Y-46954819D02*
X79078571Y-46954819D01*
X79078571Y-46954819D02*
X78983333Y-46907200D01*
X78983333Y-46907200D02*
X78935714Y-46859580D01*
X78126190Y-46431009D02*
X78459523Y-46431009D01*
X78459523Y-46954819D02*
X78459523Y-45954819D01*
X78459523Y-45954819D02*
X77983333Y-45954819D01*
D11*
%TO.C,G\u002A\u002A\u002A*%
X100294000Y-34239000D02*
X102494000Y-35414000D01*
X102494000Y-35414000D02*
X100919000Y-36314000D01*
X107519000Y-39664000D02*
X106194000Y-40139000D01*
X104619000Y-39189000D02*
X104844000Y-39814000D01*
X104844000Y-39814000D02*
X107519000Y-39664000D01*
X99294000Y-37664000D02*
X101119000Y-38564000D01*
X97619000Y-37889000D02*
X99294000Y-37664000D01*
X95994000Y-36764000D02*
X97619000Y-37889000D01*
X107519000Y-39664000D02*
X103619000Y-35489000D01*
X107519000Y-39664000D02*
X104619000Y-39189000D01*
D12*
X97669000Y-38914000D02*
X98119000Y-38914000D01*
D11*
X99169000Y-37839000D02*
X98769000Y-38114000D01*
X99944000Y-38439000D02*
X99169000Y-37839000D01*
D12*
X98619000Y-38464000D02*
X98619000Y-40914000D01*
X101919000Y-40364000D02*
X101469000Y-40364000D01*
X102419000Y-38464000D02*
X102469000Y-40914000D01*
D11*
X103619000Y-35489000D02*
X102594000Y-35239000D01*
X91194000Y-37389000D02*
X91619000Y-37064000D01*
D12*
X101919000Y-39864000D02*
X101919000Y-40364000D01*
D11*
X90619000Y-36914000D02*
X91194000Y-37389000D01*
D12*
X97269000Y-40914000D02*
X96869000Y-40914000D01*
X99069000Y-40914000D02*
X99069000Y-40414000D01*
X98169000Y-39964000D02*
X98019000Y-39964000D01*
X98619000Y-40914000D02*
X98169000Y-40914000D01*
D11*
X99544000Y-35664000D02*
X96069000Y-34039000D01*
X94844000Y-36539000D02*
X94144000Y-37114000D01*
X99544000Y-35664000D02*
X101869000Y-36814000D01*
X96069000Y-34039000D02*
X95994000Y-36764000D01*
D12*
X92344000Y-40389000D02*
X91894000Y-40389000D01*
X96769000Y-40914000D02*
X97469000Y-39964000D01*
X98119000Y-38914000D02*
X98119000Y-39464000D01*
X92344000Y-39389000D02*
X92044000Y-39389000D01*
D11*
X92919000Y-35014000D02*
X94719000Y-35064000D01*
X103694000Y-39564000D02*
X104069000Y-39739000D01*
X103169000Y-38639000D02*
X96069000Y-34039000D01*
X94719000Y-35064000D02*
X92569000Y-36189000D01*
X105119000Y-40189000D02*
X104544000Y-39389000D01*
X94144000Y-37114000D02*
X95819000Y-37214000D01*
D12*
X92344000Y-38939000D02*
X92344000Y-39389000D01*
X101919000Y-38864000D02*
X101669000Y-38864000D01*
X98119000Y-39464000D02*
X97619000Y-39464000D01*
X99919000Y-40414000D02*
X99919000Y-39864000D01*
X99069000Y-40414000D02*
X99919000Y-40414000D01*
X103369000Y-39314000D02*
X103369000Y-39964000D01*
D11*
X98769000Y-38114000D02*
X99744000Y-38464000D01*
X103619000Y-35489000D02*
X101869000Y-36814000D01*
X104019000Y-39164000D02*
X103694000Y-39564000D01*
D12*
X101519000Y-38477605D02*
X102419000Y-38464000D01*
D11*
X104569000Y-39914000D02*
X105119000Y-40189000D01*
X91619000Y-37064000D02*
X90619000Y-36914000D01*
D12*
X92344000Y-38889000D02*
X92094000Y-38889000D01*
X101918999Y-39859050D02*
X101518999Y-39859050D01*
X91944000Y-38502605D02*
X92844000Y-38489000D01*
D11*
X101869000Y-36814000D02*
X107519000Y-39664000D01*
D12*
X94119000Y-39189000D02*
X94394000Y-39939000D01*
X93894000Y-39939000D02*
X94119000Y-39189000D01*
X100319000Y-40914000D02*
X99069000Y-40914000D01*
X97510269Y-38458594D02*
X98619000Y-38464000D01*
X92343999Y-39884050D02*
X91943999Y-39884050D01*
X92344000Y-39889000D02*
X92344000Y-40389000D01*
X92894000Y-40939000D02*
X91694000Y-40939000D01*
D11*
X106194000Y-40139000D02*
X105369000Y-39789000D01*
D12*
X102469000Y-40914000D02*
X101269000Y-40914000D01*
X104069000Y-39314000D02*
X104069000Y-40014000D01*
D11*
X97169000Y-35664000D02*
X96594000Y-37164000D01*
X96044000Y-34439000D02*
X97169000Y-35664000D01*
X95844000Y-37214000D02*
X94844000Y-36539000D01*
D12*
X92844000Y-38489000D02*
X92894000Y-40939000D01*
D11*
X100294000Y-34239000D02*
X99544000Y-35664000D01*
X102594000Y-35239000D02*
X101869000Y-36814000D01*
X92569000Y-36189000D02*
X92919000Y-35014000D01*
D12*
X98169000Y-40914000D02*
X98169000Y-39964000D01*
X96869000Y-40914000D02*
X96769000Y-40914000D01*
X98019000Y-39964000D02*
X97269000Y-40914000D01*
X95344000Y-40464000D02*
X95344000Y-40914000D01*
X93819000Y-40339000D02*
X93569000Y-40939000D01*
X94669000Y-40939000D02*
X94419000Y-40339000D01*
X99919000Y-38964000D02*
X99069000Y-38964000D01*
X101919000Y-39364000D02*
X101619000Y-39364000D01*
X94394000Y-39939000D02*
X93894000Y-39939000D01*
X99069000Y-38464000D02*
X100369000Y-38464000D01*
X94269000Y-38489000D02*
X95169000Y-40939000D01*
X99919000Y-39864000D02*
X99269000Y-39864000D01*
X99069000Y-38964000D02*
X99069000Y-38464000D01*
X94669000Y-40939000D02*
X95169000Y-40939000D01*
D11*
X101869000Y-36814000D02*
X103344000Y-38539000D01*
D12*
X96119000Y-38464000D02*
X96094000Y-40464000D01*
X96594000Y-40914000D02*
X96569000Y-38464000D01*
X99269000Y-39864000D02*
X99269000Y-39414000D01*
X93569000Y-40939000D02*
X93169000Y-40939000D01*
X93944000Y-38489000D02*
X94269000Y-38489000D01*
X99269000Y-39414000D02*
X99919000Y-39414000D01*
X101919000Y-38914000D02*
X101919000Y-39364000D01*
X99919000Y-39414000D02*
X99919000Y-38964000D01*
X93169000Y-40939000D02*
X93944000Y-38489000D01*
X100419000Y-40914000D02*
X100319000Y-40914000D01*
X100369000Y-38464000D02*
X100419000Y-40914000D01*
X102869000Y-39314000D02*
X102869000Y-40014000D01*
X104569000Y-40014000D02*
X104569000Y-39314000D01*
X96569000Y-38464000D02*
X96119000Y-38464000D01*
D13*
X113066361Y-93909226D02*
X113002542Y-93973045D01*
X112938723Y-93909226D01*
X113002542Y-93845407D01*
X113066361Y-93909226D01*
G36*
X113066361Y-93909226D02*
G01*
X113002542Y-93973045D01*
X112938723Y-93909226D01*
X113002542Y-93845407D01*
X113066361Y-93909226D01*
G37*
D12*
X95344000Y-40914000D02*
X96594000Y-40914000D01*
X96094000Y-40464000D02*
X95344000Y-40464000D01*
X94419000Y-40339000D02*
X93819000Y-40339000D01*
X101679634Y-38871464D02*
G75*
G03*
X101619000Y-39364000I-60634J-242536D01*
G01*
X101519000Y-38477606D02*
G75*
G03*
X101069001Y-39563999I0J-636394D01*
G01*
X104569000Y-39314000D02*
G75*
G03*
X102869000Y-39314000I-850000J0D01*
G01*
X101518999Y-39859051D02*
G75*
G03*
X101469001Y-40363998I1J-254949D01*
G01*
X91944000Y-38502606D02*
G75*
G03*
X91494001Y-39588999I0J-636394D01*
G01*
X101092744Y-39605063D02*
G75*
G03*
X101269001Y-40913999I426256J-608937D01*
G01*
X92104634Y-38896464D02*
G75*
G03*
X92044000Y-39389000I-60634J-242536D01*
G01*
X91943999Y-39884051D02*
G75*
G03*
X91894001Y-40388998I1J-254949D01*
G01*
X104069000Y-39314000D02*
G75*
G03*
X103369000Y-39314000I-350000J0D01*
G01*
X103369000Y-40014000D02*
G75*
G03*
X104069000Y-40014000I350000J0D01*
G01*
X97619001Y-38914002D02*
G75*
G03*
X97619001Y-39463998I124999J-274998D01*
G01*
X91517744Y-39630063D02*
G75*
G03*
X91694001Y-40938999I426256J-608937D01*
G01*
X102869000Y-40014000D02*
G75*
G03*
X104569000Y-40014000I850000J0D01*
G01*
X97510269Y-38458595D02*
G75*
G03*
X97494001Y-39913998I233731J-730405D01*
G01*
%TO.C,U1*%
X77640000Y-57570000D02*
X79290000Y-57570000D01*
X82940000Y-57570000D02*
X82940000Y-67850000D01*
X77640000Y-67850000D02*
X77640000Y-57570000D01*
X81290000Y-57570000D02*
X82940000Y-57570000D01*
X82940000Y-67850000D02*
X77640000Y-67850000D01*
X79290000Y-57570000D02*
G75*
G03*
X81290000Y-57570000I1000000J0D01*
G01*
%TO.C,S1*%
X36983400Y-63422400D02*
X36983400Y-73379200D01*
X40920400Y-63422400D02*
X36983400Y-63397000D01*
X36983400Y-73379200D02*
X40920400Y-73379200D01*
X40920400Y-73379200D02*
X40920400Y-63422400D01*
%TO.C,R6*%
X77430000Y-86540000D02*
X83970000Y-86540000D01*
X83970000Y-89280000D02*
X77430000Y-89280000D01*
X77430000Y-89280000D02*
X77430000Y-86540000D01*
X83970000Y-86540000D02*
X83970000Y-89280000D01*
X84740000Y-87910000D02*
X83970000Y-87910000D01*
X76660000Y-87910000D02*
X77430000Y-87910000D01*
%TO.C,R5*%
X76660000Y-83860000D02*
X77430000Y-83860000D01*
X84740000Y-83860000D02*
X83970000Y-83860000D01*
X83970000Y-82490000D02*
X83970000Y-85230000D01*
X77430000Y-85230000D02*
X77430000Y-82490000D01*
X83970000Y-85230000D02*
X77430000Y-85230000D01*
X77430000Y-82490000D02*
X83970000Y-82490000D01*
%TO.C,R4*%
X76660000Y-79810000D02*
X77430000Y-79810000D01*
X84740000Y-79810000D02*
X83970000Y-79810000D01*
X83970000Y-78440000D02*
X83970000Y-81180000D01*
X77430000Y-81180000D02*
X77430000Y-78440000D01*
X83970000Y-81180000D02*
X77430000Y-81180000D01*
X77430000Y-78440000D02*
X83970000Y-78440000D01*
%TO.C,R3*%
X76660000Y-75760000D02*
X77430000Y-75760000D01*
X84740000Y-75760000D02*
X83970000Y-75760000D01*
X83970000Y-74390000D02*
X83970000Y-77130000D01*
X77430000Y-77130000D02*
X77430000Y-74390000D01*
X83970000Y-77130000D02*
X77430000Y-77130000D01*
X77430000Y-74390000D02*
X83970000Y-74390000D01*
%TO.C,D3*%
X78270000Y-70300000D02*
X82510000Y-70300000D01*
X81790000Y-70300000D02*
X81790000Y-72540000D01*
X81910000Y-70300000D02*
X81910000Y-72540000D01*
X78270000Y-72540000D02*
X78270000Y-70300000D01*
X81670000Y-70300000D02*
X81670000Y-72540000D01*
X83160000Y-71420000D02*
X82510000Y-71420000D01*
X82510000Y-70300000D02*
X82510000Y-72540000D01*
X82510000Y-72540000D02*
X78270000Y-72540000D01*
X77620000Y-71420000D02*
X78270000Y-71420000D01*
%TO.C,C1*%
X82151000Y-49860000D02*
X82151000Y-48352000D01*
X81631000Y-49860000D02*
X81631000Y-48024000D01*
X81231000Y-53947000D02*
X81231000Y-51940000D01*
X82791000Y-52790000D02*
X82791000Y-49010000D01*
X80951000Y-54031000D02*
X80951000Y-51940000D01*
X80230000Y-54130000D02*
X80230000Y-47670000D01*
X81031000Y-49860000D02*
X81031000Y-47790000D01*
X81151000Y-49860000D02*
X81151000Y-47826000D01*
X80190000Y-54130000D02*
X80190000Y-47670000D01*
X82831000Y-52734000D02*
X82831000Y-49066000D01*
X82711000Y-52895000D02*
X82711000Y-48905000D01*
X80710000Y-49860000D02*
X80710000Y-47718000D01*
X81751000Y-49860000D02*
X81751000Y-48088000D01*
X81671000Y-53756000D02*
X81671000Y-51940000D01*
X82431000Y-53205000D02*
X82431000Y-51940000D01*
X80710000Y-54082000D02*
X80710000Y-51940000D01*
X83311000Y-51702000D02*
X83311000Y-50098000D01*
X80270000Y-54128000D02*
X80270000Y-47672000D01*
X81791000Y-49860000D02*
X81791000Y-48110000D01*
X76649759Y-52739000D02*
X77279759Y-52739000D01*
X81871000Y-49860000D02*
X81871000Y-48158000D01*
X83391000Y-51302000D02*
X83391000Y-50498000D01*
X80790000Y-49860000D02*
X80790000Y-47733000D01*
X81391000Y-49860000D02*
X81391000Y-47914000D01*
X81751000Y-53712000D02*
X81751000Y-51940000D01*
X81911000Y-49860000D02*
X81911000Y-48184000D01*
X80670000Y-49860000D02*
X80670000Y-47711000D01*
X83031000Y-52409000D02*
X83031000Y-49391000D01*
X82511000Y-53124000D02*
X82511000Y-48676000D01*
X81311000Y-49860000D02*
X81311000Y-47882000D01*
X82231000Y-53384000D02*
X82231000Y-51940000D01*
X82951000Y-52550000D02*
X82951000Y-49250000D01*
X80750000Y-49860000D02*
X80750000Y-47725000D01*
X80430000Y-49860000D02*
X80430000Y-47682000D01*
X81991000Y-53564000D02*
X81991000Y-51940000D01*
X83071000Y-52332000D02*
X83071000Y-49468000D01*
X80590000Y-54101000D02*
X80590000Y-51940000D01*
X81711000Y-53734000D02*
X81711000Y-51940000D01*
X80951000Y-49860000D02*
X80951000Y-47769000D01*
X80390000Y-54122000D02*
X80390000Y-51940000D01*
X82311000Y-53316000D02*
X82311000Y-51940000D01*
X81951000Y-53590000D02*
X81951000Y-51940000D01*
X82871000Y-52676000D02*
X82871000Y-49124000D01*
X82031000Y-49860000D02*
X82031000Y-48264000D01*
X83351000Y-51533000D02*
X83351000Y-50267000D01*
X82431000Y-49860000D02*
X82431000Y-48595000D01*
X82111000Y-49860000D02*
X82111000Y-48322000D01*
X80470000Y-49860000D02*
X80470000Y-47685000D01*
X81431000Y-53870000D02*
X81431000Y-51940000D01*
X80470000Y-54115000D02*
X80470000Y-51940000D01*
X81791000Y-53690000D02*
X81791000Y-51940000D01*
X81471000Y-53852000D02*
X81471000Y-51940000D01*
X81831000Y-49860000D02*
X81831000Y-48134000D01*
X82591000Y-53037000D02*
X82591000Y-48763000D01*
X82071000Y-53507000D02*
X82071000Y-51940000D01*
X80911000Y-49860000D02*
X80911000Y-47759000D01*
X81431000Y-49860000D02*
X81431000Y-47930000D01*
X81551000Y-49860000D02*
X81551000Y-47984000D01*
X82671000Y-52944000D02*
X82671000Y-48856000D01*
X82631000Y-52992000D02*
X82631000Y-48808000D01*
X81471000Y-49860000D02*
X81471000Y-47948000D01*
X82391000Y-53243000D02*
X82391000Y-51940000D01*
X81111000Y-49860000D02*
X81111000Y-47814000D01*
X83111000Y-52250000D02*
X83111000Y-49550000D01*
X80871000Y-54050000D02*
X80871000Y-51940000D01*
X81511000Y-53834000D02*
X81511000Y-51940000D01*
X82391000Y-49860000D02*
X82391000Y-48557000D01*
X81311000Y-53918000D02*
X81311000Y-51940000D01*
X81671000Y-49860000D02*
X81671000Y-48044000D01*
X80630000Y-49860000D02*
X80630000Y-47705000D01*
X81031000Y-54010000D02*
X81031000Y-51940000D01*
X82071000Y-49860000D02*
X82071000Y-48293000D01*
X82311000Y-49860000D02*
X82311000Y-48484000D01*
X81271000Y-53933000D02*
X81271000Y-51940000D01*
X80871000Y-49860000D02*
X80871000Y-47750000D01*
X76964759Y-53054000D02*
X76964759Y-52424000D01*
X81711000Y-49860000D02*
X81711000Y-48066000D01*
X82911000Y-52614000D02*
X82911000Y-49186000D01*
X82351000Y-53280000D02*
X82351000Y-51940000D01*
X82991000Y-52481000D02*
X82991000Y-49319000D01*
X80750000Y-54075000D02*
X80750000Y-51940000D01*
X83231000Y-51959000D02*
X83231000Y-49841000D01*
X83271000Y-51840000D02*
X83271000Y-49960000D01*
X80590000Y-49860000D02*
X80590000Y-47699000D01*
X81591000Y-53796000D02*
X81591000Y-51940000D01*
X81191000Y-49860000D02*
X81191000Y-47839000D01*
X80670000Y-54089000D02*
X80670000Y-51940000D01*
X80830000Y-54059000D02*
X80830000Y-51940000D01*
X81071000Y-53998000D02*
X81071000Y-51940000D01*
X80150000Y-54130000D02*
X80150000Y-47670000D01*
X80991000Y-49860000D02*
X80991000Y-47779000D01*
X81831000Y-53666000D02*
X81831000Y-51940000D01*
X80991000Y-54021000D02*
X80991000Y-51940000D01*
X81271000Y-49860000D02*
X81271000Y-47867000D01*
X80911000Y-54041000D02*
X80911000Y-51940000D01*
X80430000Y-54118000D02*
X80430000Y-51940000D01*
X82271000Y-53350000D02*
X82271000Y-51940000D01*
X82471000Y-53165000D02*
X82471000Y-48635000D01*
X81591000Y-49860000D02*
X81591000Y-48004000D01*
X82111000Y-53478000D02*
X82111000Y-51940000D01*
X80390000Y-49860000D02*
X80390000Y-47678000D01*
X81111000Y-53986000D02*
X81111000Y-51940000D01*
X81071000Y-49860000D02*
X81071000Y-47802000D01*
X83191000Y-52065000D02*
X83191000Y-49735000D01*
X82031000Y-53536000D02*
X82031000Y-51940000D01*
X82191000Y-49860000D02*
X82191000Y-48384000D01*
X81231000Y-49860000D02*
X81231000Y-47853000D01*
X82551000Y-53082000D02*
X82551000Y-48718000D01*
X82751000Y-52844000D02*
X82751000Y-48956000D01*
X83151000Y-52162000D02*
X83151000Y-49638000D01*
X80550000Y-49860000D02*
X80550000Y-47694000D01*
X82351000Y-49860000D02*
X82351000Y-48520000D01*
X81871000Y-53642000D02*
X81871000Y-51940000D01*
X80790000Y-54067000D02*
X80790000Y-51940000D01*
X81511000Y-49860000D02*
X81511000Y-47966000D01*
X80310000Y-54127000D02*
X80310000Y-47673000D01*
X82231000Y-49860000D02*
X82231000Y-48416000D01*
X81951000Y-49860000D02*
X81951000Y-48210000D01*
X82151000Y-53448000D02*
X82151000Y-51940000D01*
X80510000Y-49860000D02*
X80510000Y-47689000D01*
X81631000Y-53776000D02*
X81631000Y-51940000D01*
X81991000Y-49860000D02*
X81991000Y-48236000D01*
X80550000Y-54106000D02*
X80550000Y-51940000D01*
X82191000Y-53416000D02*
X82191000Y-51940000D01*
X81391000Y-53886000D02*
X81391000Y-51940000D01*
X81151000Y-53974000D02*
X81151000Y-51940000D01*
X81191000Y-53961000D02*
X81191000Y-51940000D01*
X80510000Y-54111000D02*
X80510000Y-51940000D01*
X81351000Y-53902000D02*
X81351000Y-51940000D01*
X81351000Y-49860000D02*
X81351000Y-47898000D01*
X80630000Y-54095000D02*
X80630000Y-51940000D01*
X81551000Y-53816000D02*
X81551000Y-51940000D01*
X80830000Y-49860000D02*
X80830000Y-47741000D01*
X82271000Y-49860000D02*
X82271000Y-48450000D01*
X81911000Y-53616000D02*
X81911000Y-51940000D01*
X80350000Y-54124000D02*
X80350000Y-47676000D01*
X83420000Y-50900000D02*
G75*
G03*
X83420000Y-50900000I-3270000J0D01*
G01*
%TD*%
M02*
