%TF.GenerationSoftware,KiCad,Pcbnew,(5.1.9)-1*%
%TF.CreationDate,2021-04-30T09:58:52+02:00*%
%TF.ProjectId,Smiley2,536d696c-6579-4322-9e6b-696361645f70,rev?*%
%TF.SameCoordinates,Original*%
%TF.FileFunction,Legend,Bot*%
%TF.FilePolarity,Positive*%
%FSLAX46Y46*%
G04 Gerber Fmt 4.6, Leading zero omitted, Abs format (unit mm)*
G04 Created by KiCad (PCBNEW (5.1.9)-1) date 2021-04-30 09:58:52*
%MOMM*%
%LPD*%
G01*
G04 APERTURE LIST*
%ADD10C,0.150000*%
%ADD11C,0.100000*%
%ADD12C,0.120000*%
%ADD13C,0.010000*%
%ADD14C,0.050000*%
%ADD15C,0.200000*%
G04 APERTURE END LIST*
D10*
X15171904Y13937619D02*
X15171904Y14937619D01*
X14600476Y13937619D02*
X15029047Y14509047D01*
X14600476Y14937619D02*
X15171904Y14366190D01*
X-13138095Y13687619D02*
X-13138095Y14687619D01*
X-13709523Y13687619D02*
X-13280952Y14259047D01*
X-13709523Y14687619D02*
X-13138095Y14116190D01*
X-34578095Y-9922380D02*
X-34578095Y-8922380D01*
X-35149523Y-9922380D02*
X-34720952Y-9350952D01*
X-35149523Y-8922380D02*
X-34578095Y-9493809D01*
X-31268095Y-15802380D02*
X-31268095Y-14802380D01*
X-31839523Y-15802380D02*
X-31410952Y-15230952D01*
X-31839523Y-14802380D02*
X-31268095Y-15373809D01*
X-27178095Y-21652380D02*
X-27178095Y-20652380D01*
X-27749523Y-21652380D02*
X-27320952Y-21080952D01*
X-27749523Y-20652380D02*
X-27178095Y-21223809D01*
X-22488095Y-26562380D02*
X-22488095Y-25562380D01*
X-23059523Y-26562380D02*
X-22630952Y-25990952D01*
X-23059523Y-25562380D02*
X-22488095Y-26133809D01*
X-16788095Y-30082380D02*
X-16788095Y-29082380D01*
X-17359523Y-30082380D02*
X-16930952Y-29510952D01*
X-17359523Y-29082380D02*
X-16788095Y-29653809D01*
X-10138095Y-32672380D02*
X-10138095Y-31672380D01*
X-10709523Y-32672380D02*
X-10280952Y-32100952D01*
X-10709523Y-31672380D02*
X-10138095Y-32243809D01*
X-2628095Y-33422380D02*
X-2628095Y-32422380D01*
X-3199523Y-33422380D02*
X-2770952Y-32850952D01*
X-3199523Y-32422380D02*
X-2628095Y-32993809D01*
X5031904Y-32422380D02*
X5031904Y-31422380D01*
X4460476Y-32422380D02*
X4889047Y-31850952D01*
X4460476Y-31422380D02*
X5031904Y-31993809D01*
X11611904Y-30282380D02*
X11611904Y-29282380D01*
X11040476Y-30282380D02*
X11469047Y-29710952D01*
X11040476Y-29282380D02*
X11611904Y-29853809D01*
X17331904Y-26602380D02*
X17331904Y-25602380D01*
X16760476Y-26602380D02*
X17189047Y-26030952D01*
X16760476Y-25602380D02*
X17331904Y-26173809D01*
X21821904Y-21632380D02*
X21821904Y-20632380D01*
X21250476Y-21632380D02*
X21679047Y-21060952D01*
X21250476Y-20632380D02*
X21821904Y-21203809D01*
X25841904Y-15842380D02*
X25841904Y-14842380D01*
X25270476Y-15842380D02*
X25699047Y-15270952D01*
X25270476Y-14842380D02*
X25841904Y-15413809D01*
X29071904Y-9752380D02*
X29071904Y-8752380D01*
X28500476Y-9752380D02*
X28929047Y-9180952D01*
X28500476Y-8752380D02*
X29071904Y-9323809D01*
D11*
X2644761Y21183809D02*
X2644761Y21683809D01*
X2359047Y21183809D02*
X2573333Y21469523D01*
X2359047Y21683809D02*
X2644761Y21398095D01*
X2144761Y21183809D02*
X2144761Y21683809D01*
X2144761Y21445714D02*
X1859047Y21445714D01*
X1859047Y21183809D02*
X1859047Y21683809D01*
X1454285Y21445714D02*
X1620952Y21445714D01*
X1620952Y21183809D02*
X1620952Y21683809D01*
X1382857Y21683809D01*
X1097142Y21683809D02*
X1049523Y21683809D01*
X1001904Y21660000D01*
X978095Y21636190D01*
X954285Y21588571D01*
X930476Y21493333D01*
X930476Y21374285D01*
X954285Y21279047D01*
X978095Y21231428D01*
X1001904Y21207619D01*
X1049523Y21183809D01*
X1097142Y21183809D01*
X1144761Y21207619D01*
X1168571Y21231428D01*
X1192380Y21279047D01*
X1216190Y21374285D01*
X1216190Y21493333D01*
X1192380Y21588571D01*
X1168571Y21636190D01*
X1144761Y21660000D01*
X1097142Y21683809D01*
X478095Y21683809D02*
X716190Y21683809D01*
X740000Y21445714D01*
X716190Y21469523D01*
X668571Y21493333D01*
X549523Y21493333D01*
X501904Y21469523D01*
X478095Y21445714D01*
X454285Y21398095D01*
X454285Y21279047D01*
X478095Y21231428D01*
X501904Y21207619D01*
X549523Y21183809D01*
X668571Y21183809D01*
X716190Y21207619D01*
X740000Y21231428D01*
X240000Y21231428D02*
X216190Y21207619D01*
X240000Y21183809D01*
X263809Y21207619D01*
X240000Y21231428D01*
X240000Y21183809D01*
X25714Y21636190D02*
X1904Y21660000D01*
X-45714Y21683809D01*
X-164761Y21683809D01*
X-212380Y21660000D01*
X-236190Y21636190D01*
X-260000Y21588571D01*
X-260000Y21540952D01*
X-236190Y21469523D01*
X49523Y21183809D01*
X-260000Y21183809D01*
X-569523Y21683809D02*
X-617142Y21683809D01*
X-664761Y21660000D01*
X-688571Y21636190D01*
X-712380Y21588571D01*
X-736190Y21493333D01*
X-736190Y21374285D01*
X-712380Y21279047D01*
X-688571Y21231428D01*
X-664761Y21207619D01*
X-617142Y21183809D01*
X-569523Y21183809D01*
X-521904Y21207619D01*
X-498095Y21231428D01*
X-474285Y21279047D01*
X-450476Y21374285D01*
X-450476Y21493333D01*
X-474285Y21588571D01*
X-498095Y21636190D01*
X-521904Y21660000D01*
X-569523Y21683809D01*
X-926666Y21636190D02*
X-950476Y21660000D01*
X-998095Y21683809D01*
X-1117142Y21683809D01*
X-1164761Y21660000D01*
X-1188571Y21636190D01*
X-1212380Y21588571D01*
X-1212380Y21540952D01*
X-1188571Y21469523D01*
X-902857Y21183809D01*
X-1212380Y21183809D01*
X-1688571Y21183809D02*
X-1402857Y21183809D01*
X-1545714Y21183809D02*
X-1545714Y21683809D01*
X-1498095Y21612380D01*
X-1450476Y21564761D01*
X-1402857Y21540952D01*
D10*
X40912857Y5917619D02*
X41389047Y5917619D01*
X41436666Y5441428D01*
X41389047Y5489047D01*
X41293809Y5536666D01*
X41055714Y5536666D01*
X40960476Y5489047D01*
X40912857Y5441428D01*
X40865238Y5346190D01*
X40865238Y5108095D01*
X40912857Y5012857D01*
X40960476Y4965238D01*
X41055714Y4917619D01*
X41293809Y4917619D01*
X41389047Y4965238D01*
X41436666Y5012857D01*
X40246190Y5917619D02*
X40150952Y5917619D01*
X40055714Y5870000D01*
X40008095Y5822380D01*
X39960476Y5727142D01*
X39912857Y5536666D01*
X39912857Y5298571D01*
X39960476Y5108095D01*
X40008095Y5012857D01*
X40055714Y4965238D01*
X40150952Y4917619D01*
X40246190Y4917619D01*
X40341428Y4965238D01*
X40389047Y5012857D01*
X40436666Y5108095D01*
X40484285Y5298571D01*
X40484285Y5536666D01*
X40436666Y5727142D01*
X40389047Y5822380D01*
X40341428Y5870000D01*
X40246190Y5917619D01*
X39484285Y4917619D02*
X39484285Y5917619D01*
X39389047Y5298571D02*
X39103333Y4917619D01*
X39103333Y5584285D02*
X39484285Y5203333D01*
X-6431904Y-24712380D02*
X-6431904Y-23712380D01*
X-6670000Y-23712380D01*
X-6812857Y-23760000D01*
X-6908095Y-23855238D01*
X-6955714Y-23950476D01*
X-7003333Y-24140952D01*
X-7003333Y-24283809D01*
X-6955714Y-24474285D01*
X-6908095Y-24569523D01*
X-6812857Y-24664761D01*
X-6670000Y-24712380D01*
X-6431904Y-24712380D01*
X-7955714Y-24712380D02*
X-7384285Y-24712380D01*
X-7669999Y-24712380D02*
X-7669999Y-23712380D01*
X-7574761Y-23855238D01*
X-7479523Y-23950476D01*
X-7384285Y-23998095D01*
X-2011904Y-23657619D02*
X-2059523Y-23610000D01*
X-2154761Y-23562380D01*
X-2392857Y-23562380D01*
X-2488095Y-23610000D01*
X-2535714Y-23657619D01*
X-2583333Y-23752857D01*
X-2583333Y-23848095D01*
X-2535714Y-23990952D01*
X-1964285Y-24562380D01*
X-2583333Y-24562380D01*
X-3440476Y-23895714D02*
X-3440476Y-24562380D01*
X-3202380Y-23514761D02*
X-2964285Y-24229047D01*
X-3583333Y-24229047D01*
X-4154761Y-23562380D02*
X-4250000Y-23562380D01*
X-4345238Y-23610000D01*
X-4392857Y-23657619D01*
X-4440476Y-23752857D01*
X-4488095Y-23943333D01*
X-4488095Y-24181428D01*
X-4440476Y-24371904D01*
X-4392857Y-24467142D01*
X-4345238Y-24514761D01*
X-4250000Y-24562380D01*
X-4154761Y-24562380D01*
X-4059523Y-24514761D01*
X-4011904Y-24467142D01*
X-3964285Y-24371904D01*
X-3916666Y-24181428D01*
X-3916666Y-23943333D01*
X-3964285Y-23752857D01*
X-4011904Y-23657619D01*
X-4059523Y-23610000D01*
X-4154761Y-23562380D01*
X-5488095Y-24562380D02*
X-5154761Y-24086190D01*
X-4916666Y-24562380D02*
X-4916666Y-23562380D01*
X-5297619Y-23562380D01*
X-5392857Y-23610000D01*
X-5440476Y-23657619D01*
X-5488095Y-23752857D01*
X-5488095Y-23895714D01*
X-5440476Y-23990952D01*
X-5392857Y-24038571D01*
X-5297619Y-24086190D01*
X-4916666Y-24086190D01*
X-9965714Y-23592380D02*
X-9489523Y-23592380D01*
X-9441904Y-24068571D01*
X-9489523Y-24020952D01*
X-9584761Y-23973333D01*
X-9822857Y-23973333D01*
X-9918095Y-24020952D01*
X-9965714Y-24068571D01*
X-10013333Y-24163809D01*
X-10013333Y-24401904D01*
X-9965714Y-24497142D01*
X-9918095Y-24544761D01*
X-9822857Y-24592380D01*
X-9584761Y-24592380D01*
X-9489523Y-24544761D01*
X-9441904Y-24497142D01*
X-10632380Y-23592380D02*
X-10727619Y-23592380D01*
X-10822857Y-23640000D01*
X-10870476Y-23687619D01*
X-10918095Y-23782857D01*
X-10965714Y-23973333D01*
X-10965714Y-24211428D01*
X-10918095Y-24401904D01*
X-10870476Y-24497142D01*
X-10822857Y-24544761D01*
X-10727619Y-24592380D01*
X-10632380Y-24592380D01*
X-10537142Y-24544761D01*
X-10489523Y-24497142D01*
X-10441904Y-24401904D01*
X-10394285Y-24211428D01*
X-10394285Y-23973333D01*
X-10441904Y-23782857D01*
X-10489523Y-23687619D01*
X-10537142Y-23640000D01*
X-10632380Y-23592380D01*
X-11584761Y-23592380D02*
X-11680000Y-23592380D01*
X-11775238Y-23640000D01*
X-11822857Y-23687619D01*
X-11870476Y-23782857D01*
X-11918095Y-23973333D01*
X-11918095Y-24211428D01*
X-11870476Y-24401904D01*
X-11822857Y-24497142D01*
X-11775238Y-24544761D01*
X-11680000Y-24592380D01*
X-11584761Y-24592380D01*
X-11489523Y-24544761D01*
X-11441904Y-24497142D01*
X-11394285Y-24401904D01*
X-11346666Y-24211428D01*
X-11346666Y-23973333D01*
X-11394285Y-23782857D01*
X-11441904Y-23687619D01*
X-11489523Y-23640000D01*
X-11584761Y-23592380D01*
X-12918095Y-24592380D02*
X-12584761Y-24116190D01*
X-12346666Y-24592380D02*
X-12346666Y-23592380D01*
X-12727619Y-23592380D01*
X-12822857Y-23640000D01*
X-12870476Y-23687619D01*
X-12918095Y-23782857D01*
X-12918095Y-23925714D01*
X-12870476Y-24020952D01*
X-12822857Y-24068571D01*
X-12727619Y-24116190D01*
X-12346666Y-24116190D01*
X19925714Y705238D02*
X19782857Y657619D01*
X19544761Y657619D01*
X19449523Y705238D01*
X19401904Y752857D01*
X19354285Y848095D01*
X19354285Y943333D01*
X19401904Y1038571D01*
X19449523Y1086190D01*
X19544761Y1133809D01*
X19735238Y1181428D01*
X19830476Y1229047D01*
X19878095Y1276666D01*
X19925714Y1371904D01*
X19925714Y1467142D01*
X19878095Y1562380D01*
X19830476Y1610000D01*
X19735238Y1657619D01*
X19497142Y1657619D01*
X19354285Y1610000D01*
X27117142Y1181428D02*
X27450476Y1181428D01*
X27450476Y657619D02*
X27450476Y1657619D01*
X26974285Y1657619D01*
X24188095Y657619D02*
X24188095Y1657619D01*
X23950000Y1657619D01*
X23807142Y1610000D01*
X23711904Y1514761D01*
X23664285Y1419523D01*
X23616666Y1229047D01*
X23616666Y1086190D01*
X23664285Y895714D01*
X23711904Y800476D01*
X23807142Y705238D01*
X23950000Y657619D01*
X24188095Y657619D01*
X23045238Y1229047D02*
X23140476Y1276666D01*
X23188095Y1324285D01*
X23235714Y1419523D01*
X23235714Y1467142D01*
X23188095Y1562380D01*
X23140476Y1610000D01*
X23045238Y1657619D01*
X22854761Y1657619D01*
X22759523Y1610000D01*
X22711904Y1562380D01*
X22664285Y1467142D01*
X22664285Y1419523D01*
X22711904Y1324285D01*
X22759523Y1276666D01*
X22854761Y1229047D01*
X23045238Y1229047D01*
X23140476Y1181428D01*
X23188095Y1133809D01*
X23235714Y1038571D01*
X23235714Y848095D01*
X23188095Y752857D01*
X23140476Y705238D01*
X23045238Y657619D01*
X22854761Y657619D01*
X22759523Y705238D01*
X22711904Y752857D01*
X22664285Y848095D01*
X22664285Y1038571D01*
X22711904Y1133809D01*
X22759523Y1181428D01*
X22854761Y1229047D01*
D12*
%TO.C,G\u002A\u002A\u002A*%
X-3315000Y24985000D02*
X-3915000Y24985000D01*
X-1640000Y24860000D02*
X-2390000Y24860000D01*
X-2390000Y24410000D02*
X-1140000Y24410000D01*
D13*
G36*
X15204723Y-28585226D02*
G01*
X15268542Y-28649045D01*
X15332361Y-28585226D01*
X15268542Y-28521407D01*
X15204723Y-28585226D01*
G37*
X15204723Y-28585226D02*
X15268542Y-28649045D01*
X15332361Y-28585226D01*
X15268542Y-28521407D01*
X15204723Y-28585226D01*
D12*
X-1165000Y26860000D02*
X-1615000Y26860000D01*
X6835000Y25310000D02*
X6835000Y26010000D01*
X5135000Y26010000D02*
X5135000Y25310000D01*
X2635000Y26860000D02*
X2685000Y24410000D01*
X2685000Y24410000D02*
X2585000Y24410000D01*
X-4565000Y24385000D02*
X-3790000Y26835000D01*
X2185000Y25910000D02*
X2185000Y26360000D01*
X4185000Y26410000D02*
X4185000Y25960000D01*
X1535000Y25910000D02*
X2185000Y25910000D01*
X-3790000Y26835000D02*
X-3465000Y26835000D01*
X-4165000Y24385000D02*
X-4565000Y24385000D01*
X1535000Y25460000D02*
X1535000Y25910000D01*
X-1140000Y24410000D02*
X-1165000Y26860000D01*
X-1615000Y26860000D02*
X-1640000Y24860000D01*
D14*
X4135000Y28510000D02*
X5610000Y26785000D01*
D12*
X-3065000Y24385000D02*
X-2565000Y24385000D01*
X1335000Y26360000D02*
X1335000Y26860000D01*
X2185000Y25460000D02*
X1535000Y25460000D01*
X-3465000Y26835000D02*
X-2565000Y24385000D01*
X1335000Y26860000D02*
X2635000Y26860000D01*
X-3340000Y25385000D02*
X-3840000Y25385000D01*
X4185000Y25960000D02*
X3885000Y25960000D01*
X2185000Y26360000D02*
X1335000Y26360000D01*
X-3065000Y24385000D02*
X-3315000Y24985000D01*
X-3915000Y24985000D02*
X-4165000Y24385000D01*
X-2390000Y24860000D02*
X-2390000Y24410000D01*
X285000Y25360000D02*
X-465000Y24410000D01*
X-865000Y24410000D02*
X-965000Y24410000D01*
X435000Y24410000D02*
X435000Y25360000D01*
D14*
X-5165000Y29135000D02*
X-4815000Y30310000D01*
X4860000Y30085000D02*
X4135000Y28510000D01*
X2560000Y31085000D02*
X1810000Y29660000D01*
D12*
X-4890000Y26835000D02*
X-4840000Y24385000D01*
D14*
X-1890000Y28110000D02*
X-2890000Y28785000D01*
X-1690000Y30885000D02*
X-565000Y29660000D01*
X-565000Y29660000D02*
X-1140000Y28160000D01*
D12*
X6335000Y26010000D02*
X6335000Y25310000D01*
X4735000Y24410000D02*
X3535000Y24410000D01*
D14*
X8460000Y25185000D02*
X7635000Y25535000D01*
D12*
X-4840000Y24385000D02*
X-6040000Y24385000D01*
X-5390000Y25435000D02*
X-5390000Y24935000D01*
X-5390001Y25439950D02*
X-5790001Y25439950D01*
X-223731Y26865406D02*
X885000Y26860000D01*
X2585000Y24410000D02*
X1335000Y24410000D01*
X-3840000Y25385000D02*
X-3615000Y26135000D01*
X-3615000Y26135000D02*
X-3340000Y25385000D01*
D14*
X4135000Y28510000D02*
X9785000Y25660000D01*
D12*
X-5790000Y26821395D02*
X-4890000Y26835000D01*
X4184999Y25464950D02*
X3784999Y25464950D01*
X-5390000Y26435000D02*
X-5640000Y26435000D01*
D14*
X-6115000Y28260000D02*
X-7115000Y28410000D01*
X6835000Y25410000D02*
X7385000Y25135000D01*
D12*
X3785000Y26846395D02*
X4685000Y26860000D01*
D14*
X6285000Y26160000D02*
X5960000Y25760000D01*
X5885000Y29835000D02*
X4135000Y28510000D01*
X1035000Y27210000D02*
X2010000Y26860000D01*
D12*
X5635000Y26010000D02*
X5635000Y25360000D01*
X1335000Y24910000D02*
X2185000Y24910000D01*
X2185000Y24910000D02*
X2185000Y25460000D01*
X385000Y25860000D02*
X-115000Y25860000D01*
X4185000Y26460000D02*
X3935000Y26460000D01*
X-5390000Y26385000D02*
X-5390000Y25935000D01*
D14*
X-3590000Y28210000D02*
X-1915000Y28110000D01*
X7385000Y25135000D02*
X6810000Y25935000D01*
X-3015000Y30260000D02*
X-5165000Y29135000D01*
X5435000Y26685000D02*
X-1665000Y31285000D01*
X5960000Y25760000D02*
X6335000Y25585000D01*
X-4815000Y30310000D02*
X-3015000Y30260000D01*
D12*
X-5390000Y25935000D02*
X-5690000Y25935000D01*
X385000Y26410000D02*
X385000Y25860000D01*
X-965000Y24410000D02*
X-265000Y25360000D01*
X-5390000Y24935000D02*
X-5840000Y24935000D01*
D14*
X-1665000Y31285000D02*
X-1740000Y28560000D01*
X1810000Y29660000D02*
X4135000Y28510000D01*
X-2890000Y28785000D02*
X-3590000Y28210000D01*
X1810000Y29660000D02*
X-1665000Y31285000D01*
D12*
X885000Y24410000D02*
X435000Y24410000D01*
X435000Y25360000D02*
X285000Y25360000D01*
X1335000Y24410000D02*
X1335000Y24910000D01*
X-465000Y24410000D02*
X-865000Y24410000D01*
D14*
X-7115000Y28410000D02*
X-6540000Y27935000D01*
D12*
X4185000Y25460000D02*
X4185000Y24960000D01*
D14*
X-6540000Y27935000D02*
X-6115000Y28260000D01*
X5885000Y29835000D02*
X4860000Y30085000D01*
D12*
X4685000Y26860000D02*
X4735000Y24410000D01*
X4185000Y24960000D02*
X3735000Y24960000D01*
X885000Y26860000D02*
X885000Y24410000D01*
D14*
X2210000Y26885000D02*
X1435000Y27485000D01*
X1435000Y27485000D02*
X1035000Y27210000D01*
D12*
X-65000Y26410000D02*
X385000Y26410000D01*
D14*
X9785000Y25660000D02*
X6885000Y26135000D01*
X9785000Y25660000D02*
X5885000Y29835000D01*
X-1740000Y28560000D02*
X-115000Y27435000D01*
X-115000Y27435000D02*
X1560000Y27660000D01*
X1560000Y27660000D02*
X3385000Y26760000D01*
X7110000Y25510000D02*
X9785000Y25660000D01*
X6885000Y26135000D02*
X7110000Y25510000D01*
X9785000Y25660000D02*
X8460000Y25185000D01*
X4760000Y29910000D02*
X3185000Y29010000D01*
X2560000Y31085000D02*
X4760000Y29910000D01*
D12*
X-223731Y26865406D02*
G75*
G03*
X-239999Y25410001I233731J-730406D01*
G01*
X5135000Y25310000D02*
G75*
G03*
X6835000Y25310000I850000J0D01*
G01*
X-6216256Y25693936D02*
G75*
G03*
X-6039999Y24385001I426256J-608936D01*
G01*
X-115000Y26409999D02*
G75*
G03*
X-114999Y25860001I125000J-274999D01*
G01*
X5635000Y25310000D02*
G75*
G03*
X6335000Y25310000I350000J0D01*
G01*
X6335000Y26010000D02*
G75*
G03*
X5635000Y26010000I-350000J0D01*
G01*
X-5790001Y25439950D02*
G75*
G03*
X-5839999Y24935001I1J-254950D01*
G01*
X-5629366Y26427536D02*
G75*
G03*
X-5690000Y25935000I-60634J-242536D01*
G01*
X3358744Y25718936D02*
G75*
G03*
X3535001Y24410001I426256J-608936D01*
G01*
X-5790000Y26821395D02*
G75*
G03*
X-6239999Y25735001I0J-636395D01*
G01*
X3784999Y25464950D02*
G75*
G03*
X3735001Y24960001I1J-254950D01*
G01*
X6835000Y26010000D02*
G75*
G03*
X5135000Y26010000I-850000J0D01*
G01*
X3785000Y26846395D02*
G75*
G03*
X3335001Y25760001I0J-636395D01*
G01*
X3945634Y26452536D02*
G75*
G03*
X3885000Y25960000I-60634J-242536D01*
G01*
%TO.C,C1*%
X35492000Y1808500D02*
G75*
G03*
X35492000Y1808500I-2120000J0D01*
G01*
X33372000Y3888500D02*
X33372000Y-271500D01*
X33332000Y3888500D02*
X33332000Y-271500D01*
X33292000Y3887500D02*
X33292000Y-270500D01*
X33252000Y3885500D02*
X33252000Y-268500D01*
X33212000Y3882500D02*
X33212000Y-265500D01*
X33172000Y3879500D02*
X33172000Y2648500D01*
X33172000Y968500D02*
X33172000Y-262500D01*
X33132000Y3875500D02*
X33132000Y2648500D01*
X33132000Y968500D02*
X33132000Y-258500D01*
X33092000Y3870500D02*
X33092000Y2648500D01*
X33092000Y968500D02*
X33092000Y-253500D01*
X33052000Y3864500D02*
X33052000Y2648500D01*
X33052000Y968500D02*
X33052000Y-247500D01*
X33012000Y3858500D02*
X33012000Y2648500D01*
X33012000Y968500D02*
X33012000Y-241500D01*
X32972000Y3850500D02*
X32972000Y2648500D01*
X32972000Y968500D02*
X32972000Y-233500D01*
X32932000Y3842500D02*
X32932000Y2648500D01*
X32932000Y968500D02*
X32932000Y-225500D01*
X32892000Y3833500D02*
X32892000Y2648500D01*
X32892000Y968500D02*
X32892000Y-216500D01*
X32852000Y3824500D02*
X32852000Y2648500D01*
X32852000Y968500D02*
X32852000Y-207500D01*
X32812000Y3813500D02*
X32812000Y2648500D01*
X32812000Y968500D02*
X32812000Y-196500D01*
X32772000Y3802500D02*
X32772000Y2648500D01*
X32772000Y968500D02*
X32772000Y-185500D01*
X32732000Y3790500D02*
X32732000Y2648500D01*
X32732000Y968500D02*
X32732000Y-173500D01*
X32692000Y3776500D02*
X32692000Y2648500D01*
X32692000Y968500D02*
X32692000Y-159500D01*
X32651000Y3762500D02*
X32651000Y2648500D01*
X32651000Y968500D02*
X32651000Y-145500D01*
X32611000Y3748500D02*
X32611000Y2648500D01*
X32611000Y968500D02*
X32611000Y-131500D01*
X32571000Y3732500D02*
X32571000Y2648500D01*
X32571000Y968500D02*
X32571000Y-115500D01*
X32531000Y3715500D02*
X32531000Y2648500D01*
X32531000Y968500D02*
X32531000Y-98500D01*
X32491000Y3697500D02*
X32491000Y2648500D01*
X32491000Y968500D02*
X32491000Y-80500D01*
X32451000Y3678500D02*
X32451000Y2648500D01*
X32451000Y968500D02*
X32451000Y-61500D01*
X32411000Y3659500D02*
X32411000Y2648500D01*
X32411000Y968500D02*
X32411000Y-42500D01*
X32371000Y3638500D02*
X32371000Y2648500D01*
X32371000Y968500D02*
X32371000Y-21500D01*
X32331000Y3616500D02*
X32331000Y2648500D01*
X32331000Y968500D02*
X32331000Y500D01*
X32291000Y3593500D02*
X32291000Y2648500D01*
X32291000Y968500D02*
X32291000Y23500D01*
X32251000Y3568500D02*
X32251000Y2648500D01*
X32251000Y968500D02*
X32251000Y48500D01*
X32211000Y3543500D02*
X32211000Y2648500D01*
X32211000Y968500D02*
X32211000Y73500D01*
X32171000Y3516500D02*
X32171000Y2648500D01*
X32171000Y968500D02*
X32171000Y100500D01*
X32131000Y3488500D02*
X32131000Y2648500D01*
X32131000Y968500D02*
X32131000Y128500D01*
X32091000Y3458500D02*
X32091000Y2648500D01*
X32091000Y968500D02*
X32091000Y158500D01*
X32051000Y3427500D02*
X32051000Y2648500D01*
X32051000Y968500D02*
X32051000Y189500D01*
X32011000Y3395500D02*
X32011000Y2648500D01*
X32011000Y968500D02*
X32011000Y221500D01*
X31971000Y3360500D02*
X31971000Y2648500D01*
X31971000Y968500D02*
X31971000Y256500D01*
X31931000Y3324500D02*
X31931000Y2648500D01*
X31931000Y968500D02*
X31931000Y292500D01*
X31891000Y3286500D02*
X31891000Y2648500D01*
X31891000Y968500D02*
X31891000Y330500D01*
X31851000Y3246500D02*
X31851000Y2648500D01*
X31851000Y968500D02*
X31851000Y370500D01*
X31811000Y3204500D02*
X31811000Y2648500D01*
X31811000Y968500D02*
X31811000Y412500D01*
X31771000Y3159500D02*
X31771000Y2648500D01*
X31771000Y968500D02*
X31771000Y457500D01*
X31731000Y3112500D02*
X31731000Y2648500D01*
X31731000Y968500D02*
X31731000Y504500D01*
X31691000Y3062500D02*
X31691000Y2648500D01*
X31691000Y968500D02*
X31691000Y554500D01*
X31651000Y3008500D02*
X31651000Y2648500D01*
X31651000Y968500D02*
X31651000Y608500D01*
X31611000Y2950500D02*
X31611000Y2648500D01*
X31611000Y968500D02*
X31611000Y666500D01*
X31571000Y2888500D02*
X31571000Y2648500D01*
X31571000Y968500D02*
X31571000Y728500D01*
X31531000Y2821500D02*
X31531000Y795500D01*
X31491000Y2748500D02*
X31491000Y868500D01*
X31451000Y2667500D02*
X31451000Y949500D01*
X31411000Y2576500D02*
X31411000Y1040500D01*
X31371000Y2472500D02*
X31371000Y1144500D01*
X31331000Y2345500D02*
X31331000Y1271500D01*
X31291000Y2178500D02*
X31291000Y1438500D01*
X35641801Y3003500D02*
X35241801Y3003500D01*
X35441801Y3203500D02*
X35441801Y2803500D01*
%TO.C,C2*%
X-6450000Y94000D02*
G75*
G03*
X-6450000Y94000I-2120000J0D01*
G01*
X-8570000Y-1986000D02*
X-8570000Y2174000D01*
X-8530000Y-1986000D02*
X-8530000Y2174000D01*
X-8490000Y-1985000D02*
X-8490000Y2173000D01*
X-8450000Y-1983000D02*
X-8450000Y2171000D01*
X-8410000Y-1980000D02*
X-8410000Y2168000D01*
X-8370000Y-1977000D02*
X-8370000Y-746000D01*
X-8370000Y934000D02*
X-8370000Y2165000D01*
X-8330000Y-1973000D02*
X-8330000Y-746000D01*
X-8330000Y934000D02*
X-8330000Y2161000D01*
X-8290000Y-1968000D02*
X-8290000Y-746000D01*
X-8290000Y934000D02*
X-8290000Y2156000D01*
X-8250000Y-1962000D02*
X-8250000Y-746000D01*
X-8250000Y934000D02*
X-8250000Y2150000D01*
X-8210000Y-1956000D02*
X-8210000Y-746000D01*
X-8210000Y934000D02*
X-8210000Y2144000D01*
X-8170000Y-1948000D02*
X-8170000Y-746000D01*
X-8170000Y934000D02*
X-8170000Y2136000D01*
X-8130000Y-1940000D02*
X-8130000Y-746000D01*
X-8130000Y934000D02*
X-8130000Y2128000D01*
X-8090000Y-1931000D02*
X-8090000Y-746000D01*
X-8090000Y934000D02*
X-8090000Y2119000D01*
X-8050000Y-1922000D02*
X-8050000Y-746000D01*
X-8050000Y934000D02*
X-8050000Y2110000D01*
X-8010000Y-1911000D02*
X-8010000Y-746000D01*
X-8010000Y934000D02*
X-8010000Y2099000D01*
X-7970000Y-1900000D02*
X-7970000Y-746000D01*
X-7970000Y934000D02*
X-7970000Y2088000D01*
X-7930000Y-1888000D02*
X-7930000Y-746000D01*
X-7930000Y934000D02*
X-7930000Y2076000D01*
X-7890000Y-1874000D02*
X-7890000Y-746000D01*
X-7890000Y934000D02*
X-7890000Y2062000D01*
X-7849000Y-1860000D02*
X-7849000Y-746000D01*
X-7849000Y934000D02*
X-7849000Y2048000D01*
X-7809000Y-1846000D02*
X-7809000Y-746000D01*
X-7809000Y934000D02*
X-7809000Y2034000D01*
X-7769000Y-1830000D02*
X-7769000Y-746000D01*
X-7769000Y934000D02*
X-7769000Y2018000D01*
X-7729000Y-1813000D02*
X-7729000Y-746000D01*
X-7729000Y934000D02*
X-7729000Y2001000D01*
X-7689000Y-1795000D02*
X-7689000Y-746000D01*
X-7689000Y934000D02*
X-7689000Y1983000D01*
X-7649000Y-1776000D02*
X-7649000Y-746000D01*
X-7649000Y934000D02*
X-7649000Y1964000D01*
X-7609000Y-1757000D02*
X-7609000Y-746000D01*
X-7609000Y934000D02*
X-7609000Y1945000D01*
X-7569000Y-1736000D02*
X-7569000Y-746000D01*
X-7569000Y934000D02*
X-7569000Y1924000D01*
X-7529000Y-1714000D02*
X-7529000Y-746000D01*
X-7529000Y934000D02*
X-7529000Y1902000D01*
X-7489000Y-1691000D02*
X-7489000Y-746000D01*
X-7489000Y934000D02*
X-7489000Y1879000D01*
X-7449000Y-1666000D02*
X-7449000Y-746000D01*
X-7449000Y934000D02*
X-7449000Y1854000D01*
X-7409000Y-1641000D02*
X-7409000Y-746000D01*
X-7409000Y934000D02*
X-7409000Y1829000D01*
X-7369000Y-1614000D02*
X-7369000Y-746000D01*
X-7369000Y934000D02*
X-7369000Y1802000D01*
X-7329000Y-1586000D02*
X-7329000Y-746000D01*
X-7329000Y934000D02*
X-7329000Y1774000D01*
X-7289000Y-1556000D02*
X-7289000Y-746000D01*
X-7289000Y934000D02*
X-7289000Y1744000D01*
X-7249000Y-1525000D02*
X-7249000Y-746000D01*
X-7249000Y934000D02*
X-7249000Y1713000D01*
X-7209000Y-1493000D02*
X-7209000Y-746000D01*
X-7209000Y934000D02*
X-7209000Y1681000D01*
X-7169000Y-1458000D02*
X-7169000Y-746000D01*
X-7169000Y934000D02*
X-7169000Y1646000D01*
X-7129000Y-1422000D02*
X-7129000Y-746000D01*
X-7129000Y934000D02*
X-7129000Y1610000D01*
X-7089000Y-1384000D02*
X-7089000Y-746000D01*
X-7089000Y934000D02*
X-7089000Y1572000D01*
X-7049000Y-1344000D02*
X-7049000Y-746000D01*
X-7049000Y934000D02*
X-7049000Y1532000D01*
X-7009000Y-1302000D02*
X-7009000Y-746000D01*
X-7009000Y934000D02*
X-7009000Y1490000D01*
X-6969000Y-1257000D02*
X-6969000Y-746000D01*
X-6969000Y934000D02*
X-6969000Y1445000D01*
X-6929000Y-1210000D02*
X-6929000Y-746000D01*
X-6929000Y934000D02*
X-6929000Y1398000D01*
X-6889000Y-1160000D02*
X-6889000Y-746000D01*
X-6889000Y934000D02*
X-6889000Y1348000D01*
X-6849000Y-1106000D02*
X-6849000Y-746000D01*
X-6849000Y934000D02*
X-6849000Y1294000D01*
X-6809000Y-1048000D02*
X-6809000Y-746000D01*
X-6809000Y934000D02*
X-6809000Y1236000D01*
X-6769000Y-986000D02*
X-6769000Y-746000D01*
X-6769000Y934000D02*
X-6769000Y1174000D01*
X-6729000Y-919000D02*
X-6729000Y1107000D01*
X-6689000Y-846000D02*
X-6689000Y1034000D01*
X-6649000Y-765000D02*
X-6649000Y953000D01*
X-6609000Y-674000D02*
X-6609000Y862000D01*
X-6569000Y-570000D02*
X-6569000Y758000D01*
X-6529000Y-443000D02*
X-6529000Y631000D01*
X-6489000Y-276000D02*
X-6489000Y464000D01*
X-10839801Y-1101000D02*
X-10439801Y-1101000D01*
X-10639801Y-1301000D02*
X-10639801Y-901000D01*
%TO.C,C3*%
X-24410199Y27695000D02*
X-24410199Y27295000D01*
X-24210199Y27495000D02*
X-24610199Y27495000D01*
X-28561000Y26670000D02*
X-28561000Y25930000D01*
X-28521000Y26837000D02*
X-28521000Y25763000D01*
X-28481000Y26964000D02*
X-28481000Y25636000D01*
X-28441000Y27068000D02*
X-28441000Y25532000D01*
X-28401000Y27159000D02*
X-28401000Y25441000D01*
X-28361000Y27240000D02*
X-28361000Y25360000D01*
X-28321000Y27313000D02*
X-28321000Y25287000D01*
X-28281000Y25460000D02*
X-28281000Y25220000D01*
X-28281000Y27380000D02*
X-28281000Y27140000D01*
X-28241000Y25460000D02*
X-28241000Y25158000D01*
X-28241000Y27442000D02*
X-28241000Y27140000D01*
X-28201000Y25460000D02*
X-28201000Y25100000D01*
X-28201000Y27500000D02*
X-28201000Y27140000D01*
X-28161000Y25460000D02*
X-28161000Y25046000D01*
X-28161000Y27554000D02*
X-28161000Y27140000D01*
X-28121000Y25460000D02*
X-28121000Y24996000D01*
X-28121000Y27604000D02*
X-28121000Y27140000D01*
X-28081000Y25460000D02*
X-28081000Y24949000D01*
X-28081000Y27651000D02*
X-28081000Y27140000D01*
X-28041000Y25460000D02*
X-28041000Y24904000D01*
X-28041000Y27696000D02*
X-28041000Y27140000D01*
X-28001000Y25460000D02*
X-28001000Y24862000D01*
X-28001000Y27738000D02*
X-28001000Y27140000D01*
X-27961000Y25460000D02*
X-27961000Y24822000D01*
X-27961000Y27778000D02*
X-27961000Y27140000D01*
X-27921000Y25460000D02*
X-27921000Y24784000D01*
X-27921000Y27816000D02*
X-27921000Y27140000D01*
X-27881000Y25460000D02*
X-27881000Y24748000D01*
X-27881000Y27852000D02*
X-27881000Y27140000D01*
X-27841000Y25460000D02*
X-27841000Y24713000D01*
X-27841000Y27887000D02*
X-27841000Y27140000D01*
X-27801000Y25460000D02*
X-27801000Y24681000D01*
X-27801000Y27919000D02*
X-27801000Y27140000D01*
X-27761000Y25460000D02*
X-27761000Y24650000D01*
X-27761000Y27950000D02*
X-27761000Y27140000D01*
X-27721000Y25460000D02*
X-27721000Y24620000D01*
X-27721000Y27980000D02*
X-27721000Y27140000D01*
X-27681000Y25460000D02*
X-27681000Y24592000D01*
X-27681000Y28008000D02*
X-27681000Y27140000D01*
X-27641000Y25460000D02*
X-27641000Y24565000D01*
X-27641000Y28035000D02*
X-27641000Y27140000D01*
X-27601000Y25460000D02*
X-27601000Y24540000D01*
X-27601000Y28060000D02*
X-27601000Y27140000D01*
X-27561000Y25460000D02*
X-27561000Y24515000D01*
X-27561000Y28085000D02*
X-27561000Y27140000D01*
X-27521000Y25460000D02*
X-27521000Y24492000D01*
X-27521000Y28108000D02*
X-27521000Y27140000D01*
X-27481000Y25460000D02*
X-27481000Y24470000D01*
X-27481000Y28130000D02*
X-27481000Y27140000D01*
X-27441000Y25460000D02*
X-27441000Y24449000D01*
X-27441000Y28151000D02*
X-27441000Y27140000D01*
X-27401000Y25460000D02*
X-27401000Y24430000D01*
X-27401000Y28170000D02*
X-27401000Y27140000D01*
X-27361000Y25460000D02*
X-27361000Y24411000D01*
X-27361000Y28189000D02*
X-27361000Y27140000D01*
X-27321000Y25460000D02*
X-27321000Y24393000D01*
X-27321000Y28207000D02*
X-27321000Y27140000D01*
X-27281000Y25460000D02*
X-27281000Y24376000D01*
X-27281000Y28224000D02*
X-27281000Y27140000D01*
X-27241000Y25460000D02*
X-27241000Y24360000D01*
X-27241000Y28240000D02*
X-27241000Y27140000D01*
X-27201000Y25460000D02*
X-27201000Y24346000D01*
X-27201000Y28254000D02*
X-27201000Y27140000D01*
X-27160000Y25460000D02*
X-27160000Y24332000D01*
X-27160000Y28268000D02*
X-27160000Y27140000D01*
X-27120000Y25460000D02*
X-27120000Y24318000D01*
X-27120000Y28282000D02*
X-27120000Y27140000D01*
X-27080000Y25460000D02*
X-27080000Y24306000D01*
X-27080000Y28294000D02*
X-27080000Y27140000D01*
X-27040000Y25460000D02*
X-27040000Y24295000D01*
X-27040000Y28305000D02*
X-27040000Y27140000D01*
X-27000000Y25460000D02*
X-27000000Y24284000D01*
X-27000000Y28316000D02*
X-27000000Y27140000D01*
X-26960000Y25460000D02*
X-26960000Y24275000D01*
X-26960000Y28325000D02*
X-26960000Y27140000D01*
X-26920000Y25460000D02*
X-26920000Y24266000D01*
X-26920000Y28334000D02*
X-26920000Y27140000D01*
X-26880000Y25460000D02*
X-26880000Y24258000D01*
X-26880000Y28342000D02*
X-26880000Y27140000D01*
X-26840000Y25460000D02*
X-26840000Y24250000D01*
X-26840000Y28350000D02*
X-26840000Y27140000D01*
X-26800000Y25460000D02*
X-26800000Y24244000D01*
X-26800000Y28356000D02*
X-26800000Y27140000D01*
X-26760000Y25460000D02*
X-26760000Y24238000D01*
X-26760000Y28362000D02*
X-26760000Y27140000D01*
X-26720000Y25460000D02*
X-26720000Y24233000D01*
X-26720000Y28367000D02*
X-26720000Y27140000D01*
X-26680000Y25460000D02*
X-26680000Y24229000D01*
X-26680000Y28371000D02*
X-26680000Y27140000D01*
X-26640000Y28374000D02*
X-26640000Y24226000D01*
X-26600000Y28377000D02*
X-26600000Y24223000D01*
X-26560000Y28379000D02*
X-26560000Y24221000D01*
X-26520000Y28380000D02*
X-26520000Y24220000D01*
X-26480000Y28380000D02*
X-26480000Y24220000D01*
X-24360000Y26300000D02*
G75*
G03*
X-24360000Y26300000I-2120000J0D01*
G01*
%TO.C,R1*%
X27414000Y27240000D02*
X27744000Y27240000D01*
X27414000Y20700000D02*
X27414000Y27240000D01*
X27744000Y20700000D02*
X27414000Y20700000D01*
X30154000Y27240000D02*
X29824000Y27240000D01*
X30154000Y20700000D02*
X30154000Y27240000D01*
X29824000Y20700000D02*
X30154000Y20700000D01*
%TO.C,R2*%
X-2830000Y6380000D02*
X-3160000Y6380000D01*
X-2830000Y12920000D02*
X-2830000Y6380000D01*
X-3160000Y12920000D02*
X-2830000Y12920000D01*
X-5570000Y6380000D02*
X-5240000Y6380000D01*
X-5570000Y12920000D02*
X-5570000Y6380000D01*
X-5240000Y12920000D02*
X-5570000Y12920000D01*
%TO.C,R3*%
X4551000Y6412500D02*
X4881000Y6412500D01*
X4881000Y6412500D02*
X4881000Y12952500D01*
X4881000Y12952500D02*
X4551000Y12952500D01*
X2471000Y6412500D02*
X2141000Y6412500D01*
X2141000Y6412500D02*
X2141000Y12952500D01*
X2141000Y12952500D02*
X2471000Y12952500D01*
%TO.C,R4*%
X741000Y6412500D02*
X1071000Y6412500D01*
X1071000Y6412500D02*
X1071000Y12952500D01*
X1071000Y12952500D02*
X741000Y12952500D01*
X-1339000Y6412500D02*
X-1669000Y6412500D01*
X-1669000Y6412500D02*
X-1669000Y12952500D01*
X-1669000Y12952500D02*
X-1339000Y12952500D01*
%TO.C,S1*%
X32949600Y-24367600D02*
X36886600Y-24393000D01*
X32949600Y-14410800D02*
X32949600Y-24367600D01*
X36886600Y-14410800D02*
X32949600Y-14410800D01*
X36886600Y-24367600D02*
X36886600Y-14410800D01*
%TO.C,U1*%
X-8620000Y-14640000D02*
X-11070000Y-14640000D01*
X-11070000Y-8540000D02*
X-8620000Y-8540000D01*
X-11620000Y-14090000D02*
X-11620000Y-9090000D01*
X19629738Y-11605231D02*
G75*
G03*
X-7920000Y-8070000I-13999738J15231D01*
G01*
X19629738Y-11574769D02*
G75*
G02*
X-7920000Y-15110000I-13999738J-15231D01*
G01*
X-7915231Y-8046515D02*
G75*
G02*
X-8620000Y-8540000I-704769J256515D01*
G01*
X-7915231Y-15133485D02*
G75*
G03*
X-8620000Y-14640000I-704769J-256515D01*
G01*
X-11070000Y-14640000D02*
G75*
G02*
X-11620000Y-14090000I0J550000D01*
G01*
X-11070000Y-8540000D02*
G75*
G03*
X-11620000Y-9090000I0J-550000D01*
G01*
%TO.C,U2*%
X31467000Y6511000D02*
X29817000Y6511000D01*
X29817000Y6511000D02*
X29817000Y16791000D01*
X29817000Y16791000D02*
X35117000Y16791000D01*
X35117000Y16791000D02*
X35117000Y6511000D01*
X35117000Y6511000D02*
X33467000Y6511000D01*
X33467000Y6511000D02*
G75*
G03*
X31467000Y6511000I-1000000J0D01*
G01*
%TO.C,U3*%
X-31938000Y20728000D02*
X-30288000Y20728000D01*
X-30288000Y20728000D02*
X-30288000Y288000D01*
X-30288000Y288000D02*
X-35588000Y288000D01*
X-35588000Y288000D02*
X-35588000Y20728000D01*
X-35588000Y20728000D02*
X-33938000Y20728000D01*
X-33938000Y20728000D02*
G75*
G03*
X-31938000Y20728000I1000000J0D01*
G01*
%TO.C,P1*%
X43145656Y1669400D02*
G75*
G03*
X43145656Y1669400I-2756456J0D01*
G01*
%TO.C,C1*%
D10*
X35856666Y3712857D02*
X35904285Y3665238D01*
X36047142Y3617619D01*
X36142380Y3617619D01*
X36285238Y3665238D01*
X36380476Y3760476D01*
X36428095Y3855714D01*
X36475714Y4046190D01*
X36475714Y4189047D01*
X36428095Y4379523D01*
X36380476Y4474761D01*
X36285238Y4570000D01*
X36142380Y4617619D01*
X36047142Y4617619D01*
X35904285Y4570000D01*
X35856666Y4522380D01*
X34904285Y3617619D02*
X35475714Y3617619D01*
X35190000Y3617619D02*
X35190000Y4617619D01*
X35285238Y4474761D01*
X35380476Y4379523D01*
X35475714Y4331904D01*
X34681428Y-1628380D02*
X35252857Y-1628380D01*
X34967142Y-1628380D02*
X34967142Y-628380D01*
X35062380Y-771238D01*
X35157619Y-866476D01*
X35252857Y-914095D01*
X34062380Y-628380D02*
X33967142Y-628380D01*
X33871904Y-676000D01*
X33824285Y-723619D01*
X33776666Y-818857D01*
X33729047Y-1009333D01*
X33729047Y-1247428D01*
X33776666Y-1437904D01*
X33824285Y-1533142D01*
X33871904Y-1580761D01*
X33967142Y-1628380D01*
X34062380Y-1628380D01*
X34157619Y-1580761D01*
X34205238Y-1533142D01*
X34252857Y-1437904D01*
X34300476Y-1247428D01*
X34300476Y-1009333D01*
X34252857Y-818857D01*
X34205238Y-723619D01*
X34157619Y-676000D01*
X34062380Y-628380D01*
X32871904Y-961714D02*
X32871904Y-1628380D01*
X33300476Y-961714D02*
X33300476Y-1485523D01*
X33252857Y-1580761D01*
X33157619Y-1628380D01*
X33014761Y-1628380D01*
X32919523Y-1580761D01*
X32871904Y-1533142D01*
X32062380Y-1104571D02*
X32395714Y-1104571D01*
X32395714Y-1628380D02*
X32395714Y-628380D01*
X31919523Y-628380D01*
%TO.C,C2*%
X-8403333Y-3513142D02*
X-8355714Y-3560761D01*
X-8212857Y-3608380D01*
X-8117619Y-3608380D01*
X-7974761Y-3560761D01*
X-7879523Y-3465523D01*
X-7831904Y-3370285D01*
X-7784285Y-3179809D01*
X-7784285Y-3036952D01*
X-7831904Y-2846476D01*
X-7879523Y-2751238D01*
X-7974761Y-2656000D01*
X-8117619Y-2608380D01*
X-8212857Y-2608380D01*
X-8355714Y-2656000D01*
X-8403333Y-2703619D01*
X-8784285Y-2703619D02*
X-8831904Y-2656000D01*
X-8927142Y-2608380D01*
X-9165238Y-2608380D01*
X-9260476Y-2656000D01*
X-9308095Y-2703619D01*
X-9355714Y-2798857D01*
X-9355714Y-2894095D01*
X-9308095Y-3036952D01*
X-8736666Y-3608380D01*
X-9355714Y-3608380D01*
X-7498571Y2891619D02*
X-6927142Y2891619D01*
X-7212857Y2891619D02*
X-7212857Y3891619D01*
X-7117619Y3748761D01*
X-7022380Y3653523D01*
X-6927142Y3605904D01*
X-8117619Y3891619D02*
X-8212857Y3891619D01*
X-8308095Y3844000D01*
X-8355714Y3796380D01*
X-8403333Y3701142D01*
X-8450952Y3510666D01*
X-8450952Y3272571D01*
X-8403333Y3082095D01*
X-8355714Y2986857D01*
X-8308095Y2939238D01*
X-8212857Y2891619D01*
X-8117619Y2891619D01*
X-8022380Y2939238D01*
X-7974761Y2986857D01*
X-7927142Y3082095D01*
X-7879523Y3272571D01*
X-7879523Y3510666D01*
X-7927142Y3701142D01*
X-7974761Y3796380D01*
X-8022380Y3844000D01*
X-8117619Y3891619D01*
X-8879523Y3558285D02*
X-8879523Y2891619D01*
X-8879523Y3463047D02*
X-8927142Y3510666D01*
X-9022380Y3558285D01*
X-9165238Y3558285D01*
X-9260476Y3510666D01*
X-9308095Y3415428D01*
X-9308095Y2891619D01*
X-10117619Y3415428D02*
X-9784285Y3415428D01*
X-9784285Y2891619D02*
X-9784285Y3891619D01*
X-10260476Y3891619D01*
%TO.C,C3*%
X-26313333Y29192857D02*
X-26265714Y29145238D01*
X-26122857Y29097619D01*
X-26027619Y29097619D01*
X-25884761Y29145238D01*
X-25789523Y29240476D01*
X-25741904Y29335714D01*
X-25694285Y29526190D01*
X-25694285Y29669047D01*
X-25741904Y29859523D01*
X-25789523Y29954761D01*
X-25884761Y30050000D01*
X-26027619Y30097619D01*
X-26122857Y30097619D01*
X-26265714Y30050000D01*
X-26313333Y30002380D01*
X-26646666Y30097619D02*
X-27265714Y30097619D01*
X-26932380Y29716666D01*
X-27075238Y29716666D01*
X-27170476Y29669047D01*
X-27218095Y29621428D01*
X-27265714Y29526190D01*
X-27265714Y29288095D01*
X-27218095Y29192857D01*
X-27170476Y29145238D01*
X-27075238Y29097619D01*
X-26789523Y29097619D01*
X-26694285Y29145238D01*
X-26646666Y29192857D01*
X-25360952Y22597619D02*
X-24789523Y22597619D01*
X-25075238Y22597619D02*
X-25075238Y23597619D01*
X-24980000Y23454761D01*
X-24884761Y23359523D01*
X-24789523Y23311904D01*
X-25980000Y23597619D02*
X-26075238Y23597619D01*
X-26170476Y23550000D01*
X-26218095Y23502380D01*
X-26265714Y23407142D01*
X-26313333Y23216666D01*
X-26313333Y22978571D01*
X-26265714Y22788095D01*
X-26218095Y22692857D01*
X-26170476Y22645238D01*
X-26075238Y22597619D01*
X-25980000Y22597619D01*
X-25884761Y22645238D01*
X-25837142Y22692857D01*
X-25789523Y22788095D01*
X-25741904Y22978571D01*
X-25741904Y23216666D01*
X-25789523Y23407142D01*
X-25837142Y23502380D01*
X-25884761Y23550000D01*
X-25980000Y23597619D01*
X-26932380Y23597619D02*
X-27027619Y23597619D01*
X-27122857Y23550000D01*
X-27170476Y23502380D01*
X-27218095Y23407142D01*
X-27265714Y23216666D01*
X-27265714Y22978571D01*
X-27218095Y22788095D01*
X-27170476Y22692857D01*
X-27122857Y22645238D01*
X-27027619Y22597619D01*
X-26932380Y22597619D01*
X-26837142Y22645238D01*
X-26789523Y22692857D01*
X-26741904Y22788095D01*
X-26694285Y22978571D01*
X-26694285Y23216666D01*
X-26741904Y23407142D01*
X-26789523Y23502380D01*
X-26837142Y23550000D01*
X-26932380Y23597619D01*
X-27694285Y23264285D02*
X-27694285Y22597619D01*
X-27694285Y23169047D02*
X-27741904Y23216666D01*
X-27837142Y23264285D01*
X-27980000Y23264285D01*
X-28075238Y23216666D01*
X-28122857Y23121428D01*
X-28122857Y22597619D01*
%TO.C,D1*%
X1088095Y-31362380D02*
X1088095Y-30362380D01*
X850000Y-30362380D01*
X707142Y-30410000D01*
X611904Y-30505238D01*
X564285Y-30600476D01*
X516666Y-30790952D01*
X516666Y-30933809D01*
X564285Y-31124285D01*
X611904Y-31219523D01*
X707142Y-31314761D01*
X850000Y-31362380D01*
X1088095Y-31362380D01*
X-435714Y-31362380D02*
X135714Y-31362380D01*
X-149999Y-31362380D02*
X-149999Y-30362380D01*
X-54761Y-30505238D01*
X40476Y-30600476D01*
X135714Y-30648095D01*
%TO.C,D2*%
X8798095Y-30442380D02*
X8798095Y-29442380D01*
X8560000Y-29442380D01*
X8417142Y-29490000D01*
X8321904Y-29585238D01*
X8274285Y-29680476D01*
X8226666Y-29870952D01*
X8226666Y-30013809D01*
X8274285Y-30204285D01*
X8321904Y-30299523D01*
X8417142Y-30394761D01*
X8560000Y-30442380D01*
X8798095Y-30442380D01*
X7845714Y-29537619D02*
X7798095Y-29490000D01*
X7702857Y-29442380D01*
X7464761Y-29442380D01*
X7369523Y-29490000D01*
X7321904Y-29537619D01*
X7274285Y-29632857D01*
X7274285Y-29728095D01*
X7321904Y-29870952D01*
X7893333Y-30442380D01*
X7274285Y-30442380D01*
%TO.C,D3*%
X15208095Y-28132380D02*
X15208095Y-27132380D01*
X14970000Y-27132380D01*
X14827142Y-27180000D01*
X14731904Y-27275238D01*
X14684285Y-27370476D01*
X14636666Y-27560952D01*
X14636666Y-27703809D01*
X14684285Y-27894285D01*
X14731904Y-27989523D01*
X14827142Y-28084761D01*
X14970000Y-28132380D01*
X15208095Y-28132380D01*
X14303333Y-27132380D02*
X13684285Y-27132380D01*
X14017619Y-27513333D01*
X13874761Y-27513333D01*
X13779523Y-27560952D01*
X13731904Y-27608571D01*
X13684285Y-27703809D01*
X13684285Y-27941904D01*
X13731904Y-28037142D01*
X13779523Y-28084761D01*
X13874761Y-28132380D01*
X14160476Y-28132380D01*
X14255714Y-28084761D01*
X14303333Y-28037142D01*
%TO.C,D4*%
X20848095Y-24422380D02*
X20848095Y-23422380D01*
X20610000Y-23422380D01*
X20467142Y-23470000D01*
X20371904Y-23565238D01*
X20324285Y-23660476D01*
X20276666Y-23850952D01*
X20276666Y-23993809D01*
X20324285Y-24184285D01*
X20371904Y-24279523D01*
X20467142Y-24374761D01*
X20610000Y-24422380D01*
X20848095Y-24422380D01*
X19419523Y-23755714D02*
X19419523Y-24422380D01*
X19657619Y-23374761D02*
X19895714Y-24089047D01*
X19276666Y-24089047D01*
%TO.C,D5*%
X25688095Y-19632380D02*
X25688095Y-18632380D01*
X25450000Y-18632380D01*
X25307142Y-18680000D01*
X25211904Y-18775238D01*
X25164285Y-18870476D01*
X25116666Y-19060952D01*
X25116666Y-19203809D01*
X25164285Y-19394285D01*
X25211904Y-19489523D01*
X25307142Y-19584761D01*
X25450000Y-19632380D01*
X25688095Y-19632380D01*
X24211904Y-18632380D02*
X24688095Y-18632380D01*
X24735714Y-19108571D01*
X24688095Y-19060952D01*
X24592857Y-19013333D01*
X24354761Y-19013333D01*
X24259523Y-19060952D01*
X24211904Y-19108571D01*
X24164285Y-19203809D01*
X24164285Y-19441904D01*
X24211904Y-19537142D01*
X24259523Y-19584761D01*
X24354761Y-19632380D01*
X24592857Y-19632380D01*
X24688095Y-19584761D01*
X24735714Y-19537142D01*
%TO.C,D6*%
X29738095Y-13692380D02*
X29738095Y-12692380D01*
X29500000Y-12692380D01*
X29357142Y-12740000D01*
X29261904Y-12835238D01*
X29214285Y-12930476D01*
X29166666Y-13120952D01*
X29166666Y-13263809D01*
X29214285Y-13454285D01*
X29261904Y-13549523D01*
X29357142Y-13644761D01*
X29500000Y-13692380D01*
X29738095Y-13692380D01*
X28309523Y-12692380D02*
X28500000Y-12692380D01*
X28595238Y-12740000D01*
X28642857Y-12787619D01*
X28738095Y-12930476D01*
X28785714Y-13120952D01*
X28785714Y-13501904D01*
X28738095Y-13597142D01*
X28690476Y-13644761D01*
X28595238Y-13692380D01*
X28404761Y-13692380D01*
X28309523Y-13644761D01*
X28261904Y-13597142D01*
X28214285Y-13501904D01*
X28214285Y-13263809D01*
X28261904Y-13168571D01*
X28309523Y-13120952D01*
X28404761Y-13073333D01*
X28595238Y-13073333D01*
X28690476Y-13120952D01*
X28738095Y-13168571D01*
X28785714Y-13263809D01*
%TO.C,D7*%
X33198095Y-7832380D02*
X33198095Y-6832380D01*
X32960000Y-6832380D01*
X32817142Y-6880000D01*
X32721904Y-6975238D01*
X32674285Y-7070476D01*
X32626666Y-7260952D01*
X32626666Y-7403809D01*
X32674285Y-7594285D01*
X32721904Y-7689523D01*
X32817142Y-7784761D01*
X32960000Y-7832380D01*
X33198095Y-7832380D01*
X32293333Y-6832380D02*
X31626666Y-6832380D01*
X32055238Y-7832380D01*
%TO.C,D8*%
X18968095Y15727619D02*
X18968095Y16727619D01*
X18730000Y16727619D01*
X18587142Y16680000D01*
X18491904Y16584761D01*
X18444285Y16489523D01*
X18396666Y16299047D01*
X18396666Y16156190D01*
X18444285Y15965714D01*
X18491904Y15870476D01*
X18587142Y15775238D01*
X18730000Y15727619D01*
X18968095Y15727619D01*
X17825238Y16299047D02*
X17920476Y16346666D01*
X17968095Y16394285D01*
X18015714Y16489523D01*
X18015714Y16537142D01*
X17968095Y16632380D01*
X17920476Y16680000D01*
X17825238Y16727619D01*
X17634761Y16727619D01*
X17539523Y16680000D01*
X17491904Y16632380D01*
X17444285Y16537142D01*
X17444285Y16489523D01*
X17491904Y16394285D01*
X17539523Y16346666D01*
X17634761Y16299047D01*
X17825238Y16299047D01*
X17920476Y16251428D01*
X17968095Y16203809D01*
X18015714Y16108571D01*
X18015714Y15918095D01*
X17968095Y15822857D01*
X17920476Y15775238D01*
X17825238Y15727619D01*
X17634761Y15727619D01*
X17539523Y15775238D01*
X17491904Y15822857D01*
X17444285Y15918095D01*
X17444285Y16108571D01*
X17491904Y16203809D01*
X17539523Y16251428D01*
X17634761Y16299047D01*
%TO.C,D22*%
X-5915714Y-30472380D02*
X-5915714Y-29472380D01*
X-6153809Y-29472380D01*
X-6296666Y-29520000D01*
X-6391904Y-29615238D01*
X-6439523Y-29710476D01*
X-6487142Y-29900952D01*
X-6487142Y-30043809D01*
X-6439523Y-30234285D01*
X-6391904Y-30329523D01*
X-6296666Y-30424761D01*
X-6153809Y-30472380D01*
X-5915714Y-30472380D01*
X-6868095Y-29567619D02*
X-6915714Y-29520000D01*
X-7010952Y-29472380D01*
X-7249047Y-29472380D01*
X-7344285Y-29520000D01*
X-7391904Y-29567619D01*
X-7439523Y-29662857D01*
X-7439523Y-29758095D01*
X-7391904Y-29900952D01*
X-6820476Y-30472380D01*
X-7439523Y-30472380D01*
X-7820476Y-29567619D02*
X-7868095Y-29520000D01*
X-7963333Y-29472380D01*
X-8201428Y-29472380D01*
X-8296666Y-29520000D01*
X-8344285Y-29567619D01*
X-8391904Y-29662857D01*
X-8391904Y-29758095D01*
X-8344285Y-29900952D01*
X-7772857Y-30472380D01*
X-8391904Y-30472380D01*
%TO.C,D33*%
X-12625714Y-28102380D02*
X-12625714Y-27102380D01*
X-12863809Y-27102380D01*
X-13006666Y-27150000D01*
X-13101904Y-27245238D01*
X-13149523Y-27340476D01*
X-13197142Y-27530952D01*
X-13197142Y-27673809D01*
X-13149523Y-27864285D01*
X-13101904Y-27959523D01*
X-13006666Y-28054761D01*
X-12863809Y-28102380D01*
X-12625714Y-28102380D01*
X-13530476Y-27102380D02*
X-14149523Y-27102380D01*
X-13816190Y-27483333D01*
X-13959047Y-27483333D01*
X-14054285Y-27530952D01*
X-14101904Y-27578571D01*
X-14149523Y-27673809D01*
X-14149523Y-27911904D01*
X-14101904Y-28007142D01*
X-14054285Y-28054761D01*
X-13959047Y-28102380D01*
X-13673333Y-28102380D01*
X-13578095Y-28054761D01*
X-13530476Y-28007142D01*
X-14482857Y-27102380D02*
X-15101904Y-27102380D01*
X-14768571Y-27483333D01*
X-14911428Y-27483333D01*
X-15006666Y-27530952D01*
X-15054285Y-27578571D01*
X-15101904Y-27673809D01*
X-15101904Y-27911904D01*
X-15054285Y-28007142D01*
X-15006666Y-28054761D01*
X-14911428Y-28102380D01*
X-14625714Y-28102380D01*
X-14530476Y-28054761D01*
X-14482857Y-28007142D01*
%TO.C,D44*%
X-18305714Y-24452380D02*
X-18305714Y-23452380D01*
X-18543809Y-23452380D01*
X-18686666Y-23500000D01*
X-18781904Y-23595238D01*
X-18829523Y-23690476D01*
X-18877142Y-23880952D01*
X-18877142Y-24023809D01*
X-18829523Y-24214285D01*
X-18781904Y-24309523D01*
X-18686666Y-24404761D01*
X-18543809Y-24452380D01*
X-18305714Y-24452380D01*
X-19734285Y-23785714D02*
X-19734285Y-24452380D01*
X-19496190Y-23404761D02*
X-19258095Y-24119047D01*
X-19877142Y-24119047D01*
X-20686666Y-23785714D02*
X-20686666Y-24452380D01*
X-20448571Y-23404761D02*
X-20210476Y-24119047D01*
X-20829523Y-24119047D01*
%TO.C,D55*%
X-22865714Y-19652380D02*
X-22865714Y-18652380D01*
X-23103809Y-18652380D01*
X-23246666Y-18700000D01*
X-23341904Y-18795238D01*
X-23389523Y-18890476D01*
X-23437142Y-19080952D01*
X-23437142Y-19223809D01*
X-23389523Y-19414285D01*
X-23341904Y-19509523D01*
X-23246666Y-19604761D01*
X-23103809Y-19652380D01*
X-22865714Y-19652380D01*
X-24341904Y-18652380D02*
X-23865714Y-18652380D01*
X-23818095Y-19128571D01*
X-23865714Y-19080952D01*
X-23960952Y-19033333D01*
X-24199047Y-19033333D01*
X-24294285Y-19080952D01*
X-24341904Y-19128571D01*
X-24389523Y-19223809D01*
X-24389523Y-19461904D01*
X-24341904Y-19557142D01*
X-24294285Y-19604761D01*
X-24199047Y-19652380D01*
X-23960952Y-19652380D01*
X-23865714Y-19604761D01*
X-23818095Y-19557142D01*
X-25294285Y-18652380D02*
X-24818095Y-18652380D01*
X-24770476Y-19128571D01*
X-24818095Y-19080952D01*
X-24913333Y-19033333D01*
X-25151428Y-19033333D01*
X-25246666Y-19080952D01*
X-25294285Y-19128571D01*
X-25341904Y-19223809D01*
X-25341904Y-19461904D01*
X-25294285Y-19557142D01*
X-25246666Y-19604761D01*
X-25151428Y-19652380D01*
X-24913333Y-19652380D01*
X-24818095Y-19604761D01*
X-24770476Y-19557142D01*
%TO.C,D66*%
X-26985714Y-13852380D02*
X-26985714Y-12852380D01*
X-27223809Y-12852380D01*
X-27366666Y-12900000D01*
X-27461904Y-12995238D01*
X-27509523Y-13090476D01*
X-27557142Y-13280952D01*
X-27557142Y-13423809D01*
X-27509523Y-13614285D01*
X-27461904Y-13709523D01*
X-27366666Y-13804761D01*
X-27223809Y-13852380D01*
X-26985714Y-13852380D01*
X-28414285Y-12852380D02*
X-28223809Y-12852380D01*
X-28128571Y-12900000D01*
X-28080952Y-12947619D01*
X-27985714Y-13090476D01*
X-27938095Y-13280952D01*
X-27938095Y-13661904D01*
X-27985714Y-13757142D01*
X-28033333Y-13804761D01*
X-28128571Y-13852380D01*
X-28319047Y-13852380D01*
X-28414285Y-13804761D01*
X-28461904Y-13757142D01*
X-28509523Y-13661904D01*
X-28509523Y-13423809D01*
X-28461904Y-13328571D01*
X-28414285Y-13280952D01*
X-28319047Y-13233333D01*
X-28128571Y-13233333D01*
X-28033333Y-13280952D01*
X-27985714Y-13328571D01*
X-27938095Y-13423809D01*
X-29366666Y-12852380D02*
X-29176190Y-12852380D01*
X-29080952Y-12900000D01*
X-29033333Y-12947619D01*
X-28938095Y-13090476D01*
X-28890476Y-13280952D01*
X-28890476Y-13661904D01*
X-28938095Y-13757142D01*
X-28985714Y-13804761D01*
X-29080952Y-13852380D01*
X-29271428Y-13852380D01*
X-29366666Y-13804761D01*
X-29414285Y-13757142D01*
X-29461904Y-13661904D01*
X-29461904Y-13423809D01*
X-29414285Y-13328571D01*
X-29366666Y-13280952D01*
X-29271428Y-13233333D01*
X-29080952Y-13233333D01*
X-28985714Y-13280952D01*
X-28938095Y-13328571D01*
X-28890476Y-13423809D01*
%TO.C,D77*%
X-30255714Y-7962380D02*
X-30255714Y-6962380D01*
X-30493809Y-6962380D01*
X-30636666Y-7010000D01*
X-30731904Y-7105238D01*
X-30779523Y-7200476D01*
X-30827142Y-7390952D01*
X-30827142Y-7533809D01*
X-30779523Y-7724285D01*
X-30731904Y-7819523D01*
X-30636666Y-7914761D01*
X-30493809Y-7962380D01*
X-30255714Y-7962380D01*
X-31160476Y-6962380D02*
X-31827142Y-6962380D01*
X-31398571Y-7962380D01*
X-32112857Y-6962380D02*
X-32779523Y-6962380D01*
X-32350952Y-7962380D01*
%TO.C,D88*%
X-10140714Y15476619D02*
X-10140714Y16476619D01*
X-10378809Y16476619D01*
X-10521666Y16429000D01*
X-10616904Y16333761D01*
X-10664523Y16238523D01*
X-10712142Y16048047D01*
X-10712142Y15905190D01*
X-10664523Y15714714D01*
X-10616904Y15619476D01*
X-10521666Y15524238D01*
X-10378809Y15476619D01*
X-10140714Y15476619D01*
X-11283571Y16048047D02*
X-11188333Y16095666D01*
X-11140714Y16143285D01*
X-11093095Y16238523D01*
X-11093095Y16286142D01*
X-11140714Y16381380D01*
X-11188333Y16429000D01*
X-11283571Y16476619D01*
X-11474047Y16476619D01*
X-11569285Y16429000D01*
X-11616904Y16381380D01*
X-11664523Y16286142D01*
X-11664523Y16238523D01*
X-11616904Y16143285D01*
X-11569285Y16095666D01*
X-11474047Y16048047D01*
X-11283571Y16048047D01*
X-11188333Y16000428D01*
X-11140714Y15952809D01*
X-11093095Y15857571D01*
X-11093095Y15667095D01*
X-11140714Y15571857D01*
X-11188333Y15524238D01*
X-11283571Y15476619D01*
X-11474047Y15476619D01*
X-11569285Y15524238D01*
X-11616904Y15571857D01*
X-11664523Y15667095D01*
X-11664523Y15857571D01*
X-11616904Y15952809D01*
X-11569285Y16000428D01*
X-11474047Y16048047D01*
X-12235952Y16048047D02*
X-12140714Y16095666D01*
X-12093095Y16143285D01*
X-12045476Y16238523D01*
X-12045476Y16286142D01*
X-12093095Y16381380D01*
X-12140714Y16429000D01*
X-12235952Y16476619D01*
X-12426428Y16476619D01*
X-12521666Y16429000D01*
X-12569285Y16381380D01*
X-12616904Y16286142D01*
X-12616904Y16238523D01*
X-12569285Y16143285D01*
X-12521666Y16095666D01*
X-12426428Y16048047D01*
X-12235952Y16048047D01*
X-12140714Y16000428D01*
X-12093095Y15952809D01*
X-12045476Y15857571D01*
X-12045476Y15667095D01*
X-12093095Y15571857D01*
X-12140714Y15524238D01*
X-12235952Y15476619D01*
X-12426428Y15476619D01*
X-12521666Y15524238D01*
X-12569285Y15571857D01*
X-12616904Y15667095D01*
X-12616904Y15857571D01*
X-12569285Y15952809D01*
X-12521666Y16000428D01*
X-12426428Y16048047D01*
%TO.C,R1*%
X31606380Y24136666D02*
X31130190Y24470000D01*
X31606380Y24708095D02*
X30606380Y24708095D01*
X30606380Y24327142D01*
X30654000Y24231904D01*
X30701619Y24184285D01*
X30796857Y24136666D01*
X30939714Y24136666D01*
X31034952Y24184285D01*
X31082571Y24231904D01*
X31130190Y24327142D01*
X31130190Y24708095D01*
X31606380Y23184285D02*
X31606380Y23755714D01*
X31606380Y23470000D02*
X30606380Y23470000D01*
X30749238Y23565238D01*
X30844476Y23660476D01*
X30892095Y23755714D01*
%TO.C,R2*%
X-3797619Y16106666D02*
X-4273809Y16440000D01*
X-3797619Y16678095D02*
X-4797619Y16678095D01*
X-4797619Y16297142D01*
X-4750000Y16201904D01*
X-4702380Y16154285D01*
X-4607142Y16106666D01*
X-4464285Y16106666D01*
X-4369047Y16154285D01*
X-4321428Y16201904D01*
X-4273809Y16297142D01*
X-4273809Y16678095D01*
X-4702380Y15725714D02*
X-4750000Y15678095D01*
X-4797619Y15582857D01*
X-4797619Y15344761D01*
X-4750000Y15249523D01*
X-4702380Y15201904D01*
X-4607142Y15154285D01*
X-4511904Y15154285D01*
X-4369047Y15201904D01*
X-3797619Y15773333D01*
X-3797619Y15154285D01*
X-4811119Y10673785D02*
X-4811119Y11149976D01*
X-4334928Y11197595D01*
X-4382547Y11149976D01*
X-4430166Y11054738D01*
X-4430166Y10816642D01*
X-4382547Y10721404D01*
X-4334928Y10673785D01*
X-4239690Y10626166D01*
X-4001595Y10626166D01*
X-3906357Y10673785D01*
X-3858738Y10721404D01*
X-3811119Y10816642D01*
X-3811119Y11054738D01*
X-3858738Y11149976D01*
X-3906357Y11197595D01*
X-4811119Y10007119D02*
X-4811119Y9911880D01*
X-4763500Y9816642D01*
X-4715880Y9769023D01*
X-4620642Y9721404D01*
X-4430166Y9673785D01*
X-4192071Y9673785D01*
X-4001595Y9721404D01*
X-3906357Y9769023D01*
X-3858738Y9816642D01*
X-3811119Y9911880D01*
X-3811119Y10007119D01*
X-3858738Y10102357D01*
X-3906357Y10149976D01*
X-4001595Y10197595D01*
X-4192071Y10245214D01*
X-4430166Y10245214D01*
X-4620642Y10197595D01*
X-4715880Y10149976D01*
X-4763500Y10102357D01*
X-4811119Y10007119D01*
X-4811119Y9054738D02*
X-4811119Y8959500D01*
X-4763500Y8864261D01*
X-4715880Y8816642D01*
X-4620642Y8769023D01*
X-4430166Y8721404D01*
X-4192071Y8721404D01*
X-4001595Y8769023D01*
X-3906357Y8816642D01*
X-3858738Y8864261D01*
X-3811119Y8959500D01*
X-3811119Y9054738D01*
X-3858738Y9149976D01*
X-3906357Y9197595D01*
X-4001595Y9245214D01*
X-4192071Y9292833D01*
X-4430166Y9292833D01*
X-4620642Y9245214D01*
X-4715880Y9197595D01*
X-4763500Y9149976D01*
X-4811119Y9054738D01*
X-3811119Y7721404D02*
X-4287309Y8054738D01*
X-3811119Y8292833D02*
X-4811119Y8292833D01*
X-4811119Y7911880D01*
X-4763500Y7816642D01*
X-4715880Y7769023D01*
X-4620642Y7721404D01*
X-4477785Y7721404D01*
X-4382547Y7769023D01*
X-4334928Y7816642D01*
X-4287309Y7911880D01*
X-4287309Y8292833D01*
%TO.C,R3*%
X4090380Y16262666D02*
X3614190Y16596000D01*
X4090380Y16834095D02*
X3090380Y16834095D01*
X3090380Y16453142D01*
X3138000Y16357904D01*
X3185619Y16310285D01*
X3280857Y16262666D01*
X3423714Y16262666D01*
X3518952Y16310285D01*
X3566571Y16357904D01*
X3614190Y16453142D01*
X3614190Y16834095D01*
X3090380Y15929333D02*
X3090380Y15310285D01*
X3471333Y15643619D01*
X3471333Y15500761D01*
X3518952Y15405523D01*
X3566571Y15357904D01*
X3661809Y15310285D01*
X3899904Y15310285D01*
X3995142Y15357904D01*
X4042761Y15405523D01*
X4090380Y15500761D01*
X4090380Y15786476D01*
X4042761Y15881714D01*
X3995142Y15929333D01*
X3090380Y11214285D02*
X3090380Y11690476D01*
X3566571Y11738095D01*
X3518952Y11690476D01*
X3471333Y11595238D01*
X3471333Y11357142D01*
X3518952Y11261904D01*
X3566571Y11214285D01*
X3661809Y11166666D01*
X3899904Y11166666D01*
X3995142Y11214285D01*
X4042761Y11261904D01*
X4090380Y11357142D01*
X4090380Y11595238D01*
X4042761Y11690476D01*
X3995142Y11738095D01*
X3090380Y10547619D02*
X3090380Y10452380D01*
X3138000Y10357142D01*
X3185619Y10309523D01*
X3280857Y10261904D01*
X3471333Y10214285D01*
X3709428Y10214285D01*
X3899904Y10261904D01*
X3995142Y10309523D01*
X4042761Y10357142D01*
X4090380Y10452380D01*
X4090380Y10547619D01*
X4042761Y10642857D01*
X3995142Y10690476D01*
X3899904Y10738095D01*
X3709428Y10785714D01*
X3471333Y10785714D01*
X3280857Y10738095D01*
X3185619Y10690476D01*
X3138000Y10642857D01*
X3090380Y10547619D01*
X3090380Y9595238D02*
X3090380Y9500000D01*
X3138000Y9404761D01*
X3185619Y9357142D01*
X3280857Y9309523D01*
X3471333Y9261904D01*
X3709428Y9261904D01*
X3899904Y9309523D01*
X3995142Y9357142D01*
X4042761Y9404761D01*
X4090380Y9500000D01*
X4090380Y9595238D01*
X4042761Y9690476D01*
X3995142Y9738095D01*
X3899904Y9785714D01*
X3709428Y9833333D01*
X3471333Y9833333D01*
X3280857Y9785714D01*
X3185619Y9738095D01*
X3138000Y9690476D01*
X3090380Y9595238D01*
X4090380Y8261904D02*
X3614190Y8595238D01*
X4090380Y8833333D02*
X3090380Y8833333D01*
X3090380Y8452380D01*
X3138000Y8357142D01*
X3185619Y8309523D01*
X3280857Y8261904D01*
X3423714Y8261904D01*
X3518952Y8309523D01*
X3566571Y8357142D01*
X3614190Y8452380D01*
X3614190Y8833333D01*
%TO.C,R4*%
X280380Y16135666D02*
X-195809Y16469000D01*
X280380Y16707095D02*
X-719619Y16707095D01*
X-719619Y16326142D01*
X-672000Y16230904D01*
X-624380Y16183285D01*
X-529142Y16135666D01*
X-386285Y16135666D01*
X-291047Y16183285D01*
X-243428Y16230904D01*
X-195809Y16326142D01*
X-195809Y16707095D01*
X-386285Y15278523D02*
X280380Y15278523D01*
X-767238Y15516619D02*
X-52952Y15754714D01*
X-52952Y15135666D01*
X-846619Y11658714D02*
X-846619Y11039666D01*
X-465666Y11373000D01*
X-465666Y11230142D01*
X-418047Y11134904D01*
X-370428Y11087285D01*
X-275190Y11039666D01*
X-37095Y11039666D01*
X58142Y11087285D01*
X105761Y11134904D01*
X153380Y11230142D01*
X153380Y11515857D01*
X105761Y11611095D01*
X58142Y11658714D01*
X-846619Y10706333D02*
X-846619Y10087285D01*
X-465666Y10420619D01*
X-465666Y10277761D01*
X-418047Y10182523D01*
X-370428Y10134904D01*
X-275190Y10087285D01*
X-37095Y10087285D01*
X58142Y10134904D01*
X105761Y10182523D01*
X153380Y10277761D01*
X153380Y10563476D01*
X105761Y10658714D01*
X58142Y10706333D01*
X-846619Y9468238D02*
X-846619Y9373000D01*
X-799000Y9277761D01*
X-751380Y9230142D01*
X-656142Y9182523D01*
X-465666Y9134904D01*
X-227571Y9134904D01*
X-37095Y9182523D01*
X58142Y9230142D01*
X105761Y9277761D01*
X153380Y9373000D01*
X153380Y9468238D01*
X105761Y9563476D01*
X58142Y9611095D01*
X-37095Y9658714D01*
X-227571Y9706333D01*
X-465666Y9706333D01*
X-656142Y9658714D01*
X-751380Y9611095D01*
X-799000Y9563476D01*
X-846619Y9468238D01*
X153380Y8134904D02*
X-322809Y8468238D01*
X153380Y8706333D02*
X-846619Y8706333D01*
X-846619Y8325380D01*
X-799000Y8230142D01*
X-751380Y8182523D01*
X-656142Y8134904D01*
X-513285Y8134904D01*
X-418047Y8182523D01*
X-370428Y8230142D01*
X-322809Y8325380D01*
X-322809Y8706333D01*
%TO.C,S1*%
X39214761Y-15548095D02*
X39262380Y-15690952D01*
X39262380Y-15929047D01*
X39214761Y-16024285D01*
X39167142Y-16071904D01*
X39071904Y-16119523D01*
X38976666Y-16119523D01*
X38881428Y-16071904D01*
X38833809Y-16024285D01*
X38786190Y-15929047D01*
X38738571Y-15738571D01*
X38690952Y-15643333D01*
X38643333Y-15595714D01*
X38548095Y-15548095D01*
X38452857Y-15548095D01*
X38357619Y-15595714D01*
X38310000Y-15643333D01*
X38262380Y-15738571D01*
X38262380Y-15976666D01*
X38310000Y-16119523D01*
X39262380Y-17071904D02*
X39262380Y-16500476D01*
X39262380Y-16786190D02*
X38262380Y-16786190D01*
X38405238Y-16690952D01*
X38500476Y-16595714D01*
X38548095Y-16500476D01*
%TO.C,U1*%
X24244285Y-11257619D02*
X24196666Y-11210000D01*
X24101428Y-11162380D01*
X23863333Y-11162380D01*
X23768095Y-11210000D01*
X23720476Y-11257619D01*
X23672857Y-11352857D01*
X23672857Y-11448095D01*
X23720476Y-11590952D01*
X24291904Y-12162380D01*
X23672857Y-12162380D01*
X23053809Y-11162380D02*
X22958571Y-11162380D01*
X22863333Y-11210000D01*
X22815714Y-11257619D01*
X22768095Y-11352857D01*
X22720476Y-11543333D01*
X22720476Y-11781428D01*
X22768095Y-11971904D01*
X22815714Y-12067142D01*
X22863333Y-12114761D01*
X22958571Y-12162380D01*
X23053809Y-12162380D01*
X23149047Y-12114761D01*
X23196666Y-12067142D01*
X23244285Y-11971904D01*
X23291904Y-11781428D01*
X23291904Y-11543333D01*
X23244285Y-11352857D01*
X23196666Y-11257619D01*
X23149047Y-11210000D01*
X23053809Y-11162380D01*
X22387142Y-11162380D02*
X21768095Y-11162380D01*
X22101428Y-11543333D01*
X21958571Y-11543333D01*
X21863333Y-11590952D01*
X21815714Y-11638571D01*
X21768095Y-11733809D01*
X21768095Y-11971904D01*
X21815714Y-12067142D01*
X21863333Y-12114761D01*
X21958571Y-12162380D01*
X22244285Y-12162380D01*
X22339523Y-12114761D01*
X22387142Y-12067142D01*
X21387142Y-11257619D02*
X21339523Y-11210000D01*
X21244285Y-11162380D01*
X21006190Y-11162380D01*
X20910952Y-11210000D01*
X20863333Y-11257619D01*
X20815714Y-11352857D01*
X20815714Y-11448095D01*
X20863333Y-11590952D01*
X21434761Y-12162380D01*
X20815714Y-12162380D01*
D15*
X-13738095Y-11572857D02*
X-15261904Y-11572857D01*
X-14500000Y-12334761D02*
X-14500000Y-10810952D01*
%TO.C,U2*%
D10*
X33228904Y6058619D02*
X33228904Y5249095D01*
X33181285Y5153857D01*
X33133666Y5106238D01*
X33038428Y5058619D01*
X32847952Y5058619D01*
X32752714Y5106238D01*
X32705095Y5153857D01*
X32657476Y5249095D01*
X32657476Y6058619D01*
X32228904Y5963380D02*
X32181285Y6011000D01*
X32086047Y6058619D01*
X31847952Y6058619D01*
X31752714Y6011000D01*
X31705095Y5963380D01*
X31657476Y5868142D01*
X31657476Y5772904D01*
X31705095Y5630047D01*
X32276523Y5058619D01*
X31657476Y5058619D01*
%TO.C,U3*%
X-32176095Y22275619D02*
X-32176095Y21466095D01*
X-32223714Y21370857D01*
X-32271333Y21323238D01*
X-32366571Y21275619D01*
X-32557047Y21275619D01*
X-32652285Y21323238D01*
X-32699904Y21370857D01*
X-32747523Y21466095D01*
X-32747523Y22275619D01*
X-33128476Y22275619D02*
X-33747523Y22275619D01*
X-33414190Y21894666D01*
X-33557047Y21894666D01*
X-33652285Y21847047D01*
X-33699904Y21799428D01*
X-33747523Y21704190D01*
X-33747523Y21466095D01*
X-33699904Y21370857D01*
X-33652285Y21323238D01*
X-33557047Y21275619D01*
X-33271333Y21275619D01*
X-33176095Y21323238D01*
X-33128476Y21370857D01*
%TO.C,P1*%
X41168095Y-2552380D02*
X41168095Y-1552380D01*
X40787142Y-1552380D01*
X40691904Y-1600000D01*
X40644285Y-1647619D01*
X40596666Y-1742857D01*
X40596666Y-1885714D01*
X40644285Y-1980952D01*
X40691904Y-2028571D01*
X40787142Y-2076190D01*
X41168095Y-2076190D01*
X39644285Y-2552380D02*
X40215714Y-2552380D01*
X39930000Y-2552380D02*
X39930000Y-1552380D01*
X40025238Y-1695238D01*
X40120476Y-1790476D01*
X40215714Y-1838095D01*
%TD*%
M02*
