%TF.GenerationSoftware,KiCad,Pcbnew,7.0.8*%
%TF.CreationDate,2024-08-08T21:43:19+02:00*%
%TF.ProjectId,Smiley V8,536d696c-6579-4205-9638-2e6b69636164,rev?*%
%TF.SameCoordinates,Original*%
%TF.FileFunction,Profile,NP*%
%FSLAX46Y46*%
G04 Gerber Fmt 4.6, Leading zero omitted, Abs format (unit mm)*
G04 Created by KiCad (PCBNEW 7.0.8) date 2024-08-08 21:43:19*
%MOMM*%
%LPD*%
G01*
G04 APERTURE LIST*
%TA.AperFunction,Profile*%
%ADD10C,0.100000*%
%TD*%
G04 APERTURE END LIST*
D10*
X102036300Y-53279600D02*
X101109900Y-52749540D01*
X32128220Y-103274100D02*
X32354170Y-104305200D01*
X52590000Y-54323530D02*
X51728600Y-54894000D01*
X61830800Y-137835100D02*
X62867100Y-138205900D01*
X38980200Y-119741700D02*
X39575500Y-120614300D01*
X34350340Y-76734100D02*
X33960200Y-77769700D01*
X63764000Y-49033250D02*
X62784000Y-49360660D01*
X123372900Y-80954700D02*
X123097800Y-80022900D01*
X108139300Y-57569800D02*
X107310900Y-56897600D01*
X52051400Y-132838400D02*
X52974000Y-133438700D01*
X81368000Y-140639400D02*
X82471200Y-140548900D01*
X75837300Y-140700900D02*
X76943400Y-140741100D01*
X66025300Y-139168500D02*
X67092900Y-139438400D01*
X46847700Y-58712900D02*
X46027300Y-59457600D01*
X123270900Y-106848100D02*
X123532700Y-105912300D01*
X116767500Y-66975300D02*
X116149000Y-66106000D01*
X49370300Y-130911700D02*
X50249000Y-131574600D01*
X121505800Y-111869200D02*
X121905200Y-110882300D01*
X122635100Y-108881700D02*
X122964900Y-107868800D01*
X123097800Y-80022900D02*
X122802800Y-79097100D01*
X95353400Y-137487500D02*
X96379100Y-137071300D01*
X92563200Y-49028850D02*
X91186500Y-48606680D01*
X92221400Y-138589600D02*
X93274000Y-138246800D01*
X93274000Y-138246800D02*
X94318200Y-137879400D01*
X44443700Y-61005700D02*
X43681100Y-61808000D01*
X31736570Y-86326000D02*
X31574790Y-87421200D01*
X116933100Y-120269600D02*
X117524200Y-119384200D01*
X47660300Y-129525700D02*
X48507200Y-130228600D01*
X70791100Y-47349330D02*
X69772600Y-47523560D01*
X99219800Y-51755590D02*
X97923100Y-51129710D01*
X45225900Y-60222100D02*
X44443700Y-61005700D01*
X71431000Y-140274300D02*
X72528700Y-140421100D01*
X52974000Y-133438700D02*
X53910300Y-134017500D01*
X114375200Y-123672300D02*
X115043000Y-122843300D01*
X105018700Y-132311400D02*
X105885900Y-131693300D01*
X113483900Y-62774800D02*
X112771600Y-61980500D01*
X64751000Y-48727220D02*
X63764000Y-49033250D01*
X69772600Y-47523560D02*
X68758300Y-47720180D01*
X32139180Y-84149300D02*
X31924790Y-85235200D01*
X35202470Y-74691500D02*
X34764510Y-75707800D01*
X57781700Y-136111300D02*
X58778600Y-136577700D01*
X51142900Y-132217000D02*
X52051400Y-132838400D01*
X39575500Y-120614300D02*
X40191200Y-121472900D01*
X86854300Y-139930700D02*
X87939700Y-139712600D01*
X117366000Y-67858400D02*
X116767500Y-66975300D01*
X71813300Y-47197680D02*
X70791100Y-47349330D01*
X124273300Y-84733100D02*
X124078200Y-83781600D01*
X89019600Y-139469300D02*
X90093700Y-139201000D01*
X109203300Y-129025600D02*
X109993100Y-128312100D01*
X82715500Y-46976220D02*
X81280700Y-46859360D01*
X120519300Y-73423600D02*
X120047700Y-72466400D01*
X102949800Y-53831190D02*
X102036300Y-53279600D01*
X120639400Y-113813800D02*
X121083700Y-112846500D01*
X122152800Y-77264900D02*
X121797800Y-76359300D01*
X40831100Y-65192700D02*
X40170000Y-66080000D01*
X110530000Y-59696600D02*
X109749200Y-58969700D01*
X62784000Y-49360660D02*
X61811200Y-49709270D01*
X58941800Y-50880560D02*
X58003100Y-51312240D01*
X34184460Y-110363500D02*
X34567320Y-111347100D01*
X33960200Y-77769700D02*
X33594370Y-78814200D01*
X120047700Y-72466400D02*
X119554000Y-71520500D01*
X31331620Y-89622900D02*
X31248150Y-90676000D01*
X100374200Y-135165300D02*
X101343200Y-134629100D01*
X78402800Y-46762720D02*
X76962300Y-46783900D01*
X76962300Y-46783900D02*
X76962300Y-46783900D01*
X104136900Y-132909100D02*
X105018700Y-132311400D01*
X75928900Y-46820150D02*
X74896900Y-46879820D01*
X54859700Y-134574500D02*
X55821800Y-135109400D01*
X39530000Y-66982600D02*
X38911500Y-67900100D01*
X123627900Y-81892000D02*
X123372900Y-80954700D01*
X43685900Y-125723700D02*
X44444400Y-126521300D01*
X32602950Y-105331000D02*
X32874420Y-106351100D01*
X31745380Y-101198200D02*
X31925250Y-102238300D01*
X111523000Y-126832000D02*
X112262500Y-126066400D01*
X48507200Y-130228600D02*
X49370300Y-130911700D01*
X109749200Y-58969700D02*
X108952200Y-58260600D01*
X122487800Y-78177600D02*
X122152800Y-77264900D01*
X114854000Y-64410400D02*
X114178200Y-63584900D01*
X97923100Y-51129710D02*
X96607800Y-50543620D01*
X97394600Y-136630900D02*
X98399300Y-136166300D01*
X118646000Y-117574800D02*
X119176200Y-116651700D01*
X86988300Y-47595180D02*
X85570700Y-47344610D01*
X112262500Y-126066400D02*
X112984600Y-125284200D01*
X61811200Y-49709270D02*
X60846300Y-50078900D01*
X112771600Y-61980500D02*
X112041600Y-61202400D01*
X60803600Y-137440000D02*
X61830800Y-137835100D01*
X67092900Y-139438400D02*
X68167000Y-139682300D01*
X104736700Y-54997300D02*
X103850100Y-54403890D01*
X125061500Y-96334300D02*
X125105200Y-95363600D01*
X96607800Y-50543620D02*
X95275200Y-49997800D01*
X117524200Y-119384200D02*
X118095300Y-118485800D01*
X44444400Y-126521300D02*
X45221600Y-127300600D01*
X122964900Y-107868800D02*
X123270900Y-106848100D01*
X120173200Y-114770800D02*
X120639400Y-113813800D01*
X123997000Y-104025300D02*
X124199500Y-103075000D01*
X32645400Y-81994800D02*
X32379470Y-83069100D01*
X102298900Y-134069300D02*
X103241000Y-133485900D01*
X31439720Y-88520400D02*
X31331620Y-89622900D01*
X59786100Y-137020700D02*
X60803600Y-137440000D01*
X84146000Y-47138130D02*
X82715500Y-46976220D01*
X56155100Y-52236460D02*
X55246800Y-52728660D01*
X94318200Y-137879400D02*
X95353400Y-137487500D01*
X36656310Y-71707300D02*
X36148630Y-72690600D01*
X37851700Y-117957000D02*
X38405600Y-118855800D01*
X98399300Y-136166300D02*
X99392800Y-135677800D01*
X121394700Y-75370500D02*
X120968400Y-74391800D01*
X110766400Y-127580700D02*
X111523000Y-126832000D01*
X43681100Y-61808000D02*
X42938300Y-62628400D01*
X46830100Y-128803100D02*
X47660300Y-129525700D01*
X47624600Y-58030100D02*
X46847700Y-58712900D01*
X31925250Y-102238300D02*
X32128220Y-103274100D01*
X124914400Y-98271900D02*
X124997900Y-97303800D01*
X33168440Y-107364900D02*
X33484880Y-108371900D01*
X84669900Y-140290900D02*
X85764200Y-140123500D01*
X31154970Y-92785900D02*
X31144990Y-93841600D01*
X31345820Y-98057600D02*
X31455530Y-99107400D01*
X103241000Y-133485900D02*
X104136900Y-132909100D01*
X36148630Y-72690600D02*
X35663930Y-73685600D01*
X74896900Y-46879820D02*
X73866600Y-46962750D01*
X63911900Y-138551900D02*
X64964800Y-138872900D01*
X124545000Y-101162800D02*
X124688000Y-100201800D01*
X76943400Y-140741100D02*
X78050100Y-140754900D01*
X123774800Y-104971200D02*
X123997000Y-104025300D01*
X125117200Y-92449300D02*
X125081400Y-91478500D01*
X31159220Y-94897200D02*
X31197530Y-95952000D01*
X35663930Y-73685600D02*
X35202470Y-74691500D01*
X31197530Y-95952000D02*
X31259770Y-97005700D01*
X117944300Y-68754900D02*
X117366000Y-67858400D01*
X76962300Y-46783900D02*
X76962300Y-46783900D01*
X107575600Y-130397600D02*
X108397300Y-129721000D01*
X74732400Y-140634300D02*
X75837300Y-140700900D01*
X54349500Y-53240690D02*
X53463800Y-53772370D01*
X101109900Y-52749540D02*
X100170900Y-52241400D01*
X124739200Y-87609000D02*
X124603900Y-86647200D01*
X37739500Y-69777300D02*
X37186700Y-70736000D01*
X41527500Y-123224500D02*
X42226900Y-124075000D01*
X33823600Y-109371600D02*
X34184460Y-110363500D01*
X107310900Y-56897600D02*
X106467500Y-56244600D01*
X121083700Y-112846500D02*
X121505800Y-111869200D01*
X32874420Y-106351100D02*
X33168440Y-107364900D01*
X112984600Y-125284200D02*
X113688900Y-124486100D01*
X81280700Y-46859360D02*
X79842700Y-46788040D01*
X122802800Y-79097100D02*
X122487800Y-78177600D01*
X64964800Y-138872900D02*
X66025300Y-139168500D01*
X111294300Y-60441000D02*
X110530000Y-59696600D01*
X123863000Y-82834500D02*
X123627900Y-81892000D01*
X89797500Y-48226700D02*
X88397700Y-47889370D01*
X31259770Y-97005700D02*
X31345820Y-98057600D01*
X34972040Y-112321900D02*
X35398480Y-113287300D01*
X91161100Y-138907700D02*
X92221400Y-138589600D01*
X53910300Y-134017500D02*
X54859700Y-134574500D01*
X125129100Y-94392300D02*
X125133100Y-93420800D01*
X124603900Y-86647200D02*
X124448600Y-85688400D01*
X91186500Y-48606680D02*
X89797500Y-48226700D01*
X68758300Y-47720180D02*
X67748400Y-47939030D01*
X100170900Y-52241400D02*
X99219800Y-51755590D01*
X116149000Y-66106000D02*
X115511100Y-65250900D01*
X32354170Y-104305200D02*
X32602950Y-105331000D01*
X82471200Y-140548900D02*
X83572000Y-140432700D01*
X36806780Y-116122700D02*
X37318700Y-117045800D01*
X35398480Y-113287300D02*
X35846510Y-114243000D01*
X121905200Y-110882300D02*
X122281800Y-109886300D01*
X49223800Y-56719600D02*
X48416900Y-57365700D01*
X93926600Y-49492710D02*
X92563200Y-49028850D01*
X37318700Y-117045800D02*
X37851700Y-117957000D01*
X41513000Y-64321300D02*
X40831100Y-65192700D01*
X50045100Y-56092200D02*
X49223800Y-56719600D01*
X31924790Y-85235200D02*
X31736570Y-86326000D01*
X40191200Y-121472900D02*
X40848700Y-122357100D01*
X85570700Y-47344610D02*
X84146000Y-47138130D01*
X119176200Y-116651700D02*
X119685300Y-115716900D01*
X58778600Y-136577700D02*
X59786100Y-137020700D01*
X124854600Y-88573400D02*
X124739200Y-87609000D01*
X113688900Y-124486100D02*
X114375200Y-123672300D01*
X124382100Y-102120700D02*
X124545000Y-101162800D01*
X56795900Y-135621700D02*
X57781700Y-136111300D01*
X32379470Y-83069100D02*
X32139180Y-84149300D01*
X31189320Y-91730600D02*
X31154970Y-92785900D01*
X115692200Y-121999600D02*
X116322300Y-121141500D01*
X115511100Y-65250900D02*
X114854000Y-64410400D01*
X108952200Y-58260600D02*
X108139300Y-57569800D01*
X114178200Y-63584900D02*
X113483900Y-62774800D01*
X119685300Y-115716900D02*
X120173200Y-114770800D01*
X123532700Y-105912300D02*
X123774800Y-104971200D01*
X121797800Y-76359300D02*
X121394700Y-75370500D01*
X33484880Y-108371900D02*
X33823600Y-109371600D01*
X125025700Y-90508600D02*
X124950100Y-89540100D01*
X55246800Y-52728660D02*
X54349500Y-53240690D01*
X120968400Y-74391800D02*
X120519300Y-73423600D01*
X106738300Y-131055200D02*
X107575600Y-130397600D01*
X105609300Y-55611000D02*
X104736700Y-54997300D01*
X79156900Y-140742500D02*
X80263000Y-140703900D01*
X72528700Y-140421100D02*
X73629300Y-140541000D01*
X32936710Y-80927300D02*
X32645400Y-81994800D01*
X83572000Y-140432700D02*
X84669900Y-140290900D01*
X42946600Y-124908200D02*
X43685900Y-125723700D01*
X51728600Y-54894000D02*
X50880200Y-55483600D01*
X125133100Y-93420800D02*
X125117200Y-92449300D01*
X48416900Y-57365700D02*
X47624600Y-58030100D01*
X78050100Y-140754900D02*
X79156900Y-140742500D01*
X42215500Y-63466300D02*
X41513000Y-64321300D01*
X103850100Y-54403890D02*
X102949800Y-53831190D01*
X95275200Y-49997800D02*
X93926600Y-49492710D01*
X106467500Y-56244600D02*
X105609300Y-55611000D01*
X70337000Y-140100600D02*
X71431000Y-140274300D01*
X60846300Y-50078900D02*
X59889700Y-50469380D01*
X99392800Y-135677800D02*
X100374200Y-135165300D01*
X85764200Y-140123500D02*
X86854300Y-139930700D01*
X36315990Y-115188200D02*
X36806780Y-116122700D01*
X124688000Y-100201800D02*
X124811100Y-99238000D01*
X119038700Y-70586300D02*
X118502000Y-69664300D01*
X118095300Y-118485800D02*
X118646000Y-117574800D01*
X109993100Y-128312100D02*
X110766400Y-127580700D01*
X59889700Y-50469380D02*
X58941800Y-50880560D01*
X50880200Y-55483600D02*
X50045100Y-56092200D01*
X55821800Y-135109400D02*
X56795900Y-135621700D01*
X68167000Y-139682300D02*
X69247200Y-139899800D01*
X45221600Y-127300600D02*
X46017000Y-128061300D01*
X57074100Y-51764270D02*
X56155100Y-52236460D01*
X33253120Y-79866800D02*
X32936710Y-80927300D01*
X58003100Y-51312240D02*
X57074100Y-51764270D01*
X116322300Y-121141500D02*
X116933100Y-120269600D01*
X124950100Y-89540100D02*
X124854600Y-88573400D01*
X118502000Y-69664300D02*
X117944300Y-68754900D01*
X38911500Y-67900100D02*
X38314600Y-68831800D01*
X38314600Y-68831800D02*
X37739500Y-69777300D01*
X72838600Y-47068760D02*
X71813300Y-47197680D01*
X76962300Y-46783900D02*
X75928900Y-46820150D01*
X38405600Y-118855800D02*
X38980200Y-119741700D01*
X90093700Y-139201000D02*
X91161100Y-138907700D01*
X31574790Y-87421200D02*
X31439720Y-88520400D01*
X46027300Y-59457600D02*
X45225900Y-60222100D01*
X87939700Y-139712600D02*
X89019600Y-139469300D01*
X124448600Y-85688400D02*
X124273300Y-84733100D01*
X80263000Y-140703900D02*
X81368000Y-140639400D01*
X31588760Y-100154400D02*
X31745380Y-101198200D01*
X34567320Y-111347100D02*
X34972040Y-112321900D01*
X125105200Y-95363600D02*
X125129100Y-94392300D01*
X31455530Y-99107400D02*
X31588760Y-100154400D01*
X96379100Y-137071300D02*
X97394600Y-136630900D01*
X40848700Y-122357100D02*
X41527500Y-123224500D01*
X101343200Y-134629100D02*
X102298900Y-134069300D01*
X88397700Y-47889370D02*
X86988300Y-47595180D01*
X34764510Y-75707800D02*
X34350340Y-76734100D01*
X119554000Y-71520500D02*
X119038700Y-70586300D01*
X69247200Y-139899800D02*
X70337000Y-140100600D01*
X42938300Y-62628400D02*
X42215500Y-63466300D01*
X124078200Y-83781600D02*
X123863000Y-82834500D01*
X31248150Y-90676000D02*
X31189320Y-91730600D01*
X42226900Y-124075000D02*
X42946600Y-124908200D01*
X115043000Y-122843300D02*
X115692200Y-121999600D01*
X33594370Y-78814200D02*
X33253120Y-79866800D01*
X73629300Y-140541000D02*
X74732400Y-140634300D01*
X108397300Y-129721000D02*
X109203300Y-129025600D01*
X79842700Y-46788040D02*
X78402800Y-46762720D01*
X40170000Y-66080000D02*
X39530000Y-66982600D01*
X37186700Y-70736000D02*
X36656310Y-71707300D01*
X124997900Y-97303800D02*
X125061500Y-96334300D01*
X105885900Y-131693300D02*
X106738300Y-131055200D01*
X53463800Y-53772370D02*
X52590000Y-54323530D01*
X73866600Y-46962750D02*
X72838600Y-47068760D01*
X46017000Y-128061300D02*
X46830100Y-128803100D01*
X62867100Y-138205900D02*
X63911900Y-138551900D01*
X112041600Y-61202400D02*
X111294300Y-60441000D01*
X124811100Y-99238000D02*
X124914400Y-98271900D01*
X67748400Y-47939030D02*
X66743600Y-48179930D01*
X66743600Y-48179930D02*
X65744300Y-48442720D01*
X125081400Y-91478500D02*
X125025700Y-90508600D01*
X31144990Y-93841600D02*
X31159220Y-94897200D01*
X122281800Y-109886300D02*
X122635100Y-108881700D01*
X50249000Y-131574600D02*
X51142900Y-132217000D01*
X65744300Y-48442720D02*
X64751000Y-48727220D01*
X35846510Y-114243000D02*
X36315990Y-115188200D01*
X124199500Y-103075000D02*
X124382100Y-102120700D01*
M02*
