M48
; DRILL file {KiCad 7.0.8} date Thu Aug  8 21:43:22 2024
; FORMAT={3:3/ absolute / metric / suppress leading zeros}
; #@! TF.CreationDate,2024-08-08T21:43:22+02:00
; #@! TF.GenerationSoftware,Kicad,Pcbnew,7.0.8
; #@! TF.FileFunction,MixedPlating,1,2
FMAT,2
METRIC,TZ
; #@! TA.AperFunction,Plated,PTH,ComponentDrill
T1C0.800
; #@! TA.AperFunction,Plated,PTH,ComponentDrill
T2C0.900
; #@! TA.AperFunction,Plated,PTH,ComponentDrill
T3C1.000
; #@! TA.AperFunction,Plated,PTH,ComponentDrill
T4C1.200
%
G90
G05
T1
X41150Y-72750
X41150Y-75290
X41150Y-77830
X41150Y-80370
X41150Y-82910
X41150Y-85450
X41150Y-87990
X41150Y-90530
X48770Y-72750
X48770Y-75290
X48770Y-77830
X48770Y-80370
X48770Y-82910
X48770Y-85450
X48770Y-87990
X48770Y-90530
X76275Y-85350
X76275Y-92970
X81025Y-85350
X81025Y-92970
X99450Y-94200
X101950Y-94200
X109455Y-76825
X109650Y-82155
X109650Y-84695
X109650Y-87235
X109650Y-89775
X117075Y-76825
X117270Y-82155
X117270Y-84695
X117270Y-87235
X117270Y-89775
T2
X45925Y-103200
X48465Y-103200
X49175Y-109100
X51715Y-109100
X53175Y-114925
X55715Y-114925
X57950Y-119750
X60490Y-119750
X63600Y-123400
X66140Y-123400
X66200Y-78725
X68740Y-78725
X70265Y-125750
X72805Y-125750
X77850Y-126700
X80390Y-126700
X85375Y-125775
X87915Y-125775
X92000Y-123450
X94540Y-123450
X95725Y-78675
X97675Y-119800
X98265Y-78675
X100215Y-119800
X102400Y-114975
X104940Y-114975
X106475Y-109125
X109015Y-109125
X109750Y-103250
X112290Y-103250
T3
X112825Y-113700
X112825Y-116240
X112825Y-118780
T4
X115475Y-99025
X118015Y-105121
X120555Y-99025
T0
M30
