%TF.GenerationSoftware,KiCad,Pcbnew,8.0.1*%
%TF.CreationDate,2024-04-02T10:37:19+02:00*%
%TF.ProjectId,Smiley,536d696c-6579-42e6-9b69-6361645f7063,rev?*%
%TF.SameCoordinates,Original*%
%TF.FileFunction,Soldermask,Bot*%
%TF.FilePolarity,Negative*%
%FSLAX46Y46*%
G04 Gerber Fmt 4.6, Leading zero omitted, Abs format (unit mm)*
G04 Created by KiCad (PCBNEW 8.0.1) date 2024-04-02 10:37:19*
%MOMM*%
%LPD*%
G01*
G04 APERTURE LIST*
G04 Aperture macros list*
%AMRoundRect*
0 Rectangle with rounded corners*
0 $1 Rounding radius*
0 $2 $3 $4 $5 $6 $7 $8 $9 X,Y pos of 4 corners*
0 Add a 4 corners polygon primitive as box body*
4,1,4,$2,$3,$4,$5,$6,$7,$8,$9,$2,$3,0*
0 Add four circle primitives for the rounded corners*
1,1,$1+$1,$2,$3*
1,1,$1+$1,$4,$5*
1,1,$1+$1,$6,$7*
1,1,$1+$1,$8,$9*
0 Add four rect primitives between the rounded corners*
20,1,$1+$1,$2,$3,$4,$5,0*
20,1,$1+$1,$4,$5,$6,$7,0*
20,1,$1+$1,$6,$7,$8,$9,0*
20,1,$1+$1,$8,$9,$2,$3,0*%
G04 Aperture macros list end*
%ADD10C,0.300000*%
%ADD11RoundRect,0.200000X-0.900000X-0.900000X0.900000X-0.900000X0.900000X0.900000X-0.900000X0.900000X0*%
%ADD12C,2.200000*%
%ADD13RoundRect,0.200000X0.600000X0.600000X-0.600000X0.600000X-0.600000X-0.600000X0.600000X-0.600000X0*%
%ADD14C,1.600000*%
%ADD15C,2.000000*%
%ADD16O,2.000000X2.000000*%
%ADD17C,2.400000*%
%ADD18RoundRect,0.200000X-0.800000X-0.800000X0.800000X-0.800000X0.800000X0.800000X-0.800000X0.800000X0*%
%ADD19RoundRect,0.200000X0.800000X0.800000X-0.800000X0.800000X-0.800000X-0.800000X0.800000X-0.800000X0*%
%ADD20C,11.400000*%
%ADD21C,1.924000*%
%ADD22RoundRect,0.200000X-2.500000X-1.000000X2.500000X-1.000000X2.500000X1.000000X-2.500000X1.000000X0*%
%ADD23C,18.180000*%
G04 APERTURE END LIST*
D10*
X164875489Y-67936828D02*
X164875489Y-66436828D01*
X164018346Y-67936828D02*
X164661203Y-67079685D01*
X164018346Y-66436828D02*
X164875489Y-67293971D01*
X163375489Y-67936828D02*
X163375489Y-66436828D01*
X163375489Y-67151114D02*
X162518346Y-67151114D01*
X162518346Y-67936828D02*
X162518346Y-66436828D01*
X161304060Y-67151114D02*
X161804060Y-67151114D01*
X161804060Y-67936828D02*
X161804060Y-66436828D01*
X161804060Y-66436828D02*
X161089774Y-66436828D01*
X159089774Y-66436828D02*
X158946917Y-66436828D01*
X158946917Y-66436828D02*
X158804060Y-66508257D01*
X158804060Y-66508257D02*
X158732632Y-66579685D01*
X158732632Y-66579685D02*
X158661203Y-66722542D01*
X158661203Y-66722542D02*
X158589774Y-67008257D01*
X158589774Y-67008257D02*
X158589774Y-67365400D01*
X158589774Y-67365400D02*
X158661203Y-67651114D01*
X158661203Y-67651114D02*
X158732632Y-67793971D01*
X158732632Y-67793971D02*
X158804060Y-67865400D01*
X158804060Y-67865400D02*
X158946917Y-67936828D01*
X158946917Y-67936828D02*
X159089774Y-67936828D01*
X159089774Y-67936828D02*
X159232632Y-67865400D01*
X159232632Y-67865400D02*
X159304060Y-67793971D01*
X159304060Y-67793971D02*
X159375489Y-67651114D01*
X159375489Y-67651114D02*
X159446917Y-67365400D01*
X159446917Y-67365400D02*
X159446917Y-67008257D01*
X159446917Y-67008257D02*
X159375489Y-66722542D01*
X159375489Y-66722542D02*
X159304060Y-66579685D01*
X159304060Y-66579685D02*
X159232632Y-66508257D01*
X159232632Y-66508257D02*
X159089774Y-66436828D01*
X157161203Y-67936828D02*
X158018346Y-67936828D01*
X157589775Y-67936828D02*
X157589775Y-66436828D01*
X157589775Y-66436828D02*
X157732632Y-66651114D01*
X157732632Y-66651114D02*
X157875489Y-66793971D01*
X157875489Y-66793971D02*
X158018346Y-66865400D01*
X156518347Y-67793971D02*
X156446918Y-67865400D01*
X156446918Y-67865400D02*
X156518347Y-67936828D01*
X156518347Y-67936828D02*
X156589775Y-67865400D01*
X156589775Y-67865400D02*
X156518347Y-67793971D01*
X156518347Y-67793971D02*
X156518347Y-67936828D01*
X155875489Y-66579685D02*
X155804061Y-66508257D01*
X155804061Y-66508257D02*
X155661204Y-66436828D01*
X155661204Y-66436828D02*
X155304061Y-66436828D01*
X155304061Y-66436828D02*
X155161204Y-66508257D01*
X155161204Y-66508257D02*
X155089775Y-66579685D01*
X155089775Y-66579685D02*
X155018346Y-66722542D01*
X155018346Y-66722542D02*
X155018346Y-66865400D01*
X155018346Y-66865400D02*
X155089775Y-67079685D01*
X155089775Y-67079685D02*
X155946918Y-67936828D01*
X155946918Y-67936828D02*
X155018346Y-67936828D01*
X154089775Y-66436828D02*
X153946918Y-66436828D01*
X153946918Y-66436828D02*
X153804061Y-66508257D01*
X153804061Y-66508257D02*
X153732633Y-66579685D01*
X153732633Y-66579685D02*
X153661204Y-66722542D01*
X153661204Y-66722542D02*
X153589775Y-67008257D01*
X153589775Y-67008257D02*
X153589775Y-67365400D01*
X153589775Y-67365400D02*
X153661204Y-67651114D01*
X153661204Y-67651114D02*
X153732633Y-67793971D01*
X153732633Y-67793971D02*
X153804061Y-67865400D01*
X153804061Y-67865400D02*
X153946918Y-67936828D01*
X153946918Y-67936828D02*
X154089775Y-67936828D01*
X154089775Y-67936828D02*
X154232633Y-67865400D01*
X154232633Y-67865400D02*
X154304061Y-67793971D01*
X154304061Y-67793971D02*
X154375490Y-67651114D01*
X154375490Y-67651114D02*
X154446918Y-67365400D01*
X154446918Y-67365400D02*
X154446918Y-67008257D01*
X154446918Y-67008257D02*
X154375490Y-66722542D01*
X154375490Y-66722542D02*
X154304061Y-66579685D01*
X154304061Y-66579685D02*
X154232633Y-66508257D01*
X154232633Y-66508257D02*
X154089775Y-66436828D01*
X153018347Y-66579685D02*
X152946919Y-66508257D01*
X152946919Y-66508257D02*
X152804062Y-66436828D01*
X152804062Y-66436828D02*
X152446919Y-66436828D01*
X152446919Y-66436828D02*
X152304062Y-66508257D01*
X152304062Y-66508257D02*
X152232633Y-66579685D01*
X152232633Y-66579685D02*
X152161204Y-66722542D01*
X152161204Y-66722542D02*
X152161204Y-66865400D01*
X152161204Y-66865400D02*
X152232633Y-67079685D01*
X152232633Y-67079685D02*
X153089776Y-67936828D01*
X153089776Y-67936828D02*
X152161204Y-67936828D01*
X150875491Y-66936828D02*
X150875491Y-67936828D01*
X151232633Y-66365400D02*
X151589776Y-67436828D01*
X151589776Y-67436828D02*
X150661205Y-67436828D01*
D11*
%TO.C,D1*%
X156858600Y-122139100D03*
D12*
X159398600Y-122139100D03*
%TD*%
D11*
%TO.C,D2*%
X164348600Y-121189100D03*
D12*
X166888600Y-121189100D03*
%TD*%
D11*
%TO.C,D3*%
X170938600Y-118929100D03*
D12*
X173478600Y-118929100D03*
%TD*%
D11*
%TO.C,D4*%
X176668600Y-115279100D03*
D12*
X179208600Y-115279100D03*
%TD*%
D11*
%TO.C,D5*%
X181448600Y-110399100D03*
D12*
X183988600Y-110399100D03*
%TD*%
D11*
%TO.C,D6*%
X185476600Y-104592100D03*
D12*
X188016600Y-104592100D03*
%TD*%
D11*
%TO.C,D7*%
X188758600Y-98623100D03*
D12*
X191298600Y-98623100D03*
%TD*%
D11*
%TO.C,D8*%
X174681600Y-74874100D03*
D12*
X177221600Y-74874100D03*
%TD*%
D11*
%TO.C,D22*%
X149278600Y-121189100D03*
D12*
X151818600Y-121189100D03*
%TD*%
D11*
%TO.C,D33*%
X142638600Y-118889100D03*
D12*
X145178600Y-118889100D03*
%TD*%
D11*
%TO.C,D44*%
X136948600Y-115229100D03*
D12*
X139488600Y-115229100D03*
%TD*%
D11*
%TO.C,D55*%
X132258600Y-110399100D03*
D12*
X134798600Y-110399100D03*
%TD*%
D11*
%TO.C,D66*%
X128198600Y-104489100D03*
D12*
X130738600Y-104489100D03*
%TD*%
D11*
%TO.C,D77*%
X124808600Y-98669100D03*
D12*
X127348600Y-98669100D03*
%TD*%
D11*
%TO.C,D88*%
X145148600Y-75139100D03*
D12*
X147688600Y-75139100D03*
%TD*%
D13*
%TO.C,C1*%
X176820000Y-102110000D03*
D14*
X174820000Y-102110000D03*
%TD*%
D15*
%TO.C,R1*%
X186486800Y-66776600D03*
D16*
X186486800Y-59156600D03*
%TD*%
D15*
%TO.C,Ra*%
X153508600Y-75859100D03*
D16*
X153508600Y-83479100D03*
%TD*%
D15*
%TO.C,Rm*%
X161219600Y-83446600D03*
D16*
X161219600Y-75826600D03*
%TD*%
D17*
%TO.C,S1*%
X192588600Y-111299100D03*
X192588600Y-108759100D03*
X192588600Y-106219100D03*
%TD*%
D18*
%TO.C,NE555*%
X185813700Y-79298800D03*
D16*
X185813700Y-76758800D03*
X185813700Y-74218800D03*
X185813700Y-71678800D03*
X193433700Y-71678800D03*
X193433700Y-74218800D03*
X193433700Y-76758800D03*
X193433700Y-79298800D03*
%TD*%
D19*
%TO.C,CD4017*%
X128580600Y-69921100D03*
D16*
X128580600Y-72461100D03*
X128580600Y-75001100D03*
X128580600Y-77541100D03*
X128580600Y-80081100D03*
X128580600Y-82621100D03*
X128580600Y-85161100D03*
X128580600Y-87701100D03*
X120960600Y-87701100D03*
X120960600Y-85161100D03*
X120960600Y-82621100D03*
X120960600Y-80081100D03*
X120960600Y-77541100D03*
X120960600Y-75001100D03*
X120960600Y-72461100D03*
X120960600Y-69921100D03*
%TD*%
D20*
%TO.C,LP*%
X157878600Y-49379100D03*
%TD*%
D21*
%TO.C,REF\u002A\u002A*%
X197497700Y-85864700D03*
X192417700Y-85864700D03*
X194957700Y-90944700D03*
%TD*%
D22*
%TO.C,BAT-HLD-002*%
X133546000Y-92338000D03*
X133546000Y-95894000D03*
X159440000Y-92338000D03*
X159440000Y-95894000D03*
D23*
X146500000Y-94370000D03*
%TD*%
D22*
%TO.C,BAT-HLD-002*%
X159506000Y-85728000D03*
X159506000Y-89284000D03*
X185400000Y-85728000D03*
X185400000Y-89284000D03*
D23*
X172460000Y-87760000D03*
%TD*%
M02*
