%TF.GenerationSoftware,KiCad,Pcbnew,7.0.8*%
%TF.CreationDate,2024-08-08T21:43:19+02:00*%
%TF.ProjectId,Smiley V8,536d696c-6579-4205-9638-2e6b69636164,rev?*%
%TF.SameCoordinates,Original*%
%TF.FileFunction,Legend,Top*%
%TF.FilePolarity,Positive*%
%FSLAX46Y46*%
G04 Gerber Fmt 4.6, Leading zero omitted, Abs format (unit mm)*
G04 Created by KiCad (PCBNEW 7.0.8) date 2024-08-08 21:43:19*
%MOMM*%
%LPD*%
G01*
G04 APERTURE LIST*
%ADD10C,0.120000*%
%ADD11C,0.010000*%
G04 APERTURE END LIST*
D10*
%TO.C,D3*%
X62310000Y-121855000D02*
X62310000Y-124945000D01*
X67859999Y-123400462D02*
G75*
G03*
X62310001Y-121855170I-2989999J462D01*
G01*
X62310000Y-124944830D02*
G75*
G03*
X67860000Y-123399538I2560000J1544830D01*
G01*
X67370000Y-123400000D02*
G75*
G03*
X67370000Y-123400000I-2500000J0D01*
G01*
%TO.C,G\u002A\u002A\u002A*%
D11*
X87458269Y-123146155D02*
X88010064Y-123359199D01*
X88494021Y-123706053D01*
X88643542Y-123851451D01*
X89041069Y-124376557D01*
X89293876Y-124957293D01*
X89406137Y-125568646D01*
X89382029Y-126185601D01*
X89225727Y-126783146D01*
X88941407Y-127336267D01*
X88533245Y-127819949D01*
X88005418Y-128209180D01*
X87907133Y-128262581D01*
X87530199Y-128400609D01*
X87061436Y-128490094D01*
X86563206Y-128526376D01*
X86097875Y-128504795D01*
X85738166Y-128424634D01*
X85136805Y-128119275D01*
X84645788Y-127707532D01*
X84270388Y-127212382D01*
X84015876Y-126656802D01*
X83887527Y-126063770D01*
X83890612Y-125456262D01*
X84030405Y-124857256D01*
X84312178Y-124289728D01*
X84684278Y-123832078D01*
X85165979Y-123432587D01*
X85680128Y-123179329D01*
X86260530Y-123059893D01*
X86806467Y-123052939D01*
X87458269Y-123146155D01*
G36*
X87458269Y-123146155D02*
G01*
X88010064Y-123359199D01*
X88494021Y-123706053D01*
X88643542Y-123851451D01*
X89041069Y-124376557D01*
X89293876Y-124957293D01*
X89406137Y-125568646D01*
X89382029Y-126185601D01*
X89225727Y-126783146D01*
X88941407Y-127336267D01*
X88533245Y-127819949D01*
X88005418Y-128209180D01*
X87907133Y-128262581D01*
X87530199Y-128400609D01*
X87061436Y-128490094D01*
X86563206Y-128526376D01*
X86097875Y-128504795D01*
X85738166Y-128424634D01*
X85136805Y-128119275D01*
X84645788Y-127707532D01*
X84270388Y-127212382D01*
X84015876Y-126656802D01*
X83887527Y-126063770D01*
X83890612Y-125456262D01*
X84030405Y-124857256D01*
X84312178Y-124289728D01*
X84684278Y-123832078D01*
X85165979Y-123432587D01*
X85680128Y-123179329D01*
X86260530Y-123059893D01*
X86806467Y-123052939D01*
X87458269Y-123146155D01*
G37*
X55104132Y-112207011D02*
X55619327Y-112380789D01*
X56198798Y-112734879D01*
X56661734Y-113194261D01*
X56999306Y-113735518D01*
X57202689Y-114335233D01*
X57263054Y-114969992D01*
X57171575Y-115616379D01*
X57009749Y-116069219D01*
X56671788Y-116626052D01*
X56217429Y-117094701D01*
X55682556Y-117439027D01*
X55621673Y-117467170D01*
X55305255Y-117566828D01*
X54900399Y-117638269D01*
X54468222Y-117676354D01*
X54069845Y-117675943D01*
X53766386Y-117631896D01*
X53744133Y-117625065D01*
X53109835Y-117332803D01*
X52565854Y-116911601D01*
X52136685Y-116382714D01*
X51975684Y-116090600D01*
X51817552Y-115609030D01*
X51746181Y-115053588D01*
X51762582Y-114487733D01*
X51867764Y-113974924D01*
X51939070Y-113789726D01*
X52279503Y-113234627D01*
X52730502Y-112782372D01*
X53265266Y-112443223D01*
X53856993Y-112227439D01*
X54478882Y-112145281D01*
X55104132Y-112207011D01*
G36*
X55104132Y-112207011D02*
G01*
X55619327Y-112380789D01*
X56198798Y-112734879D01*
X56661734Y-113194261D01*
X56999306Y-113735518D01*
X57202689Y-114335233D01*
X57263054Y-114969992D01*
X57171575Y-115616379D01*
X57009749Y-116069219D01*
X56671788Y-116626052D01*
X56217429Y-117094701D01*
X55682556Y-117439027D01*
X55621673Y-117467170D01*
X55305255Y-117566828D01*
X54900399Y-117638269D01*
X54468222Y-117676354D01*
X54069845Y-117675943D01*
X53766386Y-117631896D01*
X53744133Y-117625065D01*
X53109835Y-117332803D01*
X52565854Y-116911601D01*
X52136685Y-116382714D01*
X51975684Y-116090600D01*
X51817552Y-115609030D01*
X51746181Y-115053588D01*
X51762582Y-114487733D01*
X51867764Y-113974924D01*
X51939070Y-113789726D01*
X52279503Y-113234627D01*
X52730502Y-112782372D01*
X53265266Y-112443223D01*
X53856993Y-112227439D01*
X54478882Y-112145281D01*
X55104132Y-112207011D01*
G37*
X65047133Y-120682272D02*
X65698936Y-120775488D01*
X66250731Y-120988532D01*
X66734688Y-121335386D01*
X66884208Y-121480785D01*
X67281736Y-122005890D01*
X67534543Y-122586626D01*
X67646804Y-123197979D01*
X67622695Y-123814935D01*
X67466393Y-124412479D01*
X67182074Y-124965600D01*
X66773912Y-125449283D01*
X66246085Y-125838514D01*
X66147800Y-125891914D01*
X65671489Y-126063281D01*
X65111555Y-126147144D01*
X64530829Y-126141004D01*
X63992139Y-126042362D01*
X63822388Y-125984431D01*
X63324815Y-125709055D01*
X62870048Y-125311385D01*
X62503577Y-124837660D01*
X62308487Y-124445633D01*
X62147267Y-123795788D01*
X62137594Y-123148001D01*
X62268981Y-122526595D01*
X62530942Y-121955894D01*
X62912990Y-121460220D01*
X63404639Y-121063898D01*
X63864424Y-120836746D01*
X64181652Y-120732888D01*
X64475845Y-120681644D01*
X64822520Y-120673148D01*
X65047133Y-120682272D01*
G36*
X65047133Y-120682272D02*
G01*
X65698936Y-120775488D01*
X66250731Y-120988532D01*
X66734688Y-121335386D01*
X66884208Y-121480785D01*
X67281736Y-122005890D01*
X67534543Y-122586626D01*
X67646804Y-123197979D01*
X67622695Y-123814935D01*
X67466393Y-124412479D01*
X67182074Y-124965600D01*
X66773912Y-125449283D01*
X66246085Y-125838514D01*
X66147800Y-125891914D01*
X65671489Y-126063281D01*
X65111555Y-126147144D01*
X64530829Y-126141004D01*
X63992139Y-126042362D01*
X63822388Y-125984431D01*
X63324815Y-125709055D01*
X62870048Y-125311385D01*
X62503577Y-124837660D01*
X62308487Y-124445633D01*
X62147267Y-123795788D01*
X62137594Y-123148001D01*
X62268981Y-122526595D01*
X62530942Y-121955894D01*
X62912990Y-121460220D01*
X63404639Y-121063898D01*
X63864424Y-120836746D01*
X64181652Y-120732888D01*
X64475845Y-120681644D01*
X64822520Y-120673148D01*
X65047133Y-120682272D01*
G37*
X93891284Y-120765653D02*
X93946209Y-120779214D01*
X94608455Y-121029007D01*
X95165272Y-121409556D01*
X95610047Y-121915416D01*
X95856027Y-122351632D01*
X95987162Y-122784336D01*
X96042263Y-123304931D01*
X96021951Y-123850316D01*
X95926842Y-124357391D01*
X95833817Y-124617699D01*
X95574103Y-125043601D01*
X95201512Y-125457813D01*
X94767943Y-125809623D01*
X94402525Y-126016320D01*
X93979623Y-126146405D01*
X93477687Y-126215246D01*
X92969113Y-126218569D01*
X92526298Y-126152099D01*
X92455730Y-126131278D01*
X91845622Y-125849713D01*
X91338275Y-125449949D01*
X90943909Y-124955235D01*
X90672742Y-124388819D01*
X90534994Y-123773951D01*
X90540882Y-123133879D01*
X90700627Y-122491853D01*
X90776333Y-122310490D01*
X91109971Y-121746037D01*
X91544436Y-121307746D01*
X92020531Y-121011102D01*
X92648669Y-120770162D01*
X93262622Y-120689506D01*
X93891284Y-120765653D01*
G36*
X93891284Y-120765653D02*
G01*
X93946209Y-120779214D01*
X94608455Y-121029007D01*
X95165272Y-121409556D01*
X95610047Y-121915416D01*
X95856027Y-122351632D01*
X95987162Y-122784336D01*
X96042263Y-123304931D01*
X96021951Y-123850316D01*
X95926842Y-124357391D01*
X95833817Y-124617699D01*
X95574103Y-125043601D01*
X95201512Y-125457813D01*
X94767943Y-125809623D01*
X94402525Y-126016320D01*
X93979623Y-126146405D01*
X93477687Y-126215246D01*
X92969113Y-126218569D01*
X92526298Y-126152099D01*
X92455730Y-126131278D01*
X91845622Y-125849713D01*
X91338275Y-125449949D01*
X90943909Y-124955235D01*
X90672742Y-124388819D01*
X90534994Y-123773951D01*
X90540882Y-123133879D01*
X90700627Y-122491853D01*
X90776333Y-122310490D01*
X91109971Y-121746037D01*
X91544436Y-121307746D01*
X92020531Y-121011102D01*
X92648669Y-120770162D01*
X93262622Y-120689506D01*
X93891284Y-120765653D01*
G37*
X59948146Y-117079176D02*
X60178800Y-117146856D01*
X60500537Y-117286367D01*
X60807926Y-117496167D01*
X61153328Y-117812109D01*
X61159980Y-117818753D01*
X61552958Y-118275100D01*
X61807024Y-118738356D01*
X61941614Y-119256585D01*
X61976552Y-119837965D01*
X61894260Y-120475863D01*
X61669478Y-121053884D01*
X61322895Y-121557382D01*
X60875201Y-121971713D01*
X60347086Y-122282231D01*
X59759241Y-122474292D01*
X59132354Y-122533250D01*
X58487116Y-122444460D01*
X58349687Y-122405192D01*
X57793423Y-122147259D01*
X57293022Y-121753842D01*
X56881105Y-121257186D01*
X56590292Y-120689540D01*
X56577039Y-120652885D01*
X56508953Y-120370520D01*
X56464071Y-120013023D01*
X56453467Y-119766131D01*
X56530544Y-119099919D01*
X56748933Y-118501004D01*
X57089373Y-117982929D01*
X57532601Y-117559238D01*
X58059355Y-117243474D01*
X58650372Y-117049180D01*
X59286389Y-116989900D01*
X59948146Y-117079176D01*
G36*
X59948146Y-117079176D02*
G01*
X60178800Y-117146856D01*
X60500537Y-117286367D01*
X60807926Y-117496167D01*
X61153328Y-117812109D01*
X61159980Y-117818753D01*
X61552958Y-118275100D01*
X61807024Y-118738356D01*
X61941614Y-119256585D01*
X61976552Y-119837965D01*
X61894260Y-120475863D01*
X61669478Y-121053884D01*
X61322895Y-121557382D01*
X60875201Y-121971713D01*
X60347086Y-122282231D01*
X59759241Y-122474292D01*
X59132354Y-122533250D01*
X58487116Y-122444460D01*
X58349687Y-122405192D01*
X57793423Y-122147259D01*
X57293022Y-121753842D01*
X56881105Y-121257186D01*
X56590292Y-120689540D01*
X56577039Y-120652885D01*
X56508953Y-120370520D01*
X56464071Y-120013023D01*
X56453467Y-119766131D01*
X56530544Y-119099919D01*
X56748933Y-118501004D01*
X57089373Y-117982929D01*
X57532601Y-117559238D01*
X58059355Y-117243474D01*
X58650372Y-117049180D01*
X59286389Y-116989900D01*
X59948146Y-117079176D01*
G37*
X79726709Y-123974482D02*
X80352522Y-124201691D01*
X80407068Y-124228435D01*
X80950919Y-124586968D01*
X81375569Y-125044097D01*
X81678053Y-125575279D01*
X81855405Y-126155972D01*
X81904660Y-126761633D01*
X81822853Y-127367720D01*
X81607019Y-127949690D01*
X81254191Y-128483000D01*
X80957640Y-128785236D01*
X80671072Y-128999983D01*
X80346148Y-129193100D01*
X80249101Y-129239886D01*
X79856097Y-129360591D01*
X79381171Y-129428533D01*
X78894849Y-129439474D01*
X78467655Y-129389181D01*
X78339800Y-129354569D01*
X77699930Y-129059757D01*
X77161679Y-128639188D01*
X76742406Y-128108098D01*
X76587844Y-127816933D01*
X76451235Y-127376797D01*
X76387592Y-126855126D01*
X76397383Y-126316290D01*
X76481072Y-125824661D01*
X76571572Y-125568965D01*
X76932051Y-124976714D01*
X77409307Y-124505876D01*
X77996727Y-124161896D01*
X78481391Y-123996548D01*
X79112630Y-123907261D01*
X79726709Y-123974482D01*
G36*
X79726709Y-123974482D02*
G01*
X80352522Y-124201691D01*
X80407068Y-124228435D01*
X80950919Y-124586968D01*
X81375569Y-125044097D01*
X81678053Y-125575279D01*
X81855405Y-126155972D01*
X81904660Y-126761633D01*
X81822853Y-127367720D01*
X81607019Y-127949690D01*
X81254191Y-128483000D01*
X80957640Y-128785236D01*
X80671072Y-128999983D01*
X80346148Y-129193100D01*
X80249101Y-129239886D01*
X79856097Y-129360591D01*
X79381171Y-129428533D01*
X78894849Y-129439474D01*
X78467655Y-129389181D01*
X78339800Y-129354569D01*
X77699930Y-129059757D01*
X77161679Y-128639188D01*
X76742406Y-128108098D01*
X76587844Y-127816933D01*
X76451235Y-127376797D01*
X76387592Y-126855126D01*
X76397383Y-126316290D01*
X76481072Y-125824661D01*
X76571572Y-125568965D01*
X76932051Y-124976714D01*
X77409307Y-124505876D01*
X77996727Y-124161896D01*
X78481391Y-123996548D01*
X79112630Y-123907261D01*
X79726709Y-123974482D01*
G37*
X104267535Y-112275434D02*
X104807520Y-112432783D01*
X104894781Y-112472833D01*
X105396884Y-112797462D01*
X105845666Y-113233944D01*
X106190374Y-113730252D01*
X106262026Y-113874393D01*
X106409093Y-114367926D01*
X106457135Y-114933701D01*
X106407113Y-115507295D01*
X106259988Y-116024289D01*
X106228906Y-116094463D01*
X105906136Y-116651591D01*
X105510800Y-117078011D01*
X105010618Y-117407484D01*
X104939056Y-117443563D01*
X104342957Y-117661325D01*
X103729898Y-117750759D01*
X103148785Y-117706032D01*
X103014151Y-117673182D01*
X102356994Y-117405181D01*
X101802805Y-117003134D01*
X101355412Y-116470269D01*
X101141815Y-116093199D01*
X101007378Y-115676905D01*
X100944209Y-115171477D01*
X100952634Y-114641540D01*
X101032982Y-114151718D01*
X101130547Y-113870875D01*
X101401055Y-113422380D01*
X101771201Y-112995341D01*
X102191152Y-112640494D01*
X102536368Y-112439582D01*
X103069894Y-112277959D01*
X103667638Y-112223535D01*
X104267535Y-112275434D01*
G36*
X104267535Y-112275434D02*
G01*
X104807520Y-112432783D01*
X104894781Y-112472833D01*
X105396884Y-112797462D01*
X105845666Y-113233944D01*
X106190374Y-113730252D01*
X106262026Y-113874393D01*
X106409093Y-114367926D01*
X106457135Y-114933701D01*
X106407113Y-115507295D01*
X106259988Y-116024289D01*
X106228906Y-116094463D01*
X105906136Y-116651591D01*
X105510800Y-117078011D01*
X105010618Y-117407484D01*
X104939056Y-117443563D01*
X104342957Y-117661325D01*
X103729898Y-117750759D01*
X103148785Y-117706032D01*
X103014151Y-117673182D01*
X102356994Y-117405181D01*
X101802805Y-117003134D01*
X101355412Y-116470269D01*
X101141815Y-116093199D01*
X101007378Y-115676905D01*
X100944209Y-115171477D01*
X100952634Y-114641540D01*
X101032982Y-114151718D01*
X101130547Y-113870875D01*
X101401055Y-113422380D01*
X101771201Y-112995341D01*
X102191152Y-112640494D01*
X102536368Y-112439582D01*
X103069894Y-112277959D01*
X103667638Y-112223535D01*
X104267535Y-112275434D01*
G37*
X71889353Y-123004389D02*
X72389520Y-123091746D01*
X72582220Y-123154092D01*
X73009860Y-123386020D01*
X73434054Y-123731030D01*
X73803294Y-124139831D01*
X74066074Y-124563136D01*
X74074920Y-124582515D01*
X74237250Y-125119481D01*
X74290709Y-125720619D01*
X74236248Y-126323832D01*
X74074820Y-126867027D01*
X74038702Y-126945088D01*
X73677468Y-127500013D01*
X73200159Y-127953003D01*
X72636313Y-128278501D01*
X72396030Y-128366393D01*
X71886979Y-128492229D01*
X71442688Y-128521971D01*
X70990282Y-128458170D01*
X70840818Y-128420829D01*
X70360936Y-128240832D01*
X69901515Y-127979385D01*
X69527577Y-127675394D01*
X69445191Y-127585760D01*
X69076393Y-127029383D01*
X68854704Y-126426948D01*
X68774752Y-125803037D01*
X68831168Y-125182235D01*
X69018580Y-124589124D01*
X69331617Y-124048288D01*
X69764910Y-123584311D01*
X70313087Y-123221774D01*
X70408593Y-123175967D01*
X70834369Y-123047149D01*
X71349463Y-122989739D01*
X71889353Y-123004389D01*
G36*
X71889353Y-123004389D02*
G01*
X72389520Y-123091746D01*
X72582220Y-123154092D01*
X73009860Y-123386020D01*
X73434054Y-123731030D01*
X73803294Y-124139831D01*
X74066074Y-124563136D01*
X74074920Y-124582515D01*
X74237250Y-125119481D01*
X74290709Y-125720619D01*
X74236248Y-126323832D01*
X74074820Y-126867027D01*
X74038702Y-126945088D01*
X73677468Y-127500013D01*
X73200159Y-127953003D01*
X72636313Y-128278501D01*
X72396030Y-128366393D01*
X71886979Y-128492229D01*
X71442688Y-128521971D01*
X70990282Y-128458170D01*
X70840818Y-128420829D01*
X70360936Y-128240832D01*
X69901515Y-127979385D01*
X69527577Y-127675394D01*
X69445191Y-127585760D01*
X69076393Y-127029383D01*
X68854704Y-126426948D01*
X68774752Y-125803037D01*
X68831168Y-125182235D01*
X69018580Y-124589124D01*
X69331617Y-124048288D01*
X69764910Y-123584311D01*
X70313087Y-123221774D01*
X70408593Y-123175967D01*
X70834369Y-123047149D01*
X71349463Y-122989739D01*
X71889353Y-123004389D01*
G37*
X99348347Y-117073091D02*
X99636968Y-117107292D01*
X99887232Y-117180079D01*
X100153447Y-117298833D01*
X100659440Y-117626689D01*
X101112220Y-118068852D01*
X101460138Y-118572505D01*
X101524017Y-118700393D01*
X101654452Y-119127376D01*
X101713354Y-119641784D01*
X101700726Y-120177559D01*
X101616566Y-120668642D01*
X101524017Y-120931473D01*
X101220081Y-121429074D01*
X100805872Y-121879448D01*
X100332405Y-122230446D01*
X100168445Y-122317195D01*
X99679442Y-122486402D01*
X99138442Y-122572797D01*
X98611390Y-122570449D01*
X98218351Y-122492536D01*
X97557628Y-122198373D01*
X97019081Y-121794472D01*
X96610827Y-121291655D01*
X96340983Y-120700742D01*
X96217666Y-120032553D01*
X96210456Y-119815933D01*
X96226635Y-119406455D01*
X96285963Y-119082456D01*
X96404630Y-118762241D01*
X96430572Y-118705106D01*
X96796576Y-118094164D01*
X97267640Y-117610663D01*
X97757207Y-117300076D01*
X98033880Y-117177574D01*
X98286120Y-117106085D01*
X98579422Y-117072754D01*
X98956133Y-117064721D01*
X99348347Y-117073091D01*
G36*
X99348347Y-117073091D02*
G01*
X99636968Y-117107292D01*
X99887232Y-117180079D01*
X100153447Y-117298833D01*
X100659440Y-117626689D01*
X101112220Y-118068852D01*
X101460138Y-118572505D01*
X101524017Y-118700393D01*
X101654452Y-119127376D01*
X101713354Y-119641784D01*
X101700726Y-120177559D01*
X101616566Y-120668642D01*
X101524017Y-120931473D01*
X101220081Y-121429074D01*
X100805872Y-121879448D01*
X100332405Y-122230446D01*
X100168445Y-122317195D01*
X99679442Y-122486402D01*
X99138442Y-122572797D01*
X98611390Y-122570449D01*
X98218351Y-122492536D01*
X97557628Y-122198373D01*
X97019081Y-121794472D01*
X96610827Y-121291655D01*
X96340983Y-120700742D01*
X96217666Y-120032553D01*
X96210456Y-119815933D01*
X96226635Y-119406455D01*
X96285963Y-119082456D01*
X96404630Y-118762241D01*
X96430572Y-118705106D01*
X96796576Y-118094164D01*
X97267640Y-117610663D01*
X97757207Y-117300076D01*
X98033880Y-117177574D01*
X98286120Y-117106085D01*
X98579422Y-117072754D01*
X98956133Y-117064721D01*
X99348347Y-117073091D01*
G37*
X108170479Y-106408648D02*
X108677818Y-106517457D01*
X108873658Y-106596477D01*
X109463020Y-106967313D01*
X109931580Y-107439531D01*
X110268642Y-107992910D01*
X110463513Y-108607228D01*
X110505496Y-109262263D01*
X110464721Y-109604787D01*
X110355008Y-110067736D01*
X110193915Y-110450164D01*
X109945897Y-110828539D01*
X109823042Y-110985218D01*
X109432332Y-111346339D01*
X108929485Y-111631167D01*
X108359941Y-111825400D01*
X107769140Y-111914740D01*
X107202523Y-111884886D01*
X107060215Y-111854695D01*
X106493800Y-111631438D01*
X105965135Y-111271009D01*
X105513974Y-110805561D01*
X105235463Y-110378999D01*
X105126400Y-110151437D01*
X105059238Y-109938979D01*
X105024221Y-109688207D01*
X105011592Y-109345701D01*
X105010614Y-109147933D01*
X105016359Y-108746951D01*
X105040069Y-108461873D01*
X105091457Y-108239469D01*
X105180233Y-108026513D01*
X105234606Y-107920267D01*
X105628934Y-107344386D01*
X106135166Y-106879562D01*
X106576133Y-106617484D01*
X107057790Y-106459227D01*
X107609854Y-106389427D01*
X108170479Y-106408648D01*
G36*
X108170479Y-106408648D02*
G01*
X108677818Y-106517457D01*
X108873658Y-106596477D01*
X109463020Y-106967313D01*
X109931580Y-107439531D01*
X110268642Y-107992910D01*
X110463513Y-108607228D01*
X110505496Y-109262263D01*
X110464721Y-109604787D01*
X110355008Y-110067736D01*
X110193915Y-110450164D01*
X109945897Y-110828539D01*
X109823042Y-110985218D01*
X109432332Y-111346339D01*
X108929485Y-111631167D01*
X108359941Y-111825400D01*
X107769140Y-111914740D01*
X107202523Y-111884886D01*
X107060215Y-111854695D01*
X106493800Y-111631438D01*
X105965135Y-111271009D01*
X105513974Y-110805561D01*
X105235463Y-110378999D01*
X105126400Y-110151437D01*
X105059238Y-109938979D01*
X105024221Y-109688207D01*
X105011592Y-109345701D01*
X105010614Y-109147933D01*
X105016359Y-108746951D01*
X105040069Y-108461873D01*
X105091457Y-108239469D01*
X105180233Y-108026513D01*
X105234606Y-107920267D01*
X105628934Y-107344386D01*
X106135166Y-106879562D01*
X106576133Y-106617484D01*
X107057790Y-106459227D01*
X107609854Y-106389427D01*
X108170479Y-106408648D01*
G37*
X50910143Y-106347201D02*
X51572224Y-106544797D01*
X52134985Y-106876978D01*
X52605043Y-107348769D01*
X52957066Y-107902225D01*
X53076257Y-108159352D01*
X53146436Y-108401432D01*
X53180132Y-108690988D01*
X53189741Y-109063267D01*
X53182806Y-109460852D01*
X53148738Y-109754868D01*
X53075614Y-110010394D01*
X52972583Y-110248600D01*
X52608915Y-110821904D01*
X52117603Y-111299366D01*
X51669800Y-111583820D01*
X51372706Y-111711967D01*
X51057469Y-111786734D01*
X50655240Y-111823333D01*
X50569133Y-111827009D01*
X50218507Y-111830673D01*
X49909899Y-111817071D01*
X49701721Y-111789097D01*
X49680133Y-111782993D01*
X49087454Y-111506651D01*
X48553883Y-111100834D01*
X48118109Y-110599963D01*
X47876993Y-110178807D01*
X47767479Y-109868267D01*
X47710007Y-109508834D01*
X47694038Y-109103820D01*
X47700859Y-108728782D01*
X47737038Y-108447916D01*
X47819097Y-108186546D01*
X47963558Y-107869996D01*
X47969849Y-107857200D01*
X48334220Y-107295082D01*
X48805718Y-106846788D01*
X49360010Y-106524815D01*
X49972766Y-106341659D01*
X50619653Y-106309814D01*
X50910143Y-106347201D01*
G36*
X50910143Y-106347201D02*
G01*
X51572224Y-106544797D01*
X52134985Y-106876978D01*
X52605043Y-107348769D01*
X52957066Y-107902225D01*
X53076257Y-108159352D01*
X53146436Y-108401432D01*
X53180132Y-108690988D01*
X53189741Y-109063267D01*
X53182806Y-109460852D01*
X53148738Y-109754868D01*
X53075614Y-110010394D01*
X52972583Y-110248600D01*
X52608915Y-110821904D01*
X52117603Y-111299366D01*
X51669800Y-111583820D01*
X51372706Y-111711967D01*
X51057469Y-111786734D01*
X50655240Y-111823333D01*
X50569133Y-111827009D01*
X50218507Y-111830673D01*
X49909899Y-111817071D01*
X49701721Y-111789097D01*
X49680133Y-111782993D01*
X49087454Y-111506651D01*
X48553883Y-111100834D01*
X48118109Y-110599963D01*
X47876993Y-110178807D01*
X47767479Y-109868267D01*
X47710007Y-109508834D01*
X47694038Y-109103820D01*
X47700859Y-108728782D01*
X47737038Y-108447916D01*
X47819097Y-108186546D01*
X47963558Y-107869996D01*
X47969849Y-107857200D01*
X48334220Y-107295082D01*
X48805718Y-106846788D01*
X49360010Y-106524815D01*
X49972766Y-106341659D01*
X50619653Y-106309814D01*
X50910143Y-106347201D01*
G37*
X112745346Y-93020127D02*
X113556023Y-93166823D01*
X114286311Y-93435646D01*
X114966121Y-93841411D01*
X115625365Y-94398938D01*
X115723027Y-94495267D01*
X116188441Y-94998872D01*
X116504957Y-95426463D01*
X116673854Y-95780268D01*
X116696409Y-96062514D01*
X116669531Y-96145764D01*
X116496656Y-96355784D01*
X116244266Y-96482710D01*
X115983390Y-96492429D01*
X115960933Y-96486077D01*
X115830195Y-96394434D01*
X115645996Y-96204991D01*
X115462915Y-95977910D01*
X115100270Y-95530317D01*
X114719829Y-95135775D01*
X114361122Y-94833604D01*
X114215507Y-94737162D01*
X113970965Y-94592725D01*
X113870720Y-95825858D01*
X113737066Y-97018184D01*
X113540625Y-98098139D01*
X113284782Y-99052373D01*
X112972921Y-99867535D01*
X112725135Y-100344822D01*
X112447933Y-100812711D01*
X112851342Y-101172780D01*
X113146000Y-101489971D01*
X113409361Y-101865319D01*
X113492609Y-102017224D01*
X113621405Y-102309534D01*
X113694099Y-102575513D01*
X113725367Y-102886831D01*
X113730467Y-103178933D01*
X113696975Y-103752183D01*
X113592413Y-104210390D01*
X113567308Y-104279353D01*
X113331712Y-104713627D01*
X112982758Y-105140334D01*
X112570475Y-105507426D01*
X112144891Y-105762852D01*
X112138885Y-105765471D01*
X111602518Y-105928785D01*
X111014616Y-105993366D01*
X110442169Y-105956025D01*
X110075614Y-105863680D01*
X109462768Y-105560404D01*
X108960495Y-105136460D01*
X108580500Y-104608651D01*
X108334484Y-103993779D01*
X108234149Y-103308646D01*
X108232425Y-103217223D01*
X108306880Y-102541598D01*
X108528504Y-101935324D01*
X108884533Y-101412117D01*
X109362205Y-100985691D01*
X109948755Y-100669762D01*
X110631420Y-100478043D01*
X110805492Y-100452363D01*
X111351850Y-100384933D01*
X111709881Y-99707600D01*
X112000077Y-99052290D01*
X112254331Y-98267670D01*
X112464867Y-97391406D01*
X112623913Y-96461162D01*
X112723694Y-95514602D01*
X112756511Y-94636523D01*
X112756800Y-94137447D01*
X112185300Y-94189736D01*
X111694321Y-94274360D01*
X111210995Y-94449996D01*
X111021133Y-94541025D01*
X110712432Y-94684793D01*
X110439944Y-94790625D01*
X110255779Y-94838653D01*
X110237967Y-94839646D01*
X110001866Y-94764167D01*
X109808393Y-94576548D01*
X109711745Y-94333588D01*
X109708800Y-94285085D01*
X109788833Y-94032129D01*
X110010682Y-93783631D01*
X110346974Y-93550994D01*
X110770334Y-93345620D01*
X111253387Y-93178915D01*
X111768760Y-93062280D01*
X112289077Y-93007121D01*
X112745346Y-93020127D01*
G36*
X112745346Y-93020127D02*
G01*
X113556023Y-93166823D01*
X114286311Y-93435646D01*
X114966121Y-93841411D01*
X115625365Y-94398938D01*
X115723027Y-94495267D01*
X116188441Y-94998872D01*
X116504957Y-95426463D01*
X116673854Y-95780268D01*
X116696409Y-96062514D01*
X116669531Y-96145764D01*
X116496656Y-96355784D01*
X116244266Y-96482710D01*
X115983390Y-96492429D01*
X115960933Y-96486077D01*
X115830195Y-96394434D01*
X115645996Y-96204991D01*
X115462915Y-95977910D01*
X115100270Y-95530317D01*
X114719829Y-95135775D01*
X114361122Y-94833604D01*
X114215507Y-94737162D01*
X113970965Y-94592725D01*
X113870720Y-95825858D01*
X113737066Y-97018184D01*
X113540625Y-98098139D01*
X113284782Y-99052373D01*
X112972921Y-99867535D01*
X112725135Y-100344822D01*
X112447933Y-100812711D01*
X112851342Y-101172780D01*
X113146000Y-101489971D01*
X113409361Y-101865319D01*
X113492609Y-102017224D01*
X113621405Y-102309534D01*
X113694099Y-102575513D01*
X113725367Y-102886831D01*
X113730467Y-103178933D01*
X113696975Y-103752183D01*
X113592413Y-104210390D01*
X113567308Y-104279353D01*
X113331712Y-104713627D01*
X112982758Y-105140334D01*
X112570475Y-105507426D01*
X112144891Y-105762852D01*
X112138885Y-105765471D01*
X111602518Y-105928785D01*
X111014616Y-105993366D01*
X110442169Y-105956025D01*
X110075614Y-105863680D01*
X109462768Y-105560404D01*
X108960495Y-105136460D01*
X108580500Y-104608651D01*
X108334484Y-103993779D01*
X108234149Y-103308646D01*
X108232425Y-103217223D01*
X108306880Y-102541598D01*
X108528504Y-101935324D01*
X108884533Y-101412117D01*
X109362205Y-100985691D01*
X109948755Y-100669762D01*
X110631420Y-100478043D01*
X110805492Y-100452363D01*
X111351850Y-100384933D01*
X111709881Y-99707600D01*
X112000077Y-99052290D01*
X112254331Y-98267670D01*
X112464867Y-97391406D01*
X112623913Y-96461162D01*
X112723694Y-95514602D01*
X112756511Y-94636523D01*
X112756800Y-94137447D01*
X112185300Y-94189736D01*
X111694321Y-94274360D01*
X111210995Y-94449996D01*
X111021133Y-94541025D01*
X110712432Y-94684793D01*
X110439944Y-94790625D01*
X110255779Y-94838653D01*
X110237967Y-94839646D01*
X110001866Y-94764167D01*
X109808393Y-94576548D01*
X109711745Y-94333588D01*
X109708800Y-94285085D01*
X109788833Y-94032129D01*
X110010682Y-93783631D01*
X110346974Y-93550994D01*
X110770334Y-93345620D01*
X111253387Y-93178915D01*
X111768760Y-93062280D01*
X112289077Y-93007121D01*
X112745346Y-93020127D01*
G37*
X46571775Y-93063822D02*
X47124520Y-93170035D01*
X47629320Y-93334123D01*
X48060128Y-93544205D01*
X48390894Y-93788399D01*
X48595572Y-94054824D01*
X48648922Y-94236924D01*
X48611395Y-94532997D01*
X48454005Y-94744921D01*
X48204609Y-94838058D01*
X48164178Y-94839646D01*
X47983884Y-94802403D01*
X47710012Y-94703704D01*
X47397362Y-94563693D01*
X47351800Y-94541025D01*
X46849573Y-94325946D01*
X46371443Y-94211478D01*
X46187688Y-94189741D01*
X45616242Y-94137457D01*
X45661775Y-94932862D01*
X45764164Y-96173762D01*
X45922622Y-97269230D01*
X46140567Y-98234774D01*
X46421418Y-99085901D01*
X46724763Y-99755344D01*
X47062429Y-100404379D01*
X47551079Y-100448689D01*
X48167347Y-100583173D01*
X48712809Y-100854356D01*
X49175025Y-101239980D01*
X49541557Y-101717790D01*
X49799965Y-102265527D01*
X49937810Y-102860934D01*
X49942653Y-103481754D01*
X49802055Y-104105731D01*
X49715704Y-104321818D01*
X49381909Y-104869364D01*
X48917499Y-105342687D01*
X48397383Y-105685751D01*
X47978754Y-105832470D01*
X47467231Y-105907541D01*
X46924137Y-105909253D01*
X46410797Y-105835894D01*
X46127055Y-105749097D01*
X45568898Y-105444586D01*
X45115617Y-105028536D01*
X44772598Y-104526431D01*
X44545225Y-103963755D01*
X44438883Y-103365990D01*
X44458955Y-102758620D01*
X44610827Y-102167129D01*
X44899883Y-101617000D01*
X45181748Y-101275244D01*
X45409464Y-101054033D01*
X45612277Y-100876557D01*
X45732510Y-100789919D01*
X45819257Y-100730898D01*
X45835139Y-100652392D01*
X45773854Y-100509642D01*
X45666613Y-100321806D01*
X45353881Y-99681406D01*
X45080010Y-98906161D01*
X44852631Y-98027657D01*
X44679377Y-97077479D01*
X44567882Y-96087211D01*
X44541201Y-95664767D01*
X44519146Y-95259705D01*
X44495944Y-94923948D01*
X44474151Y-94689199D01*
X44456324Y-94587165D01*
X44454143Y-94585267D01*
X44370411Y-94629147D01*
X44194404Y-94741475D01*
X44060212Y-94832103D01*
X43610993Y-95203682D01*
X43170065Y-95681328D01*
X42862146Y-96097587D01*
X42612061Y-96377309D01*
X42343160Y-96496682D01*
X42065790Y-96451446D01*
X42037229Y-96437307D01*
X41807481Y-96256392D01*
X41717437Y-96021503D01*
X41767638Y-95721454D01*
X41958622Y-95345062D01*
X42100163Y-95134409D01*
X42698106Y-94428608D01*
X43382523Y-93857798D01*
X44139270Y-93429625D01*
X44954206Y-93151734D01*
X45813189Y-93031774D01*
X45997133Y-93027365D01*
X46571775Y-93063822D01*
G36*
X46571775Y-93063822D02*
G01*
X47124520Y-93170035D01*
X47629320Y-93334123D01*
X48060128Y-93544205D01*
X48390894Y-93788399D01*
X48595572Y-94054824D01*
X48648922Y-94236924D01*
X48611395Y-94532997D01*
X48454005Y-94744921D01*
X48204609Y-94838058D01*
X48164178Y-94839646D01*
X47983884Y-94802403D01*
X47710012Y-94703704D01*
X47397362Y-94563693D01*
X47351800Y-94541025D01*
X46849573Y-94325946D01*
X46371443Y-94211478D01*
X46187688Y-94189741D01*
X45616242Y-94137457D01*
X45661775Y-94932862D01*
X45764164Y-96173762D01*
X45922622Y-97269230D01*
X46140567Y-98234774D01*
X46421418Y-99085901D01*
X46724763Y-99755344D01*
X47062429Y-100404379D01*
X47551079Y-100448689D01*
X48167347Y-100583173D01*
X48712809Y-100854356D01*
X49175025Y-101239980D01*
X49541557Y-101717790D01*
X49799965Y-102265527D01*
X49937810Y-102860934D01*
X49942653Y-103481754D01*
X49802055Y-104105731D01*
X49715704Y-104321818D01*
X49381909Y-104869364D01*
X48917499Y-105342687D01*
X48397383Y-105685751D01*
X47978754Y-105832470D01*
X47467231Y-105907541D01*
X46924137Y-105909253D01*
X46410797Y-105835894D01*
X46127055Y-105749097D01*
X45568898Y-105444586D01*
X45115617Y-105028536D01*
X44772598Y-104526431D01*
X44545225Y-103963755D01*
X44438883Y-103365990D01*
X44458955Y-102758620D01*
X44610827Y-102167129D01*
X44899883Y-101617000D01*
X45181748Y-101275244D01*
X45409464Y-101054033D01*
X45612277Y-100876557D01*
X45732510Y-100789919D01*
X45819257Y-100730898D01*
X45835139Y-100652392D01*
X45773854Y-100509642D01*
X45666613Y-100321806D01*
X45353881Y-99681406D01*
X45080010Y-98906161D01*
X44852631Y-98027657D01*
X44679377Y-97077479D01*
X44567882Y-96087211D01*
X44541201Y-95664767D01*
X44519146Y-95259705D01*
X44495944Y-94923948D01*
X44474151Y-94689199D01*
X44456324Y-94587165D01*
X44454143Y-94585267D01*
X44370411Y-94629147D01*
X44194404Y-94741475D01*
X44060212Y-94832103D01*
X43610993Y-95203682D01*
X43170065Y-95681328D01*
X42862146Y-96097587D01*
X42612061Y-96377309D01*
X42343160Y-96496682D01*
X42065790Y-96451446D01*
X42037229Y-96437307D01*
X41807481Y-96256392D01*
X41717437Y-96021503D01*
X41767638Y-95721454D01*
X41958622Y-95345062D01*
X42100163Y-95134409D01*
X42698106Y-94428608D01*
X43382523Y-93857798D01*
X44139270Y-93429625D01*
X44954206Y-93151734D01*
X45813189Y-93031774D01*
X45997133Y-93027365D01*
X46571775Y-93063822D01*
G37*
X64482342Y-62394132D02*
X65436870Y-62629525D01*
X66353333Y-63024902D01*
X67237210Y-63582761D01*
X68093979Y-64305602D01*
X68309701Y-64517561D01*
X69171828Y-65506581D01*
X69932320Y-66621963D01*
X70586814Y-67851462D01*
X71130949Y-69182835D01*
X71560362Y-70603836D01*
X71870691Y-72102223D01*
X72057574Y-73665751D01*
X72116800Y-75204273D01*
X72100203Y-76205240D01*
X72046494Y-77100184D01*
X71949798Y-77949509D01*
X71804239Y-78813618D01*
X71729780Y-79182831D01*
X71381295Y-80560024D01*
X70935217Y-81853871D01*
X70398785Y-83055200D01*
X69779236Y-84154843D01*
X69083809Y-85143628D01*
X68319741Y-86012386D01*
X67494271Y-86751947D01*
X66614636Y-87353140D01*
X65688075Y-87806795D01*
X64721825Y-88103742D01*
X64681657Y-88112399D01*
X64182796Y-88185219D01*
X63604860Y-88218786D01*
X63021921Y-88212106D01*
X62508054Y-88164183D01*
X62386499Y-88143212D01*
X61385576Y-87861801D01*
X60432616Y-87424115D01*
X59533179Y-86837818D01*
X58692824Y-86110571D01*
X57917110Y-85250039D01*
X57211597Y-84263884D01*
X56581845Y-83159769D01*
X56033412Y-81945358D01*
X55571858Y-80628313D01*
X55202743Y-79216298D01*
X55047634Y-78380665D01*
X62730420Y-78380665D01*
X62769427Y-79132430D01*
X62848990Y-79824693D01*
X62967563Y-80403600D01*
X63285199Y-81341355D01*
X63694499Y-82174191D01*
X64185984Y-82889554D01*
X64750174Y-83474887D01*
X65377592Y-83917634D01*
X65758976Y-84101023D01*
X66246724Y-84222410D01*
X66804260Y-84239109D01*
X67371509Y-84155103D01*
X67888398Y-83974376D01*
X67922446Y-83957547D01*
X68479677Y-83589516D01*
X69005189Y-83074997D01*
X69484132Y-82435995D01*
X69901654Y-81694513D01*
X70242905Y-80872555D01*
X70435346Y-80234267D01*
X70514226Y-79897324D01*
X70569062Y-79579828D01*
X70603881Y-79237957D01*
X70622711Y-78827890D01*
X70629581Y-78305806D01*
X70629912Y-78117600D01*
X70611357Y-77301935D01*
X70549001Y-76604495D01*
X70432800Y-75977568D01*
X70252714Y-75373447D01*
X69998701Y-74744420D01*
X69854761Y-74434600D01*
X69501105Y-73809906D01*
X69074884Y-73239555D01*
X68603477Y-72752295D01*
X68114263Y-72376873D01*
X67689790Y-72161478D01*
X67033781Y-72000094D01*
X66388111Y-71999535D01*
X65762700Y-72151292D01*
X65167467Y-72446855D01*
X64612332Y-72877716D01*
X64107212Y-73435367D01*
X63662029Y-74111299D01*
X63286701Y-74897003D01*
X62991147Y-75783970D01*
X62869369Y-76296417D01*
X62779129Y-76909852D01*
X62733234Y-77622204D01*
X62730420Y-78380665D01*
X55047634Y-78380665D01*
X54959514Y-77905933D01*
X54884245Y-77250665D01*
X54834862Y-76476428D01*
X54811315Y-75631588D01*
X54813551Y-74764510D01*
X54841519Y-73923559D01*
X54895167Y-73157102D01*
X54965214Y-72571933D01*
X55277998Y-70957359D01*
X55702989Y-69453346D01*
X56237932Y-68064837D01*
X56880574Y-66796776D01*
X57628660Y-65654105D01*
X58479934Y-64641766D01*
X58671663Y-64446134D01*
X59527186Y-63694451D01*
X60415619Y-63107744D01*
X61341335Y-62684077D01*
X62308707Y-62421516D01*
X63322107Y-62318125D01*
X63484272Y-62316223D01*
X64482342Y-62394132D01*
G36*
X64482342Y-62394132D02*
G01*
X65436870Y-62629525D01*
X66353333Y-63024902D01*
X67237210Y-63582761D01*
X68093979Y-64305602D01*
X68309701Y-64517561D01*
X69171828Y-65506581D01*
X69932320Y-66621963D01*
X70586814Y-67851462D01*
X71130949Y-69182835D01*
X71560362Y-70603836D01*
X71870691Y-72102223D01*
X72057574Y-73665751D01*
X72116800Y-75204273D01*
X72100203Y-76205240D01*
X72046494Y-77100184D01*
X71949798Y-77949509D01*
X71804239Y-78813618D01*
X71729780Y-79182831D01*
X71381295Y-80560024D01*
X70935217Y-81853871D01*
X70398785Y-83055200D01*
X69779236Y-84154843D01*
X69083809Y-85143628D01*
X68319741Y-86012386D01*
X67494271Y-86751947D01*
X66614636Y-87353140D01*
X65688075Y-87806795D01*
X64721825Y-88103742D01*
X64681657Y-88112399D01*
X64182796Y-88185219D01*
X63604860Y-88218786D01*
X63021921Y-88212106D01*
X62508054Y-88164183D01*
X62386499Y-88143212D01*
X61385576Y-87861801D01*
X60432616Y-87424115D01*
X59533179Y-86837818D01*
X58692824Y-86110571D01*
X57917110Y-85250039D01*
X57211597Y-84263884D01*
X56581845Y-83159769D01*
X56033412Y-81945358D01*
X55571858Y-80628313D01*
X55202743Y-79216298D01*
X55047634Y-78380665D01*
X62730420Y-78380665D01*
X62769427Y-79132430D01*
X62848990Y-79824693D01*
X62967563Y-80403600D01*
X63285199Y-81341355D01*
X63694499Y-82174191D01*
X64185984Y-82889554D01*
X64750174Y-83474887D01*
X65377592Y-83917634D01*
X65758976Y-84101023D01*
X66246724Y-84222410D01*
X66804260Y-84239109D01*
X67371509Y-84155103D01*
X67888398Y-83974376D01*
X67922446Y-83957547D01*
X68479677Y-83589516D01*
X69005189Y-83074997D01*
X69484132Y-82435995D01*
X69901654Y-81694513D01*
X70242905Y-80872555D01*
X70435346Y-80234267D01*
X70514226Y-79897324D01*
X70569062Y-79579828D01*
X70603881Y-79237957D01*
X70622711Y-78827890D01*
X70629581Y-78305806D01*
X70629912Y-78117600D01*
X70611357Y-77301935D01*
X70549001Y-76604495D01*
X70432800Y-75977568D01*
X70252714Y-75373447D01*
X69998701Y-74744420D01*
X69854761Y-74434600D01*
X69501105Y-73809906D01*
X69074884Y-73239555D01*
X68603477Y-72752295D01*
X68114263Y-72376873D01*
X67689790Y-72161478D01*
X67033781Y-72000094D01*
X66388111Y-71999535D01*
X65762700Y-72151292D01*
X65167467Y-72446855D01*
X64612332Y-72877716D01*
X64107212Y-73435367D01*
X63662029Y-74111299D01*
X63286701Y-74897003D01*
X62991147Y-75783970D01*
X62869369Y-76296417D01*
X62779129Y-76909852D01*
X62733234Y-77622204D01*
X62730420Y-78380665D01*
X55047634Y-78380665D01*
X54959514Y-77905933D01*
X54884245Y-77250665D01*
X54834862Y-76476428D01*
X54811315Y-75631588D01*
X54813551Y-74764510D01*
X54841519Y-73923559D01*
X54895167Y-73157102D01*
X54965214Y-72571933D01*
X55277998Y-70957359D01*
X55702989Y-69453346D01*
X56237932Y-68064837D01*
X56880574Y-66796776D01*
X57628660Y-65654105D01*
X58479934Y-64641766D01*
X58671663Y-64446134D01*
X59527186Y-63694451D01*
X60415619Y-63107744D01*
X61341335Y-62684077D01*
X62308707Y-62421516D01*
X63322107Y-62318125D01*
X63484272Y-62316223D01*
X64482342Y-62394132D01*
G37*
X93750708Y-62370001D02*
X94570056Y-62539814D01*
X95374171Y-62838385D01*
X95441934Y-62869281D01*
X96398458Y-63402594D01*
X97282840Y-64077758D01*
X98092321Y-64882160D01*
X98824143Y-65803185D01*
X99475548Y-66828220D01*
X100043777Y-67944650D01*
X100526073Y-69139860D01*
X100919676Y-70401238D01*
X101221828Y-71716168D01*
X101429771Y-73072037D01*
X101540747Y-74456231D01*
X101551997Y-75856135D01*
X101460763Y-77259135D01*
X101264286Y-78652617D01*
X100959809Y-80023968D01*
X100544572Y-81360572D01*
X100015818Y-82649817D01*
X99844993Y-83004728D01*
X99179157Y-84193407D01*
X98438579Y-85237660D01*
X97626087Y-86134808D01*
X96744510Y-86882170D01*
X95796677Y-87477064D01*
X94785416Y-87916810D01*
X94595800Y-87979619D01*
X94085004Y-88099117D01*
X93477277Y-88176653D01*
X92834561Y-88209422D01*
X92218799Y-88194619D01*
X91691932Y-88129438D01*
X91620948Y-88114358D01*
X90635265Y-87803897D01*
X89696900Y-87337952D01*
X88811698Y-86725213D01*
X87985504Y-85974371D01*
X87224160Y-85094117D01*
X86533513Y-84093143D01*
X85919405Y-82980140D01*
X85387680Y-81763797D01*
X84944184Y-80452807D01*
X84594760Y-79055860D01*
X84463973Y-78283101D01*
X92114678Y-78283101D01*
X92184079Y-79236638D01*
X92348843Y-80158506D01*
X92603526Y-81031130D01*
X92942683Y-81836929D01*
X93360869Y-82558325D01*
X93852640Y-83177742D01*
X94412550Y-83677600D01*
X95035155Y-84040321D01*
X95231256Y-84119013D01*
X95739019Y-84227742D01*
X96311943Y-84228300D01*
X96888530Y-84124901D01*
X97295326Y-83977547D01*
X97872423Y-83622114D01*
X98405602Y-83120282D01*
X98884095Y-82491711D01*
X99297132Y-81756057D01*
X99633944Y-80932981D01*
X99883765Y-80042139D01*
X100035823Y-79103191D01*
X100050526Y-78947879D01*
X100081485Y-77912028D01*
X100001435Y-76902822D01*
X99817642Y-75938211D01*
X99537369Y-75036148D01*
X99167881Y-74214585D01*
X98716442Y-73491474D01*
X98190316Y-72884766D01*
X97596767Y-72412414D01*
X97347467Y-72267910D01*
X97095674Y-72147068D01*
X96870559Y-72073962D01*
X96613354Y-72036878D01*
X96265287Y-72024103D01*
X96119800Y-72023224D01*
X95729398Y-72028746D01*
X95447922Y-72055224D01*
X95215209Y-72114556D01*
X94971093Y-72218639D01*
X94864809Y-72271393D01*
X94289000Y-72651144D01*
X93751913Y-73179313D01*
X93267768Y-73836767D01*
X92850789Y-74604372D01*
X92533108Y-75408267D01*
X92283748Y-76351337D01*
X92146087Y-77315475D01*
X92114678Y-78283101D01*
X84463973Y-78283101D01*
X84345253Y-77581647D01*
X84302416Y-77230821D01*
X84262761Y-76718934D01*
X84241976Y-76084486D01*
X84238943Y-75370752D01*
X84252543Y-74621009D01*
X84281657Y-73878530D01*
X84325167Y-73186590D01*
X84381954Y-72588466D01*
X84431601Y-72233267D01*
X84758943Y-70684742D01*
X85199577Y-69230024D01*
X85748912Y-67878951D01*
X86402356Y-66641365D01*
X87155320Y-65527105D01*
X88003214Y-64546010D01*
X88031232Y-64517561D01*
X88881940Y-63752066D01*
X89758353Y-63152193D01*
X90665948Y-62715442D01*
X91610206Y-62439315D01*
X92596604Y-62321313D01*
X92856661Y-62316223D01*
X93750708Y-62370001D01*
G36*
X93750708Y-62370001D02*
G01*
X94570056Y-62539814D01*
X95374171Y-62838385D01*
X95441934Y-62869281D01*
X96398458Y-63402594D01*
X97282840Y-64077758D01*
X98092321Y-64882160D01*
X98824143Y-65803185D01*
X99475548Y-66828220D01*
X100043777Y-67944650D01*
X100526073Y-69139860D01*
X100919676Y-70401238D01*
X101221828Y-71716168D01*
X101429771Y-73072037D01*
X101540747Y-74456231D01*
X101551997Y-75856135D01*
X101460763Y-77259135D01*
X101264286Y-78652617D01*
X100959809Y-80023968D01*
X100544572Y-81360572D01*
X100015818Y-82649817D01*
X99844993Y-83004728D01*
X99179157Y-84193407D01*
X98438579Y-85237660D01*
X97626087Y-86134808D01*
X96744510Y-86882170D01*
X95796677Y-87477064D01*
X94785416Y-87916810D01*
X94595800Y-87979619D01*
X94085004Y-88099117D01*
X93477277Y-88176653D01*
X92834561Y-88209422D01*
X92218799Y-88194619D01*
X91691932Y-88129438D01*
X91620948Y-88114358D01*
X90635265Y-87803897D01*
X89696900Y-87337952D01*
X88811698Y-86725213D01*
X87985504Y-85974371D01*
X87224160Y-85094117D01*
X86533513Y-84093143D01*
X85919405Y-82980140D01*
X85387680Y-81763797D01*
X84944184Y-80452807D01*
X84594760Y-79055860D01*
X84463973Y-78283101D01*
X92114678Y-78283101D01*
X92184079Y-79236638D01*
X92348843Y-80158506D01*
X92603526Y-81031130D01*
X92942683Y-81836929D01*
X93360869Y-82558325D01*
X93852640Y-83177742D01*
X94412550Y-83677600D01*
X95035155Y-84040321D01*
X95231256Y-84119013D01*
X95739019Y-84227742D01*
X96311943Y-84228300D01*
X96888530Y-84124901D01*
X97295326Y-83977547D01*
X97872423Y-83622114D01*
X98405602Y-83120282D01*
X98884095Y-82491711D01*
X99297132Y-81756057D01*
X99633944Y-80932981D01*
X99883765Y-80042139D01*
X100035823Y-79103191D01*
X100050526Y-78947879D01*
X100081485Y-77912028D01*
X100001435Y-76902822D01*
X99817642Y-75938211D01*
X99537369Y-75036148D01*
X99167881Y-74214585D01*
X98716442Y-73491474D01*
X98190316Y-72884766D01*
X97596767Y-72412414D01*
X97347467Y-72267910D01*
X97095674Y-72147068D01*
X96870559Y-72073962D01*
X96613354Y-72036878D01*
X96265287Y-72024103D01*
X96119800Y-72023224D01*
X95729398Y-72028746D01*
X95447922Y-72055224D01*
X95215209Y-72114556D01*
X94971093Y-72218639D01*
X94864809Y-72271393D01*
X94289000Y-72651144D01*
X93751913Y-73179313D01*
X93267768Y-73836767D01*
X92850789Y-74604372D01*
X92533108Y-75408267D01*
X92283748Y-76351337D01*
X92146087Y-77315475D01*
X92114678Y-78283101D01*
X84463973Y-78283101D01*
X84345253Y-77581647D01*
X84302416Y-77230821D01*
X84262761Y-76718934D01*
X84241976Y-76084486D01*
X84238943Y-75370752D01*
X84252543Y-74621009D01*
X84281657Y-73878530D01*
X84325167Y-73186590D01*
X84381954Y-72588466D01*
X84431601Y-72233267D01*
X84758943Y-70684742D01*
X85199577Y-69230024D01*
X85748912Y-67878951D01*
X86402356Y-66641365D01*
X87155320Y-65527105D01*
X88003214Y-64546010D01*
X88031232Y-64517561D01*
X88881940Y-63752066D01*
X89758353Y-63152193D01*
X90665948Y-62715442D01*
X91610206Y-62439315D01*
X92596604Y-62321313D01*
X92856661Y-62316223D01*
X93750708Y-62370001D01*
G37*
X79373591Y-47945297D02*
X80161792Y-47960772D01*
X80862459Y-47984120D01*
X81438923Y-48015329D01*
X81519042Y-48021193D01*
X84325559Y-48319635D01*
X87085948Y-48780501D01*
X89796509Y-49402281D01*
X92453542Y-50183467D01*
X95053348Y-51122550D01*
X97592225Y-52218022D01*
X100066476Y-53468374D01*
X102472399Y-54872097D01*
X104806294Y-56427683D01*
X107064463Y-58133623D01*
X107803800Y-58738828D01*
X108331089Y-59195757D01*
X108941715Y-59752704D01*
X109607768Y-60382024D01*
X110301338Y-61056073D01*
X110994517Y-61747204D01*
X111659395Y-62427772D01*
X112268062Y-63070132D01*
X112792609Y-63646639D01*
X113007811Y-63893600D01*
X114745977Y-66053373D01*
X116342364Y-68300659D01*
X117794989Y-70628302D01*
X119101870Y-73029149D01*
X120261026Y-75496045D01*
X121270473Y-78021837D01*
X122128231Y-80599371D01*
X122832316Y-83221492D01*
X123380746Y-85881047D01*
X123771539Y-88570882D01*
X124002713Y-91283842D01*
X124072285Y-94012774D01*
X123978274Y-96750523D01*
X123718698Y-99489935D01*
X123423699Y-101485600D01*
X122873433Y-104214395D01*
X122163556Y-106892036D01*
X121297673Y-109512257D01*
X120279385Y-112068794D01*
X119112296Y-114555382D01*
X117800007Y-116965757D01*
X116346121Y-119293654D01*
X114754242Y-121532808D01*
X113027971Y-123676956D01*
X111170912Y-125719832D01*
X109186666Y-127655171D01*
X107549800Y-129088710D01*
X105404004Y-130770983D01*
X103160600Y-132318749D01*
X100828605Y-133728775D01*
X98417037Y-134997829D01*
X95934913Y-136122678D01*
X93391250Y-137100090D01*
X90795064Y-137926832D01*
X88155375Y-138599672D01*
X85481197Y-139115377D01*
X82781550Y-139470715D01*
X80065449Y-139662453D01*
X77958800Y-139696498D01*
X77406360Y-139691118D01*
X76887310Y-139684050D01*
X76434561Y-139675898D01*
X76081021Y-139667265D01*
X75859598Y-139658756D01*
X75842133Y-139657683D01*
X73661708Y-139475641D01*
X71604347Y-139225756D01*
X69635828Y-138902913D01*
X67721929Y-138501993D01*
X67079133Y-138347375D01*
X64426285Y-137602184D01*
X61832595Y-136701182D01*
X59304636Y-135649155D01*
X56848983Y-134450889D01*
X54472210Y-133111171D01*
X52180892Y-131634790D01*
X49981603Y-130026530D01*
X47880917Y-128291181D01*
X45885408Y-126433528D01*
X44001652Y-124458358D01*
X42236221Y-122370459D01*
X40595690Y-120174618D01*
X39186690Y-118037933D01*
X37788847Y-115622334D01*
X36545507Y-113141807D01*
X35457994Y-110603069D01*
X34527629Y-108012839D01*
X33755734Y-105377835D01*
X33143631Y-102704776D01*
X32692641Y-100000378D01*
X32404088Y-97271362D01*
X32279291Y-94524444D01*
X32282349Y-94315067D01*
X33951740Y-94315067D01*
X34069030Y-97015927D01*
X34352390Y-99718636D01*
X34802415Y-102417477D01*
X35419699Y-105106730D01*
X35572526Y-105676600D01*
X36361313Y-108226386D01*
X37311127Y-110728294D01*
X38419024Y-113176732D01*
X39682063Y-115566105D01*
X41097301Y-117890823D01*
X42661794Y-120145290D01*
X44258567Y-122186600D01*
X44622838Y-122609250D01*
X45085719Y-123118889D01*
X45624153Y-123692318D01*
X46215085Y-124306340D01*
X46835458Y-124937757D01*
X47462216Y-125563369D01*
X48072302Y-126159980D01*
X48642660Y-126704391D01*
X49150234Y-127173404D01*
X49571967Y-127543821D01*
X49637800Y-127598911D01*
X51856966Y-129332270D01*
X54144859Y-130911774D01*
X56499112Y-132336459D01*
X58917357Y-133605364D01*
X61397225Y-134717525D01*
X63936350Y-135671979D01*
X66532363Y-136467765D01*
X69182895Y-137103919D01*
X71885581Y-137579479D01*
X74638050Y-137893482D01*
X75037800Y-137925292D01*
X75597229Y-137957431D01*
X76285911Y-137981320D01*
X77063962Y-137996904D01*
X77891500Y-138004130D01*
X78728642Y-138002943D01*
X79535506Y-137993289D01*
X80272208Y-137975114D01*
X80898867Y-137948365D01*
X81133800Y-137933554D01*
X83874642Y-137654103D01*
X86571417Y-137213928D01*
X89218330Y-136616173D01*
X91809583Y-135863984D01*
X94339383Y-134960504D01*
X96801931Y-133908877D01*
X99191433Y-132712248D01*
X101502092Y-131373761D01*
X103728113Y-129896560D01*
X105863699Y-128283789D01*
X107903055Y-126538593D01*
X109840384Y-124664116D01*
X111669891Y-122663502D01*
X113385779Y-120539895D01*
X113516857Y-120366267D01*
X115102147Y-118116750D01*
X116536388Y-115791199D01*
X117818283Y-113392622D01*
X118946534Y-110924028D01*
X119919846Y-108388426D01*
X120736920Y-105788827D01*
X121396460Y-103128240D01*
X121763634Y-101231600D01*
X122143608Y-98526388D01*
X122354250Y-95821350D01*
X122395560Y-93116481D01*
X122267538Y-90411773D01*
X121970183Y-87707219D01*
X121503495Y-85002812D01*
X121093388Y-83179987D01*
X120369031Y-80589259D01*
X119483877Y-78044382D01*
X118442277Y-75553786D01*
X117248582Y-73125905D01*
X115907142Y-70769169D01*
X114422307Y-68492011D01*
X112798428Y-66302862D01*
X111688223Y-64951933D01*
X111191928Y-64391316D01*
X110598271Y-63753050D01*
X109939064Y-63068976D01*
X109246117Y-62370936D01*
X108551242Y-61690772D01*
X107886250Y-61060325D01*
X107282951Y-60511438D01*
X107041800Y-60301016D01*
X104914365Y-58584779D01*
X102702302Y-57012612D01*
X100412494Y-55586240D01*
X98051823Y-54307387D01*
X95627170Y-53177779D01*
X93145418Y-52199140D01*
X90613450Y-51373194D01*
X88038148Y-50701666D01*
X85426393Y-50186281D01*
X82785069Y-49828763D01*
X80121058Y-49630837D01*
X77441241Y-49594227D01*
X74752501Y-49720659D01*
X72061720Y-50011856D01*
X69375781Y-50469544D01*
X68526774Y-50649593D01*
X65908177Y-51317250D01*
X63348049Y-52141195D01*
X60852590Y-53116647D01*
X58428003Y-54238831D01*
X56080489Y-55502966D01*
X53816249Y-56904275D01*
X51641486Y-58437979D01*
X49562400Y-60099301D01*
X47585193Y-61883462D01*
X45716067Y-63785684D01*
X43961223Y-65801188D01*
X42326864Y-67925197D01*
X40819189Y-70152931D01*
X39444401Y-72479614D01*
X38920647Y-73460933D01*
X37730767Y-75941147D01*
X36702203Y-78468954D01*
X35835550Y-81038638D01*
X35131401Y-83644480D01*
X34590352Y-86280762D01*
X34212996Y-88941766D01*
X33999927Y-91621774D01*
X33951740Y-94315067D01*
X32282349Y-94315067D01*
X32319575Y-91766343D01*
X32526259Y-89003778D01*
X32900667Y-86243466D01*
X32914476Y-86160933D01*
X33457289Y-83439215D01*
X34159430Y-80769283D01*
X35017158Y-78157295D01*
X36026730Y-75609412D01*
X37184403Y-73131795D01*
X38486435Y-70730604D01*
X39929083Y-68411998D01*
X41508605Y-66182139D01*
X43221259Y-64047186D01*
X45063303Y-62013300D01*
X47030993Y-60086640D01*
X49120587Y-58273367D01*
X50526800Y-57170229D01*
X52814993Y-55550275D01*
X55178702Y-54081422D01*
X57614537Y-52764944D01*
X60119105Y-51602117D01*
X62689018Y-50594216D01*
X65320884Y-49742516D01*
X68011312Y-49048293D01*
X70756913Y-48512821D01*
X73554295Y-48137376D01*
X74859595Y-48018601D01*
X75402964Y-47986532D01*
X76078810Y-47962423D01*
X76850464Y-47946259D01*
X77681258Y-47938027D01*
X78534523Y-47937711D01*
X79373591Y-47945297D01*
G36*
X79373591Y-47945297D02*
G01*
X80161792Y-47960772D01*
X80862459Y-47984120D01*
X81438923Y-48015329D01*
X81519042Y-48021193D01*
X84325559Y-48319635D01*
X87085948Y-48780501D01*
X89796509Y-49402281D01*
X92453542Y-50183467D01*
X95053348Y-51122550D01*
X97592225Y-52218022D01*
X100066476Y-53468374D01*
X102472399Y-54872097D01*
X104806294Y-56427683D01*
X107064463Y-58133623D01*
X107803800Y-58738828D01*
X108331089Y-59195757D01*
X108941715Y-59752704D01*
X109607768Y-60382024D01*
X110301338Y-61056073D01*
X110994517Y-61747204D01*
X111659395Y-62427772D01*
X112268062Y-63070132D01*
X112792609Y-63646639D01*
X113007811Y-63893600D01*
X114745977Y-66053373D01*
X116342364Y-68300659D01*
X117794989Y-70628302D01*
X119101870Y-73029149D01*
X120261026Y-75496045D01*
X121270473Y-78021837D01*
X122128231Y-80599371D01*
X122832316Y-83221492D01*
X123380746Y-85881047D01*
X123771539Y-88570882D01*
X124002713Y-91283842D01*
X124072285Y-94012774D01*
X123978274Y-96750523D01*
X123718698Y-99489935D01*
X123423699Y-101485600D01*
X122873433Y-104214395D01*
X122163556Y-106892036D01*
X121297673Y-109512257D01*
X120279385Y-112068794D01*
X119112296Y-114555382D01*
X117800007Y-116965757D01*
X116346121Y-119293654D01*
X114754242Y-121532808D01*
X113027971Y-123676956D01*
X111170912Y-125719832D01*
X109186666Y-127655171D01*
X107549800Y-129088710D01*
X105404004Y-130770983D01*
X103160600Y-132318749D01*
X100828605Y-133728775D01*
X98417037Y-134997829D01*
X95934913Y-136122678D01*
X93391250Y-137100090D01*
X90795064Y-137926832D01*
X88155375Y-138599672D01*
X85481197Y-139115377D01*
X82781550Y-139470715D01*
X80065449Y-139662453D01*
X77958800Y-139696498D01*
X77406360Y-139691118D01*
X76887310Y-139684050D01*
X76434561Y-139675898D01*
X76081021Y-139667265D01*
X75859598Y-139658756D01*
X75842133Y-139657683D01*
X73661708Y-139475641D01*
X71604347Y-139225756D01*
X69635828Y-138902913D01*
X67721929Y-138501993D01*
X67079133Y-138347375D01*
X64426285Y-137602184D01*
X61832595Y-136701182D01*
X59304636Y-135649155D01*
X56848983Y-134450889D01*
X54472210Y-133111171D01*
X52180892Y-131634790D01*
X49981603Y-130026530D01*
X47880917Y-128291181D01*
X45885408Y-126433528D01*
X44001652Y-124458358D01*
X42236221Y-122370459D01*
X40595690Y-120174618D01*
X39186690Y-118037933D01*
X37788847Y-115622334D01*
X36545507Y-113141807D01*
X35457994Y-110603069D01*
X34527629Y-108012839D01*
X33755734Y-105377835D01*
X33143631Y-102704776D01*
X32692641Y-100000378D01*
X32404088Y-97271362D01*
X32279291Y-94524444D01*
X32282349Y-94315067D01*
X33951740Y-94315067D01*
X34069030Y-97015927D01*
X34352390Y-99718636D01*
X34802415Y-102417477D01*
X35419699Y-105106730D01*
X35572526Y-105676600D01*
X36361313Y-108226386D01*
X37311127Y-110728294D01*
X38419024Y-113176732D01*
X39682063Y-115566105D01*
X41097301Y-117890823D01*
X42661794Y-120145290D01*
X44258567Y-122186600D01*
X44622838Y-122609250D01*
X45085719Y-123118889D01*
X45624153Y-123692318D01*
X46215085Y-124306340D01*
X46835458Y-124937757D01*
X47462216Y-125563369D01*
X48072302Y-126159980D01*
X48642660Y-126704391D01*
X49150234Y-127173404D01*
X49571967Y-127543821D01*
X49637800Y-127598911D01*
X51856966Y-129332270D01*
X54144859Y-130911774D01*
X56499112Y-132336459D01*
X58917357Y-133605364D01*
X61397225Y-134717525D01*
X63936350Y-135671979D01*
X66532363Y-136467765D01*
X69182895Y-137103919D01*
X71885581Y-137579479D01*
X74638050Y-137893482D01*
X75037800Y-137925292D01*
X75597229Y-137957431D01*
X76285911Y-137981320D01*
X77063962Y-137996904D01*
X77891500Y-138004130D01*
X78728642Y-138002943D01*
X79535506Y-137993289D01*
X80272208Y-137975114D01*
X80898867Y-137948365D01*
X81133800Y-137933554D01*
X83874642Y-137654103D01*
X86571417Y-137213928D01*
X89218330Y-136616173D01*
X91809583Y-135863984D01*
X94339383Y-134960504D01*
X96801931Y-133908877D01*
X99191433Y-132712248D01*
X101502092Y-131373761D01*
X103728113Y-129896560D01*
X105863699Y-128283789D01*
X107903055Y-126538593D01*
X109840384Y-124664116D01*
X111669891Y-122663502D01*
X113385779Y-120539895D01*
X113516857Y-120366267D01*
X115102147Y-118116750D01*
X116536388Y-115791199D01*
X117818283Y-113392622D01*
X118946534Y-110924028D01*
X119919846Y-108388426D01*
X120736920Y-105788827D01*
X121396460Y-103128240D01*
X121763634Y-101231600D01*
X122143608Y-98526388D01*
X122354250Y-95821350D01*
X122395560Y-93116481D01*
X122267538Y-90411773D01*
X121970183Y-87707219D01*
X121503495Y-85002812D01*
X121093388Y-83179987D01*
X120369031Y-80589259D01*
X119483877Y-78044382D01*
X118442277Y-75553786D01*
X117248582Y-73125905D01*
X115907142Y-70769169D01*
X114422307Y-68492011D01*
X112798428Y-66302862D01*
X111688223Y-64951933D01*
X111191928Y-64391316D01*
X110598271Y-63753050D01*
X109939064Y-63068976D01*
X109246117Y-62370936D01*
X108551242Y-61690772D01*
X107886250Y-61060325D01*
X107282951Y-60511438D01*
X107041800Y-60301016D01*
X104914365Y-58584779D01*
X102702302Y-57012612D01*
X100412494Y-55586240D01*
X98051823Y-54307387D01*
X95627170Y-53177779D01*
X93145418Y-52199140D01*
X90613450Y-51373194D01*
X88038148Y-50701666D01*
X85426393Y-50186281D01*
X82785069Y-49828763D01*
X80121058Y-49630837D01*
X77441241Y-49594227D01*
X74752501Y-49720659D01*
X72061720Y-50011856D01*
X69375781Y-50469544D01*
X68526774Y-50649593D01*
X65908177Y-51317250D01*
X63348049Y-52141195D01*
X60852590Y-53116647D01*
X58428003Y-54238831D01*
X56080489Y-55502966D01*
X53816249Y-56904275D01*
X51641486Y-58437979D01*
X49562400Y-60099301D01*
X47585193Y-61883462D01*
X45716067Y-63785684D01*
X43961223Y-65801188D01*
X42326864Y-67925197D01*
X40819189Y-70152931D01*
X39444401Y-72479614D01*
X38920647Y-73460933D01*
X37730767Y-75941147D01*
X36702203Y-78468954D01*
X35835550Y-81038638D01*
X35131401Y-83644480D01*
X34590352Y-86280762D01*
X34212996Y-88941766D01*
X33999927Y-91621774D01*
X33951740Y-94315067D01*
X32282349Y-94315067D01*
X32319575Y-91766343D01*
X32526259Y-89003778D01*
X32900667Y-86243466D01*
X32914476Y-86160933D01*
X33457289Y-83439215D01*
X34159430Y-80769283D01*
X35017158Y-78157295D01*
X36026730Y-75609412D01*
X37184403Y-73131795D01*
X38486435Y-70730604D01*
X39929083Y-68411998D01*
X41508605Y-66182139D01*
X43221259Y-64047186D01*
X45063303Y-62013300D01*
X47030993Y-60086640D01*
X49120587Y-58273367D01*
X50526800Y-57170229D01*
X52814993Y-55550275D01*
X55178702Y-54081422D01*
X57614537Y-52764944D01*
X60119105Y-51602117D01*
X62689018Y-50594216D01*
X65320884Y-49742516D01*
X68011312Y-49048293D01*
X70756913Y-48512821D01*
X73554295Y-48137376D01*
X74859595Y-48018601D01*
X75402964Y-47986532D01*
X76078810Y-47962423D01*
X76850464Y-47946259D01*
X77681258Y-47938027D01*
X78534523Y-47937711D01*
X79373591Y-47945297D01*
G37*
D10*
%TO.C,D4*%
X56660000Y-118205000D02*
X56660000Y-121295000D01*
X62209999Y-119750462D02*
G75*
G03*
X56660001Y-118205170I-2989999J462D01*
G01*
X56660000Y-121294830D02*
G75*
G03*
X62210000Y-119749538I2560000J1544830D01*
G01*
X61720000Y-119750000D02*
G75*
G03*
X61720000Y-119750000I-2500000J0D01*
G01*
%TO.C,D5*%
X51885000Y-113380000D02*
X51885000Y-116470000D01*
X57434999Y-114925462D02*
G75*
G03*
X51885001Y-113380170I-2989999J462D01*
G01*
X51885000Y-116469830D02*
G75*
G03*
X57435000Y-114924538I2560000J1544830D01*
G01*
X56945000Y-114925000D02*
G75*
G03*
X56945000Y-114925000I-2500000J0D01*
G01*
%TO.C,D33*%
X90710000Y-121905000D02*
X90710000Y-124995000D01*
X96259999Y-123450462D02*
G75*
G03*
X90710001Y-121905170I-2989999J462D01*
G01*
X90710000Y-124994830D02*
G75*
G03*
X96260000Y-123449538I2560000J1544830D01*
G01*
X95770000Y-123450000D02*
G75*
G03*
X95770000Y-123450000I-2500000J0D01*
G01*
%TO.C,D55*%
X101110000Y-113430000D02*
X101110000Y-116520000D01*
X106659999Y-114975462D02*
G75*
G03*
X101110001Y-113430170I-2989999J462D01*
G01*
X101110000Y-116519830D02*
G75*
G03*
X106660000Y-114974538I2560000J1544830D01*
G01*
X106170000Y-114975000D02*
G75*
G03*
X106170000Y-114975000I-2500000J0D01*
G01*
%TO.C,D77*%
X108460000Y-101705000D02*
X108460000Y-104795000D01*
X114009999Y-103250462D02*
G75*
G03*
X108460001Y-101705170I-2989999J462D01*
G01*
X108460000Y-104794830D02*
G75*
G03*
X114010000Y-103249538I2560000J1544830D01*
G01*
X113520000Y-103250000D02*
G75*
G03*
X113520000Y-103250000I-2500000J0D01*
G01*
%TO.C,D66*%
X105185000Y-107580000D02*
X105185000Y-110670000D01*
X110734999Y-109125462D02*
G75*
G03*
X105185001Y-107580170I-2989999J462D01*
G01*
X105185000Y-110669830D02*
G75*
G03*
X110735000Y-109124538I2560000J1544830D01*
G01*
X110245000Y-109125000D02*
G75*
G03*
X110245000Y-109125000I-2500000J0D01*
G01*
%TO.C,D6*%
X47885000Y-107555000D02*
X47885000Y-110645000D01*
X53434999Y-109100462D02*
G75*
G03*
X47885001Y-107555170I-2989999J462D01*
G01*
X47885000Y-110644830D02*
G75*
G03*
X53435000Y-109099538I2560000J1544830D01*
G01*
X52945000Y-109100000D02*
G75*
G03*
X52945000Y-109100000I-2500000J0D01*
G01*
%TO.C,D22*%
X84085000Y-124230000D02*
X84085000Y-127320000D01*
X89634999Y-125775462D02*
G75*
G03*
X84085001Y-124230170I-2989999J462D01*
G01*
X84085000Y-127319830D02*
G75*
G03*
X89635000Y-125774538I2560000J1544830D01*
G01*
X89145000Y-125775000D02*
G75*
G03*
X89145000Y-125775000I-2500000J0D01*
G01*
%TO.C,D7*%
X44635000Y-101655000D02*
X44635000Y-104745000D01*
X50184999Y-103200462D02*
G75*
G03*
X44635001Y-101655170I-2989999J462D01*
G01*
X44635000Y-104744830D02*
G75*
G03*
X50185000Y-103199538I2560000J1544830D01*
G01*
X49695000Y-103200000D02*
G75*
G03*
X49695000Y-103200000I-2500000J0D01*
G01*
%TO.C,D8*%
X64910000Y-77180000D02*
X64910000Y-80270000D01*
X70459999Y-78725462D02*
G75*
G03*
X64910001Y-77180170I-2989999J462D01*
G01*
X64910000Y-80269830D02*
G75*
G03*
X70460000Y-78724538I2560000J1544830D01*
G01*
X69970000Y-78725000D02*
G75*
G03*
X69970000Y-78725000I-2500000J0D01*
G01*
%TO.C,D2*%
X68975000Y-124205000D02*
X68975000Y-127295000D01*
X74524999Y-125750462D02*
G75*
G03*
X68975001Y-124205170I-2989999J462D01*
G01*
X68975000Y-127294830D02*
G75*
G03*
X74525000Y-125749538I2560000J1544830D01*
G01*
X74035000Y-125750000D02*
G75*
G03*
X74035000Y-125750000I-2500000J0D01*
G01*
%TO.C,D88*%
X94435000Y-77130000D02*
X94435000Y-80220000D01*
X99984999Y-78675462D02*
G75*
G03*
X94435001Y-77130170I-2989999J462D01*
G01*
X94435000Y-80219830D02*
G75*
G03*
X99985000Y-78674538I2560000J1544830D01*
G01*
X99495000Y-78675000D02*
G75*
G03*
X99495000Y-78675000I-2500000J0D01*
G01*
%TO.C,D1*%
X76560000Y-125155000D02*
X76560000Y-128245000D01*
X82109999Y-126700462D02*
G75*
G03*
X76560001Y-125155170I-2989999J462D01*
G01*
X76560000Y-128244830D02*
G75*
G03*
X82110000Y-126699538I2560000J1544830D01*
G01*
X81620000Y-126700000D02*
G75*
G03*
X81620000Y-126700000I-2500000J0D01*
G01*
%TO.C,D44*%
X96385000Y-118255000D02*
X96385000Y-121345000D01*
X101934999Y-119800462D02*
G75*
G03*
X96385001Y-118255170I-2989999J462D01*
G01*
X96385000Y-121344830D02*
G75*
G03*
X101935000Y-119799538I2560000J1544830D01*
G01*
X101445000Y-119800000D02*
G75*
G03*
X101445000Y-119800000I-2500000J0D01*
G01*
%TD*%
M02*
