%TF.GenerationSoftware,KiCad,Pcbnew,7.0.8*%
%TF.CreationDate,2024-08-08T21:43:19+02:00*%
%TF.ProjectId,Smiley V8,536d696c-6579-4205-9638-2e6b69636164,rev?*%
%TF.SameCoordinates,Original*%
%TF.FileFunction,Copper,L2,Bot*%
%TF.FilePolarity,Positive*%
%FSLAX46Y46*%
G04 Gerber Fmt 4.6, Leading zero omitted, Abs format (unit mm)*
G04 Created by KiCad (PCBNEW 7.0.8) date 2024-08-08 21:43:19*
%MOMM*%
%LPD*%
G01*
G04 APERTURE LIST*
%ADD10C,0.200000*%
%TA.AperFunction,NonConductor*%
%ADD11C,0.200000*%
%TD*%
%TA.AperFunction,ComponentPad*%
%ADD12R,1.800000X1.800000*%
%TD*%
%TA.AperFunction,ComponentPad*%
%ADD13C,1.800000*%
%TD*%
%TA.AperFunction,SMDPad,CuDef*%
%ADD14C,3.000000*%
%TD*%
%TA.AperFunction,ComponentPad*%
%ADD15R,1.600000X1.600000*%
%TD*%
%TA.AperFunction,ComponentPad*%
%ADD16C,1.600000*%
%TD*%
%TA.AperFunction,ComponentPad*%
%ADD17O,1.600000X1.600000*%
%TD*%
%TA.AperFunction,SMDPad,CuDef*%
%ADD18R,5.000000X2.000000*%
%TD*%
%TA.AperFunction,SMDPad,CuDef*%
%ADD19C,17.780000*%
%TD*%
%TA.AperFunction,ComponentPad*%
%ADD20C,2.000000*%
%TD*%
%TA.AperFunction,SMDPad,CuDef*%
%ADD21C,10.000000*%
%TD*%
%TA.AperFunction,Conductor*%
%ADD22C,0.250000*%
%TD*%
G04 APERTURE END LIST*
D10*
D11*
X85411279Y-112806028D02*
X85411279Y-111306028D01*
X84554136Y-112806028D02*
X85196993Y-111948885D01*
X84554136Y-111306028D02*
X85411279Y-112163171D01*
X83911279Y-112806028D02*
X83911279Y-111306028D01*
X83911279Y-112020314D02*
X83054136Y-112020314D01*
X83054136Y-112806028D02*
X83054136Y-111306028D01*
X81839850Y-112020314D02*
X82339850Y-112020314D01*
X82339850Y-112806028D02*
X82339850Y-111306028D01*
X82339850Y-111306028D02*
X81625564Y-111306028D01*
X79625564Y-111306028D02*
X79482707Y-111306028D01*
X79482707Y-111306028D02*
X79339850Y-111377457D01*
X79339850Y-111377457D02*
X79268422Y-111448885D01*
X79268422Y-111448885D02*
X79196993Y-111591742D01*
X79196993Y-111591742D02*
X79125564Y-111877457D01*
X79125564Y-111877457D02*
X79125564Y-112234600D01*
X79125564Y-112234600D02*
X79196993Y-112520314D01*
X79196993Y-112520314D02*
X79268422Y-112663171D01*
X79268422Y-112663171D02*
X79339850Y-112734600D01*
X79339850Y-112734600D02*
X79482707Y-112806028D01*
X79482707Y-112806028D02*
X79625564Y-112806028D01*
X79625564Y-112806028D02*
X79768422Y-112734600D01*
X79768422Y-112734600D02*
X79839850Y-112663171D01*
X79839850Y-112663171D02*
X79911279Y-112520314D01*
X79911279Y-112520314D02*
X79982707Y-112234600D01*
X79982707Y-112234600D02*
X79982707Y-111877457D01*
X79982707Y-111877457D02*
X79911279Y-111591742D01*
X79911279Y-111591742D02*
X79839850Y-111448885D01*
X79839850Y-111448885D02*
X79768422Y-111377457D01*
X79768422Y-111377457D02*
X79625564Y-111306028D01*
X78268422Y-111948885D02*
X78411279Y-111877457D01*
X78411279Y-111877457D02*
X78482708Y-111806028D01*
X78482708Y-111806028D02*
X78554136Y-111663171D01*
X78554136Y-111663171D02*
X78554136Y-111591742D01*
X78554136Y-111591742D02*
X78482708Y-111448885D01*
X78482708Y-111448885D02*
X78411279Y-111377457D01*
X78411279Y-111377457D02*
X78268422Y-111306028D01*
X78268422Y-111306028D02*
X77982708Y-111306028D01*
X77982708Y-111306028D02*
X77839851Y-111377457D01*
X77839851Y-111377457D02*
X77768422Y-111448885D01*
X77768422Y-111448885D02*
X77696993Y-111591742D01*
X77696993Y-111591742D02*
X77696993Y-111663171D01*
X77696993Y-111663171D02*
X77768422Y-111806028D01*
X77768422Y-111806028D02*
X77839851Y-111877457D01*
X77839851Y-111877457D02*
X77982708Y-111948885D01*
X77982708Y-111948885D02*
X78268422Y-111948885D01*
X78268422Y-111948885D02*
X78411279Y-112020314D01*
X78411279Y-112020314D02*
X78482708Y-112091742D01*
X78482708Y-112091742D02*
X78554136Y-112234600D01*
X78554136Y-112234600D02*
X78554136Y-112520314D01*
X78554136Y-112520314D02*
X78482708Y-112663171D01*
X78482708Y-112663171D02*
X78411279Y-112734600D01*
X78411279Y-112734600D02*
X78268422Y-112806028D01*
X78268422Y-112806028D02*
X77982708Y-112806028D01*
X77982708Y-112806028D02*
X77839851Y-112734600D01*
X77839851Y-112734600D02*
X77768422Y-112663171D01*
X77768422Y-112663171D02*
X77696993Y-112520314D01*
X77696993Y-112520314D02*
X77696993Y-112234600D01*
X77696993Y-112234600D02*
X77768422Y-112091742D01*
X77768422Y-112091742D02*
X77839851Y-112020314D01*
X77839851Y-112020314D02*
X77982708Y-111948885D01*
X77054137Y-112663171D02*
X76982708Y-112734600D01*
X76982708Y-112734600D02*
X77054137Y-112806028D01*
X77054137Y-112806028D02*
X77125565Y-112734600D01*
X77125565Y-112734600D02*
X77054137Y-112663171D01*
X77054137Y-112663171D02*
X77054137Y-112806028D01*
X76411279Y-111448885D02*
X76339851Y-111377457D01*
X76339851Y-111377457D02*
X76196994Y-111306028D01*
X76196994Y-111306028D02*
X75839851Y-111306028D01*
X75839851Y-111306028D02*
X75696994Y-111377457D01*
X75696994Y-111377457D02*
X75625565Y-111448885D01*
X75625565Y-111448885D02*
X75554136Y-111591742D01*
X75554136Y-111591742D02*
X75554136Y-111734600D01*
X75554136Y-111734600D02*
X75625565Y-111948885D01*
X75625565Y-111948885D02*
X76482708Y-112806028D01*
X76482708Y-112806028D02*
X75554136Y-112806028D01*
X74625565Y-111306028D02*
X74482708Y-111306028D01*
X74482708Y-111306028D02*
X74339851Y-111377457D01*
X74339851Y-111377457D02*
X74268423Y-111448885D01*
X74268423Y-111448885D02*
X74196994Y-111591742D01*
X74196994Y-111591742D02*
X74125565Y-111877457D01*
X74125565Y-111877457D02*
X74125565Y-112234600D01*
X74125565Y-112234600D02*
X74196994Y-112520314D01*
X74196994Y-112520314D02*
X74268423Y-112663171D01*
X74268423Y-112663171D02*
X74339851Y-112734600D01*
X74339851Y-112734600D02*
X74482708Y-112806028D01*
X74482708Y-112806028D02*
X74625565Y-112806028D01*
X74625565Y-112806028D02*
X74768423Y-112734600D01*
X74768423Y-112734600D02*
X74839851Y-112663171D01*
X74839851Y-112663171D02*
X74911280Y-112520314D01*
X74911280Y-112520314D02*
X74982708Y-112234600D01*
X74982708Y-112234600D02*
X74982708Y-111877457D01*
X74982708Y-111877457D02*
X74911280Y-111591742D01*
X74911280Y-111591742D02*
X74839851Y-111448885D01*
X74839851Y-111448885D02*
X74768423Y-111377457D01*
X74768423Y-111377457D02*
X74625565Y-111306028D01*
X73554137Y-111448885D02*
X73482709Y-111377457D01*
X73482709Y-111377457D02*
X73339852Y-111306028D01*
X73339852Y-111306028D02*
X72982709Y-111306028D01*
X72982709Y-111306028D02*
X72839852Y-111377457D01*
X72839852Y-111377457D02*
X72768423Y-111448885D01*
X72768423Y-111448885D02*
X72696994Y-111591742D01*
X72696994Y-111591742D02*
X72696994Y-111734600D01*
X72696994Y-111734600D02*
X72768423Y-111948885D01*
X72768423Y-111948885D02*
X73625566Y-112806028D01*
X73625566Y-112806028D02*
X72696994Y-112806028D01*
X71411281Y-111806028D02*
X71411281Y-112806028D01*
X71768423Y-111234600D02*
X72125566Y-112306028D01*
X72125566Y-112306028D02*
X71196995Y-112306028D01*
D12*
%TO.P,D3,1,K*%
%TO.N,Net-(D1-K)*%
X63600000Y-123400000D03*
D13*
%TO.P,D3,2,A*%
%TO.N,Net-(D3-A)*%
X66140000Y-123400000D03*
%TD*%
D12*
%TO.P,D4,1,K*%
%TO.N,Net-(D1-K)*%
X57950000Y-119750000D03*
D13*
%TO.P,D4,2,A*%
%TO.N,Net-(D4-A)*%
X60490000Y-119750000D03*
%TD*%
D12*
%TO.P,D5,1,K*%
%TO.N,Net-(D1-K)*%
X53175000Y-114925000D03*
D13*
%TO.P,D5,2,A*%
%TO.N,Net-(D5-A)*%
X55715000Y-114925000D03*
%TD*%
D12*
%TO.P,D33,1,K*%
%TO.N,Net-(D1-K)*%
X92000000Y-123450000D03*
D13*
%TO.P,D33,2,A*%
%TO.N,Net-(D3-A)*%
X94540000Y-123450000D03*
%TD*%
D12*
%TO.P,D55,1,K*%
%TO.N,Net-(D1-K)*%
X102400000Y-114975000D03*
D13*
%TO.P,D55,2,A*%
%TO.N,Net-(D5-A)*%
X104940000Y-114975000D03*
%TD*%
D12*
%TO.P,D77,1,K*%
%TO.N,Net-(D1-K)*%
X109750000Y-103250000D03*
D13*
%TO.P,D77,2,A*%
%TO.N,Net-(D7-A)*%
X112290000Y-103250000D03*
%TD*%
D12*
%TO.P,D66,1,K*%
%TO.N,Net-(D1-K)*%
X106475000Y-109125000D03*
D13*
%TO.P,D66,2,A*%
%TO.N,Net-(D6-A)*%
X109015000Y-109125000D03*
%TD*%
D12*
%TO.P,D6,1,K*%
%TO.N,Net-(D1-K)*%
X49175000Y-109100000D03*
D13*
%TO.P,D6,2,A*%
%TO.N,Net-(D6-A)*%
X51715000Y-109100000D03*
%TD*%
D12*
%TO.P,D22,1,K*%
%TO.N,Net-(D1-K)*%
X85375000Y-125775000D03*
D13*
%TO.P,D22,2,A*%
%TO.N,Net-(D2-A)*%
X87915000Y-125775000D03*
%TD*%
D12*
%TO.P,D7,1,K*%
%TO.N,Net-(D1-K)*%
X45925000Y-103200000D03*
D13*
%TO.P,D7,2,A*%
%TO.N,Net-(D7-A)*%
X48465000Y-103200000D03*
%TD*%
D14*
%TO.P,,1*%
%TO.N,Net-(U3-GND)*%
X93025000Y-94350000D03*
%TD*%
%TO.P,,1*%
%TO.N,Net-(D1-A)*%
X54325000Y-77950000D03*
%TD*%
D12*
%TO.P,D8,1,K*%
%TO.N,Net-(D8-K)*%
X66200000Y-78725000D03*
D13*
%TO.P,D8,2,A*%
%TO.N,Net-(D8-A)*%
X68740000Y-78725000D03*
%TD*%
D12*
%TO.P,D2,1,K*%
%TO.N,Net-(D1-K)*%
X70265000Y-125750000D03*
D13*
%TO.P,D2,2,A*%
%TO.N,Net-(D2-A)*%
X72805000Y-125750000D03*
%TD*%
D12*
%TO.P,D88,1,K*%
%TO.N,Net-(D8-K)*%
X95725000Y-78675000D03*
D13*
%TO.P,D88,2,A*%
%TO.N,Net-(D8-A)*%
X98265000Y-78675000D03*
%TD*%
D12*
%TO.P,D1,1,K*%
%TO.N,Net-(D1-K)*%
X77850000Y-126700000D03*
D13*
%TO.P,D1,2,A*%
%TO.N,Net-(D1-A)*%
X80390000Y-126700000D03*
%TD*%
D12*
%TO.P,D44,1,K*%
%TO.N,Net-(D1-K)*%
X97675000Y-119800000D03*
D13*
%TO.P,D44,2,A*%
%TO.N,Net-(D4-A)*%
X100215000Y-119800000D03*
%TD*%
D15*
%TO.P,C1,1*%
%TO.N,unconnected-(C1-Pad1)*%
X101950000Y-94200000D03*
D16*
%TO.P,C1,2*%
%TO.N,Net-(U3-GND)*%
X99450000Y-94200000D03*
%TD*%
D15*
%TO.P,U3,1,GND*%
%TO.N,Net-(U3-GND)*%
X109650000Y-89775000D03*
D17*
%TO.P,U3,2,TR*%
%TO.N,unconnected-(C1-Pad1)*%
X109650000Y-87235000D03*
%TO.P,U3,3,Q*%
%TO.N,Net-(D8-A)*%
X109650000Y-84695000D03*
%TO.P,U3,4,R*%
%TO.N,Net-(U3-R)*%
X109650000Y-82155000D03*
%TO.P,U3,5,CV*%
%TO.N,unconnected-(U3-CV-Pad5)*%
X117270000Y-82155000D03*
%TO.P,U3,6,THR*%
%TO.N,unconnected-(C1-Pad1)*%
X117270000Y-84695000D03*
%TO.P,U3,7,DIS*%
%TO.N,Net-(U3-DIS)*%
X117270000Y-87235000D03*
%TO.P,U3,8,VCC*%
%TO.N,Net-(U3-R)*%
X117270000Y-89775000D03*
%TD*%
D18*
%TO.P,U2,*%
%TO.N,Net-(U1-Pad2)*%
X74669000Y-66331000D03*
X74669000Y-62775000D03*
%TO.P,U2,1*%
%TO.N,N/C*%
X48775000Y-66331000D03*
X48775000Y-62775000D03*
D19*
%TO.P,U2,2*%
%TO.N,Net-(U3-GND)*%
X61715000Y-64299000D03*
%TD*%
D18*
%TO.P,U1,*%
%TO.N,*%
X82056000Y-62800000D03*
X82056000Y-66356000D03*
%TO.P,U1,1*%
%TO.N,Net-(S1-E)*%
X107950000Y-62800000D03*
X107950000Y-66356000D03*
D19*
%TO.P,U1,2*%
%TO.N,Net-(U1-Pad2)*%
X95010000Y-64832000D03*
%TD*%
D20*
%TO.P,S1,1,A*%
%TO.N,Net-(U3-R)*%
X112825000Y-113700000D03*
%TO.P,S1,2,E*%
%TO.N,Net-(S1-E)*%
X112825000Y-116240000D03*
%TO.P,S1,3,A*%
X112825000Y-118780000D03*
%TD*%
D16*
%TO.P,R1,1*%
%TO.N,Net-(U3-R)*%
X109455000Y-76825000D03*
D17*
%TO.P,R1,2*%
%TO.N,Net-(U3-DIS)*%
X117075000Y-76825000D03*
%TD*%
D14*
%TO.P,LP,1*%
%TO.N,Net-(D8-A)*%
X104500000Y-84700000D03*
%TD*%
D21*
%TO.P,LP,1*%
%TO.N,N/C*%
X78400000Y-52700000D03*
%TD*%
D20*
%TO.P,R2,1*%
%TO.N,Net-(U3-DIS)*%
X120555000Y-99025000D03*
%TO.P,R2,2*%
%TO.N,unconnected-(C1-Pad1)*%
X115475000Y-99025000D03*
%TO.P,R2,3*%
X118015000Y-105121000D03*
%TD*%
D16*
%TO.P,R3,1*%
%TO.N,Net-(D8-K)*%
X76275000Y-85350000D03*
D17*
%TO.P,R3,2*%
%TO.N,Net-(U3-GND)*%
X76275000Y-92970000D03*
%TD*%
D15*
%TO.P,CD4017,1,Q5*%
%TO.N,Net-(D6-A)*%
X48770000Y-72750000D03*
D17*
%TO.P,CD4017,2,Q1*%
%TO.N,Net-(D2-A)*%
X48770000Y-75290000D03*
%TO.P,CD4017,3,Q0*%
%TO.N,Net-(D1-A)*%
X48770000Y-77830000D03*
%TO.P,CD4017,4,Q2*%
%TO.N,Net-(D3-A)*%
X48770000Y-80370000D03*
%TO.P,CD4017,5,Q6*%
%TO.N,Net-(D7-A)*%
X48770000Y-82910000D03*
%TO.P,CD4017,6,Q7*%
%TO.N,unconnected-(U4-Q7-Pad6)*%
X48770000Y-85450000D03*
%TO.P,CD4017,7,Q3*%
%TO.N,Net-(D4-A)*%
X48770000Y-87990000D03*
%TO.P,CD4017,8,VSS*%
%TO.N,Net-(U3-GND)*%
X48770000Y-90530000D03*
%TO.P,CD4017,9,Q8*%
%TO.N,unconnected-(U4-Q8-Pad9)*%
X41150000Y-90530000D03*
%TO.P,CD4017,10,Q4*%
%TO.N,Net-(D5-A)*%
X41150000Y-87990000D03*
%TO.P,CD4017,11,Q9*%
%TO.N,unconnected-(U4-Q9-Pad11)*%
X41150000Y-85450000D03*
%TO.P,CD4017,12,Cout*%
%TO.N,unconnected-(U4-Cout-Pad12)*%
X41150000Y-82910000D03*
%TO.P,CD4017,13,CKEN*%
%TO.N,Net-(U3-GND)*%
X41150000Y-80370000D03*
%TO.P,CD4017,14,CLK*%
%TO.N,Net-(D8-A)*%
X41150000Y-77830000D03*
%TO.P,CD4017,15,Reset*%
%TO.N,unconnected-(U4-Q7-Pad6)*%
X41150000Y-75290000D03*
%TO.P,CD4017,16,VDD*%
%TO.N,Net-(U3-R)*%
X41150000Y-72750000D03*
%TD*%
D16*
%TO.P,R4,1*%
%TO.N,Net-(D1-K)*%
X81025000Y-85350000D03*
D17*
%TO.P,R4,2*%
%TO.N,Net-(U3-GND)*%
X81025000Y-92970000D03*
%TD*%
D22*
%TO.N,unconnected-(C1-Pad1)*%
X117270000Y-84695000D02*
X115955000Y-84695000D01*
X113415000Y-87235000D02*
X111835000Y-87235000D01*
X118015000Y-101565000D02*
X115475000Y-99025000D01*
X114200000Y-98100000D02*
X114550000Y-98100000D01*
X109650000Y-87235000D02*
X111835000Y-87235000D01*
X109650000Y-87235000D02*
X104965000Y-87235000D01*
X115955000Y-84695000D02*
X113415000Y-87235000D01*
X118015000Y-105121000D02*
X118015000Y-101565000D01*
X114200000Y-89600000D02*
X114200000Y-98100000D01*
X111835000Y-87235000D02*
X114200000Y-89600000D01*
X114550000Y-98100000D02*
X115475000Y-99025000D01*
X101950000Y-90250000D02*
X101950000Y-94200000D01*
X104965000Y-87235000D02*
X101950000Y-90250000D01*
%TO.N,Net-(U3-GND)*%
X45350000Y-89050000D02*
X46830000Y-90530000D01*
X106250000Y-96200000D02*
X100400000Y-96200000D01*
X46830000Y-90530000D02*
X48770000Y-90530000D01*
X41150000Y-80370000D02*
X42820000Y-80370000D01*
X99300000Y-94350000D02*
X99450000Y-94200000D01*
X56614000Y-69400000D02*
X61715000Y-64299000D01*
X45350000Y-82900000D02*
X45350000Y-89050000D01*
X99450000Y-95250000D02*
X99450000Y-94200000D01*
X48770000Y-90530000D02*
X48770000Y-101774332D01*
X109650000Y-92800000D02*
X106250000Y-96200000D01*
X109650000Y-89775000D02*
X109650000Y-92800000D01*
X37770000Y-72330000D02*
X40700000Y-69400000D01*
X42820000Y-80370000D02*
X45350000Y-82900000D01*
X55314000Y-70700000D02*
X61715000Y-64299000D01*
X37770000Y-80370000D02*
X37770000Y-72330000D01*
X82405000Y-94350000D02*
X81025000Y-92970000D01*
X81025000Y-92970000D02*
X76275000Y-92970000D01*
X100400000Y-96200000D02*
X99450000Y-95250000D01*
X93025000Y-94350000D02*
X99300000Y-94350000D01*
X41150000Y-80370000D02*
X37770000Y-80370000D01*
X40700000Y-69400000D02*
X56614000Y-69400000D01*
X93025000Y-94350000D02*
X82405000Y-94350000D01*
%TO.N,Net-(D1-K)*%
X57950000Y-122250000D02*
X59100000Y-123400000D01*
X64100000Y-125750000D02*
X70265000Y-125750000D01*
X77850000Y-128150000D02*
X77850000Y-126700000D01*
X84350000Y-128800000D02*
X84050000Y-128800000D01*
X112250000Y-107600000D02*
X112250000Y-110700000D01*
X70265000Y-127665000D02*
X71400000Y-128800000D01*
X105950000Y-120750000D02*
X102400000Y-120750000D01*
X106475000Y-109125000D02*
X106475000Y-113550000D01*
X77200000Y-128800000D02*
X77850000Y-128150000D01*
X102400000Y-120750000D02*
X102400000Y-125800000D01*
X85375000Y-127775000D02*
X84350000Y-128800000D01*
X53175000Y-119375000D02*
X53550000Y-119750000D01*
X92000000Y-123450000D02*
X92000000Y-127850000D01*
X102400000Y-114975000D02*
X102400000Y-120750000D01*
X63600000Y-123400000D02*
X63600000Y-125250000D01*
X59100000Y-123400000D02*
X63600000Y-123400000D01*
X45925000Y-108125000D02*
X46900000Y-109100000D01*
X90450000Y-128700000D02*
X84150000Y-128700000D01*
X45925000Y-103200000D02*
X45925000Y-108125000D01*
X99525000Y-128675000D02*
X97675000Y-128675000D01*
X50125000Y-114925000D02*
X53175000Y-114925000D01*
X84050000Y-128800000D02*
X76800000Y-128800000D01*
X112250000Y-110700000D02*
X109400000Y-113550000D01*
X53550000Y-119750000D02*
X57950000Y-119750000D01*
X49175000Y-109100000D02*
X49175000Y-113975000D01*
X106475000Y-120225000D02*
X105950000Y-120750000D01*
X85375000Y-125775000D02*
X85375000Y-127775000D01*
X49175000Y-113975000D02*
X50125000Y-114925000D01*
X97675000Y-128675000D02*
X90475000Y-128675000D01*
X84150000Y-128700000D02*
X84050000Y-128800000D01*
X46900000Y-109100000D02*
X49175000Y-109100000D01*
X106475000Y-113550000D02*
X106475000Y-120225000D01*
X70265000Y-125750000D02*
X70265000Y-127665000D01*
X71400000Y-128800000D02*
X76800000Y-128800000D01*
X92000000Y-127850000D02*
X91150000Y-128700000D01*
X102400000Y-125800000D02*
X99525000Y-128675000D01*
X57950000Y-119750000D02*
X57950000Y-122250000D01*
X109750000Y-105100000D02*
X112250000Y-107600000D01*
X53175000Y-114925000D02*
X53175000Y-119375000D01*
X109750000Y-103250000D02*
X109750000Y-105100000D01*
X109400000Y-113550000D02*
X106475000Y-113550000D01*
X63600000Y-125250000D02*
X64100000Y-125750000D01*
X90475000Y-128675000D02*
X90450000Y-128700000D01*
X91150000Y-128700000D02*
X90450000Y-128700000D01*
X76800000Y-128800000D02*
X77200000Y-128800000D01*
X97675000Y-119800000D02*
X97675000Y-128675000D01*
%TO.N,Net-(D1-A)*%
X54205000Y-77830000D02*
X54325000Y-77950000D01*
X85840130Y-121249870D02*
X85840130Y-116559870D01*
X87700000Y-114700000D02*
X87700000Y-109350000D01*
X72700000Y-99450000D02*
X72700000Y-91350000D01*
X85840130Y-116559870D02*
X87700000Y-114700000D01*
X82850000Y-104500000D02*
X77750000Y-104500000D01*
X77750000Y-104500000D02*
X72700000Y-99450000D01*
X59300000Y-77950000D02*
X54325000Y-77950000D01*
X80390000Y-126700000D02*
X85840130Y-121249870D01*
X87700000Y-109350000D02*
X82850000Y-104500000D01*
X48770000Y-77830000D02*
X54205000Y-77830000D01*
X72700000Y-91350000D02*
X59300000Y-77950000D01*
%TO.N,Net-(D2-A)*%
X47060000Y-75290000D02*
X48770000Y-75290000D01*
X70321995Y-123266995D02*
X70321995Y-97971995D01*
X72805000Y-125750000D02*
X70321995Y-123266995D01*
X46450000Y-78050000D02*
X46450000Y-75900000D01*
X46450000Y-75900000D02*
X47060000Y-75290000D01*
X51450000Y-79100000D02*
X47500000Y-79100000D01*
X47500000Y-79100000D02*
X46450000Y-78050000D01*
X70321995Y-97971995D02*
X51450000Y-79100000D01*
%TO.N,Net-(D3-A)*%
X48770000Y-80370000D02*
X66140000Y-97740000D01*
X66140000Y-97740000D02*
X66140000Y-123400000D01*
%TO.N,Net-(D4-A)*%
X60490000Y-99710000D02*
X60490000Y-119750000D01*
X48770000Y-87990000D02*
X60490000Y-99710000D01*
%TO.N,Net-(D8-K)*%
X66200000Y-78725000D02*
X66200000Y-79700000D01*
X76275000Y-82325000D02*
X76275000Y-85350000D01*
X79925000Y-78675000D02*
X76275000Y-82325000D01*
X66200000Y-79700000D02*
X68825000Y-82325000D01*
X68825000Y-82325000D02*
X76275000Y-82325000D01*
X95725000Y-78675000D02*
X79925000Y-78675000D01*
%TO.N,Net-(D8-A)*%
X39700000Y-74050000D02*
X39050000Y-74700000D01*
X96490000Y-76900000D02*
X70565000Y-76900000D01*
X53900000Y-75300000D02*
X50000000Y-71400000D01*
X104505000Y-84695000D02*
X104500000Y-84700000D01*
X68740000Y-78725000D02*
X65315000Y-75300000D01*
X65315000Y-75300000D02*
X53900000Y-75300000D01*
X50000000Y-71400000D02*
X46800000Y-71400000D01*
X70565000Y-76900000D02*
X68740000Y-78725000D01*
X46800000Y-71400000D02*
X44150000Y-74050000D01*
X39050000Y-77250000D02*
X39630000Y-77830000D01*
X98265000Y-78675000D02*
X96490000Y-76900000D01*
X44150000Y-74050000D02*
X39700000Y-74050000D01*
X98475000Y-78675000D02*
X98265000Y-78675000D01*
X39630000Y-77830000D02*
X41150000Y-77830000D01*
X104500000Y-84700000D02*
X98475000Y-78675000D01*
X39050000Y-74700000D02*
X39050000Y-77250000D01*
X109650000Y-84695000D02*
X104505000Y-84695000D01*
%TO.N,Net-(U3-R)*%
X118850000Y-97860000D02*
X118850000Y-101200000D01*
X102900000Y-74400000D02*
X54350000Y-74400000D01*
X42800000Y-70850000D02*
X42800000Y-71100000D01*
X120050000Y-102400000D02*
X120050000Y-105550000D01*
X50900000Y-70800000D02*
X42850000Y-70800000D01*
X109650000Y-77020000D02*
X109455000Y-76825000D01*
X120050000Y-105550000D02*
X113950000Y-111650000D01*
X105325000Y-76825000D02*
X102900000Y-74400000D01*
X117270000Y-89775000D02*
X117270000Y-96280000D01*
X118850000Y-101200000D02*
X120050000Y-102400000D01*
X112825000Y-113700000D02*
X113950000Y-112575000D01*
X117270000Y-96280000D02*
X118850000Y-97860000D01*
X113950000Y-112575000D02*
X113950000Y-111650000D01*
X42850000Y-70800000D02*
X42800000Y-70850000D01*
X42800000Y-71100000D02*
X41150000Y-72750000D01*
X54350000Y-74250000D02*
X50900000Y-70800000D01*
X109455000Y-76825000D02*
X105325000Y-76825000D01*
X54350000Y-74400000D02*
X54350000Y-74250000D01*
X109650000Y-82155000D02*
X109650000Y-77020000D01*
%TO.N,Net-(U3-DIS)*%
X117270000Y-87235000D02*
X120555000Y-90520000D01*
X119100000Y-85950000D02*
X118555000Y-85950000D01*
X117075000Y-76825000D02*
X119100000Y-78850000D01*
X120555000Y-90520000D02*
X120555000Y-99025000D01*
X119100000Y-78850000D02*
X119100000Y-85950000D01*
X118555000Y-85950000D02*
X117270000Y-87235000D01*
%TO.N,Net-(S1-E)*%
X110556000Y-66356000D02*
X120350000Y-76150000D01*
X112825000Y-116240000D02*
X112825000Y-118780000D01*
X107950000Y-62800000D02*
X107950000Y-66356000D01*
X116410000Y-116240000D02*
X112825000Y-116240000D01*
X122750000Y-85100000D02*
X122750000Y-104400000D01*
X122750000Y-104400000D02*
X118850000Y-108300000D01*
X118850000Y-113800000D02*
X116410000Y-116240000D01*
X120350000Y-82700000D02*
X122750000Y-85100000D01*
X120350000Y-76150000D02*
X120350000Y-82700000D01*
X118850000Y-108300000D02*
X118850000Y-113800000D01*
X107950000Y-66356000D02*
X110556000Y-66356000D01*
%TO.N,Net-(U1-Pad2)*%
X89628000Y-59450000D02*
X95010000Y-64832000D01*
X74669000Y-62775000D02*
X77994000Y-59450000D01*
X74669000Y-66331000D02*
X74669000Y-62775000D01*
X77994000Y-59450000D02*
X89628000Y-59450000D01*
%TO.N,unconnected-(U4-Q7-Pad6)*%
X46350000Y-84600000D02*
X47200000Y-85450000D01*
X47200000Y-85450000D02*
X48770000Y-85450000D01*
X41150000Y-75290000D02*
X46350000Y-80490000D01*
X46350000Y-80490000D02*
X46350000Y-84600000D01*
%TD*%
M02*
