%TF.GenerationSoftware,KiCad,Pcbnew,7.0.8*%
%TF.CreationDate,2024-08-08T21:43:19+02:00*%
%TF.ProjectId,Smiley V8,536d696c-6579-4205-9638-2e6b69636164,rev?*%
%TF.SameCoordinates,Original*%
%TF.FileFunction,Soldermask,Bot*%
%TF.FilePolarity,Negative*%
%FSLAX46Y46*%
G04 Gerber Fmt 4.6, Leading zero omitted, Abs format (unit mm)*
G04 Created by KiCad (PCBNEW 7.0.8) date 2024-08-08 21:43:19*
%MOMM*%
%LPD*%
G01*
G04 APERTURE LIST*
G04 Aperture macros list*
%AMRoundRect*
0 Rectangle with rounded corners*
0 $1 Rounding radius*
0 $2 $3 $4 $5 $6 $7 $8 $9 X,Y pos of 4 corners*
0 Add a 4 corners polygon primitive as box body*
4,1,4,$2,$3,$4,$5,$6,$7,$8,$9,$2,$3,0*
0 Add four circle primitives for the rounded corners*
1,1,$1+$1,$2,$3*
1,1,$1+$1,$4,$5*
1,1,$1+$1,$6,$7*
1,1,$1+$1,$8,$9*
0 Add four rect primitives between the rounded corners*
20,1,$1+$1,$2,$3,$4,$5,0*
20,1,$1+$1,$4,$5,$6,$7,0*
20,1,$1+$1,$6,$7,$8,$9,0*
20,1,$1+$1,$8,$9,$2,$3,0*%
G04 Aperture macros list end*
%ADD10C,0.200000*%
%ADD11RoundRect,0.200000X-0.900000X-0.900000X0.900000X-0.900000X0.900000X0.900000X-0.900000X0.900000X0*%
%ADD12C,2.200000*%
%ADD13C,3.400000*%
%ADD14RoundRect,0.200000X0.800000X0.800000X-0.800000X0.800000X-0.800000X-0.800000X0.800000X-0.800000X0*%
%ADD15C,2.000000*%
%ADD16RoundRect,0.200000X-0.800000X-0.800000X0.800000X-0.800000X0.800000X0.800000X-0.800000X0.800000X0*%
%ADD17O,2.000000X2.000000*%
%ADD18RoundRect,0.200000X2.500000X1.000000X-2.500000X1.000000X-2.500000X-1.000000X2.500000X-1.000000X0*%
%ADD19C,18.180000*%
%ADD20RoundRect,0.200000X-2.500000X-1.000000X2.500000X-1.000000X2.500000X1.000000X-2.500000X1.000000X0*%
%ADD21C,2.400000*%
%ADD22C,10.400000*%
G04 APERTURE END LIST*
D10*
X85411279Y-112806028D02*
X85411279Y-111306028D01*
X84554136Y-112806028D02*
X85196993Y-111948885D01*
X84554136Y-111306028D02*
X85411279Y-112163171D01*
X83911279Y-112806028D02*
X83911279Y-111306028D01*
X83911279Y-112020314D02*
X83054136Y-112020314D01*
X83054136Y-112806028D02*
X83054136Y-111306028D01*
X81839850Y-112020314D02*
X82339850Y-112020314D01*
X82339850Y-112806028D02*
X82339850Y-111306028D01*
X82339850Y-111306028D02*
X81625564Y-111306028D01*
X79625564Y-111306028D02*
X79482707Y-111306028D01*
X79482707Y-111306028D02*
X79339850Y-111377457D01*
X79339850Y-111377457D02*
X79268422Y-111448885D01*
X79268422Y-111448885D02*
X79196993Y-111591742D01*
X79196993Y-111591742D02*
X79125564Y-111877457D01*
X79125564Y-111877457D02*
X79125564Y-112234600D01*
X79125564Y-112234600D02*
X79196993Y-112520314D01*
X79196993Y-112520314D02*
X79268422Y-112663171D01*
X79268422Y-112663171D02*
X79339850Y-112734600D01*
X79339850Y-112734600D02*
X79482707Y-112806028D01*
X79482707Y-112806028D02*
X79625564Y-112806028D01*
X79625564Y-112806028D02*
X79768422Y-112734600D01*
X79768422Y-112734600D02*
X79839850Y-112663171D01*
X79839850Y-112663171D02*
X79911279Y-112520314D01*
X79911279Y-112520314D02*
X79982707Y-112234600D01*
X79982707Y-112234600D02*
X79982707Y-111877457D01*
X79982707Y-111877457D02*
X79911279Y-111591742D01*
X79911279Y-111591742D02*
X79839850Y-111448885D01*
X79839850Y-111448885D02*
X79768422Y-111377457D01*
X79768422Y-111377457D02*
X79625564Y-111306028D01*
X78268422Y-111948885D02*
X78411279Y-111877457D01*
X78411279Y-111877457D02*
X78482708Y-111806028D01*
X78482708Y-111806028D02*
X78554136Y-111663171D01*
X78554136Y-111663171D02*
X78554136Y-111591742D01*
X78554136Y-111591742D02*
X78482708Y-111448885D01*
X78482708Y-111448885D02*
X78411279Y-111377457D01*
X78411279Y-111377457D02*
X78268422Y-111306028D01*
X78268422Y-111306028D02*
X77982708Y-111306028D01*
X77982708Y-111306028D02*
X77839851Y-111377457D01*
X77839851Y-111377457D02*
X77768422Y-111448885D01*
X77768422Y-111448885D02*
X77696993Y-111591742D01*
X77696993Y-111591742D02*
X77696993Y-111663171D01*
X77696993Y-111663171D02*
X77768422Y-111806028D01*
X77768422Y-111806028D02*
X77839851Y-111877457D01*
X77839851Y-111877457D02*
X77982708Y-111948885D01*
X77982708Y-111948885D02*
X78268422Y-111948885D01*
X78268422Y-111948885D02*
X78411279Y-112020314D01*
X78411279Y-112020314D02*
X78482708Y-112091742D01*
X78482708Y-112091742D02*
X78554136Y-112234600D01*
X78554136Y-112234600D02*
X78554136Y-112520314D01*
X78554136Y-112520314D02*
X78482708Y-112663171D01*
X78482708Y-112663171D02*
X78411279Y-112734600D01*
X78411279Y-112734600D02*
X78268422Y-112806028D01*
X78268422Y-112806028D02*
X77982708Y-112806028D01*
X77982708Y-112806028D02*
X77839851Y-112734600D01*
X77839851Y-112734600D02*
X77768422Y-112663171D01*
X77768422Y-112663171D02*
X77696993Y-112520314D01*
X77696993Y-112520314D02*
X77696993Y-112234600D01*
X77696993Y-112234600D02*
X77768422Y-112091742D01*
X77768422Y-112091742D02*
X77839851Y-112020314D01*
X77839851Y-112020314D02*
X77982708Y-111948885D01*
X77054137Y-112663171D02*
X76982708Y-112734600D01*
X76982708Y-112734600D02*
X77054137Y-112806028D01*
X77054137Y-112806028D02*
X77125565Y-112734600D01*
X77125565Y-112734600D02*
X77054137Y-112663171D01*
X77054137Y-112663171D02*
X77054137Y-112806028D01*
X76411279Y-111448885D02*
X76339851Y-111377457D01*
X76339851Y-111377457D02*
X76196994Y-111306028D01*
X76196994Y-111306028D02*
X75839851Y-111306028D01*
X75839851Y-111306028D02*
X75696994Y-111377457D01*
X75696994Y-111377457D02*
X75625565Y-111448885D01*
X75625565Y-111448885D02*
X75554136Y-111591742D01*
X75554136Y-111591742D02*
X75554136Y-111734600D01*
X75554136Y-111734600D02*
X75625565Y-111948885D01*
X75625565Y-111948885D02*
X76482708Y-112806028D01*
X76482708Y-112806028D02*
X75554136Y-112806028D01*
X74625565Y-111306028D02*
X74482708Y-111306028D01*
X74482708Y-111306028D02*
X74339851Y-111377457D01*
X74339851Y-111377457D02*
X74268423Y-111448885D01*
X74268423Y-111448885D02*
X74196994Y-111591742D01*
X74196994Y-111591742D02*
X74125565Y-111877457D01*
X74125565Y-111877457D02*
X74125565Y-112234600D01*
X74125565Y-112234600D02*
X74196994Y-112520314D01*
X74196994Y-112520314D02*
X74268423Y-112663171D01*
X74268423Y-112663171D02*
X74339851Y-112734600D01*
X74339851Y-112734600D02*
X74482708Y-112806028D01*
X74482708Y-112806028D02*
X74625565Y-112806028D01*
X74625565Y-112806028D02*
X74768423Y-112734600D01*
X74768423Y-112734600D02*
X74839851Y-112663171D01*
X74839851Y-112663171D02*
X74911280Y-112520314D01*
X74911280Y-112520314D02*
X74982708Y-112234600D01*
X74982708Y-112234600D02*
X74982708Y-111877457D01*
X74982708Y-111877457D02*
X74911280Y-111591742D01*
X74911280Y-111591742D02*
X74839851Y-111448885D01*
X74839851Y-111448885D02*
X74768423Y-111377457D01*
X74768423Y-111377457D02*
X74625565Y-111306028D01*
X73554137Y-111448885D02*
X73482709Y-111377457D01*
X73482709Y-111377457D02*
X73339852Y-111306028D01*
X73339852Y-111306028D02*
X72982709Y-111306028D01*
X72982709Y-111306028D02*
X72839852Y-111377457D01*
X72839852Y-111377457D02*
X72768423Y-111448885D01*
X72768423Y-111448885D02*
X72696994Y-111591742D01*
X72696994Y-111591742D02*
X72696994Y-111734600D01*
X72696994Y-111734600D02*
X72768423Y-111948885D01*
X72768423Y-111948885D02*
X73625566Y-112806028D01*
X73625566Y-112806028D02*
X72696994Y-112806028D01*
X71411281Y-111806028D02*
X71411281Y-112806028D01*
X71768423Y-111234600D02*
X72125566Y-112306028D01*
X72125566Y-112306028D02*
X71196995Y-112306028D01*
D11*
%TO.C,D3*%
X63600000Y-123400000D03*
D12*
X66140000Y-123400000D03*
%TD*%
D11*
%TO.C,D4*%
X57950000Y-119750000D03*
D12*
X60490000Y-119750000D03*
%TD*%
D11*
%TO.C,D5*%
X53175000Y-114925000D03*
D12*
X55715000Y-114925000D03*
%TD*%
D11*
%TO.C,D33*%
X92000000Y-123450000D03*
D12*
X94540000Y-123450000D03*
%TD*%
D11*
%TO.C,D55*%
X102400000Y-114975000D03*
D12*
X104940000Y-114975000D03*
%TD*%
D11*
%TO.C,D77*%
X109750000Y-103250000D03*
D12*
X112290000Y-103250000D03*
%TD*%
D11*
%TO.C,D66*%
X106475000Y-109125000D03*
D12*
X109015000Y-109125000D03*
%TD*%
D11*
%TO.C,D6*%
X49175000Y-109100000D03*
D12*
X51715000Y-109100000D03*
%TD*%
D11*
%TO.C,D22*%
X85375000Y-125775000D03*
D12*
X87915000Y-125775000D03*
%TD*%
D11*
%TO.C,D7*%
X45925000Y-103200000D03*
D12*
X48465000Y-103200000D03*
%TD*%
D13*
%TO.C,*%
X93025000Y-94350000D03*
%TD*%
%TO.C,*%
X54325000Y-77950000D03*
%TD*%
D11*
%TO.C,D8*%
X66200000Y-78725000D03*
D12*
X68740000Y-78725000D03*
%TD*%
D11*
%TO.C,D2*%
X70265000Y-125750000D03*
D12*
X72805000Y-125750000D03*
%TD*%
D11*
%TO.C,D88*%
X95725000Y-78675000D03*
D12*
X98265000Y-78675000D03*
%TD*%
D11*
%TO.C,D1*%
X77850000Y-126700000D03*
D12*
X80390000Y-126700000D03*
%TD*%
D11*
%TO.C,D44*%
X97675000Y-119800000D03*
D12*
X100215000Y-119800000D03*
%TD*%
D14*
%TO.C,C1*%
X101950000Y-94200000D03*
D15*
X99450000Y-94200000D03*
%TD*%
D16*
%TO.C,U3*%
X109650000Y-89775000D03*
D17*
X109650000Y-87235000D03*
X109650000Y-84695000D03*
X109650000Y-82155000D03*
X117270000Y-82155000D03*
X117270000Y-84695000D03*
X117270000Y-87235000D03*
X117270000Y-89775000D03*
%TD*%
D18*
%TO.C,U2*%
X74669000Y-66331000D03*
X74669000Y-62775000D03*
X48775000Y-66331000D03*
X48775000Y-62775000D03*
D19*
X61715000Y-64299000D03*
%TD*%
D20*
%TO.C,U1*%
X82056000Y-62800000D03*
X82056000Y-66356000D03*
X107950000Y-62800000D03*
X107950000Y-66356000D03*
D19*
X95010000Y-64832000D03*
%TD*%
D21*
%TO.C,S1*%
X112825000Y-113700000D03*
X112825000Y-116240000D03*
X112825000Y-118780000D03*
%TD*%
D15*
%TO.C,R1*%
X109455000Y-76825000D03*
D17*
X117075000Y-76825000D03*
%TD*%
D13*
%TO.C,LP*%
X104500000Y-84700000D03*
%TD*%
D22*
%TO.C,LP*%
X78400000Y-52700000D03*
%TD*%
D21*
%TO.C,R2*%
X120555000Y-99025000D03*
X115475000Y-99025000D03*
X118015000Y-105121000D03*
%TD*%
D15*
%TO.C,R3*%
X76275000Y-85350000D03*
D17*
X76275000Y-92970000D03*
%TD*%
D14*
%TO.C,CD4017*%
X48770000Y-72750000D03*
D17*
X48770000Y-75290000D03*
X48770000Y-77830000D03*
X48770000Y-80370000D03*
X48770000Y-82910000D03*
X48770000Y-85450000D03*
X48770000Y-87990000D03*
X48770000Y-90530000D03*
X41150000Y-90530000D03*
X41150000Y-87990000D03*
X41150000Y-85450000D03*
X41150000Y-82910000D03*
X41150000Y-80370000D03*
X41150000Y-77830000D03*
X41150000Y-75290000D03*
X41150000Y-72750000D03*
%TD*%
D15*
%TO.C,R4*%
X81025000Y-85350000D03*
D17*
X81025000Y-92970000D03*
%TD*%
M02*
