%TF.GenerationSoftware,KiCad,Pcbnew,7.0.8*%
%TF.CreationDate,2024-08-08T21:43:19+02:00*%
%TF.ProjectId,Smiley V8,536d696c-6579-4205-9638-2e6b69636164,rev?*%
%TF.SameCoordinates,Original*%
%TF.FileFunction,Copper,L1,Top*%
%TF.FilePolarity,Positive*%
%FSLAX46Y46*%
G04 Gerber Fmt 4.6, Leading zero omitted, Abs format (unit mm)*
G04 Created by KiCad (PCBNEW 7.0.8) date 2024-08-08 21:43:19*
%MOMM*%
%LPD*%
G01*
G04 APERTURE LIST*
%TA.AperFunction,ComponentPad*%
%ADD10R,1.800000X1.800000*%
%TD*%
%TA.AperFunction,ComponentPad*%
%ADD11C,1.800000*%
%TD*%
%TA.AperFunction,ComponentPad*%
%ADD12R,1.600000X1.600000*%
%TD*%
%TA.AperFunction,ComponentPad*%
%ADD13C,1.600000*%
%TD*%
%TA.AperFunction,ComponentPad*%
%ADD14O,1.600000X1.600000*%
%TD*%
%TA.AperFunction,ComponentPad*%
%ADD15C,2.000000*%
%TD*%
%TA.AperFunction,Conductor*%
%ADD16C,0.250000*%
%TD*%
G04 APERTURE END LIST*
D10*
%TO.P,D3,1,K*%
%TO.N,Net-(D1-K)*%
X63600000Y-123400000D03*
D11*
%TO.P,D3,2,A*%
%TO.N,Net-(D3-A)*%
X66140000Y-123400000D03*
%TD*%
D10*
%TO.P,D4,1,K*%
%TO.N,Net-(D1-K)*%
X57950000Y-119750000D03*
D11*
%TO.P,D4,2,A*%
%TO.N,Net-(D4-A)*%
X60490000Y-119750000D03*
%TD*%
D10*
%TO.P,D5,1,K*%
%TO.N,Net-(D1-K)*%
X53175000Y-114925000D03*
D11*
%TO.P,D5,2,A*%
%TO.N,Net-(D5-A)*%
X55715000Y-114925000D03*
%TD*%
D10*
%TO.P,D33,1,K*%
%TO.N,Net-(D1-K)*%
X92000000Y-123450000D03*
D11*
%TO.P,D33,2,A*%
%TO.N,Net-(D3-A)*%
X94540000Y-123450000D03*
%TD*%
D10*
%TO.P,D55,1,K*%
%TO.N,Net-(D1-K)*%
X102400000Y-114975000D03*
D11*
%TO.P,D55,2,A*%
%TO.N,Net-(D5-A)*%
X104940000Y-114975000D03*
%TD*%
D10*
%TO.P,D77,1,K*%
%TO.N,Net-(D1-K)*%
X109750000Y-103250000D03*
D11*
%TO.P,D77,2,A*%
%TO.N,Net-(D7-A)*%
X112290000Y-103250000D03*
%TD*%
D10*
%TO.P,D66,1,K*%
%TO.N,Net-(D1-K)*%
X106475000Y-109125000D03*
D11*
%TO.P,D66,2,A*%
%TO.N,Net-(D6-A)*%
X109015000Y-109125000D03*
%TD*%
D10*
%TO.P,D6,1,K*%
%TO.N,Net-(D1-K)*%
X49175000Y-109100000D03*
D11*
%TO.P,D6,2,A*%
%TO.N,Net-(D6-A)*%
X51715000Y-109100000D03*
%TD*%
D10*
%TO.P,D22,1,K*%
%TO.N,Net-(D1-K)*%
X85375000Y-125775000D03*
D11*
%TO.P,D22,2,A*%
%TO.N,Net-(D2-A)*%
X87915000Y-125775000D03*
%TD*%
D10*
%TO.P,D7,1,K*%
%TO.N,Net-(D1-K)*%
X45925000Y-103200000D03*
D11*
%TO.P,D7,2,A*%
%TO.N,Net-(D7-A)*%
X48465000Y-103200000D03*
%TD*%
D10*
%TO.P,D8,1,K*%
%TO.N,Net-(D8-K)*%
X66200000Y-78725000D03*
D11*
%TO.P,D8,2,A*%
%TO.N,Net-(D8-A)*%
X68740000Y-78725000D03*
%TD*%
D10*
%TO.P,D2,1,K*%
%TO.N,Net-(D1-K)*%
X70265000Y-125750000D03*
D11*
%TO.P,D2,2,A*%
%TO.N,Net-(D2-A)*%
X72805000Y-125750000D03*
%TD*%
D10*
%TO.P,D88,1,K*%
%TO.N,Net-(D8-K)*%
X95725000Y-78675000D03*
D11*
%TO.P,D88,2,A*%
%TO.N,Net-(D8-A)*%
X98265000Y-78675000D03*
%TD*%
D10*
%TO.P,D1,1,K*%
%TO.N,Net-(D1-K)*%
X77850000Y-126700000D03*
D11*
%TO.P,D1,2,A*%
%TO.N,Net-(D1-A)*%
X80390000Y-126700000D03*
%TD*%
D10*
%TO.P,D44,1,K*%
%TO.N,Net-(D1-K)*%
X97675000Y-119800000D03*
D11*
%TO.P,D44,2,A*%
%TO.N,Net-(D4-A)*%
X100215000Y-119800000D03*
%TD*%
D12*
%TO.P,C1,1*%
%TO.N,unconnected-(C1-Pad1)*%
X101950000Y-94200000D03*
D13*
%TO.P,C1,2*%
%TO.N,Net-(U3-GND)*%
X99450000Y-94200000D03*
%TD*%
D12*
%TO.P,U3,1,GND*%
%TO.N,Net-(U3-GND)*%
X109650000Y-89775000D03*
D14*
%TO.P,U3,2,TR*%
%TO.N,unconnected-(C1-Pad1)*%
X109650000Y-87235000D03*
%TO.P,U3,3,Q*%
%TO.N,Net-(D8-A)*%
X109650000Y-84695000D03*
%TO.P,U3,4,R*%
%TO.N,Net-(U3-R)*%
X109650000Y-82155000D03*
%TO.P,U3,5,CV*%
%TO.N,unconnected-(U3-CV-Pad5)*%
X117270000Y-82155000D03*
%TO.P,U3,6,THR*%
%TO.N,unconnected-(C1-Pad1)*%
X117270000Y-84695000D03*
%TO.P,U3,7,DIS*%
%TO.N,Net-(U3-DIS)*%
X117270000Y-87235000D03*
%TO.P,U3,8,VCC*%
%TO.N,Net-(U3-R)*%
X117270000Y-89775000D03*
%TD*%
D15*
%TO.P,S1,1,A*%
%TO.N,Net-(U3-R)*%
X112825000Y-113700000D03*
%TO.P,S1,2,E*%
%TO.N,Net-(S1-E)*%
X112825000Y-116240000D03*
%TO.P,S1,3,A*%
X112825000Y-118780000D03*
%TD*%
D13*
%TO.P,R1,1*%
%TO.N,Net-(U3-R)*%
X109455000Y-76825000D03*
D14*
%TO.P,R1,2*%
%TO.N,Net-(U3-DIS)*%
X117075000Y-76825000D03*
%TD*%
D15*
%TO.P,R2,1*%
%TO.N,Net-(U3-DIS)*%
X120555000Y-99025000D03*
%TO.P,R2,2*%
%TO.N,unconnected-(C1-Pad1)*%
X115475000Y-99025000D03*
%TO.P,R2,3*%
X118015000Y-105121000D03*
%TD*%
D13*
%TO.P,R3,1*%
%TO.N,Net-(D8-K)*%
X76275000Y-85350000D03*
D14*
%TO.P,R3,2*%
%TO.N,Net-(U3-GND)*%
X76275000Y-92970000D03*
%TD*%
D12*
%TO.P,CD4017,1,Q5*%
%TO.N,Net-(D6-A)*%
X48770000Y-72750000D03*
D14*
%TO.P,CD4017,2,Q1*%
%TO.N,Net-(D2-A)*%
X48770000Y-75290000D03*
%TO.P,CD4017,3,Q0*%
%TO.N,Net-(D1-A)*%
X48770000Y-77830000D03*
%TO.P,CD4017,4,Q2*%
%TO.N,Net-(D3-A)*%
X48770000Y-80370000D03*
%TO.P,CD4017,5,Q6*%
%TO.N,Net-(D7-A)*%
X48770000Y-82910000D03*
%TO.P,CD4017,6,Q7*%
%TO.N,unconnected-(U4-Q7-Pad6)*%
X48770000Y-85450000D03*
%TO.P,CD4017,7,Q3*%
%TO.N,Net-(D4-A)*%
X48770000Y-87990000D03*
%TO.P,CD4017,8,VSS*%
%TO.N,Net-(U3-GND)*%
X48770000Y-90530000D03*
%TO.P,CD4017,9,Q8*%
%TO.N,unconnected-(U4-Q8-Pad9)*%
X41150000Y-90530000D03*
%TO.P,CD4017,10,Q4*%
%TO.N,Net-(D5-A)*%
X41150000Y-87990000D03*
%TO.P,CD4017,11,Q9*%
%TO.N,unconnected-(U4-Q9-Pad11)*%
X41150000Y-85450000D03*
%TO.P,CD4017,12,Cout*%
%TO.N,unconnected-(U4-Cout-Pad12)*%
X41150000Y-82910000D03*
%TO.P,CD4017,13,CKEN*%
%TO.N,Net-(U3-GND)*%
X41150000Y-80370000D03*
%TO.P,CD4017,14,CLK*%
%TO.N,Net-(D8-A)*%
X41150000Y-77830000D03*
%TO.P,CD4017,15,Reset*%
%TO.N,unconnected-(U4-Q7-Pad6)*%
X41150000Y-75290000D03*
%TO.P,CD4017,16,VDD*%
%TO.N,Net-(U3-R)*%
X41150000Y-72750000D03*
%TD*%
D13*
%TO.P,R4,1*%
%TO.N,Net-(D1-K)*%
X81025000Y-85350000D03*
D14*
%TO.P,R4,2*%
%TO.N,Net-(U3-GND)*%
X81025000Y-92970000D03*
%TD*%
D16*
%TO.N,Net-(U3-GND)*%
X72570000Y-90530000D02*
X75010000Y-92970000D01*
X75010000Y-92970000D02*
X76275000Y-92970000D01*
X48770000Y-90530000D02*
X72570000Y-90530000D01*
%TO.N,Net-(D1-K)*%
X88900000Y-90450000D02*
X88900000Y-99600000D01*
X107650000Y-101250000D02*
X109650000Y-103250000D01*
X109650000Y-103250000D02*
X109750000Y-103250000D01*
X88900000Y-99600000D02*
X90550000Y-101250000D01*
X81025000Y-85350000D02*
X83800000Y-85350000D01*
X90550000Y-101250000D02*
X107650000Y-101250000D01*
X83800000Y-85350000D02*
X88900000Y-90450000D01*
%TO.N,Net-(D2-A)*%
X87915000Y-123765000D02*
X87200000Y-123050000D01*
X87915000Y-125775000D02*
X87915000Y-123765000D01*
X72805000Y-123845000D02*
X72805000Y-125750000D01*
X73600000Y-123050000D02*
X72805000Y-123845000D01*
X87200000Y-123050000D02*
X73600000Y-123050000D01*
%TO.N,Net-(D3-A)*%
X94540000Y-123450000D02*
X94540000Y-121590000D01*
X66140000Y-122110000D02*
X66140000Y-123400000D01*
X94050000Y-121100000D02*
X67150000Y-121100000D01*
X94540000Y-121590000D02*
X94050000Y-121100000D01*
X67150000Y-121100000D02*
X66140000Y-122110000D01*
%TO.N,Net-(D4-A)*%
X99300000Y-117050000D02*
X61800000Y-117050000D01*
X100215000Y-117965000D02*
X99300000Y-117050000D01*
X61800000Y-117050000D02*
X60490000Y-118360000D01*
X60490000Y-118360000D02*
X60490000Y-119750000D01*
X100215000Y-119800000D02*
X100215000Y-117965000D01*
%TO.N,Net-(D5-A)*%
X55715000Y-113335000D02*
X55715000Y-114925000D01*
X55850000Y-113200000D02*
X42150000Y-113200000D01*
X42150000Y-113200000D02*
X42000000Y-113350000D01*
X36750000Y-89900000D02*
X36750000Y-108100000D01*
X55850000Y-113200000D02*
X55715000Y-113335000D01*
X36750000Y-108100000D02*
X42000000Y-113350000D01*
X57050000Y-112000000D02*
X55850000Y-113200000D01*
X103850000Y-112000000D02*
X57050000Y-112000000D01*
X41150000Y-87990000D02*
X38660000Y-87990000D01*
X104940000Y-113090000D02*
X103850000Y-112000000D01*
X38660000Y-87990000D02*
X36750000Y-89900000D01*
X104940000Y-114975000D02*
X104940000Y-113090000D01*
%TO.N,Net-(D6-A)*%
X54500000Y-107150000D02*
X54550000Y-107100000D01*
X45100000Y-107150000D02*
X54500000Y-107150000D01*
X54550000Y-107100000D02*
X108300000Y-107100000D01*
X43950000Y-78070000D02*
X43950000Y-106000000D01*
X43700000Y-77820000D02*
X43950000Y-78070000D01*
X51715000Y-109100000D02*
X53715000Y-107100000D01*
X53715000Y-107100000D02*
X54550000Y-107100000D01*
X108300000Y-107100000D02*
X109015000Y-107815000D01*
X109015000Y-107815000D02*
X109015000Y-109125000D01*
X43950000Y-106000000D02*
X45100000Y-107150000D01*
X48770000Y-72750000D02*
X43700000Y-77820000D01*
%TO.N,Net-(D7-A)*%
X50215000Y-104950000D02*
X48465000Y-103200000D01*
X46600000Y-85080000D02*
X46750000Y-85230000D01*
X48770000Y-82910000D02*
X46600000Y-85080000D01*
X110590000Y-104950000D02*
X50215000Y-104950000D01*
X112290000Y-103250000D02*
X110590000Y-104950000D01*
X46750000Y-101485000D02*
X48465000Y-103200000D01*
X46750000Y-85230000D02*
X46750000Y-101485000D01*
%TO.N,Net-(U3-R)*%
X111805000Y-82155000D02*
X114150000Y-84500000D01*
X114150000Y-84500000D02*
X114150000Y-88250000D01*
X109650000Y-82155000D02*
X111805000Y-82155000D01*
X115675000Y-89775000D02*
X117270000Y-89775000D01*
X114150000Y-88250000D02*
X115675000Y-89775000D01*
%TD*%
M02*
