%TF.GenerationSoftware,KiCad,Pcbnew,8.0.1*%
%TF.CreationDate,2024-04-02T10:37:19+02:00*%
%TF.ProjectId,Smiley,536d696c-6579-42e6-9b69-6361645f7063,rev?*%
%TF.SameCoordinates,Original*%
%TF.FileFunction,Legend,Bot*%
%TF.FilePolarity,Positive*%
%FSLAX46Y46*%
G04 Gerber Fmt 4.6, Leading zero omitted, Abs format (unit mm)*
G04 Created by KiCad (PCBNEW 8.0.1) date 2024-04-02 10:37:19*
%MOMM*%
%LPD*%
G01*
G04 APERTURE LIST*
%ADD10C,0.150000*%
%ADD11C,0.300000*%
%ADD12C,0.200000*%
%ADD13C,0.050000*%
%ADD14C,0.120000*%
%ADD15C,0.010000*%
G04 APERTURE END LIST*
D10*
X162377506Y-69369819D02*
X162377506Y-70084104D01*
X162377506Y-70084104D02*
X162425125Y-70226961D01*
X162425125Y-70226961D02*
X162520363Y-70322200D01*
X162520363Y-70322200D02*
X162663220Y-70369819D01*
X162663220Y-70369819D02*
X162758458Y-70369819D01*
X161425125Y-70369819D02*
X161901315Y-70369819D01*
X161901315Y-70369819D02*
X161901315Y-69369819D01*
X160520363Y-70274580D02*
X160567982Y-70322200D01*
X160567982Y-70322200D02*
X160710839Y-70369819D01*
X160710839Y-70369819D02*
X160806077Y-70369819D01*
X160806077Y-70369819D02*
X160948934Y-70322200D01*
X160948934Y-70322200D02*
X161044172Y-70226961D01*
X161044172Y-70226961D02*
X161091791Y-70131723D01*
X161091791Y-70131723D02*
X161139410Y-69941247D01*
X161139410Y-69941247D02*
X161139410Y-69798390D01*
X161139410Y-69798390D02*
X161091791Y-69607914D01*
X161091791Y-69607914D02*
X161044172Y-69512676D01*
X161044172Y-69512676D02*
X160948934Y-69417438D01*
X160948934Y-69417438D02*
X160806077Y-69369819D01*
X160806077Y-69369819D02*
X160710839Y-69369819D01*
X160710839Y-69369819D02*
X160567982Y-69417438D01*
X160567982Y-69417438D02*
X160520363Y-69465057D01*
X159806077Y-69369819D02*
X159806077Y-70084104D01*
X159806077Y-70084104D02*
X159853696Y-70226961D01*
X159853696Y-70226961D02*
X159948934Y-70322200D01*
X159948934Y-70322200D02*
X160091791Y-70369819D01*
X160091791Y-70369819D02*
X160187029Y-70369819D01*
X158853696Y-70369819D02*
X159329886Y-70369819D01*
X159329886Y-70369819D02*
X159329886Y-69369819D01*
X157948934Y-70274580D02*
X157996553Y-70322200D01*
X157996553Y-70322200D02*
X158139410Y-70369819D01*
X158139410Y-70369819D02*
X158234648Y-70369819D01*
X158234648Y-70369819D02*
X158377505Y-70322200D01*
X158377505Y-70322200D02*
X158472743Y-70226961D01*
X158472743Y-70226961D02*
X158520362Y-70131723D01*
X158520362Y-70131723D02*
X158567981Y-69941247D01*
X158567981Y-69941247D02*
X158567981Y-69798390D01*
X158567981Y-69798390D02*
X158520362Y-69607914D01*
X158520362Y-69607914D02*
X158472743Y-69512676D01*
X158472743Y-69512676D02*
X158377505Y-69417438D01*
X158377505Y-69417438D02*
X158234648Y-69369819D01*
X158234648Y-69369819D02*
X158139410Y-69369819D01*
X158139410Y-69369819D02*
X157996553Y-69417438D01*
X157996553Y-69417438D02*
X157948934Y-69465057D01*
X157234648Y-69369819D02*
X157234648Y-70084104D01*
X157234648Y-70084104D02*
X157282267Y-70226961D01*
X157282267Y-70226961D02*
X157377505Y-70322200D01*
X157377505Y-70322200D02*
X157520362Y-70369819D01*
X157520362Y-70369819D02*
X157615600Y-70369819D01*
X156282267Y-70369819D02*
X156758457Y-70369819D01*
X156758457Y-70369819D02*
X156758457Y-69369819D01*
X155377505Y-70274580D02*
X155425124Y-70322200D01*
X155425124Y-70322200D02*
X155567981Y-70369819D01*
X155567981Y-70369819D02*
X155663219Y-70369819D01*
X155663219Y-70369819D02*
X155806076Y-70322200D01*
X155806076Y-70322200D02*
X155901314Y-70226961D01*
X155901314Y-70226961D02*
X155948933Y-70131723D01*
X155948933Y-70131723D02*
X155996552Y-69941247D01*
X155996552Y-69941247D02*
X155996552Y-69798390D01*
X155996552Y-69798390D02*
X155948933Y-69607914D01*
X155948933Y-69607914D02*
X155901314Y-69512676D01*
X155901314Y-69512676D02*
X155806076Y-69417438D01*
X155806076Y-69417438D02*
X155663219Y-69369819D01*
X155663219Y-69369819D02*
X155567981Y-69369819D01*
X155567981Y-69369819D02*
X155425124Y-69417438D01*
X155425124Y-69417438D02*
X155377505Y-69465057D01*
X154663219Y-69369819D02*
X154663219Y-70084104D01*
X154663219Y-70084104D02*
X154710838Y-70226961D01*
X154710838Y-70226961D02*
X154806076Y-70322200D01*
X154806076Y-70322200D02*
X154948933Y-70369819D01*
X154948933Y-70369819D02*
X155044171Y-70369819D01*
X153710838Y-70369819D02*
X154187028Y-70369819D01*
X154187028Y-70369819D02*
X154187028Y-69369819D01*
X152806076Y-70274580D02*
X152853695Y-70322200D01*
X152853695Y-70322200D02*
X152996552Y-70369819D01*
X152996552Y-70369819D02*
X153091790Y-70369819D01*
X153091790Y-70369819D02*
X153234647Y-70322200D01*
X153234647Y-70322200D02*
X153329885Y-70226961D01*
X153329885Y-70226961D02*
X153377504Y-70131723D01*
X153377504Y-70131723D02*
X153425123Y-69941247D01*
X153425123Y-69941247D02*
X153425123Y-69798390D01*
X153425123Y-69798390D02*
X153377504Y-69607914D01*
X153377504Y-69607914D02*
X153329885Y-69512676D01*
X153329885Y-69512676D02*
X153234647Y-69417438D01*
X153234647Y-69417438D02*
X153091790Y-69369819D01*
X153091790Y-69369819D02*
X152996552Y-69369819D01*
X152996552Y-69369819D02*
X152853695Y-69417438D01*
X152853695Y-69417438D02*
X152806076Y-69465057D01*
X194183000Y-86106000D02*
X194183000Y-85598000D01*
X195707000Y-85598000D02*
X195707000Y-86106000D01*
X194183000Y-85598000D02*
X195707000Y-85598000D01*
X195707000Y-85852000D02*
X196215000Y-85852000D01*
X195707000Y-86106000D02*
X194183000Y-86106000D01*
X194183000Y-85852000D02*
X193675000Y-85852000D01*
X172880504Y-75383919D02*
X172880504Y-74383919D01*
X172309076Y-75383919D02*
X172737647Y-74812490D01*
X172309076Y-74383919D02*
X172880504Y-74955347D01*
D11*
X179711904Y-95607733D02*
X178188095Y-95607733D01*
D10*
X195679985Y-105861709D02*
X195346652Y-105861709D01*
X195203795Y-106385519D02*
X195679985Y-106385519D01*
X195679985Y-106385519D02*
X195679985Y-105385519D01*
X195679985Y-105385519D02*
X195203795Y-105385519D01*
X135220504Y-115883919D02*
X135220504Y-114883919D01*
X134649076Y-115883919D02*
X135077647Y-115312490D01*
X134649076Y-114883919D02*
X135220504Y-115455347D01*
X140920504Y-119403919D02*
X140920504Y-118403919D01*
X140349076Y-119403919D02*
X140777647Y-118832490D01*
X140349076Y-118403919D02*
X140920504Y-118975347D01*
X162740504Y-121743919D02*
X162740504Y-120743919D01*
X162169076Y-121743919D02*
X162597647Y-121172490D01*
X162169076Y-120743919D02*
X162740504Y-121315347D01*
D11*
X163551904Y-94097733D02*
X162028095Y-94097733D01*
X162789999Y-94859638D02*
X162789999Y-93335828D01*
D10*
X126440504Y-105123919D02*
X126440504Y-104123919D01*
X125869076Y-105123919D02*
X126297647Y-104552490D01*
X125869076Y-104123919D02*
X126440504Y-104695347D01*
D12*
X168555712Y-100806385D02*
X168484284Y-100734957D01*
X168484284Y-100734957D02*
X168341427Y-100663528D01*
X168341427Y-100663528D02*
X167984284Y-100663528D01*
X167984284Y-100663528D02*
X167841427Y-100734957D01*
X167841427Y-100734957D02*
X167769998Y-100806385D01*
X167769998Y-100806385D02*
X167698569Y-100949242D01*
X167698569Y-100949242D02*
X167698569Y-101092100D01*
X167698569Y-101092100D02*
X167769998Y-101306385D01*
X167769998Y-101306385D02*
X168627141Y-102163528D01*
X168627141Y-102163528D02*
X167698569Y-102163528D01*
X166055713Y-102163528D02*
X165269999Y-101163528D01*
X166055713Y-101163528D02*
X165269999Y-102163528D01*
X162698570Y-102020671D02*
X162769998Y-102092100D01*
X162769998Y-102092100D02*
X162984284Y-102163528D01*
X162984284Y-102163528D02*
X163127141Y-102163528D01*
X163127141Y-102163528D02*
X163341427Y-102092100D01*
X163341427Y-102092100D02*
X163484284Y-101949242D01*
X163484284Y-101949242D02*
X163555713Y-101806385D01*
X163555713Y-101806385D02*
X163627141Y-101520671D01*
X163627141Y-101520671D02*
X163627141Y-101306385D01*
X163627141Y-101306385D02*
X163555713Y-101020671D01*
X163555713Y-101020671D02*
X163484284Y-100877814D01*
X163484284Y-100877814D02*
X163341427Y-100734957D01*
X163341427Y-100734957D02*
X163127141Y-100663528D01*
X163127141Y-100663528D02*
X162984284Y-100663528D01*
X162984284Y-100663528D02*
X162769998Y-100734957D01*
X162769998Y-100734957D02*
X162698570Y-100806385D01*
X161198570Y-102163528D02*
X161698570Y-101449242D01*
X162055713Y-102163528D02*
X162055713Y-100663528D01*
X162055713Y-100663528D02*
X161484284Y-100663528D01*
X161484284Y-100663528D02*
X161341427Y-100734957D01*
X161341427Y-100734957D02*
X161269998Y-100806385D01*
X161269998Y-100806385D02*
X161198570Y-100949242D01*
X161198570Y-100949242D02*
X161198570Y-101163528D01*
X161198570Y-101163528D02*
X161269998Y-101306385D01*
X161269998Y-101306385D02*
X161341427Y-101377814D01*
X161341427Y-101377814D02*
X161484284Y-101449242D01*
X161484284Y-101449242D02*
X162055713Y-101449242D01*
X160627141Y-100806385D02*
X160555713Y-100734957D01*
X160555713Y-100734957D02*
X160412856Y-100663528D01*
X160412856Y-100663528D02*
X160055713Y-100663528D01*
X160055713Y-100663528D02*
X159912856Y-100734957D01*
X159912856Y-100734957D02*
X159841427Y-100806385D01*
X159841427Y-100806385D02*
X159769998Y-100949242D01*
X159769998Y-100949242D02*
X159769998Y-101092100D01*
X159769998Y-101092100D02*
X159841427Y-101306385D01*
X159841427Y-101306385D02*
X160698570Y-102163528D01*
X160698570Y-102163528D02*
X159769998Y-102163528D01*
X158841427Y-100663528D02*
X158698570Y-100663528D01*
X158698570Y-100663528D02*
X158555713Y-100734957D01*
X158555713Y-100734957D02*
X158484285Y-100806385D01*
X158484285Y-100806385D02*
X158412856Y-100949242D01*
X158412856Y-100949242D02*
X158341427Y-101234957D01*
X158341427Y-101234957D02*
X158341427Y-101592100D01*
X158341427Y-101592100D02*
X158412856Y-101877814D01*
X158412856Y-101877814D02*
X158484285Y-102020671D01*
X158484285Y-102020671D02*
X158555713Y-102092100D01*
X158555713Y-102092100D02*
X158698570Y-102163528D01*
X158698570Y-102163528D02*
X158841427Y-102163528D01*
X158841427Y-102163528D02*
X158984285Y-102092100D01*
X158984285Y-102092100D02*
X159055713Y-102020671D01*
X159055713Y-102020671D02*
X159127142Y-101877814D01*
X159127142Y-101877814D02*
X159198570Y-101592100D01*
X159198570Y-101592100D02*
X159198570Y-101234957D01*
X159198570Y-101234957D02*
X159127142Y-100949242D01*
X159127142Y-100949242D02*
X159055713Y-100806385D01*
X159055713Y-100806385D02*
X158984285Y-100734957D01*
X158984285Y-100734957D02*
X158841427Y-100663528D01*
X157841428Y-100663528D02*
X156912856Y-100663528D01*
X156912856Y-100663528D02*
X157412856Y-101234957D01*
X157412856Y-101234957D02*
X157198571Y-101234957D01*
X157198571Y-101234957D02*
X157055714Y-101306385D01*
X157055714Y-101306385D02*
X156984285Y-101377814D01*
X156984285Y-101377814D02*
X156912856Y-101520671D01*
X156912856Y-101520671D02*
X156912856Y-101877814D01*
X156912856Y-101877814D02*
X156984285Y-102020671D01*
X156984285Y-102020671D02*
X157055714Y-102092100D01*
X157055714Y-102092100D02*
X157198571Y-102163528D01*
X157198571Y-102163528D02*
X157627142Y-102163528D01*
X157627142Y-102163528D02*
X157769999Y-102092100D01*
X157769999Y-102092100D02*
X157841428Y-102020671D01*
X156341428Y-100806385D02*
X156270000Y-100734957D01*
X156270000Y-100734957D02*
X156127143Y-100663528D01*
X156127143Y-100663528D02*
X155770000Y-100663528D01*
X155770000Y-100663528D02*
X155627143Y-100734957D01*
X155627143Y-100734957D02*
X155555714Y-100806385D01*
X155555714Y-100806385D02*
X155484285Y-100949242D01*
X155484285Y-100949242D02*
X155484285Y-101092100D01*
X155484285Y-101092100D02*
X155555714Y-101306385D01*
X155555714Y-101306385D02*
X156412857Y-102163528D01*
X156412857Y-102163528D02*
X155484285Y-102163528D01*
D10*
X183550504Y-105163919D02*
X183550504Y-104163919D01*
X182979076Y-105163919D02*
X183407647Y-104592490D01*
X182979076Y-104163919D02*
X183550504Y-104735347D01*
X123130504Y-99243919D02*
X123130504Y-98243919D01*
X122559076Y-99243919D02*
X122987647Y-98672490D01*
X122559076Y-98243919D02*
X123130504Y-98815347D01*
X201042566Y-88656319D02*
X201375899Y-88180128D01*
X201613994Y-88656319D02*
X201613994Y-87656319D01*
X201613994Y-87656319D02*
X201233042Y-87656319D01*
X201233042Y-87656319D02*
X201137804Y-87703938D01*
X201137804Y-87703938D02*
X201090185Y-87751557D01*
X201090185Y-87751557D02*
X201042566Y-87846795D01*
X201042566Y-87846795D02*
X201042566Y-87989652D01*
X201042566Y-87989652D02*
X201090185Y-88084890D01*
X201090185Y-88084890D02*
X201137804Y-88132509D01*
X201137804Y-88132509D02*
X201233042Y-88180128D01*
X201233042Y-88180128D02*
X201613994Y-88180128D01*
X200185423Y-87989652D02*
X200185423Y-88656319D01*
X200423518Y-87608700D02*
X200661613Y-88322985D01*
X200661613Y-88322985D02*
X200042566Y-88322985D01*
X155080504Y-122743919D02*
X155080504Y-121743919D01*
X154509076Y-122743919D02*
X154937647Y-122172490D01*
X154509076Y-121743919D02*
X155080504Y-122315347D01*
X147570504Y-121993919D02*
X147570504Y-120993919D01*
X146999076Y-121993919D02*
X147427647Y-121422490D01*
X146999076Y-120993919D02*
X147570504Y-121565347D01*
X143416304Y-75633919D02*
X143416304Y-74633919D01*
X142844876Y-75633919D02*
X143273447Y-75062490D01*
X142844876Y-74633919D02*
X143416304Y-75205347D01*
X169320504Y-119603919D02*
X169320504Y-118603919D01*
X168749076Y-119603919D02*
X169177647Y-119032490D01*
X168749076Y-118603919D02*
X169320504Y-119175347D01*
X175040504Y-115923919D02*
X175040504Y-114923919D01*
X174469076Y-115923919D02*
X174897647Y-115352490D01*
X174469076Y-114923919D02*
X175040504Y-115495347D01*
X186780504Y-99073919D02*
X186780504Y-98073919D01*
X186209076Y-99073919D02*
X186637647Y-98502490D01*
X186209076Y-98073919D02*
X186780504Y-98645347D01*
X195291105Y-109249404D02*
X195767295Y-109249404D01*
X195195867Y-109535119D02*
X195529200Y-108535119D01*
X195529200Y-108535119D02*
X195862533Y-109535119D01*
X130530504Y-110973919D02*
X130530504Y-109973919D01*
X129959076Y-110973919D02*
X130387647Y-110402490D01*
X129959076Y-109973919D02*
X130530504Y-110545347D01*
X196029128Y-93571219D02*
X196600556Y-93571219D01*
X196314842Y-93571219D02*
X196314842Y-92571219D01*
X196314842Y-92571219D02*
X196410080Y-92714076D01*
X196410080Y-92714076D02*
X196505318Y-92809314D01*
X196505318Y-92809314D02*
X196600556Y-92856933D01*
X195410080Y-92571219D02*
X195314842Y-92571219D01*
X195314842Y-92571219D02*
X195219604Y-92618838D01*
X195219604Y-92618838D02*
X195171985Y-92666457D01*
X195171985Y-92666457D02*
X195124366Y-92761695D01*
X195124366Y-92761695D02*
X195076747Y-92952171D01*
X195076747Y-92952171D02*
X195076747Y-93190266D01*
X195076747Y-93190266D02*
X195124366Y-93380742D01*
X195124366Y-93380742D02*
X195171985Y-93475980D01*
X195171985Y-93475980D02*
X195219604Y-93523600D01*
X195219604Y-93523600D02*
X195314842Y-93571219D01*
X195314842Y-93571219D02*
X195410080Y-93571219D01*
X195410080Y-93571219D02*
X195505318Y-93523600D01*
X195505318Y-93523600D02*
X195552937Y-93475980D01*
X195552937Y-93475980D02*
X195600556Y-93380742D01*
X195600556Y-93380742D02*
X195648175Y-93190266D01*
X195648175Y-93190266D02*
X195648175Y-92952171D01*
X195648175Y-92952171D02*
X195600556Y-92761695D01*
X195600556Y-92761695D02*
X195552937Y-92666457D01*
X195552937Y-92666457D02*
X195505318Y-92618838D01*
X195505318Y-92618838D02*
X195410080Y-92571219D01*
X194457699Y-92571219D02*
X194362461Y-92571219D01*
X194362461Y-92571219D02*
X194267223Y-92618838D01*
X194267223Y-92618838D02*
X194219604Y-92666457D01*
X194219604Y-92666457D02*
X194171985Y-92761695D01*
X194171985Y-92761695D02*
X194124366Y-92952171D01*
X194124366Y-92952171D02*
X194124366Y-93190266D01*
X194124366Y-93190266D02*
X194171985Y-93380742D01*
X194171985Y-93380742D02*
X194219604Y-93475980D01*
X194219604Y-93475980D02*
X194267223Y-93523600D01*
X194267223Y-93523600D02*
X194362461Y-93571219D01*
X194362461Y-93571219D02*
X194457699Y-93571219D01*
X194457699Y-93571219D02*
X194552937Y-93523600D01*
X194552937Y-93523600D02*
X194600556Y-93475980D01*
X194600556Y-93475980D02*
X194648175Y-93380742D01*
X194648175Y-93380742D02*
X194695794Y-93190266D01*
X194695794Y-93190266D02*
X194695794Y-92952171D01*
X194695794Y-92952171D02*
X194648175Y-92761695D01*
X194648175Y-92761695D02*
X194600556Y-92666457D01*
X194600556Y-92666457D02*
X194552937Y-92618838D01*
X194552937Y-92618838D02*
X194457699Y-92571219D01*
X193695794Y-93571219D02*
X193695794Y-92571219D01*
X193600556Y-93190266D02*
X193314842Y-93571219D01*
X193314842Y-92904552D02*
X193695794Y-93285504D01*
X179530504Y-110953919D02*
X179530504Y-109953919D01*
X178959076Y-110953919D02*
X179387647Y-110382490D01*
X178959076Y-109953919D02*
X179530504Y-110525347D01*
D11*
X172656428Y-102214900D02*
X171513571Y-102214900D01*
D10*
X158796694Y-120683919D02*
X158796694Y-119683919D01*
X158796694Y-119683919D02*
X158558599Y-119683919D01*
X158558599Y-119683919D02*
X158415742Y-119731538D01*
X158415742Y-119731538D02*
X158320504Y-119826776D01*
X158320504Y-119826776D02*
X158272885Y-119922014D01*
X158272885Y-119922014D02*
X158225266Y-120112490D01*
X158225266Y-120112490D02*
X158225266Y-120255347D01*
X158225266Y-120255347D02*
X158272885Y-120445823D01*
X158272885Y-120445823D02*
X158320504Y-120541061D01*
X158320504Y-120541061D02*
X158415742Y-120636300D01*
X158415742Y-120636300D02*
X158558599Y-120683919D01*
X158558599Y-120683919D02*
X158796694Y-120683919D01*
X157272885Y-120683919D02*
X157844313Y-120683919D01*
X157558599Y-120683919D02*
X157558599Y-119683919D01*
X157558599Y-119683919D02*
X157653837Y-119826776D01*
X157653837Y-119826776D02*
X157749075Y-119922014D01*
X157749075Y-119922014D02*
X157844313Y-119969633D01*
X166506694Y-119763919D02*
X166506694Y-118763919D01*
X166506694Y-118763919D02*
X166268599Y-118763919D01*
X166268599Y-118763919D02*
X166125742Y-118811538D01*
X166125742Y-118811538D02*
X166030504Y-118906776D01*
X166030504Y-118906776D02*
X165982885Y-119002014D01*
X165982885Y-119002014D02*
X165935266Y-119192490D01*
X165935266Y-119192490D02*
X165935266Y-119335347D01*
X165935266Y-119335347D02*
X165982885Y-119525823D01*
X165982885Y-119525823D02*
X166030504Y-119621061D01*
X166030504Y-119621061D02*
X166125742Y-119716300D01*
X166125742Y-119716300D02*
X166268599Y-119763919D01*
X166268599Y-119763919D02*
X166506694Y-119763919D01*
X165554313Y-118859157D02*
X165506694Y-118811538D01*
X165506694Y-118811538D02*
X165411456Y-118763919D01*
X165411456Y-118763919D02*
X165173361Y-118763919D01*
X165173361Y-118763919D02*
X165078123Y-118811538D01*
X165078123Y-118811538D02*
X165030504Y-118859157D01*
X165030504Y-118859157D02*
X164982885Y-118954395D01*
X164982885Y-118954395D02*
X164982885Y-119049633D01*
X164982885Y-119049633D02*
X165030504Y-119192490D01*
X165030504Y-119192490D02*
X165601932Y-119763919D01*
X165601932Y-119763919D02*
X164982885Y-119763919D01*
X172916694Y-117453919D02*
X172916694Y-116453919D01*
X172916694Y-116453919D02*
X172678599Y-116453919D01*
X172678599Y-116453919D02*
X172535742Y-116501538D01*
X172535742Y-116501538D02*
X172440504Y-116596776D01*
X172440504Y-116596776D02*
X172392885Y-116692014D01*
X172392885Y-116692014D02*
X172345266Y-116882490D01*
X172345266Y-116882490D02*
X172345266Y-117025347D01*
X172345266Y-117025347D02*
X172392885Y-117215823D01*
X172392885Y-117215823D02*
X172440504Y-117311061D01*
X172440504Y-117311061D02*
X172535742Y-117406300D01*
X172535742Y-117406300D02*
X172678599Y-117453919D01*
X172678599Y-117453919D02*
X172916694Y-117453919D01*
X172011932Y-116453919D02*
X171392885Y-116453919D01*
X171392885Y-116453919D02*
X171726218Y-116834871D01*
X171726218Y-116834871D02*
X171583361Y-116834871D01*
X171583361Y-116834871D02*
X171488123Y-116882490D01*
X171488123Y-116882490D02*
X171440504Y-116930109D01*
X171440504Y-116930109D02*
X171392885Y-117025347D01*
X171392885Y-117025347D02*
X171392885Y-117263442D01*
X171392885Y-117263442D02*
X171440504Y-117358680D01*
X171440504Y-117358680D02*
X171488123Y-117406300D01*
X171488123Y-117406300D02*
X171583361Y-117453919D01*
X171583361Y-117453919D02*
X171869075Y-117453919D01*
X171869075Y-117453919D02*
X171964313Y-117406300D01*
X171964313Y-117406300D02*
X172011932Y-117358680D01*
X178556694Y-113743919D02*
X178556694Y-112743919D01*
X178556694Y-112743919D02*
X178318599Y-112743919D01*
X178318599Y-112743919D02*
X178175742Y-112791538D01*
X178175742Y-112791538D02*
X178080504Y-112886776D01*
X178080504Y-112886776D02*
X178032885Y-112982014D01*
X178032885Y-112982014D02*
X177985266Y-113172490D01*
X177985266Y-113172490D02*
X177985266Y-113315347D01*
X177985266Y-113315347D02*
X178032885Y-113505823D01*
X178032885Y-113505823D02*
X178080504Y-113601061D01*
X178080504Y-113601061D02*
X178175742Y-113696300D01*
X178175742Y-113696300D02*
X178318599Y-113743919D01*
X178318599Y-113743919D02*
X178556694Y-113743919D01*
X177128123Y-113077252D02*
X177128123Y-113743919D01*
X177366218Y-112696300D02*
X177604313Y-113410585D01*
X177604313Y-113410585D02*
X176985266Y-113410585D01*
X183396694Y-108953919D02*
X183396694Y-107953919D01*
X183396694Y-107953919D02*
X183158599Y-107953919D01*
X183158599Y-107953919D02*
X183015742Y-108001538D01*
X183015742Y-108001538D02*
X182920504Y-108096776D01*
X182920504Y-108096776D02*
X182872885Y-108192014D01*
X182872885Y-108192014D02*
X182825266Y-108382490D01*
X182825266Y-108382490D02*
X182825266Y-108525347D01*
X182825266Y-108525347D02*
X182872885Y-108715823D01*
X182872885Y-108715823D02*
X182920504Y-108811061D01*
X182920504Y-108811061D02*
X183015742Y-108906300D01*
X183015742Y-108906300D02*
X183158599Y-108953919D01*
X183158599Y-108953919D02*
X183396694Y-108953919D01*
X181920504Y-107953919D02*
X182396694Y-107953919D01*
X182396694Y-107953919D02*
X182444313Y-108430109D01*
X182444313Y-108430109D02*
X182396694Y-108382490D01*
X182396694Y-108382490D02*
X182301456Y-108334871D01*
X182301456Y-108334871D02*
X182063361Y-108334871D01*
X182063361Y-108334871D02*
X181968123Y-108382490D01*
X181968123Y-108382490D02*
X181920504Y-108430109D01*
X181920504Y-108430109D02*
X181872885Y-108525347D01*
X181872885Y-108525347D02*
X181872885Y-108763442D01*
X181872885Y-108763442D02*
X181920504Y-108858680D01*
X181920504Y-108858680D02*
X181968123Y-108906300D01*
X181968123Y-108906300D02*
X182063361Y-108953919D01*
X182063361Y-108953919D02*
X182301456Y-108953919D01*
X182301456Y-108953919D02*
X182396694Y-108906300D01*
X182396694Y-108906300D02*
X182444313Y-108858680D01*
X187446694Y-103013919D02*
X187446694Y-102013919D01*
X187446694Y-102013919D02*
X187208599Y-102013919D01*
X187208599Y-102013919D02*
X187065742Y-102061538D01*
X187065742Y-102061538D02*
X186970504Y-102156776D01*
X186970504Y-102156776D02*
X186922885Y-102252014D01*
X186922885Y-102252014D02*
X186875266Y-102442490D01*
X186875266Y-102442490D02*
X186875266Y-102585347D01*
X186875266Y-102585347D02*
X186922885Y-102775823D01*
X186922885Y-102775823D02*
X186970504Y-102871061D01*
X186970504Y-102871061D02*
X187065742Y-102966300D01*
X187065742Y-102966300D02*
X187208599Y-103013919D01*
X187208599Y-103013919D02*
X187446694Y-103013919D01*
X186018123Y-102013919D02*
X186208599Y-102013919D01*
X186208599Y-102013919D02*
X186303837Y-102061538D01*
X186303837Y-102061538D02*
X186351456Y-102109157D01*
X186351456Y-102109157D02*
X186446694Y-102252014D01*
X186446694Y-102252014D02*
X186494313Y-102442490D01*
X186494313Y-102442490D02*
X186494313Y-102823442D01*
X186494313Y-102823442D02*
X186446694Y-102918680D01*
X186446694Y-102918680D02*
X186399075Y-102966300D01*
X186399075Y-102966300D02*
X186303837Y-103013919D01*
X186303837Y-103013919D02*
X186113361Y-103013919D01*
X186113361Y-103013919D02*
X186018123Y-102966300D01*
X186018123Y-102966300D02*
X185970504Y-102918680D01*
X185970504Y-102918680D02*
X185922885Y-102823442D01*
X185922885Y-102823442D02*
X185922885Y-102585347D01*
X185922885Y-102585347D02*
X185970504Y-102490109D01*
X185970504Y-102490109D02*
X186018123Y-102442490D01*
X186018123Y-102442490D02*
X186113361Y-102394871D01*
X186113361Y-102394871D02*
X186303837Y-102394871D01*
X186303837Y-102394871D02*
X186399075Y-102442490D01*
X186399075Y-102442490D02*
X186446694Y-102490109D01*
X186446694Y-102490109D02*
X186494313Y-102585347D01*
X190906694Y-97153919D02*
X190906694Y-96153919D01*
X190906694Y-96153919D02*
X190668599Y-96153919D01*
X190668599Y-96153919D02*
X190525742Y-96201538D01*
X190525742Y-96201538D02*
X190430504Y-96296776D01*
X190430504Y-96296776D02*
X190382885Y-96392014D01*
X190382885Y-96392014D02*
X190335266Y-96582490D01*
X190335266Y-96582490D02*
X190335266Y-96725347D01*
X190335266Y-96725347D02*
X190382885Y-96915823D01*
X190382885Y-96915823D02*
X190430504Y-97011061D01*
X190430504Y-97011061D02*
X190525742Y-97106300D01*
X190525742Y-97106300D02*
X190668599Y-97153919D01*
X190668599Y-97153919D02*
X190906694Y-97153919D01*
X190001932Y-96153919D02*
X189335266Y-96153919D01*
X189335266Y-96153919D02*
X189763837Y-97153919D01*
X176676694Y-73593919D02*
X176676694Y-72593919D01*
X176676694Y-72593919D02*
X176438599Y-72593919D01*
X176438599Y-72593919D02*
X176295742Y-72641538D01*
X176295742Y-72641538D02*
X176200504Y-72736776D01*
X176200504Y-72736776D02*
X176152885Y-72832014D01*
X176152885Y-72832014D02*
X176105266Y-73022490D01*
X176105266Y-73022490D02*
X176105266Y-73165347D01*
X176105266Y-73165347D02*
X176152885Y-73355823D01*
X176152885Y-73355823D02*
X176200504Y-73451061D01*
X176200504Y-73451061D02*
X176295742Y-73546300D01*
X176295742Y-73546300D02*
X176438599Y-73593919D01*
X176438599Y-73593919D02*
X176676694Y-73593919D01*
X175533837Y-73022490D02*
X175629075Y-72974871D01*
X175629075Y-72974871D02*
X175676694Y-72927252D01*
X175676694Y-72927252D02*
X175724313Y-72832014D01*
X175724313Y-72832014D02*
X175724313Y-72784395D01*
X175724313Y-72784395D02*
X175676694Y-72689157D01*
X175676694Y-72689157D02*
X175629075Y-72641538D01*
X175629075Y-72641538D02*
X175533837Y-72593919D01*
X175533837Y-72593919D02*
X175343361Y-72593919D01*
X175343361Y-72593919D02*
X175248123Y-72641538D01*
X175248123Y-72641538D02*
X175200504Y-72689157D01*
X175200504Y-72689157D02*
X175152885Y-72784395D01*
X175152885Y-72784395D02*
X175152885Y-72832014D01*
X175152885Y-72832014D02*
X175200504Y-72927252D01*
X175200504Y-72927252D02*
X175248123Y-72974871D01*
X175248123Y-72974871D02*
X175343361Y-73022490D01*
X175343361Y-73022490D02*
X175533837Y-73022490D01*
X175533837Y-73022490D02*
X175629075Y-73070109D01*
X175629075Y-73070109D02*
X175676694Y-73117728D01*
X175676694Y-73117728D02*
X175724313Y-73212966D01*
X175724313Y-73212966D02*
X175724313Y-73403442D01*
X175724313Y-73403442D02*
X175676694Y-73498680D01*
X175676694Y-73498680D02*
X175629075Y-73546300D01*
X175629075Y-73546300D02*
X175533837Y-73593919D01*
X175533837Y-73593919D02*
X175343361Y-73593919D01*
X175343361Y-73593919D02*
X175248123Y-73546300D01*
X175248123Y-73546300D02*
X175200504Y-73498680D01*
X175200504Y-73498680D02*
X175152885Y-73403442D01*
X175152885Y-73403442D02*
X175152885Y-73212966D01*
X175152885Y-73212966D02*
X175200504Y-73117728D01*
X175200504Y-73117728D02*
X175248123Y-73070109D01*
X175248123Y-73070109D02*
X175343361Y-73022490D01*
X151792885Y-119793919D02*
X151792885Y-118793919D01*
X151792885Y-118793919D02*
X151554790Y-118793919D01*
X151554790Y-118793919D02*
X151411933Y-118841538D01*
X151411933Y-118841538D02*
X151316695Y-118936776D01*
X151316695Y-118936776D02*
X151269076Y-119032014D01*
X151269076Y-119032014D02*
X151221457Y-119222490D01*
X151221457Y-119222490D02*
X151221457Y-119365347D01*
X151221457Y-119365347D02*
X151269076Y-119555823D01*
X151269076Y-119555823D02*
X151316695Y-119651061D01*
X151316695Y-119651061D02*
X151411933Y-119746300D01*
X151411933Y-119746300D02*
X151554790Y-119793919D01*
X151554790Y-119793919D02*
X151792885Y-119793919D01*
X150840504Y-118889157D02*
X150792885Y-118841538D01*
X150792885Y-118841538D02*
X150697647Y-118793919D01*
X150697647Y-118793919D02*
X150459552Y-118793919D01*
X150459552Y-118793919D02*
X150364314Y-118841538D01*
X150364314Y-118841538D02*
X150316695Y-118889157D01*
X150316695Y-118889157D02*
X150269076Y-118984395D01*
X150269076Y-118984395D02*
X150269076Y-119079633D01*
X150269076Y-119079633D02*
X150316695Y-119222490D01*
X150316695Y-119222490D02*
X150888123Y-119793919D01*
X150888123Y-119793919D02*
X150269076Y-119793919D01*
X149888123Y-118889157D02*
X149840504Y-118841538D01*
X149840504Y-118841538D02*
X149745266Y-118793919D01*
X149745266Y-118793919D02*
X149507171Y-118793919D01*
X149507171Y-118793919D02*
X149411933Y-118841538D01*
X149411933Y-118841538D02*
X149364314Y-118889157D01*
X149364314Y-118889157D02*
X149316695Y-118984395D01*
X149316695Y-118984395D02*
X149316695Y-119079633D01*
X149316695Y-119079633D02*
X149364314Y-119222490D01*
X149364314Y-119222490D02*
X149935742Y-119793919D01*
X149935742Y-119793919D02*
X149316695Y-119793919D01*
X145082885Y-117423919D02*
X145082885Y-116423919D01*
X145082885Y-116423919D02*
X144844790Y-116423919D01*
X144844790Y-116423919D02*
X144701933Y-116471538D01*
X144701933Y-116471538D02*
X144606695Y-116566776D01*
X144606695Y-116566776D02*
X144559076Y-116662014D01*
X144559076Y-116662014D02*
X144511457Y-116852490D01*
X144511457Y-116852490D02*
X144511457Y-116995347D01*
X144511457Y-116995347D02*
X144559076Y-117185823D01*
X144559076Y-117185823D02*
X144606695Y-117281061D01*
X144606695Y-117281061D02*
X144701933Y-117376300D01*
X144701933Y-117376300D02*
X144844790Y-117423919D01*
X144844790Y-117423919D02*
X145082885Y-117423919D01*
X144178123Y-116423919D02*
X143559076Y-116423919D01*
X143559076Y-116423919D02*
X143892409Y-116804871D01*
X143892409Y-116804871D02*
X143749552Y-116804871D01*
X143749552Y-116804871D02*
X143654314Y-116852490D01*
X143654314Y-116852490D02*
X143606695Y-116900109D01*
X143606695Y-116900109D02*
X143559076Y-116995347D01*
X143559076Y-116995347D02*
X143559076Y-117233442D01*
X143559076Y-117233442D02*
X143606695Y-117328680D01*
X143606695Y-117328680D02*
X143654314Y-117376300D01*
X143654314Y-117376300D02*
X143749552Y-117423919D01*
X143749552Y-117423919D02*
X144035266Y-117423919D01*
X144035266Y-117423919D02*
X144130504Y-117376300D01*
X144130504Y-117376300D02*
X144178123Y-117328680D01*
X143225742Y-116423919D02*
X142606695Y-116423919D01*
X142606695Y-116423919D02*
X142940028Y-116804871D01*
X142940028Y-116804871D02*
X142797171Y-116804871D01*
X142797171Y-116804871D02*
X142701933Y-116852490D01*
X142701933Y-116852490D02*
X142654314Y-116900109D01*
X142654314Y-116900109D02*
X142606695Y-116995347D01*
X142606695Y-116995347D02*
X142606695Y-117233442D01*
X142606695Y-117233442D02*
X142654314Y-117328680D01*
X142654314Y-117328680D02*
X142701933Y-117376300D01*
X142701933Y-117376300D02*
X142797171Y-117423919D01*
X142797171Y-117423919D02*
X143082885Y-117423919D01*
X143082885Y-117423919D02*
X143178123Y-117376300D01*
X143178123Y-117376300D02*
X143225742Y-117328680D01*
X139402885Y-113773919D02*
X139402885Y-112773919D01*
X139402885Y-112773919D02*
X139164790Y-112773919D01*
X139164790Y-112773919D02*
X139021933Y-112821538D01*
X139021933Y-112821538D02*
X138926695Y-112916776D01*
X138926695Y-112916776D02*
X138879076Y-113012014D01*
X138879076Y-113012014D02*
X138831457Y-113202490D01*
X138831457Y-113202490D02*
X138831457Y-113345347D01*
X138831457Y-113345347D02*
X138879076Y-113535823D01*
X138879076Y-113535823D02*
X138926695Y-113631061D01*
X138926695Y-113631061D02*
X139021933Y-113726300D01*
X139021933Y-113726300D02*
X139164790Y-113773919D01*
X139164790Y-113773919D02*
X139402885Y-113773919D01*
X137974314Y-113107252D02*
X137974314Y-113773919D01*
X138212409Y-112726300D02*
X138450504Y-113440585D01*
X138450504Y-113440585D02*
X137831457Y-113440585D01*
X137021933Y-113107252D02*
X137021933Y-113773919D01*
X137260028Y-112726300D02*
X137498123Y-113440585D01*
X137498123Y-113440585D02*
X136879076Y-113440585D01*
X134842885Y-108973919D02*
X134842885Y-107973919D01*
X134842885Y-107973919D02*
X134604790Y-107973919D01*
X134604790Y-107973919D02*
X134461933Y-108021538D01*
X134461933Y-108021538D02*
X134366695Y-108116776D01*
X134366695Y-108116776D02*
X134319076Y-108212014D01*
X134319076Y-108212014D02*
X134271457Y-108402490D01*
X134271457Y-108402490D02*
X134271457Y-108545347D01*
X134271457Y-108545347D02*
X134319076Y-108735823D01*
X134319076Y-108735823D02*
X134366695Y-108831061D01*
X134366695Y-108831061D02*
X134461933Y-108926300D01*
X134461933Y-108926300D02*
X134604790Y-108973919D01*
X134604790Y-108973919D02*
X134842885Y-108973919D01*
X133366695Y-107973919D02*
X133842885Y-107973919D01*
X133842885Y-107973919D02*
X133890504Y-108450109D01*
X133890504Y-108450109D02*
X133842885Y-108402490D01*
X133842885Y-108402490D02*
X133747647Y-108354871D01*
X133747647Y-108354871D02*
X133509552Y-108354871D01*
X133509552Y-108354871D02*
X133414314Y-108402490D01*
X133414314Y-108402490D02*
X133366695Y-108450109D01*
X133366695Y-108450109D02*
X133319076Y-108545347D01*
X133319076Y-108545347D02*
X133319076Y-108783442D01*
X133319076Y-108783442D02*
X133366695Y-108878680D01*
X133366695Y-108878680D02*
X133414314Y-108926300D01*
X133414314Y-108926300D02*
X133509552Y-108973919D01*
X133509552Y-108973919D02*
X133747647Y-108973919D01*
X133747647Y-108973919D02*
X133842885Y-108926300D01*
X133842885Y-108926300D02*
X133890504Y-108878680D01*
X132414314Y-107973919D02*
X132890504Y-107973919D01*
X132890504Y-107973919D02*
X132938123Y-108450109D01*
X132938123Y-108450109D02*
X132890504Y-108402490D01*
X132890504Y-108402490D02*
X132795266Y-108354871D01*
X132795266Y-108354871D02*
X132557171Y-108354871D01*
X132557171Y-108354871D02*
X132461933Y-108402490D01*
X132461933Y-108402490D02*
X132414314Y-108450109D01*
X132414314Y-108450109D02*
X132366695Y-108545347D01*
X132366695Y-108545347D02*
X132366695Y-108783442D01*
X132366695Y-108783442D02*
X132414314Y-108878680D01*
X132414314Y-108878680D02*
X132461933Y-108926300D01*
X132461933Y-108926300D02*
X132557171Y-108973919D01*
X132557171Y-108973919D02*
X132795266Y-108973919D01*
X132795266Y-108973919D02*
X132890504Y-108926300D01*
X132890504Y-108926300D02*
X132938123Y-108878680D01*
X130722885Y-103173919D02*
X130722885Y-102173919D01*
X130722885Y-102173919D02*
X130484790Y-102173919D01*
X130484790Y-102173919D02*
X130341933Y-102221538D01*
X130341933Y-102221538D02*
X130246695Y-102316776D01*
X130246695Y-102316776D02*
X130199076Y-102412014D01*
X130199076Y-102412014D02*
X130151457Y-102602490D01*
X130151457Y-102602490D02*
X130151457Y-102745347D01*
X130151457Y-102745347D02*
X130199076Y-102935823D01*
X130199076Y-102935823D02*
X130246695Y-103031061D01*
X130246695Y-103031061D02*
X130341933Y-103126300D01*
X130341933Y-103126300D02*
X130484790Y-103173919D01*
X130484790Y-103173919D02*
X130722885Y-103173919D01*
X129294314Y-102173919D02*
X129484790Y-102173919D01*
X129484790Y-102173919D02*
X129580028Y-102221538D01*
X129580028Y-102221538D02*
X129627647Y-102269157D01*
X129627647Y-102269157D02*
X129722885Y-102412014D01*
X129722885Y-102412014D02*
X129770504Y-102602490D01*
X129770504Y-102602490D02*
X129770504Y-102983442D01*
X129770504Y-102983442D02*
X129722885Y-103078680D01*
X129722885Y-103078680D02*
X129675266Y-103126300D01*
X129675266Y-103126300D02*
X129580028Y-103173919D01*
X129580028Y-103173919D02*
X129389552Y-103173919D01*
X129389552Y-103173919D02*
X129294314Y-103126300D01*
X129294314Y-103126300D02*
X129246695Y-103078680D01*
X129246695Y-103078680D02*
X129199076Y-102983442D01*
X129199076Y-102983442D02*
X129199076Y-102745347D01*
X129199076Y-102745347D02*
X129246695Y-102650109D01*
X129246695Y-102650109D02*
X129294314Y-102602490D01*
X129294314Y-102602490D02*
X129389552Y-102554871D01*
X129389552Y-102554871D02*
X129580028Y-102554871D01*
X129580028Y-102554871D02*
X129675266Y-102602490D01*
X129675266Y-102602490D02*
X129722885Y-102650109D01*
X129722885Y-102650109D02*
X129770504Y-102745347D01*
X128341933Y-102173919D02*
X128532409Y-102173919D01*
X128532409Y-102173919D02*
X128627647Y-102221538D01*
X128627647Y-102221538D02*
X128675266Y-102269157D01*
X128675266Y-102269157D02*
X128770504Y-102412014D01*
X128770504Y-102412014D02*
X128818123Y-102602490D01*
X128818123Y-102602490D02*
X128818123Y-102983442D01*
X128818123Y-102983442D02*
X128770504Y-103078680D01*
X128770504Y-103078680D02*
X128722885Y-103126300D01*
X128722885Y-103126300D02*
X128627647Y-103173919D01*
X128627647Y-103173919D02*
X128437171Y-103173919D01*
X128437171Y-103173919D02*
X128341933Y-103126300D01*
X128341933Y-103126300D02*
X128294314Y-103078680D01*
X128294314Y-103078680D02*
X128246695Y-102983442D01*
X128246695Y-102983442D02*
X128246695Y-102745347D01*
X128246695Y-102745347D02*
X128294314Y-102650109D01*
X128294314Y-102650109D02*
X128341933Y-102602490D01*
X128341933Y-102602490D02*
X128437171Y-102554871D01*
X128437171Y-102554871D02*
X128627647Y-102554871D01*
X128627647Y-102554871D02*
X128722885Y-102602490D01*
X128722885Y-102602490D02*
X128770504Y-102650109D01*
X128770504Y-102650109D02*
X128818123Y-102745347D01*
X127452885Y-97283919D02*
X127452885Y-96283919D01*
X127452885Y-96283919D02*
X127214790Y-96283919D01*
X127214790Y-96283919D02*
X127071933Y-96331538D01*
X127071933Y-96331538D02*
X126976695Y-96426776D01*
X126976695Y-96426776D02*
X126929076Y-96522014D01*
X126929076Y-96522014D02*
X126881457Y-96712490D01*
X126881457Y-96712490D02*
X126881457Y-96855347D01*
X126881457Y-96855347D02*
X126929076Y-97045823D01*
X126929076Y-97045823D02*
X126976695Y-97141061D01*
X126976695Y-97141061D02*
X127071933Y-97236300D01*
X127071933Y-97236300D02*
X127214790Y-97283919D01*
X127214790Y-97283919D02*
X127452885Y-97283919D01*
X126548123Y-96283919D02*
X125881457Y-96283919D01*
X125881457Y-96283919D02*
X126310028Y-97283919D01*
X125595742Y-96283919D02*
X124929076Y-96283919D01*
X124929076Y-96283919D02*
X125357647Y-97283919D01*
X147567885Y-73844919D02*
X147567885Y-72844919D01*
X147567885Y-72844919D02*
X147329790Y-72844919D01*
X147329790Y-72844919D02*
X147186933Y-72892538D01*
X147186933Y-72892538D02*
X147091695Y-72987776D01*
X147091695Y-72987776D02*
X147044076Y-73083014D01*
X147044076Y-73083014D02*
X146996457Y-73273490D01*
X146996457Y-73273490D02*
X146996457Y-73416347D01*
X146996457Y-73416347D02*
X147044076Y-73606823D01*
X147044076Y-73606823D02*
X147091695Y-73702061D01*
X147091695Y-73702061D02*
X147186933Y-73797300D01*
X147186933Y-73797300D02*
X147329790Y-73844919D01*
X147329790Y-73844919D02*
X147567885Y-73844919D01*
X146425028Y-73273490D02*
X146520266Y-73225871D01*
X146520266Y-73225871D02*
X146567885Y-73178252D01*
X146567885Y-73178252D02*
X146615504Y-73083014D01*
X146615504Y-73083014D02*
X146615504Y-73035395D01*
X146615504Y-73035395D02*
X146567885Y-72940157D01*
X146567885Y-72940157D02*
X146520266Y-72892538D01*
X146520266Y-72892538D02*
X146425028Y-72844919D01*
X146425028Y-72844919D02*
X146234552Y-72844919D01*
X146234552Y-72844919D02*
X146139314Y-72892538D01*
X146139314Y-72892538D02*
X146091695Y-72940157D01*
X146091695Y-72940157D02*
X146044076Y-73035395D01*
X146044076Y-73035395D02*
X146044076Y-73083014D01*
X146044076Y-73083014D02*
X146091695Y-73178252D01*
X146091695Y-73178252D02*
X146139314Y-73225871D01*
X146139314Y-73225871D02*
X146234552Y-73273490D01*
X146234552Y-73273490D02*
X146425028Y-73273490D01*
X146425028Y-73273490D02*
X146520266Y-73321109D01*
X146520266Y-73321109D02*
X146567885Y-73368728D01*
X146567885Y-73368728D02*
X146615504Y-73463966D01*
X146615504Y-73463966D02*
X146615504Y-73654442D01*
X146615504Y-73654442D02*
X146567885Y-73749680D01*
X146567885Y-73749680D02*
X146520266Y-73797300D01*
X146520266Y-73797300D02*
X146425028Y-73844919D01*
X146425028Y-73844919D02*
X146234552Y-73844919D01*
X146234552Y-73844919D02*
X146139314Y-73797300D01*
X146139314Y-73797300D02*
X146091695Y-73749680D01*
X146091695Y-73749680D02*
X146044076Y-73654442D01*
X146044076Y-73654442D02*
X146044076Y-73463966D01*
X146044076Y-73463966D02*
X146091695Y-73368728D01*
X146091695Y-73368728D02*
X146139314Y-73321109D01*
X146139314Y-73321109D02*
X146234552Y-73273490D01*
X145472647Y-73273490D02*
X145567885Y-73225871D01*
X145567885Y-73225871D02*
X145615504Y-73178252D01*
X145615504Y-73178252D02*
X145663123Y-73083014D01*
X145663123Y-73083014D02*
X145663123Y-73035395D01*
X145663123Y-73035395D02*
X145615504Y-72940157D01*
X145615504Y-72940157D02*
X145567885Y-72892538D01*
X145567885Y-72892538D02*
X145472647Y-72844919D01*
X145472647Y-72844919D02*
X145282171Y-72844919D01*
X145282171Y-72844919D02*
X145186933Y-72892538D01*
X145186933Y-72892538D02*
X145139314Y-72940157D01*
X145139314Y-72940157D02*
X145091695Y-73035395D01*
X145091695Y-73035395D02*
X145091695Y-73083014D01*
X145091695Y-73083014D02*
X145139314Y-73178252D01*
X145139314Y-73178252D02*
X145186933Y-73225871D01*
X145186933Y-73225871D02*
X145282171Y-73273490D01*
X145282171Y-73273490D02*
X145472647Y-73273490D01*
X145472647Y-73273490D02*
X145567885Y-73321109D01*
X145567885Y-73321109D02*
X145615504Y-73368728D01*
X145615504Y-73368728D02*
X145663123Y-73463966D01*
X145663123Y-73463966D02*
X145663123Y-73654442D01*
X145663123Y-73654442D02*
X145615504Y-73749680D01*
X145615504Y-73749680D02*
X145567885Y-73797300D01*
X145567885Y-73797300D02*
X145472647Y-73844919D01*
X145472647Y-73844919D02*
X145282171Y-73844919D01*
X145282171Y-73844919D02*
X145186933Y-73797300D01*
X145186933Y-73797300D02*
X145139314Y-73749680D01*
X145139314Y-73749680D02*
X145091695Y-73654442D01*
X145091695Y-73654442D02*
X145091695Y-73463966D01*
X145091695Y-73463966D02*
X145139314Y-73368728D01*
X145139314Y-73368728D02*
X145186933Y-73321109D01*
X145186933Y-73321109D02*
X145282171Y-73273490D01*
X175886666Y-103659580D02*
X175934285Y-103707200D01*
X175934285Y-103707200D02*
X176077142Y-103754819D01*
X176077142Y-103754819D02*
X176172380Y-103754819D01*
X176172380Y-103754819D02*
X176315237Y-103707200D01*
X176315237Y-103707200D02*
X176410475Y-103611961D01*
X176410475Y-103611961D02*
X176458094Y-103516723D01*
X176458094Y-103516723D02*
X176505713Y-103326247D01*
X176505713Y-103326247D02*
X176505713Y-103183390D01*
X176505713Y-103183390D02*
X176458094Y-102992914D01*
X176458094Y-102992914D02*
X176410475Y-102897676D01*
X176410475Y-102897676D02*
X176315237Y-102802438D01*
X176315237Y-102802438D02*
X176172380Y-102754819D01*
X176172380Y-102754819D02*
X176077142Y-102754819D01*
X176077142Y-102754819D02*
X175934285Y-102802438D01*
X175934285Y-102802438D02*
X175886666Y-102850057D01*
X174934285Y-103754819D02*
X175505713Y-103754819D01*
X175219999Y-103754819D02*
X175219999Y-102754819D01*
X175219999Y-102754819D02*
X175315237Y-102897676D01*
X175315237Y-102897676D02*
X175410475Y-102992914D01*
X175410475Y-102992914D02*
X175505713Y-103040533D01*
X176791428Y-106094819D02*
X177362856Y-106094819D01*
X177077142Y-106094819D02*
X177077142Y-105094819D01*
X177077142Y-105094819D02*
X177172380Y-105237676D01*
X177172380Y-105237676D02*
X177267618Y-105332914D01*
X177267618Y-105332914D02*
X177362856Y-105380533D01*
X176172380Y-105094819D02*
X176077142Y-105094819D01*
X176077142Y-105094819D02*
X175981904Y-105142438D01*
X175981904Y-105142438D02*
X175934285Y-105190057D01*
X175934285Y-105190057D02*
X175886666Y-105285295D01*
X175886666Y-105285295D02*
X175839047Y-105475771D01*
X175839047Y-105475771D02*
X175839047Y-105713866D01*
X175839047Y-105713866D02*
X175886666Y-105904342D01*
X175886666Y-105904342D02*
X175934285Y-105999580D01*
X175934285Y-105999580D02*
X175981904Y-106047200D01*
X175981904Y-106047200D02*
X176077142Y-106094819D01*
X176077142Y-106094819D02*
X176172380Y-106094819D01*
X176172380Y-106094819D02*
X176267618Y-106047200D01*
X176267618Y-106047200D02*
X176315237Y-105999580D01*
X176315237Y-105999580D02*
X176362856Y-105904342D01*
X176362856Y-105904342D02*
X176410475Y-105713866D01*
X176410475Y-105713866D02*
X176410475Y-105475771D01*
X176410475Y-105475771D02*
X176362856Y-105285295D01*
X176362856Y-105285295D02*
X176315237Y-105190057D01*
X176315237Y-105190057D02*
X176267618Y-105142438D01*
X176267618Y-105142438D02*
X176172380Y-105094819D01*
X174981904Y-105428152D02*
X174981904Y-106094819D01*
X175410475Y-105428152D02*
X175410475Y-105951961D01*
X175410475Y-105951961D02*
X175362856Y-106047200D01*
X175362856Y-106047200D02*
X175267618Y-106094819D01*
X175267618Y-106094819D02*
X175124761Y-106094819D01*
X175124761Y-106094819D02*
X175029523Y-106047200D01*
X175029523Y-106047200D02*
X174981904Y-105999580D01*
X174172380Y-105571009D02*
X174505713Y-105571009D01*
X174505713Y-106094819D02*
X174505713Y-105094819D01*
X174505713Y-105094819D02*
X174029523Y-105094819D01*
X189311619Y-62799933D02*
X188835428Y-62466600D01*
X189311619Y-62228505D02*
X188311619Y-62228505D01*
X188311619Y-62228505D02*
X188311619Y-62609457D01*
X188311619Y-62609457D02*
X188359238Y-62704695D01*
X188359238Y-62704695D02*
X188406857Y-62752314D01*
X188406857Y-62752314D02*
X188502095Y-62799933D01*
X188502095Y-62799933D02*
X188644952Y-62799933D01*
X188644952Y-62799933D02*
X188740190Y-62752314D01*
X188740190Y-62752314D02*
X188787809Y-62704695D01*
X188787809Y-62704695D02*
X188835428Y-62609457D01*
X188835428Y-62609457D02*
X188835428Y-62228505D01*
X189311619Y-63752314D02*
X189311619Y-63180886D01*
X189311619Y-63466600D02*
X188311619Y-63466600D01*
X188311619Y-63466600D02*
X188454476Y-63371362D01*
X188454476Y-63371362D02*
X188549714Y-63276124D01*
X188549714Y-63276124D02*
X188597333Y-63180886D01*
X184571619Y-62133266D02*
X184571619Y-61561838D01*
X184571619Y-61847552D02*
X183571619Y-61847552D01*
X183571619Y-61847552D02*
X183714476Y-61752314D01*
X183714476Y-61752314D02*
X183809714Y-61657076D01*
X183809714Y-61657076D02*
X183857333Y-61561838D01*
X184524000Y-62609457D02*
X184571619Y-62609457D01*
X184571619Y-62609457D02*
X184666857Y-62561838D01*
X184666857Y-62561838D02*
X184714476Y-62514219D01*
X183666857Y-62990409D02*
X183619238Y-63038028D01*
X183619238Y-63038028D02*
X183571619Y-63133266D01*
X183571619Y-63133266D02*
X183571619Y-63371361D01*
X183571619Y-63371361D02*
X183619238Y-63466599D01*
X183619238Y-63466599D02*
X183666857Y-63514218D01*
X183666857Y-63514218D02*
X183762095Y-63561837D01*
X183762095Y-63561837D02*
X183857333Y-63561837D01*
X183857333Y-63561837D02*
X184000190Y-63514218D01*
X184000190Y-63514218D02*
X184571619Y-62942790D01*
X184571619Y-62942790D02*
X184571619Y-63561837D01*
X184571619Y-63990409D02*
X183571619Y-63990409D01*
X184190666Y-64085647D02*
X184571619Y-64371361D01*
X183904952Y-64371361D02*
X184285904Y-63990409D01*
X153913419Y-73236242D02*
X153437228Y-72902909D01*
X153913419Y-72664814D02*
X152913419Y-72664814D01*
X152913419Y-72664814D02*
X152913419Y-73045766D01*
X152913419Y-73045766D02*
X152961038Y-73141004D01*
X152961038Y-73141004D02*
X153008657Y-73188623D01*
X153008657Y-73188623D02*
X153103895Y-73236242D01*
X153103895Y-73236242D02*
X153246752Y-73236242D01*
X153246752Y-73236242D02*
X153341990Y-73188623D01*
X153341990Y-73188623D02*
X153389609Y-73141004D01*
X153389609Y-73141004D02*
X153437228Y-73045766D01*
X153437228Y-73045766D02*
X153437228Y-72664814D01*
X153913419Y-74093385D02*
X153389609Y-74093385D01*
X153389609Y-74093385D02*
X153294371Y-74045766D01*
X153294371Y-74045766D02*
X153246752Y-73950528D01*
X153246752Y-73950528D02*
X153246752Y-73760052D01*
X153246752Y-73760052D02*
X153294371Y-73664814D01*
X153865800Y-74093385D02*
X153913419Y-73998147D01*
X153913419Y-73998147D02*
X153913419Y-73760052D01*
X153913419Y-73760052D02*
X153865800Y-73664814D01*
X153865800Y-73664814D02*
X153770561Y-73617195D01*
X153770561Y-73617195D02*
X153675323Y-73617195D01*
X153675323Y-73617195D02*
X153580085Y-73664814D01*
X153580085Y-73664814D02*
X153532466Y-73760052D01*
X153532466Y-73760052D02*
X153532466Y-73998147D01*
X153532466Y-73998147D02*
X153484847Y-74093385D01*
X151241919Y-78729033D02*
X151241919Y-78157605D01*
X151241919Y-78443319D02*
X150241919Y-78443319D01*
X150241919Y-78443319D02*
X150384776Y-78348081D01*
X150384776Y-78348081D02*
X150480014Y-78252843D01*
X150480014Y-78252843D02*
X150527633Y-78157605D01*
X150241919Y-79348081D02*
X150241919Y-79443319D01*
X150241919Y-79443319D02*
X150289538Y-79538557D01*
X150289538Y-79538557D02*
X150337157Y-79586176D01*
X150337157Y-79586176D02*
X150432395Y-79633795D01*
X150432395Y-79633795D02*
X150622871Y-79681414D01*
X150622871Y-79681414D02*
X150860966Y-79681414D01*
X150860966Y-79681414D02*
X151051442Y-79633795D01*
X151051442Y-79633795D02*
X151146680Y-79586176D01*
X151146680Y-79586176D02*
X151194300Y-79538557D01*
X151194300Y-79538557D02*
X151241919Y-79443319D01*
X151241919Y-79443319D02*
X151241919Y-79348081D01*
X151241919Y-79348081D02*
X151194300Y-79252843D01*
X151194300Y-79252843D02*
X151146680Y-79205224D01*
X151146680Y-79205224D02*
X151051442Y-79157605D01*
X151051442Y-79157605D02*
X150860966Y-79109986D01*
X150860966Y-79109986D02*
X150622871Y-79109986D01*
X150622871Y-79109986D02*
X150432395Y-79157605D01*
X150432395Y-79157605D02*
X150337157Y-79205224D01*
X150337157Y-79205224D02*
X150289538Y-79252843D01*
X150289538Y-79252843D02*
X150241919Y-79348081D01*
X150241919Y-80300462D02*
X150241919Y-80395700D01*
X150241919Y-80395700D02*
X150289538Y-80490938D01*
X150289538Y-80490938D02*
X150337157Y-80538557D01*
X150337157Y-80538557D02*
X150432395Y-80586176D01*
X150432395Y-80586176D02*
X150622871Y-80633795D01*
X150622871Y-80633795D02*
X150860966Y-80633795D01*
X150860966Y-80633795D02*
X151051442Y-80586176D01*
X151051442Y-80586176D02*
X151146680Y-80538557D01*
X151146680Y-80538557D02*
X151194300Y-80490938D01*
X151194300Y-80490938D02*
X151241919Y-80395700D01*
X151241919Y-80395700D02*
X151241919Y-80300462D01*
X151241919Y-80300462D02*
X151194300Y-80205224D01*
X151194300Y-80205224D02*
X151146680Y-80157605D01*
X151146680Y-80157605D02*
X151051442Y-80109986D01*
X151051442Y-80109986D02*
X150860966Y-80062367D01*
X150860966Y-80062367D02*
X150622871Y-80062367D01*
X150622871Y-80062367D02*
X150432395Y-80109986D01*
X150432395Y-80109986D02*
X150337157Y-80157605D01*
X150337157Y-80157605D02*
X150289538Y-80205224D01*
X150289538Y-80205224D02*
X150241919Y-80300462D01*
X151241919Y-81633795D02*
X150765728Y-81300462D01*
X151241919Y-81062367D02*
X150241919Y-81062367D01*
X150241919Y-81062367D02*
X150241919Y-81443319D01*
X150241919Y-81443319D02*
X150289538Y-81538557D01*
X150289538Y-81538557D02*
X150337157Y-81586176D01*
X150337157Y-81586176D02*
X150432395Y-81633795D01*
X150432395Y-81633795D02*
X150575252Y-81633795D01*
X150575252Y-81633795D02*
X150670490Y-81586176D01*
X150670490Y-81586176D02*
X150718109Y-81538557D01*
X150718109Y-81538557D02*
X150765728Y-81443319D01*
X150765728Y-81443319D02*
X150765728Y-81062367D01*
X161801419Y-72865957D02*
X161325228Y-72532624D01*
X161801419Y-72294529D02*
X160801419Y-72294529D01*
X160801419Y-72294529D02*
X160801419Y-72675481D01*
X160801419Y-72675481D02*
X160849038Y-72770719D01*
X160849038Y-72770719D02*
X160896657Y-72818338D01*
X160896657Y-72818338D02*
X160991895Y-72865957D01*
X160991895Y-72865957D02*
X161134752Y-72865957D01*
X161134752Y-72865957D02*
X161229990Y-72818338D01*
X161229990Y-72818338D02*
X161277609Y-72770719D01*
X161277609Y-72770719D02*
X161325228Y-72675481D01*
X161325228Y-72675481D02*
X161325228Y-72294529D01*
X161801419Y-73294529D02*
X161134752Y-73294529D01*
X161229990Y-73294529D02*
X161182371Y-73342148D01*
X161182371Y-73342148D02*
X161134752Y-73437386D01*
X161134752Y-73437386D02*
X161134752Y-73580243D01*
X161134752Y-73580243D02*
X161182371Y-73675481D01*
X161182371Y-73675481D02*
X161277609Y-73723100D01*
X161277609Y-73723100D02*
X161801419Y-73723100D01*
X161277609Y-73723100D02*
X161182371Y-73770719D01*
X161182371Y-73770719D02*
X161134752Y-73865957D01*
X161134752Y-73865957D02*
X161134752Y-74008814D01*
X161134752Y-74008814D02*
X161182371Y-74104053D01*
X161182371Y-74104053D02*
X161277609Y-74151672D01*
X161277609Y-74151672D02*
X161801419Y-74151672D01*
X164653119Y-78703633D02*
X164653119Y-78132205D01*
X164653119Y-78417919D02*
X163653119Y-78417919D01*
X163653119Y-78417919D02*
X163795976Y-78322681D01*
X163795976Y-78322681D02*
X163891214Y-78227443D01*
X163891214Y-78227443D02*
X163938833Y-78132205D01*
X163653119Y-79322681D02*
X163653119Y-79417919D01*
X163653119Y-79417919D02*
X163700738Y-79513157D01*
X163700738Y-79513157D02*
X163748357Y-79560776D01*
X163748357Y-79560776D02*
X163843595Y-79608395D01*
X163843595Y-79608395D02*
X164034071Y-79656014D01*
X164034071Y-79656014D02*
X164272166Y-79656014D01*
X164272166Y-79656014D02*
X164462642Y-79608395D01*
X164462642Y-79608395D02*
X164557880Y-79560776D01*
X164557880Y-79560776D02*
X164605500Y-79513157D01*
X164605500Y-79513157D02*
X164653119Y-79417919D01*
X164653119Y-79417919D02*
X164653119Y-79322681D01*
X164653119Y-79322681D02*
X164605500Y-79227443D01*
X164605500Y-79227443D02*
X164557880Y-79179824D01*
X164557880Y-79179824D02*
X164462642Y-79132205D01*
X164462642Y-79132205D02*
X164272166Y-79084586D01*
X164272166Y-79084586D02*
X164034071Y-79084586D01*
X164034071Y-79084586D02*
X163843595Y-79132205D01*
X163843595Y-79132205D02*
X163748357Y-79179824D01*
X163748357Y-79179824D02*
X163700738Y-79227443D01*
X163700738Y-79227443D02*
X163653119Y-79322681D01*
X163653119Y-80275062D02*
X163653119Y-80370300D01*
X163653119Y-80370300D02*
X163700738Y-80465538D01*
X163700738Y-80465538D02*
X163748357Y-80513157D01*
X163748357Y-80513157D02*
X163843595Y-80560776D01*
X163843595Y-80560776D02*
X164034071Y-80608395D01*
X164034071Y-80608395D02*
X164272166Y-80608395D01*
X164272166Y-80608395D02*
X164462642Y-80560776D01*
X164462642Y-80560776D02*
X164557880Y-80513157D01*
X164557880Y-80513157D02*
X164605500Y-80465538D01*
X164605500Y-80465538D02*
X164653119Y-80370300D01*
X164653119Y-80370300D02*
X164653119Y-80275062D01*
X164653119Y-80275062D02*
X164605500Y-80179824D01*
X164605500Y-80179824D02*
X164557880Y-80132205D01*
X164557880Y-80132205D02*
X164462642Y-80084586D01*
X164462642Y-80084586D02*
X164272166Y-80036967D01*
X164272166Y-80036967D02*
X164034071Y-80036967D01*
X164034071Y-80036967D02*
X163843595Y-80084586D01*
X163843595Y-80084586D02*
X163748357Y-80132205D01*
X163748357Y-80132205D02*
X163700738Y-80179824D01*
X163700738Y-80179824D02*
X163653119Y-80275062D01*
X164653119Y-81608395D02*
X164176928Y-81275062D01*
X164653119Y-81036967D02*
X163653119Y-81036967D01*
X163653119Y-81036967D02*
X163653119Y-81417919D01*
X163653119Y-81417919D02*
X163700738Y-81513157D01*
X163700738Y-81513157D02*
X163748357Y-81560776D01*
X163748357Y-81560776D02*
X163843595Y-81608395D01*
X163843595Y-81608395D02*
X163986452Y-81608395D01*
X163986452Y-81608395D02*
X164081690Y-81560776D01*
X164081690Y-81560776D02*
X164129309Y-81513157D01*
X164129309Y-81513157D02*
X164176928Y-81417919D01*
X164176928Y-81417919D02*
X164176928Y-81036967D01*
X189789600Y-108331095D02*
X189837219Y-108473952D01*
X189837219Y-108473952D02*
X189837219Y-108712047D01*
X189837219Y-108712047D02*
X189789600Y-108807285D01*
X189789600Y-108807285D02*
X189741980Y-108854904D01*
X189741980Y-108854904D02*
X189646742Y-108902523D01*
X189646742Y-108902523D02*
X189551504Y-108902523D01*
X189551504Y-108902523D02*
X189456266Y-108854904D01*
X189456266Y-108854904D02*
X189408647Y-108807285D01*
X189408647Y-108807285D02*
X189361028Y-108712047D01*
X189361028Y-108712047D02*
X189313409Y-108521571D01*
X189313409Y-108521571D02*
X189265790Y-108426333D01*
X189265790Y-108426333D02*
X189218171Y-108378714D01*
X189218171Y-108378714D02*
X189122933Y-108331095D01*
X189122933Y-108331095D02*
X189027695Y-108331095D01*
X189027695Y-108331095D02*
X188932457Y-108378714D01*
X188932457Y-108378714D02*
X188884838Y-108426333D01*
X188884838Y-108426333D02*
X188837219Y-108521571D01*
X188837219Y-108521571D02*
X188837219Y-108759666D01*
X188837219Y-108759666D02*
X188884838Y-108902523D01*
X189837219Y-109854904D02*
X189837219Y-109283476D01*
X189837219Y-109569190D02*
X188837219Y-109569190D01*
X188837219Y-109569190D02*
X188980076Y-109473952D01*
X188980076Y-109473952D02*
X189075314Y-109378714D01*
X189075314Y-109378714D02*
X189122933Y-109283476D01*
X191790366Y-82083619D02*
X191790366Y-81083619D01*
X191790366Y-81083619D02*
X191218938Y-82083619D01*
X191218938Y-82083619D02*
X191218938Y-81083619D01*
X190742747Y-81559809D02*
X190409414Y-81559809D01*
X190266557Y-82083619D02*
X190742747Y-82083619D01*
X190742747Y-82083619D02*
X190742747Y-81083619D01*
X190742747Y-81083619D02*
X190266557Y-81083619D01*
X189361795Y-81083619D02*
X189837985Y-81083619D01*
X189837985Y-81083619D02*
X189885604Y-81559809D01*
X189885604Y-81559809D02*
X189837985Y-81512190D01*
X189837985Y-81512190D02*
X189742747Y-81464571D01*
X189742747Y-81464571D02*
X189504652Y-81464571D01*
X189504652Y-81464571D02*
X189409414Y-81512190D01*
X189409414Y-81512190D02*
X189361795Y-81559809D01*
X189361795Y-81559809D02*
X189314176Y-81655047D01*
X189314176Y-81655047D02*
X189314176Y-81893142D01*
X189314176Y-81893142D02*
X189361795Y-81988380D01*
X189361795Y-81988380D02*
X189409414Y-82036000D01*
X189409414Y-82036000D02*
X189504652Y-82083619D01*
X189504652Y-82083619D02*
X189742747Y-82083619D01*
X189742747Y-82083619D02*
X189837985Y-82036000D01*
X189837985Y-82036000D02*
X189885604Y-81988380D01*
X188409414Y-81083619D02*
X188885604Y-81083619D01*
X188885604Y-81083619D02*
X188933223Y-81559809D01*
X188933223Y-81559809D02*
X188885604Y-81512190D01*
X188885604Y-81512190D02*
X188790366Y-81464571D01*
X188790366Y-81464571D02*
X188552271Y-81464571D01*
X188552271Y-81464571D02*
X188457033Y-81512190D01*
X188457033Y-81512190D02*
X188409414Y-81559809D01*
X188409414Y-81559809D02*
X188361795Y-81655047D01*
X188361795Y-81655047D02*
X188361795Y-81893142D01*
X188361795Y-81893142D02*
X188409414Y-81988380D01*
X188409414Y-81988380D02*
X188457033Y-82036000D01*
X188457033Y-82036000D02*
X188552271Y-82083619D01*
X188552271Y-82083619D02*
X188790366Y-82083619D01*
X188790366Y-82083619D02*
X188885604Y-82036000D01*
X188885604Y-82036000D02*
X188933223Y-81988380D01*
X187457033Y-81083619D02*
X187933223Y-81083619D01*
X187933223Y-81083619D02*
X187980842Y-81559809D01*
X187980842Y-81559809D02*
X187933223Y-81512190D01*
X187933223Y-81512190D02*
X187837985Y-81464571D01*
X187837985Y-81464571D02*
X187599890Y-81464571D01*
X187599890Y-81464571D02*
X187504652Y-81512190D01*
X187504652Y-81512190D02*
X187457033Y-81559809D01*
X187457033Y-81559809D02*
X187409414Y-81655047D01*
X187409414Y-81655047D02*
X187409414Y-81893142D01*
X187409414Y-81893142D02*
X187457033Y-81988380D01*
X187457033Y-81988380D02*
X187504652Y-82036000D01*
X187504652Y-82036000D02*
X187599890Y-82083619D01*
X187599890Y-82083619D02*
X187837985Y-82083619D01*
X187837985Y-82083619D02*
X187933223Y-82036000D01*
X187933223Y-82036000D02*
X187980842Y-81988380D01*
X126865838Y-67950680D02*
X126913457Y-67998300D01*
X126913457Y-67998300D02*
X127056314Y-68045919D01*
X127056314Y-68045919D02*
X127151552Y-68045919D01*
X127151552Y-68045919D02*
X127294409Y-67998300D01*
X127294409Y-67998300D02*
X127389647Y-67903061D01*
X127389647Y-67903061D02*
X127437266Y-67807823D01*
X127437266Y-67807823D02*
X127484885Y-67617347D01*
X127484885Y-67617347D02*
X127484885Y-67474490D01*
X127484885Y-67474490D02*
X127437266Y-67284014D01*
X127437266Y-67284014D02*
X127389647Y-67188776D01*
X127389647Y-67188776D02*
X127294409Y-67093538D01*
X127294409Y-67093538D02*
X127151552Y-67045919D01*
X127151552Y-67045919D02*
X127056314Y-67045919D01*
X127056314Y-67045919D02*
X126913457Y-67093538D01*
X126913457Y-67093538D02*
X126865838Y-67141157D01*
X126437266Y-68045919D02*
X126437266Y-67045919D01*
X126437266Y-67045919D02*
X126199171Y-67045919D01*
X126199171Y-67045919D02*
X126056314Y-67093538D01*
X126056314Y-67093538D02*
X125961076Y-67188776D01*
X125961076Y-67188776D02*
X125913457Y-67284014D01*
X125913457Y-67284014D02*
X125865838Y-67474490D01*
X125865838Y-67474490D02*
X125865838Y-67617347D01*
X125865838Y-67617347D02*
X125913457Y-67807823D01*
X125913457Y-67807823D02*
X125961076Y-67903061D01*
X125961076Y-67903061D02*
X126056314Y-67998300D01*
X126056314Y-67998300D02*
X126199171Y-68045919D01*
X126199171Y-68045919D02*
X126437266Y-68045919D01*
X125008695Y-67379252D02*
X125008695Y-68045919D01*
X125246790Y-66998300D02*
X125484885Y-67712585D01*
X125484885Y-67712585D02*
X124865838Y-67712585D01*
X124294409Y-67045919D02*
X124199171Y-67045919D01*
X124199171Y-67045919D02*
X124103933Y-67093538D01*
X124103933Y-67093538D02*
X124056314Y-67141157D01*
X124056314Y-67141157D02*
X124008695Y-67236395D01*
X124008695Y-67236395D02*
X123961076Y-67426871D01*
X123961076Y-67426871D02*
X123961076Y-67664966D01*
X123961076Y-67664966D02*
X124008695Y-67855442D01*
X124008695Y-67855442D02*
X124056314Y-67950680D01*
X124056314Y-67950680D02*
X124103933Y-67998300D01*
X124103933Y-67998300D02*
X124199171Y-68045919D01*
X124199171Y-68045919D02*
X124294409Y-68045919D01*
X124294409Y-68045919D02*
X124389647Y-67998300D01*
X124389647Y-67998300D02*
X124437266Y-67950680D01*
X124437266Y-67950680D02*
X124484885Y-67855442D01*
X124484885Y-67855442D02*
X124532504Y-67664966D01*
X124532504Y-67664966D02*
X124532504Y-67426871D01*
X124532504Y-67426871D02*
X124484885Y-67236395D01*
X124484885Y-67236395D02*
X124437266Y-67141157D01*
X124437266Y-67141157D02*
X124389647Y-67093538D01*
X124389647Y-67093538D02*
X124294409Y-67045919D01*
X123008695Y-68045919D02*
X123580123Y-68045919D01*
X123294409Y-68045919D02*
X123294409Y-67045919D01*
X123294409Y-67045919D02*
X123389647Y-67188776D01*
X123389647Y-67188776D02*
X123484885Y-67284014D01*
X123484885Y-67284014D02*
X123580123Y-67331633D01*
X122675361Y-67045919D02*
X122008695Y-67045919D01*
X122008695Y-67045919D02*
X122437266Y-68045919D01*
X159832466Y-56525319D02*
X159832466Y-55525319D01*
X159261038Y-56525319D02*
X159689609Y-55953890D01*
X159261038Y-55525319D02*
X159832466Y-56096747D01*
X158689609Y-56525319D02*
X158784847Y-56477700D01*
X158784847Y-56477700D02*
X158832466Y-56382461D01*
X158832466Y-56382461D02*
X158832466Y-55525319D01*
X158308656Y-56525319D02*
X158308656Y-55858652D01*
X158308656Y-55525319D02*
X158356275Y-55572938D01*
X158356275Y-55572938D02*
X158308656Y-55620557D01*
X158308656Y-55620557D02*
X158261037Y-55572938D01*
X158261037Y-55572938D02*
X158308656Y-55525319D01*
X158308656Y-55525319D02*
X158308656Y-55620557D01*
X157832466Y-55858652D02*
X157832466Y-56858652D01*
X157832466Y-55906271D02*
X157737228Y-55858652D01*
X157737228Y-55858652D02*
X157546752Y-55858652D01*
X157546752Y-55858652D02*
X157451514Y-55906271D01*
X157451514Y-55906271D02*
X157403895Y-55953890D01*
X157403895Y-55953890D02*
X157356276Y-56049128D01*
X157356276Y-56049128D02*
X157356276Y-56334842D01*
X157356276Y-56334842D02*
X157403895Y-56430080D01*
X157403895Y-56430080D02*
X157451514Y-56477700D01*
X157451514Y-56477700D02*
X157546752Y-56525319D01*
X157546752Y-56525319D02*
X157737228Y-56525319D01*
X157737228Y-56525319D02*
X157832466Y-56477700D01*
X156927704Y-55858652D02*
X156927704Y-56858652D01*
X156927704Y-55906271D02*
X156832466Y-55858652D01*
X156832466Y-55858652D02*
X156641990Y-55858652D01*
X156641990Y-55858652D02*
X156546752Y-55906271D01*
X156546752Y-55906271D02*
X156499133Y-55953890D01*
X156499133Y-55953890D02*
X156451514Y-56049128D01*
X156451514Y-56049128D02*
X156451514Y-56334842D01*
X156451514Y-56334842D02*
X156499133Y-56430080D01*
X156499133Y-56430080D02*
X156546752Y-56477700D01*
X156546752Y-56477700D02*
X156641990Y-56525319D01*
X156641990Y-56525319D02*
X156832466Y-56525319D01*
X156832466Y-56525319D02*
X156927704Y-56477700D01*
D13*
%TO.C,G\u002A\u002A\u002A*%
X150690000Y-61044000D02*
X151265000Y-61519000D01*
X151265000Y-61519000D02*
X151690000Y-61194000D01*
X151690000Y-61194000D02*
X150690000Y-61044000D01*
D14*
X152015000Y-62632605D02*
X152915000Y-62619000D01*
X152414999Y-64014050D02*
X152014999Y-64014050D01*
X152415000Y-63019000D02*
X152165000Y-63019000D01*
X152415000Y-63069000D02*
X152415000Y-63519000D01*
X152415000Y-63519000D02*
X152115000Y-63519000D01*
X152415000Y-64019000D02*
X152415000Y-64519000D01*
X152415000Y-64519000D02*
X151965000Y-64519000D01*
D13*
X152640000Y-60319000D02*
X152990000Y-59144000D01*
D14*
X152915000Y-62619000D02*
X152965000Y-65069000D01*
X152965000Y-65069000D02*
X151765000Y-65069000D01*
D13*
X152990000Y-59144000D02*
X154790000Y-59194000D01*
D14*
X153240000Y-65069000D02*
X154015000Y-62619000D01*
X153640000Y-65069000D02*
X153240000Y-65069000D01*
X153890000Y-64469000D02*
X153640000Y-65069000D01*
X153965000Y-64069000D02*
X154190000Y-63319000D01*
X154015000Y-62619000D02*
X154340000Y-62619000D01*
X154190000Y-63319000D02*
X154465000Y-64069000D01*
D13*
X154215000Y-61244000D02*
X155890000Y-61344000D01*
D14*
X154340000Y-62619000D02*
X155240000Y-65069000D01*
X154465000Y-64069000D02*
X153965000Y-64069000D01*
X154490000Y-64469000D02*
X153890000Y-64469000D01*
X154740000Y-65069000D02*
X154490000Y-64469000D01*
X154740000Y-65069000D02*
X155240000Y-65069000D01*
D13*
X154790000Y-59194000D02*
X152640000Y-60319000D01*
X154915000Y-60669000D02*
X154215000Y-61244000D01*
D14*
X155415000Y-64594000D02*
X155415000Y-65044000D01*
X155415000Y-65044000D02*
X156665000Y-65044000D01*
D13*
X155915000Y-61344000D02*
X154915000Y-60669000D01*
X156065000Y-60894000D02*
X157690000Y-62019000D01*
X156115000Y-58569000D02*
X157240000Y-59794000D01*
X156140000Y-58169000D02*
X156065000Y-60894000D01*
D14*
X156165000Y-64594000D02*
X155415000Y-64594000D01*
X156190000Y-62594000D02*
X156165000Y-64594000D01*
X156640000Y-62594000D02*
X156190000Y-62594000D01*
X156665000Y-65044000D02*
X156640000Y-62594000D01*
X156840000Y-65044000D02*
X157540000Y-64094000D01*
X156940000Y-65044000D02*
X156840000Y-65044000D01*
D13*
X157240000Y-59794000D02*
X156665000Y-61294000D01*
D14*
X157340000Y-65044000D02*
X156940000Y-65044000D01*
X157581269Y-62588594D02*
X158690000Y-62594000D01*
D13*
X157690000Y-62019000D02*
X159365000Y-61794000D01*
D14*
X157740000Y-63044000D02*
X158190000Y-63044000D01*
X158090000Y-64094000D02*
X157340000Y-65044000D01*
X158190000Y-63044000D02*
X158190000Y-63594000D01*
X158190000Y-63594000D02*
X157690000Y-63594000D01*
X158240000Y-64094000D02*
X158090000Y-64094000D01*
X158240000Y-65044000D02*
X158240000Y-64094000D01*
X158690000Y-62594000D02*
X158690000Y-65044000D01*
X158690000Y-65044000D02*
X158240000Y-65044000D01*
D13*
X158840000Y-62244000D02*
X159815000Y-62594000D01*
D14*
X159140000Y-62594000D02*
X160440000Y-62594000D01*
X159140000Y-63094000D02*
X159140000Y-62594000D01*
X159140000Y-64544000D02*
X159990000Y-64544000D01*
X159140000Y-65044000D02*
X159140000Y-64544000D01*
D13*
X159240000Y-61969000D02*
X158840000Y-62244000D01*
D14*
X159340000Y-63544000D02*
X159990000Y-63544000D01*
X159340000Y-63994000D02*
X159340000Y-63544000D01*
D13*
X159365000Y-61794000D02*
X161190000Y-62694000D01*
X159615000Y-59794000D02*
X156140000Y-58169000D01*
X159615000Y-59794000D02*
X161940000Y-60944000D01*
D14*
X159990000Y-63094000D02*
X159140000Y-63094000D01*
X159990000Y-63544000D02*
X159990000Y-63094000D01*
X159990000Y-63994000D02*
X159340000Y-63994000D01*
X159990000Y-64544000D02*
X159990000Y-63994000D01*
D13*
X160015000Y-62569000D02*
X159240000Y-61969000D01*
X160365000Y-58369000D02*
X159615000Y-59794000D01*
X160365000Y-58369000D02*
X162565000Y-59544000D01*
D14*
X160390000Y-65044000D02*
X159140000Y-65044000D01*
X160440000Y-62594000D02*
X160490000Y-65044000D01*
X160490000Y-65044000D02*
X160390000Y-65044000D01*
X161590000Y-62607605D02*
X162490000Y-62594000D01*
D13*
X161940000Y-60944000D02*
X163415000Y-62669000D01*
X161940000Y-60944000D02*
X167590000Y-63794000D01*
D14*
X161989999Y-63989050D02*
X161589999Y-63989050D01*
X161990000Y-62994000D02*
X161740000Y-62994000D01*
X161990000Y-63044000D02*
X161990000Y-63494000D01*
X161990000Y-63494000D02*
X161690000Y-63494000D01*
X161990000Y-63994000D02*
X161990000Y-64494000D01*
X161990000Y-64494000D02*
X161540000Y-64494000D01*
X162490000Y-62594000D02*
X162540000Y-65044000D01*
X162540000Y-65044000D02*
X161340000Y-65044000D01*
D13*
X162565000Y-59544000D02*
X160990000Y-60444000D01*
X162665000Y-59369000D02*
X161940000Y-60944000D01*
D14*
X162940000Y-63444000D02*
X162940000Y-64144000D01*
D13*
X163240000Y-62769000D02*
X156140000Y-58169000D01*
D14*
X163440000Y-63444000D02*
X163440000Y-64094000D01*
D13*
X163690000Y-59619000D02*
X161940000Y-60944000D01*
X163690000Y-59619000D02*
X162665000Y-59369000D01*
X163765000Y-63694000D02*
X164140000Y-63869000D01*
X164090000Y-63294000D02*
X163765000Y-63694000D01*
D14*
X164140000Y-63444000D02*
X164140000Y-64144000D01*
D13*
X164640000Y-64044000D02*
X165190000Y-64319000D01*
D14*
X164640000Y-64144000D02*
X164640000Y-63444000D01*
D13*
X164690000Y-63319000D02*
X164915000Y-63944000D01*
X164915000Y-63944000D02*
X167590000Y-63794000D01*
X165190000Y-64319000D02*
X164615000Y-63519000D01*
X166265000Y-64269000D02*
X165440000Y-63919000D01*
X167590000Y-63794000D02*
X163690000Y-59619000D01*
X167590000Y-63794000D02*
X164690000Y-63319000D01*
X167590000Y-63794000D02*
X166265000Y-64269000D01*
D14*
X151565001Y-63718999D02*
G75*
G02*
X152015000Y-62632606I449999J449999D01*
G01*
X151765001Y-65068998D02*
G75*
G02*
X151588744Y-63760064I249998J699998D01*
G01*
X151965001Y-64518998D02*
G75*
G02*
X152014999Y-64014051I49999J249998D01*
G01*
X152115000Y-63519000D02*
G75*
G02*
X152175634Y-63026464I0J250000D01*
G01*
X157565001Y-64043998D02*
G75*
G02*
X157581269Y-62588595I249999J724998D01*
G01*
X157690001Y-63593998D02*
G75*
G02*
X157690001Y-63044002I124999J274998D01*
G01*
X161140001Y-63693999D02*
G75*
G02*
X161590000Y-62607606I449999J449999D01*
G01*
X161340001Y-65043998D02*
G75*
G02*
X161163744Y-63735064I249998J699998D01*
G01*
X161540001Y-64493998D02*
G75*
G02*
X161589999Y-63989051I49999J249998D01*
G01*
X161690000Y-63494000D02*
G75*
G02*
X161750634Y-63001464I0J250000D01*
G01*
X162940000Y-63444000D02*
G75*
G02*
X164640000Y-63444000I850000J0D01*
G01*
X163440000Y-63444000D02*
G75*
G02*
X164140000Y-63444000I350000J0D01*
G01*
X164140000Y-64144000D02*
G75*
G02*
X163440000Y-64144000I-350000J0D01*
G01*
X164640000Y-64144000D02*
G75*
G02*
X162940000Y-64144000I-850000J0D01*
G01*
D15*
X173137361Y-118039226D02*
X173073542Y-118103045D01*
X173009723Y-118039226D01*
X173073542Y-117975407D01*
X173137361Y-118039226D01*
G36*
X173137361Y-118039226D02*
G01*
X173073542Y-118103045D01*
X173009723Y-118039226D01*
X173073542Y-117975407D01*
X173137361Y-118039226D01*
G37*
D14*
%TO.C,C1*%
X178089801Y-100915000D02*
X177689801Y-100915000D01*
X177889801Y-100715000D02*
X177889801Y-101115000D01*
X175820000Y-100030000D02*
X175820000Y-104190000D01*
X175780000Y-100030000D02*
X175780000Y-104190000D01*
X175740000Y-100031000D02*
X175740000Y-104189000D01*
X175700000Y-100033000D02*
X175700000Y-104187000D01*
X175660000Y-100036000D02*
X175660000Y-104184000D01*
X175620000Y-102950000D02*
X175620000Y-104181000D01*
X175620000Y-100039000D02*
X175620000Y-101270000D01*
X175580000Y-102950000D02*
X175580000Y-104177000D01*
X175580000Y-100043000D02*
X175580000Y-101270000D01*
X175540000Y-102950000D02*
X175540000Y-104172000D01*
X175540000Y-100048000D02*
X175540000Y-101270000D01*
X175500000Y-102950000D02*
X175500000Y-104166000D01*
X175500000Y-100054000D02*
X175500000Y-101270000D01*
X175460000Y-102950000D02*
X175460000Y-104160000D01*
X175460000Y-100060000D02*
X175460000Y-101270000D01*
X175420000Y-102950000D02*
X175420000Y-104152000D01*
X175420000Y-100068000D02*
X175420000Y-101270000D01*
X175380000Y-102950000D02*
X175380000Y-104144000D01*
X175380000Y-100076000D02*
X175380000Y-101270000D01*
X175340000Y-102950000D02*
X175340000Y-104135000D01*
X175340000Y-100085000D02*
X175340000Y-101270000D01*
X175300000Y-102950000D02*
X175300000Y-104126000D01*
X175300000Y-100094000D02*
X175300000Y-101270000D01*
X175260000Y-102950000D02*
X175260000Y-104115000D01*
X175260000Y-100105000D02*
X175260000Y-101270000D01*
X175220000Y-102950000D02*
X175220000Y-104104000D01*
X175220000Y-100116000D02*
X175220000Y-101270000D01*
X175180000Y-102950000D02*
X175180000Y-104092000D01*
X175180000Y-100128000D02*
X175180000Y-101270000D01*
X175140000Y-102950000D02*
X175140000Y-104078000D01*
X175140000Y-100142000D02*
X175140000Y-101270000D01*
X175099000Y-102950000D02*
X175099000Y-104064000D01*
X175099000Y-100156000D02*
X175099000Y-101270000D01*
X175059000Y-102950000D02*
X175059000Y-104050000D01*
X175059000Y-100170000D02*
X175059000Y-101270000D01*
X175019000Y-102950000D02*
X175019000Y-104034000D01*
X175019000Y-100186000D02*
X175019000Y-101270000D01*
X174979000Y-102950000D02*
X174979000Y-104017000D01*
X174979000Y-100203000D02*
X174979000Y-101270000D01*
X174939000Y-102950000D02*
X174939000Y-103999000D01*
X174939000Y-100221000D02*
X174939000Y-101270000D01*
X174899000Y-102950000D02*
X174899000Y-103980000D01*
X174899000Y-100240000D02*
X174899000Y-101270000D01*
X174859000Y-102950000D02*
X174859000Y-103961000D01*
X174859000Y-100259000D02*
X174859000Y-101270000D01*
X174819000Y-102950000D02*
X174819000Y-103940000D01*
X174819000Y-100280000D02*
X174819000Y-101270000D01*
X174779000Y-102950000D02*
X174779000Y-103918000D01*
X174779000Y-100302000D02*
X174779000Y-101270000D01*
X174739000Y-102950000D02*
X174739000Y-103895000D01*
X174739000Y-100325000D02*
X174739000Y-101270000D01*
X174699000Y-102950000D02*
X174699000Y-103870000D01*
X174699000Y-100350000D02*
X174699000Y-101270000D01*
X174659000Y-102950000D02*
X174659000Y-103845000D01*
X174659000Y-100375000D02*
X174659000Y-101270000D01*
X174619000Y-102950000D02*
X174619000Y-103818000D01*
X174619000Y-100402000D02*
X174619000Y-101270000D01*
X174579000Y-102950000D02*
X174579000Y-103790000D01*
X174579000Y-100430000D02*
X174579000Y-101270000D01*
X174539000Y-102950000D02*
X174539000Y-103760000D01*
X174539000Y-100460000D02*
X174539000Y-101270000D01*
X174499000Y-102950000D02*
X174499000Y-103729000D01*
X174499000Y-100491000D02*
X174499000Y-101270000D01*
X174459000Y-102950000D02*
X174459000Y-103697000D01*
X174459000Y-100523000D02*
X174459000Y-101270000D01*
X174419000Y-102950000D02*
X174419000Y-103662000D01*
X174419000Y-100558000D02*
X174419000Y-101270000D01*
X174379000Y-102950000D02*
X174379000Y-103626000D01*
X174379000Y-100594000D02*
X174379000Y-101270000D01*
X174339000Y-102950000D02*
X174339000Y-103588000D01*
X174339000Y-100632000D02*
X174339000Y-101270000D01*
X174299000Y-102950000D02*
X174299000Y-103548000D01*
X174299000Y-100672000D02*
X174299000Y-101270000D01*
X174259000Y-102950000D02*
X174259000Y-103506000D01*
X174259000Y-100714000D02*
X174259000Y-101270000D01*
X174219000Y-102950000D02*
X174219000Y-103461000D01*
X174219000Y-100759000D02*
X174219000Y-101270000D01*
X174179000Y-102950000D02*
X174179000Y-103414000D01*
X174179000Y-100806000D02*
X174179000Y-101270000D01*
X174139000Y-102950000D02*
X174139000Y-103364000D01*
X174139000Y-100856000D02*
X174139000Y-101270000D01*
X174099000Y-102950000D02*
X174099000Y-103310000D01*
X174099000Y-100910000D02*
X174099000Y-101270000D01*
X174059000Y-102950000D02*
X174059000Y-103252000D01*
X174059000Y-100968000D02*
X174059000Y-101270000D01*
X174019000Y-102950000D02*
X174019000Y-103190000D01*
X174019000Y-101030000D02*
X174019000Y-101270000D01*
X173979000Y-101097000D02*
X173979000Y-103123000D01*
X173939000Y-101170000D02*
X173939000Y-103050000D01*
X173899000Y-101251000D02*
X173899000Y-102969000D01*
X173859000Y-101342000D02*
X173859000Y-102878000D01*
X173819000Y-101446000D02*
X173819000Y-102774000D01*
X173779000Y-101573000D02*
X173779000Y-102647000D01*
X173739000Y-101740000D02*
X173739000Y-102480000D01*
X177940000Y-102110000D02*
G75*
G02*
X173700000Y-102110000I-2120000J0D01*
G01*
X173700000Y-102110000D02*
G75*
G02*
X177940000Y-102110000I2120000J0D01*
G01*
%TO.C,R1*%
X185116800Y-66236600D02*
X185116800Y-59696600D01*
X185446800Y-66236600D02*
X185116800Y-66236600D01*
X187526800Y-66236600D02*
X187856800Y-66236600D01*
X187856800Y-66236600D02*
X187856800Y-59696600D01*
X185116800Y-59696600D02*
X185446800Y-59696600D01*
X187856800Y-59696600D02*
X187526800Y-59696600D01*
%TO.C,Ra*%
X154878600Y-76399100D02*
X154878600Y-82939100D01*
X154548600Y-76399100D02*
X154878600Y-76399100D01*
X152468600Y-76399100D02*
X152138600Y-76399100D01*
X152138600Y-76399100D02*
X152138600Y-82939100D01*
X154878600Y-82939100D02*
X154548600Y-82939100D01*
X152138600Y-82939100D02*
X152468600Y-82939100D01*
%TO.C,Rm*%
X159849600Y-82906600D02*
X159849600Y-76366600D01*
X160179600Y-82906600D02*
X159849600Y-82906600D01*
X162259600Y-82906600D02*
X162589600Y-82906600D01*
X162589600Y-82906600D02*
X162589600Y-76366600D01*
X159849600Y-76366600D02*
X160179600Y-76366600D01*
X162589600Y-76366600D02*
X162259600Y-76366600D01*
%TO.C,S1*%
X190658200Y-113686700D02*
X194595200Y-113712100D01*
X194595200Y-113686700D02*
X194595200Y-103729900D01*
X190658200Y-103729900D02*
X190658200Y-113686700D01*
X194595200Y-103729900D02*
X190658200Y-103729900D01*
%TO.C,NE555*%
X186973700Y-70348800D02*
X192273700Y-70348800D01*
X186973700Y-80628800D02*
X186973700Y-70348800D01*
X188623700Y-80628800D02*
X186973700Y-80628800D01*
X192273700Y-70348800D02*
X192273700Y-80628800D01*
X192273700Y-80628800D02*
X190623700Y-80628800D01*
X188623700Y-80628800D02*
G75*
G02*
X190623700Y-80628800I1000000J0D01*
G01*
%TO.C,CD4017*%
X127420600Y-89031100D02*
X122120600Y-89031100D01*
X127420600Y-68591100D02*
X127420600Y-89031100D01*
X125770600Y-68591100D02*
X127420600Y-68591100D01*
X122120600Y-89031100D02*
X122120600Y-68591100D01*
X122120600Y-68591100D02*
X123770600Y-68591100D01*
X125770600Y-68591100D02*
G75*
G02*
X123770600Y-68591100I-1000000J0D01*
G01*
%TO.C,REF\u002A\u002A*%
X198957700Y-87774700D02*
G75*
G02*
X190957700Y-87774700I-4000000J0D01*
G01*
X190957700Y-87774700D02*
G75*
G02*
X198957700Y-87774700I4000000J0D01*
G01*
%TD*%
M02*
