%TF.GenerationSoftware,KiCad,Pcbnew,8.0.1*%
%TF.CreationDate,2024-04-02T10:37:19+02:00*%
%TF.ProjectId,Smiley,536d696c-6579-42e6-9b69-6361645f7063,rev?*%
%TF.SameCoordinates,Original*%
%TF.FileFunction,Soldermask,Top*%
%TF.FilePolarity,Negative*%
%FSLAX46Y46*%
G04 Gerber Fmt 4.6, Leading zero omitted, Abs format (unit mm)*
G04 Created by KiCad (PCBNEW 8.0.1) date 2024-04-02 10:37:19*
%MOMM*%
%LPD*%
G01*
G04 APERTURE LIST*
G04 Aperture macros list*
%AMRoundRect*
0 Rectangle with rounded corners*
0 $1 Rounding radius*
0 $2 $3 $4 $5 $6 $7 $8 $9 X,Y pos of 4 corners*
0 Add a 4 corners polygon primitive as box body*
4,1,4,$2,$3,$4,$5,$6,$7,$8,$9,$2,$3,0*
0 Add four circle primitives for the rounded corners*
1,1,$1+$1,$2,$3*
1,1,$1+$1,$4,$5*
1,1,$1+$1,$6,$7*
1,1,$1+$1,$8,$9*
0 Add four rect primitives between the rounded corners*
20,1,$1+$1,$2,$3,$4,$5,0*
20,1,$1+$1,$4,$5,$6,$7,0*
20,1,$1+$1,$6,$7,$8,$9,0*
20,1,$1+$1,$8,$9,$2,$3,0*%
G04 Aperture macros list end*
%ADD10RoundRect,0.200000X-0.900000X-0.900000X0.900000X-0.900000X0.900000X0.900000X-0.900000X0.900000X0*%
%ADD11C,2.200000*%
%ADD12RoundRect,0.200000X0.600000X0.600000X-0.600000X0.600000X-0.600000X-0.600000X0.600000X-0.600000X0*%
%ADD13C,1.600000*%
%ADD14C,2.000000*%
%ADD15O,2.000000X2.000000*%
%ADD16C,2.400000*%
%ADD17RoundRect,0.200000X-0.800000X-0.800000X0.800000X-0.800000X0.800000X0.800000X-0.800000X0.800000X0*%
%ADD18RoundRect,0.200000X0.800000X0.800000X-0.800000X0.800000X-0.800000X-0.800000X0.800000X-0.800000X0*%
%ADD19C,1.924000*%
G04 APERTURE END LIST*
D10*
%TO.C,D1*%
X156858600Y-122139100D03*
D11*
X159398600Y-122139100D03*
%TD*%
D10*
%TO.C,D2*%
X164348600Y-121189100D03*
D11*
X166888600Y-121189100D03*
%TD*%
D10*
%TO.C,D3*%
X170938600Y-118929100D03*
D11*
X173478600Y-118929100D03*
%TD*%
D10*
%TO.C,D4*%
X176668600Y-115279100D03*
D11*
X179208600Y-115279100D03*
%TD*%
D10*
%TO.C,D5*%
X181448600Y-110399100D03*
D11*
X183988600Y-110399100D03*
%TD*%
D10*
%TO.C,D6*%
X185476600Y-104592100D03*
D11*
X188016600Y-104592100D03*
%TD*%
D10*
%TO.C,D7*%
X188758600Y-98623100D03*
D11*
X191298600Y-98623100D03*
%TD*%
D10*
%TO.C,D8*%
X174681600Y-74874100D03*
D11*
X177221600Y-74874100D03*
%TD*%
D10*
%TO.C,D22*%
X149278600Y-121189100D03*
D11*
X151818600Y-121189100D03*
%TD*%
D10*
%TO.C,D33*%
X142638600Y-118889100D03*
D11*
X145178600Y-118889100D03*
%TD*%
D10*
%TO.C,D44*%
X136948600Y-115229100D03*
D11*
X139488600Y-115229100D03*
%TD*%
D10*
%TO.C,D55*%
X132258600Y-110399100D03*
D11*
X134798600Y-110399100D03*
%TD*%
D10*
%TO.C,D66*%
X128198600Y-104489100D03*
D11*
X130738600Y-104489100D03*
%TD*%
D10*
%TO.C,D77*%
X124808600Y-98669100D03*
D11*
X127348600Y-98669100D03*
%TD*%
D10*
%TO.C,D88*%
X145148600Y-75139100D03*
D11*
X147688600Y-75139100D03*
%TD*%
D12*
%TO.C,C1*%
X176820000Y-102110000D03*
D13*
X174820000Y-102110000D03*
%TD*%
D14*
%TO.C,R1*%
X186486800Y-66776600D03*
D15*
X186486800Y-59156600D03*
%TD*%
D14*
%TO.C,Ra*%
X153508600Y-75859100D03*
D15*
X153508600Y-83479100D03*
%TD*%
D14*
%TO.C,Rm*%
X161219600Y-83446600D03*
D15*
X161219600Y-75826600D03*
%TD*%
D16*
%TO.C,S1*%
X192588600Y-111299100D03*
X192588600Y-108759100D03*
X192588600Y-106219100D03*
%TD*%
D17*
%TO.C,NE555*%
X185813700Y-79298800D03*
D15*
X185813700Y-76758800D03*
X185813700Y-74218800D03*
X185813700Y-71678800D03*
X193433700Y-71678800D03*
X193433700Y-74218800D03*
X193433700Y-76758800D03*
X193433700Y-79298800D03*
%TD*%
D18*
%TO.C,CD4017*%
X128580600Y-69921100D03*
D15*
X128580600Y-72461100D03*
X128580600Y-75001100D03*
X128580600Y-77541100D03*
X128580600Y-80081100D03*
X128580600Y-82621100D03*
X128580600Y-85161100D03*
X128580600Y-87701100D03*
X120960600Y-87701100D03*
X120960600Y-85161100D03*
X120960600Y-82621100D03*
X120960600Y-80081100D03*
X120960600Y-77541100D03*
X120960600Y-75001100D03*
X120960600Y-72461100D03*
X120960600Y-69921100D03*
%TD*%
D19*
%TO.C,REF\u002A\u002A*%
X197497700Y-85864700D03*
X192417700Y-85864700D03*
X194957700Y-90944700D03*
%TD*%
M02*
