%TF.GenerationSoftware,KiCad,Pcbnew,8.0.1*%
%TF.CreationDate,2024-04-04T11:08:31+02:00*%
%TF.ProjectId,Smiley,536d696c-6579-42e6-9b69-6361645f7063,rev?*%
%TF.SameCoordinates,Original*%
%TF.FileFunction,Soldermask,Bot*%
%TF.FilePolarity,Negative*%
%FSLAX46Y46*%
G04 Gerber Fmt 4.6, Leading zero omitted, Abs format (unit mm)*
G04 Created by KiCad (PCBNEW 8.0.1) date 2024-04-04 11:08:31*
%MOMM*%
%LPD*%
G01*
G04 APERTURE LIST*
G04 Aperture macros list*
%AMRoundRect*
0 Rectangle with rounded corners*
0 $1 Rounding radius*
0 $2 $3 $4 $5 $6 $7 $8 $9 X,Y pos of 4 corners*
0 Add a 4 corners polygon primitive as box body*
4,1,4,$2,$3,$4,$5,$6,$7,$8,$9,$2,$3,0*
0 Add four circle primitives for the rounded corners*
1,1,$1+$1,$2,$3*
1,1,$1+$1,$4,$5*
1,1,$1+$1,$6,$7*
1,1,$1+$1,$8,$9*
0 Add four rect primitives between the rounded corners*
20,1,$1+$1,$2,$3,$4,$5,0*
20,1,$1+$1,$4,$5,$6,$7,0*
20,1,$1+$1,$6,$7,$8,$9,0*
20,1,$1+$1,$8,$9,$2,$3,0*%
G04 Aperture macros list end*
%ADD10C,0.300000*%
%ADD11RoundRect,0.200000X-0.900000X-0.900000X0.900000X-0.900000X0.900000X0.900000X-0.900000X0.900000X0*%
%ADD12C,2.200000*%
%ADD13RoundRect,0.200000X0.600000X0.600000X-0.600000X0.600000X-0.600000X-0.600000X0.600000X-0.600000X0*%
%ADD14C,1.600000*%
%ADD15C,2.000000*%
%ADD16O,2.000000X2.000000*%
%ADD17C,2.400000*%
%ADD18RoundRect,0.200000X-0.800000X-0.800000X0.800000X-0.800000X0.800000X0.800000X-0.800000X0.800000X0*%
%ADD19RoundRect,0.200000X0.800000X0.800000X-0.800000X0.800000X-0.800000X-0.800000X0.800000X-0.800000X0*%
%ADD20C,11.400000*%
%ADD21C,1.924000*%
%ADD22RoundRect,0.200000X-2.500000X-1.000000X2.500000X-1.000000X2.500000X1.000000X-2.500000X1.000000X0*%
%ADD23C,18.180000*%
G04 APERTURE END LIST*
D10*
X164445489Y-98800828D02*
X164445489Y-97300828D01*
X163588346Y-98800828D02*
X164231203Y-97943685D01*
X163588346Y-97300828D02*
X164445489Y-98157971D01*
X162945489Y-98800828D02*
X162945489Y-97300828D01*
X162945489Y-98015114D02*
X162088346Y-98015114D01*
X162088346Y-98800828D02*
X162088346Y-97300828D01*
X160874060Y-98015114D02*
X161374060Y-98015114D01*
X161374060Y-98800828D02*
X161374060Y-97300828D01*
X161374060Y-97300828D02*
X160659774Y-97300828D01*
X158659774Y-97300828D02*
X158516917Y-97300828D01*
X158516917Y-97300828D02*
X158374060Y-97372257D01*
X158374060Y-97372257D02*
X158302632Y-97443685D01*
X158302632Y-97443685D02*
X158231203Y-97586542D01*
X158231203Y-97586542D02*
X158159774Y-97872257D01*
X158159774Y-97872257D02*
X158159774Y-98229400D01*
X158159774Y-98229400D02*
X158231203Y-98515114D01*
X158231203Y-98515114D02*
X158302632Y-98657971D01*
X158302632Y-98657971D02*
X158374060Y-98729400D01*
X158374060Y-98729400D02*
X158516917Y-98800828D01*
X158516917Y-98800828D02*
X158659774Y-98800828D01*
X158659774Y-98800828D02*
X158802632Y-98729400D01*
X158802632Y-98729400D02*
X158874060Y-98657971D01*
X158874060Y-98657971D02*
X158945489Y-98515114D01*
X158945489Y-98515114D02*
X159016917Y-98229400D01*
X159016917Y-98229400D02*
X159016917Y-97872257D01*
X159016917Y-97872257D02*
X158945489Y-97586542D01*
X158945489Y-97586542D02*
X158874060Y-97443685D01*
X158874060Y-97443685D02*
X158802632Y-97372257D01*
X158802632Y-97372257D02*
X158659774Y-97300828D01*
X156874061Y-97800828D02*
X156874061Y-98800828D01*
X157231203Y-97229400D02*
X157588346Y-98300828D01*
X157588346Y-98300828D02*
X156659775Y-98300828D01*
X156088347Y-98657971D02*
X156016918Y-98729400D01*
X156016918Y-98729400D02*
X156088347Y-98800828D01*
X156088347Y-98800828D02*
X156159775Y-98729400D01*
X156159775Y-98729400D02*
X156088347Y-98657971D01*
X156088347Y-98657971D02*
X156088347Y-98800828D01*
X155445489Y-97443685D02*
X155374061Y-97372257D01*
X155374061Y-97372257D02*
X155231204Y-97300828D01*
X155231204Y-97300828D02*
X154874061Y-97300828D01*
X154874061Y-97300828D02*
X154731204Y-97372257D01*
X154731204Y-97372257D02*
X154659775Y-97443685D01*
X154659775Y-97443685D02*
X154588346Y-97586542D01*
X154588346Y-97586542D02*
X154588346Y-97729400D01*
X154588346Y-97729400D02*
X154659775Y-97943685D01*
X154659775Y-97943685D02*
X155516918Y-98800828D01*
X155516918Y-98800828D02*
X154588346Y-98800828D01*
X153659775Y-97300828D02*
X153516918Y-97300828D01*
X153516918Y-97300828D02*
X153374061Y-97372257D01*
X153374061Y-97372257D02*
X153302633Y-97443685D01*
X153302633Y-97443685D02*
X153231204Y-97586542D01*
X153231204Y-97586542D02*
X153159775Y-97872257D01*
X153159775Y-97872257D02*
X153159775Y-98229400D01*
X153159775Y-98229400D02*
X153231204Y-98515114D01*
X153231204Y-98515114D02*
X153302633Y-98657971D01*
X153302633Y-98657971D02*
X153374061Y-98729400D01*
X153374061Y-98729400D02*
X153516918Y-98800828D01*
X153516918Y-98800828D02*
X153659775Y-98800828D01*
X153659775Y-98800828D02*
X153802633Y-98729400D01*
X153802633Y-98729400D02*
X153874061Y-98657971D01*
X153874061Y-98657971D02*
X153945490Y-98515114D01*
X153945490Y-98515114D02*
X154016918Y-98229400D01*
X154016918Y-98229400D02*
X154016918Y-97872257D01*
X154016918Y-97872257D02*
X153945490Y-97586542D01*
X153945490Y-97586542D02*
X153874061Y-97443685D01*
X153874061Y-97443685D02*
X153802633Y-97372257D01*
X153802633Y-97372257D02*
X153659775Y-97300828D01*
X152588347Y-97443685D02*
X152516919Y-97372257D01*
X152516919Y-97372257D02*
X152374062Y-97300828D01*
X152374062Y-97300828D02*
X152016919Y-97300828D01*
X152016919Y-97300828D02*
X151874062Y-97372257D01*
X151874062Y-97372257D02*
X151802633Y-97443685D01*
X151802633Y-97443685D02*
X151731204Y-97586542D01*
X151731204Y-97586542D02*
X151731204Y-97729400D01*
X151731204Y-97729400D02*
X151802633Y-97943685D01*
X151802633Y-97943685D02*
X152659776Y-98800828D01*
X152659776Y-98800828D02*
X151731204Y-98800828D01*
X150445491Y-97800828D02*
X150445491Y-98800828D01*
X150802633Y-97229400D02*
X151159776Y-98300828D01*
X151159776Y-98300828D02*
X150231205Y-98300828D01*
D11*
%TO.C,D1*%
X156858600Y-122139100D03*
D12*
X159398600Y-122139100D03*
%TD*%
D11*
%TO.C,D2*%
X164348600Y-121189100D03*
D12*
X166888600Y-121189100D03*
%TD*%
D11*
%TO.C,D3*%
X170938600Y-118929100D03*
D12*
X173478600Y-118929100D03*
%TD*%
D11*
%TO.C,D4*%
X176668600Y-115279100D03*
D12*
X179208600Y-115279100D03*
%TD*%
D11*
%TO.C,D5*%
X181448600Y-110399100D03*
D12*
X183988600Y-110399100D03*
%TD*%
D11*
%TO.C,D6*%
X185476600Y-104592100D03*
D12*
X188016600Y-104592100D03*
%TD*%
D11*
%TO.C,D7*%
X188758600Y-98623100D03*
D12*
X191298600Y-98623100D03*
%TD*%
D11*
%TO.C,D8*%
X174681600Y-74874100D03*
D12*
X177221600Y-74874100D03*
%TD*%
D11*
%TO.C,D22*%
X149278600Y-121189100D03*
D12*
X151818600Y-121189100D03*
%TD*%
D11*
%TO.C,D33*%
X142638600Y-118889100D03*
D12*
X145178600Y-118889100D03*
%TD*%
D11*
%TO.C,D44*%
X136948600Y-115229100D03*
D12*
X139488600Y-115229100D03*
%TD*%
D11*
%TO.C,D55*%
X132258600Y-110399100D03*
D12*
X134798600Y-110399100D03*
%TD*%
D11*
%TO.C,D66*%
X128198600Y-104489100D03*
D12*
X130738600Y-104489100D03*
%TD*%
D11*
%TO.C,D77*%
X124808600Y-98669100D03*
D12*
X127348600Y-98669100D03*
%TD*%
D11*
%TO.C,D88*%
X145148600Y-75139100D03*
D12*
X147688600Y-75139100D03*
%TD*%
D13*
%TO.C,C1*%
X183000000Y-88000000D03*
D14*
X181000000Y-88000000D03*
%TD*%
D15*
%TO.C,R1*%
X185500000Y-66500000D03*
D16*
X193120000Y-66500000D03*
%TD*%
D15*
%TO.C,Ra*%
X153508600Y-75859100D03*
D16*
X153508600Y-83479100D03*
%TD*%
D15*
%TO.C,Rm*%
X161219600Y-83446600D03*
D16*
X161219600Y-75826600D03*
%TD*%
D17*
%TO.C,S1*%
X192588600Y-111299100D03*
X192588600Y-108759100D03*
X192588600Y-106219100D03*
%TD*%
D18*
%TO.C,NE555*%
X185813700Y-79298800D03*
D16*
X185813700Y-76758800D03*
X185813700Y-74218800D03*
X185813700Y-71678800D03*
X193433700Y-71678800D03*
X193433700Y-74218800D03*
X193433700Y-76758800D03*
X193433700Y-79298800D03*
%TD*%
D19*
%TO.C,CD4017*%
X128580600Y-69921100D03*
D16*
X128580600Y-72461100D03*
X128580600Y-75001100D03*
X128580600Y-77541100D03*
X128580600Y-80081100D03*
X128580600Y-82621100D03*
X128580600Y-85161100D03*
X128580600Y-87701100D03*
X120960600Y-87701100D03*
X120960600Y-85161100D03*
X120960600Y-82621100D03*
X120960600Y-80081100D03*
X120960600Y-77541100D03*
X120960600Y-75001100D03*
X120960600Y-72461100D03*
X120960600Y-69921100D03*
%TD*%
D20*
%TO.C,LP*%
X157000000Y-49379100D03*
%TD*%
D21*
%TO.C,REF\u002A\u002A*%
X197497700Y-85864700D03*
X192417700Y-85864700D03*
X194957700Y-90944700D03*
%TD*%
D22*
%TO.C,BAT-HLD-002*%
X128046000Y-57968000D03*
X128046000Y-61524000D03*
X153940000Y-57968000D03*
X153940000Y-61524000D03*
D23*
X141000000Y-60000000D03*
%TD*%
D22*
%TO.C,BAT-HLD-002*%
X160546000Y-57968000D03*
X160546000Y-61524000D03*
X186440000Y-57968000D03*
X186440000Y-61524000D03*
D23*
X173500000Y-60000000D03*
%TD*%
M02*
